<?xml version="1.0" encoding="utf-8"?>
<!-- Generator: Adobe Illustrator 16.0.3, SVG Export Plug-In . SVG Version: 6.00 Build 0)  -->
<!DOCTYPE svg PUBLIC "-//W3C//DTD SVG 1.1//EN" "http://www.w3.org/Graphics/SVG/1.1/DTD/svg11.dtd">
<svg version="1.1" xmlns="http://www.w3.org/2000/svg" xmlns:xlink="http://www.w3.org/1999/xlink" x="0px" y="0px" width="1000px"
	 height="141.115px" viewBox="0 0 1000 141.115" enable-background="new 0 0 1000 141.115" xml:space="preserve">
<g id="Layer_1" display="none">
	<g display="inline">
		<g>
			<polygon id="SVGID_1_" fill="#323232" points="93.32,123.836 99.212,123.836 99.212,74.61 93.32,74.61 93.32,73.28 
				116.698,73.28 116.698,74.61 110.616,74.61 110.616,97.038 129.813,97.038 129.813,74.61 123.73,74.61 123.73,73.28 
				147.108,73.28 147.108,74.61 141.216,74.61 141.216,123.836 147.108,123.836 147.108,125.166 123.73,125.166 123.73,123.836 
				129.813,123.836 129.813,98.368 110.616,98.368 110.616,123.836 116.698,123.836 116.698,125.166 93.32,125.166 			"/>
		</g>
		<g>
			<defs>
				<polygon id="SVGID_59_" points="93.32,123.836 99.212,123.836 99.212,74.61 93.32,74.61 93.32,73.28 116.698,73.28 
					116.698,74.61 110.616,74.61 110.616,97.038 129.813,97.038 129.813,74.61 123.73,74.61 123.73,73.28 147.108,73.28 
					147.108,74.61 141.216,74.61 141.216,123.836 147.108,123.836 147.108,125.166 123.73,125.166 123.73,123.836 129.813,123.836 
					129.813,98.368 110.616,98.368 110.616,123.836 116.698,123.836 116.698,125.166 93.32,125.166 				"/>
			</defs>
			<use xlink:href="#SVGID_59_"  overflow="visible" fill="#323232"/>
			<clipPath id="SVGID_60_">
				<use xlink:href="#SVGID_59_"  overflow="visible"/>
			</clipPath>
			<rect x="83.817" y="63.776" clip-path="url(#SVGID_60_)" fill="#323232" width="72.794" height="70.705"/>
		</g>
	</g>
	<g display="inline">
		<g>
			<path id="SVGID_3_" fill="#323232" d="M172.576,123.836h3.421c7.413,0,11.404-3.803,11.404-12.734
				c0-7.793-3.801-12.543-10.264-12.543h-4.562L172.576,123.836L172.576,123.836z M172.576,97.038h3.992
				c4.371,0,9.123-2.852,9.123-10.454c0-8.554-3.041-12.164-9.313-12.164h-3.801L172.576,97.038L172.576,97.038z M156.421,123.836
				h4.942V74.609h-4.942v-1.33h23.378c8.173,0,17.105,3.611,17.105,12.164c0,7.792-7.982,11.213-15.015,11.784v0.19
				c10.073,0,18.056,4.752,18.056,13.495c0,8.172-7.222,14.064-20.907,14.064H156.42L156.421,123.836L156.421,123.836z"/>
		</g>
		<g>
			<defs>
				<path id="SVGID_61_" d="M172.576,123.836h3.421c7.413,0,11.404-3.803,11.404-12.734c0-7.793-3.801-12.543-10.264-12.543h-4.562
					L172.576,123.836L172.576,123.836z M172.576,97.038h3.992c4.371,0,9.123-2.852,9.123-10.454c0-8.554-3.041-12.164-9.313-12.164
					h-3.801L172.576,97.038L172.576,97.038z M156.421,123.836h4.942V74.609h-4.942v-1.33h23.378c8.173,0,17.105,3.611,17.105,12.164
					c0,7.792-7.982,11.213-15.015,11.784v0.19c10.073,0,18.056,4.752,18.056,13.495c0,8.172-7.222,14.064-20.907,14.064H156.42
					L156.421,123.836L156.421,123.836z"/>
			</defs>
			<use xlink:href="#SVGID_61_"  overflow="visible" fill="#323232"/>
			<clipPath id="SVGID_62_">
				<use xlink:href="#SVGID_61_"  overflow="visible"/>
			</clipPath>
			<rect x="146.918" y="63.776" clip-path="url(#SVGID_62_)" fill="#323232" width="62.34" height="70.705"/>
		</g>
	</g>
	<g display="inline">
		<g>
			<path id="SVGID_5_" fill="#323232" d="M230.165,107.49l-6.272-18.245h-0.19l-6.462,18.245H230.165z M205.457,123.836h0.95
				c2.661-0.189,3.992-1.9,4.942-4.371l16.726-46.186h1.14l19.196,50.557h3.611v1.33h-21.287v-1.33h5.702l-5.322-15.016H217.24
				l-3.421,10.074c-0.19,0.568-0.57,1.33-0.57,2.09c0,2.281,2.091,2.66,3.421,2.66h2.09v1.332h-12.924v-1.141H205.457
				L205.457,123.836z"/>
		</g>
		<g>
			<defs>
				<path id="SVGID_63_" d="M230.165,107.49l-6.272-18.245h-0.19l-6.462,18.245H230.165z M205.457,123.836h0.95
					c2.661-0.189,3.992-1.9,4.942-4.371l16.726-46.186h1.14l19.196,50.557h3.611v1.33h-21.287v-1.33h5.702l-5.322-15.016H217.24
					l-3.421,10.074c-0.19,0.568-0.57,1.33-0.57,2.09c0,2.281,2.091,2.66,3.421,2.66h2.09v1.332h-12.924v-1.141H205.457
					L205.457,123.836z"/>
			</defs>
			<use xlink:href="#SVGID_63_"  overflow="visible" fill="#323232"/>
			<clipPath id="SVGID_64_">
				<use xlink:href="#SVGID_63_"  overflow="visible"/>
			</clipPath>
			<rect x="195.954" y="63.776" clip-path="url(#SVGID_64_)" fill="#323232" width="65.191" height="70.705"/>
		</g>
	</g>
	<g display="inline">
		<g>
			<polygon id="SVGID_7_" fill="#323232" points="31.931,89.815 31.931,75.18 46.565,75.18 			"/>
		</g>
		<g>
			<defs>
				<polygon id="SVGID_65_" points="31.931,89.815 31.931,75.18 46.565,75.18 				"/>
			</defs>
			<use xlink:href="#SVGID_65_"  overflow="visible" fill="#323232"/>
			<clipPath id="SVGID_66_">
				<use xlink:href="#SVGID_65_"  overflow="visible"/>
			</clipPath>
			<rect x="22.427" y="65.677" clip-path="url(#SVGID_66_)" fill="#323232" width="33.641" height="33.641"/>
		</g>
	</g>
	<g display="inline">
		<g>
			<rect id="SVGID_9_" x="15.395" y="75.18" fill="#323232" width="14.635" height="14.635"/>
		</g>
		<g>
			<defs>
				<rect id="SVGID_67_" x="15.395" y="75.18" width="14.635" height="14.635"/>
			</defs>
			<use xlink:href="#SVGID_67_"  overflow="visible" fill="#323232"/>
			<clipPath id="SVGID_68_">
				<use xlink:href="#SVGID_67_"  overflow="visible"/>
			</clipPath>
			<rect x="5.892" y="65.677" clip-path="url(#SVGID_68_)" fill="#323232" width="33.641" height="33.641"/>
		</g>
	</g>
	<g display="inline">
		<g>
			<rect id="SVGID_11_" x="48.466" y="75.18" fill="#323232" width="14.635" height="14.635"/>
		</g>
		<g>
			<defs>
				<rect id="SVGID_69_" x="48.466" y="75.18" width="14.635" height="14.635"/>
			</defs>
			<use xlink:href="#SVGID_69_"  overflow="visible" fill="#323232"/>
			<clipPath id="SVGID_70_">
				<use xlink:href="#SVGID_69_"  overflow="visible"/>
			</clipPath>
			<rect x="38.963" y="65.677" clip-path="url(#SVGID_70_)" fill="#323232" width="33.641" height="33.641"/>
		</g>
	</g>
	<g display="inline">
		<g>
			<path id="SVGID_13_" fill="#323232" d="M39.343,59.786c-3.991,0-7.412,3.23-7.412,7.412v6.082h14.635v-6.082
				C46.565,63.016,43.334,59.786,39.343,59.786"/>
		</g>
		<g>
			<defs>
				<path id="SVGID_71_" d="M39.343,59.786c-3.991,0-7.412,3.23-7.412,7.412v6.082h14.635v-6.082
					C46.565,63.016,43.334,59.786,39.343,59.786"/>
			</defs>
			<use xlink:href="#SVGID_71_"  overflow="visible" fill="#323232"/>
			<clipPath id="SVGID_72_">
				<use xlink:href="#SVGID_71_"  overflow="visible"/>
			</clipPath>
			<rect x="22.427" y="50.282" clip-path="url(#SVGID_72_)" fill="#323232" width="33.641" height="32.5"/>
		</g>
	</g>
	<g display="inline">
		<g>
			<rect id="SVGID_15_" x="48.466" y="108.441" fill="#323232" width="14.635" height="14.635"/>
		</g>
		<g>
			<defs>
				<rect id="SVGID_73_" x="48.466" y="108.441" width="14.635" height="14.635"/>
			</defs>
			<use xlink:href="#SVGID_73_"  overflow="visible" fill="#323232"/>
			<clipPath id="SVGID_74_">
				<use xlink:href="#SVGID_73_"  overflow="visible"/>
			</clipPath>
			<rect x="38.963" y="98.938" clip-path="url(#SVGID_74_)" fill="#323232" width="33.641" height="33.642"/>
		</g>
	</g>
	<g display="inline">
		<g>
			<polygon id="SVGID_17_" fill="#323232" points="46.565,108.441 46.565,123.076 31.931,123.076 			"/>
		</g>
		<g>
			<defs>
				<polygon id="SVGID_75_" points="46.565,108.441 46.565,123.076 31.931,123.076 				"/>
			</defs>
			<use xlink:href="#SVGID_75_"  overflow="visible" fill="#323232"/>
			<clipPath id="SVGID_76_">
				<use xlink:href="#SVGID_75_"  overflow="visible"/>
			</clipPath>
			<rect x="22.427" y="98.938" clip-path="url(#SVGID_76_)" fill="#323232" width="33.641" height="33.642"/>
		</g>
	</g>
	<g display="inline">
		<g>
			<rect id="SVGID_19_" x="15.395" y="108.441" fill="#323232" width="14.635" height="14.635"/>
		</g>
		<g>
			<defs>
				<rect id="SVGID_77_" x="15.395" y="108.441" width="14.635" height="14.635"/>
			</defs>
			<use xlink:href="#SVGID_77_"  overflow="visible" fill="#323232"/>
			<clipPath id="SVGID_78_">
				<use xlink:href="#SVGID_77_"  overflow="visible"/>
			</clipPath>
			<rect x="5.892" y="98.938" clip-path="url(#SVGID_78_)" fill="#323232" width="33.641" height="33.642"/>
		</g>
	</g>
	<g display="inline">
		<g>
			<path id="SVGID_21_" fill="#323232" d="M39.343,138.66c3.991,0,7.223-3.229,7.223-7.41v-6.082H31.931v6.082
				C31.931,135.24,35.162,138.66,39.343,138.66"/>
		</g>
		<g>
			<defs>
				<path id="SVGID_79_" d="M39.343,138.66c3.991,0,7.223-3.229,7.223-7.41v-6.082H31.931v6.082
					C31.931,135.24,35.162,138.66,39.343,138.66"/>
			</defs>
			<use xlink:href="#SVGID_79_"  overflow="visible" fill="#323232"/>
			<clipPath id="SVGID_80_">
				<use xlink:href="#SVGID_79_"  overflow="visible"/>
			</clipPath>
			<rect x="22.427" y="115.664" clip-path="url(#SVGID_80_)" fill="#323232" width="33.641" height="32.5"/>
		</g>
	</g>
	<g display="inline">
		<g>
			<polygon id="SVGID_23_" fill="#323232" points="48.466,91.906 63.101,91.906 63.101,106.541 			"/>
		</g>
		<g>
			<defs>
				<polygon id="SVGID_81_" points="48.466,91.906 63.101,91.906 63.101,106.541 				"/>
			</defs>
			<use xlink:href="#SVGID_81_"  overflow="visible" fill="#323232"/>
			<clipPath id="SVGID_82_">
				<use xlink:href="#SVGID_81_"  overflow="visible"/>
			</clipPath>
			<rect x="38.963" y="82.403" clip-path="url(#SVGID_82_)" fill="#323232" width="33.641" height="33.642"/>
		</g>
	</g>
	<g display="inline">
		<g>
			<path id="SVGID_25_" fill="#323232" d="M78.496,99.129c0-3.992-3.231-7.413-7.222-7.413h-6.082v14.633h6.082
				C75.265,106.541,78.496,103.309,78.496,99.129"/>
		</g>
		<g>
			<defs>
				<path id="SVGID_83_" d="M78.496,99.129c0-3.992-3.231-7.413-7.222-7.413h-6.082v14.633h6.082
					C75.265,106.541,78.496,103.309,78.496,99.129"/>
			</defs>
			<use xlink:href="#SVGID_83_"  overflow="visible" fill="#323232"/>
			<clipPath id="SVGID_84_">
				<use xlink:href="#SVGID_83_"  overflow="visible"/>
			</clipPath>
			<rect x="55.498" y="82.403" clip-path="url(#SVGID_84_)" fill="#323232" width="32.5" height="33.642"/>
		</g>
	</g>
	<g display="inline">
		<g>
			<polygon id="SVGID_27_" fill="#323232" points="30.03,106.541 15.395,106.541 15.395,91.906 			"/>
		</g>
		<g>
			<defs>
				<polygon id="SVGID_85_" points="30.03,106.541 15.395,106.541 15.395,91.906 				"/>
			</defs>
			<use xlink:href="#SVGID_85_"  overflow="visible" fill="#323232"/>
			<clipPath id="SVGID_86_">
				<use xlink:href="#SVGID_85_"  overflow="visible"/>
			</clipPath>
			<rect x="5.892" y="82.403" clip-path="url(#SVGID_86_)" fill="#323232" width="33.641" height="33.642"/>
		</g>
	</g>
	<g display="inline">
		<g>
			<path id="SVGID_29_" fill="#323232" d="M0,99.129c0,3.992,3.231,7.412,7.222,7.412h6.082V91.906H7.222
				C3.231,91.906,0,95.137,0,99.129"/>
		</g>
		<g>
			<defs>
				<path id="SVGID_87_" d="M0,99.129c0,3.992,3.231,7.412,7.222,7.412h6.082V91.906H7.222C3.231,91.906,0,95.137,0,99.129"/>
			</defs>
			<use xlink:href="#SVGID_87_"  overflow="visible" fill="#323232"/>
			<clipPath id="SVGID_88_">
				<use xlink:href="#SVGID_87_"  overflow="visible"/>
			</clipPath>
			<rect x="-9.503" y="82.403" clip-path="url(#SVGID_88_)" fill="#323232" width="32.5" height="33.642"/>
		</g>
	</g>
	<g display="inline">
		<g>
			<rect id="SVGID_31_" x="31.931" y="91.906" fill="#747474" width="14.635" height="14.635"/>
		</g>
		<g>
			<defs>
				<rect id="SVGID_89_" x="31.931" y="91.906" width="14.635" height="14.635"/>
			</defs>
			<use xlink:href="#SVGID_89_"  overflow="visible" fill="#747474"/>
			<clipPath id="SVGID_90_">
				<use xlink:href="#SVGID_89_"  overflow="visible"/>
			</clipPath>
			<rect x="22.427" y="82.403" clip-path="url(#SVGID_90_)" fill="#747474" width="33.641" height="33.642"/>
		</g>
	</g>
	<g display="inline">
		<g>
			<path id="SVGID_33_" fill="#323232" d="M285.664,106.16v5.701c0,0.191-0.38,11.215-12.354,11.215
				c-5.322,0-8.553-2.66-8.553-7.031c0-4.563,2.851-6.844,8.933-7.604c1.331-0.189,2.471-0.189,3.801-0.381
				C280.722,107.682,283.953,107.49,285.664,106.16z M292.505,121.936c-0.76,0.189-1.33,0.189-1.71,0.189
				c-1.9,0-1.9-1.521-1.9-3.801V98.748c0-7.604-6.652-9.123-12.164-9.123c-8.173,0-12.734,3.99-13.114,11.403v0.381h3.041v-0.189
				c0.38-5.511,3.991-8.743,10.073-8.743c7.603,0,9.123,4.941,9.123,6.272c0,5.13,0,5.892-11.404,6.652
				c-5.512,0.379-12.734,2.09-12.734,10.264c0,6.463,3.991,9.883,11.594,9.883c6.652,0,10.644-3.42,12.354-6.65v0.76
				c0,2.66,0.57,5.133,4.751,5.133c0.57,0,1.14-0.191,1.9-0.191h0.38v-2.66h-0.19V121.936z"/>
		</g>
		<g>
			<defs>
				<path id="SVGID_91_" d="M285.664,106.16v5.701c0,0.191-0.38,11.215-12.354,11.215c-5.322,0-8.553-2.66-8.553-7.031
					c0-4.563,2.851-6.844,8.933-7.604c1.331-0.189,2.471-0.189,3.801-0.381C280.722,107.682,283.953,107.49,285.664,106.16z
					 M292.505,121.936c-0.76,0.189-1.33,0.189-1.71,0.189c-1.9,0-1.9-1.521-1.9-3.801V98.748c0-7.604-6.652-9.123-12.164-9.123
					c-8.173,0-12.734,3.99-13.114,11.403v0.381h3.041v-0.189c0.38-5.511,3.991-8.743,10.073-8.743c7.603,0,9.123,4.941,9.123,6.272
					c0,5.13,0,5.892-11.404,6.652c-5.512,0.379-12.734,2.09-12.734,10.264c0,6.463,3.991,9.883,11.594,9.883
					c6.652,0,10.644-3.42,12.354-6.65v0.76c0,2.66,0.57,5.133,4.751,5.133c0.57,0,1.14-0.191,1.9-0.191h0.38v-2.66h-0.19V121.936z"
					/>
			</defs>
			<use xlink:href="#SVGID_91_"  overflow="visible" fill="#323232"/>
			<clipPath id="SVGID_92_">
				<use xlink:href="#SVGID_91_"  overflow="visible"/>
			</clipPath>
			<rect x="252.212" y="80.312" clip-path="url(#SVGID_92_)" fill="#323232" width="49.986" height="54.928"/>
		</g>
	</g>
	<g display="inline">
		<g>
			<path id="SVGID_35_" fill="#323232" d="M315.123,90.385c-0.189,0-0.38,0-0.57,0c-5.32,0-10.453,2.851-12.164,6.842v-6.652h-3.041
				v34.402h3.041V106.16c0.19-5.131,1.331-7.031,3.802-9.502c2.851-2.851,6.082-3.23,7.791-3.23c0.381,0,0.762,0,1.142,0h0.38
				v-3.041L315.123,90.385L315.123,90.385z"/>
		</g>
		<g>
			<defs>
				<path id="SVGID_93_" d="M315.123,90.385c-0.189,0-0.38,0-0.57,0c-5.32,0-10.453,2.851-12.164,6.842v-6.652h-3.041v34.402h3.041
					V106.16c0.19-5.131,1.331-7.031,3.802-9.502c2.851-2.851,6.082-3.23,7.791-3.23c0.381,0,0.762,0,1.142,0h0.38v-3.041
					L315.123,90.385L315.123,90.385z"/>
			</defs>
			<use xlink:href="#SVGID_93_"  overflow="visible" fill="#323232"/>
			<clipPath id="SVGID_94_">
				<use xlink:href="#SVGID_93_"  overflow="visible"/>
			</clipPath>
			<rect x="289.845" y="80.882" clip-path="url(#SVGID_94_)" fill="#323232" width="35.161" height="53.598"/>
		</g>
	</g>
	<g display="inline">
		<g>
			<path id="SVGID_37_" fill="#323232" d="M346.482,112.432v0.191c-0.76,6.082-5.512,10.264-11.403,10.264
				c-7.981,0-12.733-5.895-12.733-15.586c0-7.412,4.371-14.825,12.733-14.825c6.463,0,10.644,3.421,11.214,8.743v0.189h3.041v-0.381
				c-0.76-7.222-5.893-11.593-14.255-11.593c-9.313,0-15.774,7.222-15.774,17.675c0,8.934,4.182,18.246,15.774,18.246
				c7.793,0,13.495-5.131,14.444-12.924v-0.381h-3.041V112.432z"/>
		</g>
		<g>
			<defs>
				<path id="SVGID_95_" d="M346.482,112.432v0.191c-0.76,6.082-5.512,10.264-11.403,10.264c-7.981,0-12.733-5.895-12.733-15.586
					c0-7.412,4.371-14.825,12.733-14.825c6.463,0,10.644,3.421,11.214,8.743v0.189h3.041v-0.381
					c-0.76-7.222-5.893-11.593-14.255-11.593c-9.313,0-15.774,7.222-15.774,17.675c0,8.934,4.182,18.246,15.774,18.246
					c7.793,0,13.495-5.131,14.444-12.924v-0.381h-3.041V112.432z"/>
			</defs>
			<use xlink:href="#SVGID_95_"  overflow="visible" fill="#323232"/>
			<clipPath id="SVGID_96_">
				<use xlink:href="#SVGID_95_"  overflow="visible"/>
			</clipPath>
			<rect x="309.801" y="80.312" clip-path="url(#SVGID_96_)" fill="#323232" width="49.227" height="54.928"/>
		</g>
	</g>
	<g display="inline">
		<g>
			<path id="SVGID_39_" fill="#323232" d="M372.902,89.815c-5.322,0-9.885,2.852-11.976,7.224V77.461h-3.04v47.515h3.04V106.35
				c0-8.362,4.563-13.874,11.784-13.874c9.313,0,9.313,8.172,9.313,10.833v21.668h3.041v-21.287
				C385.256,99.889,385.256,89.815,372.902,89.815"/>
		</g>
		<g>
			<defs>
				<path id="SVGID_97_" d="M372.902,89.815c-5.322,0-9.885,2.852-11.976,7.224V77.461h-3.04v47.515h3.04V106.35
					c0-8.362,4.563-13.874,11.784-13.874c9.313,0,9.313,8.172,9.313,10.833v21.668h3.041v-21.287
					C385.256,99.889,385.256,89.815,372.902,89.815"/>
			</defs>
			<use xlink:href="#SVGID_97_"  overflow="visible" fill="#323232"/>
			<clipPath id="SVGID_98_">
				<use xlink:href="#SVGID_97_"  overflow="visible"/>
			</clipPath>
			<rect x="348.384" y="67.958" clip-path="url(#SVGID_98_)" fill="#323232" width="46.187" height="66.522"/>
		</g>
	</g>
	<g display="inline">
		<g>
			<rect id="SVGID_41_" x="395.898" y="90.575" fill="#323232" width="3.042" height="34.402"/>
		</g>
		<g>
			<defs>
				<rect id="SVGID_99_" x="395.898" y="90.575" width="3.042" height="34.402"/>
			</defs>
			<use xlink:href="#SVGID_99_"  overflow="visible" fill="#323232"/>
			<clipPath id="SVGID_100_">
				<use xlink:href="#SVGID_99_"  overflow="visible"/>
			</clipPath>
			<rect x="386.396" y="81.072" clip-path="url(#SVGID_100_)" fill="#323232" width="22.047" height="53.409"/>
		</g>
	</g>
	<g display="inline">
		<g>
			<rect id="SVGID_43_" x="395.898" y="77.461" fill="#323232" width="3.042" height="7.413"/>
		</g>
		<g>
			<defs>
				<rect id="SVGID_101_" x="395.898" y="77.461" width="3.042" height="7.413"/>
			</defs>
			<use xlink:href="#SVGID_101_"  overflow="visible" fill="#323232"/>
			<clipPath id="SVGID_102_">
				<use xlink:href="#SVGID_101_"  overflow="visible"/>
			</clipPath>
			<rect x="386.396" y="67.958" clip-path="url(#SVGID_102_)" fill="#323232" width="22.047" height="26.418"/>
		</g>
	</g>
	<g display="inline">
		<g>
			<path id="SVGID_45_" fill="#323232" d="M422.508,93.236v-2.661h-7.412V80.123h-3.041v10.452h-6.271v2.661h6.271v23.377
				c-0.189,2.852,0.57,4.941,1.9,6.271c1.331,1.33,3.421,2.092,6.462,2.092c0.57,0,1.141,0,1.901,0h0.188v-2.662h-0.38
				c-0.38,0-0.76,0-1.141,0c-3.991,0-5.893-0.76-5.893-5.512V93.235L422.508,93.236L422.508,93.236z"/>
		</g>
		<g>
			<defs>
				<path id="SVGID_103_" d="M422.508,93.236v-2.661h-7.412V80.123h-3.041v10.452h-6.271v2.661h6.271v23.377
					c-0.189,2.852,0.57,4.941,1.9,6.271c1.331,1.33,3.421,2.092,6.462,2.092c0.57,0,1.141,0,1.901,0h0.188v-2.662h-0.38
					c-0.38,0-0.76,0-1.141,0c-3.991,0-5.893-0.76-5.893-5.512V93.235L422.508,93.236L422.508,93.236z"/>
			</defs>
			<use xlink:href="#SVGID_103_"  overflow="visible" fill="#323232"/>
			<clipPath id="SVGID_104_">
				<use xlink:href="#SVGID_103_"  overflow="visible"/>
			</clipPath>
			<rect x="396.279" y="70.429" clip-path="url(#SVGID_104_)" fill="#323232" width="35.73" height="64.051"/>
		</g>
	</g>
	<g display="inline">
		<g>
			<path id="SVGID_47_" fill="#323232" d="M443.415,92.476c7.603,0,11.784,6.462,11.974,13.114h-24.138
				C432.011,98.938,436.192,92.476,443.415,92.476 M454.059,93.997c-2.66-2.852-6.271-4.183-10.644-4.183
				c-3.991,0-7.412,1.331-10.073,3.991c-3.23,3.421-5.132,8.744-5.132,14.445c0,5.32,1.521,10.072,4.752,13.305
				c2.66,2.66,6.271,4.182,10.453,4.182c8.173,0,13.494-4.371,14.825-12.545v-0.379h-3.041v0.189
				c-1.142,6.082-5.514,9.883-11.784,9.883c-3.231,0-5.892-1.141-7.982-3.23c-2.66-2.662-3.99-6.842-3.99-11.402h27.179v-0.191
				C458.81,102.17,457.289,97.227,454.059,93.997"/>
		</g>
		<g>
			<defs>
				<path id="SVGID_105_" d="M443.415,92.476c7.603,0,11.784,6.462,11.974,13.114h-24.138
					C432.011,98.938,436.192,92.476,443.415,92.476 M454.059,93.997c-2.66-2.852-6.271-4.183-10.644-4.183
					c-3.991,0-7.412,1.331-10.073,3.991c-3.23,3.421-5.132,8.744-5.132,14.445c0,5.32,1.521,10.072,4.752,13.305
					c2.66,2.66,6.271,4.182,10.453,4.182c8.173,0,13.494-4.371,14.825-12.545v-0.379h-3.041v0.189
					c-1.142,6.082-5.514,9.883-11.784,9.883c-3.231,0-5.892-1.141-7.982-3.23c-2.66-2.662-3.99-6.842-3.99-11.402h27.179v-0.191
					C458.81,102.17,457.289,97.227,454.059,93.997"/>
			</defs>
			<use xlink:href="#SVGID_105_"  overflow="visible" fill="#323232"/>
			<clipPath id="SVGID_106_">
				<use xlink:href="#SVGID_105_"  overflow="visible"/>
			</clipPath>
			<rect x="418.707" y="80.312" clip-path="url(#SVGID_106_)" fill="#323232" width="49.226" height="54.928"/>
		</g>
	</g>
	<g display="inline">
		<g>
			<path id="SVGID_49_" fill="#323232" d="M492.641,112.432v0.191c-0.76,6.082-5.512,10.264-11.402,10.264
				c-7.982,0-12.734-5.895-12.734-15.586c0-7.412,4.372-14.825,12.734-14.825c6.462,0,10.644,3.421,11.022,8.743v0.189h3.041v-0.381
				c-0.76-7.222-5.892-11.593-14.255-11.593c-9.313,0-15.773,7.222-15.773,17.675c0,8.934,4.181,18.246,15.773,18.246
				c7.793,0,13.495-5.131,14.445-12.924v-0.381h-2.853L492.641,112.432L492.641,112.432z"/>
		</g>
		<g>
			<defs>
				<path id="SVGID_107_" d="M492.641,112.432v0.191c-0.76,6.082-5.512,10.264-11.402,10.264c-7.982,0-12.734-5.895-12.734-15.586
					c0-7.412,4.372-14.825,12.734-14.825c6.462,0,10.644,3.421,11.022,8.743v0.189h3.041v-0.381
					c-0.76-7.222-5.892-11.593-14.255-11.593c-9.313,0-15.773,7.222-15.773,17.675c0,8.934,4.181,18.246,15.773,18.246
					c7.793,0,13.495-5.131,14.445-12.924v-0.381h-2.853L492.641,112.432L492.641,112.432z"/>
			</defs>
			<use xlink:href="#SVGID_107_"  overflow="visible" fill="#323232"/>
			<clipPath id="SVGID_108_">
				<use xlink:href="#SVGID_107_"  overflow="visible"/>
			</clipPath>
			<rect x="455.959" y="80.312" clip-path="url(#SVGID_108_)" fill="#323232" width="49.227" height="54.928"/>
		</g>
	</g>
	<g display="inline">
		<g>
			<path id="SVGID_51_" fill="#323232" d="M517.159,93.236v-2.661h-7.412V80.123h-3.041v10.452h-6.272v2.661h6.272v23.377
				c-0.19,2.852,0.569,4.941,1.9,6.271c1.329,1.33,3.421,2.092,6.462,2.092c0.569,0,1.141,0,1.899,0h0.19v-2.662h-0.38
				c-0.381,0-0.762,0-1.142,0c-3.99,0-5.893-0.76-5.893-5.512V93.235L517.159,93.236L517.159,93.236z"/>
		</g>
		<g>
			<defs>
				<path id="SVGID_109_" d="M517.159,93.236v-2.661h-7.412V80.123h-3.041v10.452h-6.272v2.661h6.272v23.377
					c-0.19,2.852,0.569,4.941,1.9,6.271c1.329,1.33,3.421,2.092,6.462,2.092c0.569,0,1.141,0,1.899,0h0.19v-2.662h-0.38
					c-0.381,0-0.762,0-1.142,0c-3.99,0-5.893-0.76-5.893-5.512V93.235L517.159,93.236L517.159,93.236z"/>
			</defs>
			<use xlink:href="#SVGID_109_"  overflow="visible" fill="#323232"/>
			<clipPath id="SVGID_110_">
				<use xlink:href="#SVGID_109_"  overflow="visible"/>
			</clipPath>
			<rect x="490.931" y="70.429" clip-path="url(#SVGID_110_)" fill="#323232" width="35.731" height="64.051"/>
		</g>
	</g>
	<g display="inline">
		<g>
			<path id="SVGID_53_" fill="#323232" d="M548.709,90.575v18.626c0,8.361-4.563,13.873-11.783,13.873
				c-9.313,0-9.313-8.172-9.313-10.832V90.575h-3.041v21.287c0,3.803,0,13.875,12.354,13.875c5.321,0,9.883-2.85,11.975-7.223v6.271
				h3.041v-34.21H548.709z"/>
		</g>
		<g>
			<defs>
				<path id="SVGID_111_" d="M548.709,90.575v18.626c0,8.361-4.563,13.873-11.783,13.873c-9.313,0-9.313-8.172-9.313-10.832V90.575
					h-3.041v21.287c0,3.803,0,13.875,12.354,13.875c5.321,0,9.883-2.85,11.975-7.223v6.271h3.041v-34.21H548.709z"/>
			</defs>
			<use xlink:href="#SVGID_111_"  overflow="visible" fill="#323232"/>
			<clipPath id="SVGID_112_">
				<use xlink:href="#SVGID_111_"  overflow="visible"/>
			</clipPath>
			<rect x="514.878" y="81.072" clip-path="url(#SVGID_112_)" fill="#323232" width="46.187" height="54.167"/>
		</g>
	</g>
	<g display="inline">
		<g>
			<path id="SVGID_55_" fill="#323232" d="M577.599,90.385c-0.189,0-0.38,0-0.569,0c-5.321,0-10.453,2.851-12.164,6.842v-6.652
				h-3.041v34.402h3.041V106.16c0.189-5.131,1.331-7.031,3.802-9.502c2.851-2.851,6.082-3.23,7.792-3.23c0.381,0,0.761,0,1.141,0
				h0.381v-3.041L577.599,90.385L577.599,90.385z"/>
		</g>
		<g>
			<defs>
				<path id="SVGID_113_" d="M577.599,90.385c-0.189,0-0.38,0-0.569,0c-5.321,0-10.453,2.851-12.164,6.842v-6.652h-3.041v34.402
					h3.041V106.16c0.189-5.131,1.331-7.031,3.802-9.502c2.851-2.851,6.082-3.23,7.792-3.23c0.381,0,0.761,0,1.141,0h0.381v-3.041
					L577.599,90.385L577.599,90.385z"/>
			</defs>
			<use xlink:href="#SVGID_113_"  overflow="visible" fill="#323232"/>
			<clipPath id="SVGID_114_">
				<use xlink:href="#SVGID_113_"  overflow="visible"/>
			</clipPath>
			<rect x="552.131" y="80.882" clip-path="url(#SVGID_114_)" fill="#323232" width="35.161" height="53.598"/>
		</g>
	</g>
	<g display="inline">
		<g>
			<path id="SVGID_57_" fill="#323232" d="M596.795,92.476c7.604,0,11.784,6.462,11.974,13.114h-24.138
				C585.392,98.938,589.572,92.476,596.795,92.476 M607.438,93.997c-2.66-2.852-6.271-4.183-10.644-4.183
				c-3.991,0-7.412,1.331-10.073,3.991c-3.23,3.421-5.132,8.744-5.132,14.445c0,5.32,1.521,10.072,4.752,13.305
				c2.661,2.66,6.271,4.182,10.453,4.182c8.173,0,13.494-4.371,14.825-12.545v-0.379h-3.041v0.189
				c-1.141,6.082-5.512,9.883-11.784,9.883c-3.231,0-5.892-1.141-7.981-3.23c-2.661-2.662-3.991-6.842-3.991-11.402H612v-0.191
				C612.19,102.17,610.67,97.227,607.438,93.997"/>
		</g>
		<g>
			<defs>
				<path id="SVGID_115_" d="M596.795,92.476c7.604,0,11.784,6.462,11.974,13.114h-24.138
					C585.392,98.938,589.572,92.476,596.795,92.476 M607.438,93.997c-2.66-2.852-6.271-4.183-10.644-4.183
					c-3.991,0-7.412,1.331-10.073,3.991c-3.23,3.421-5.132,8.744-5.132,14.445c0,5.32,1.521,10.072,4.752,13.305
					c2.661,2.66,6.271,4.182,10.453,4.182c8.173,0,13.494-4.371,14.825-12.545v-0.379h-3.041v0.189
					c-1.141,6.082-5.512,9.883-11.784,9.883c-3.231,0-5.892-1.141-7.981-3.23c-2.661-2.662-3.991-6.842-3.991-11.402H612v-0.191
					C612.19,102.17,610.67,97.227,607.438,93.997"/>
			</defs>
			<use xlink:href="#SVGID_115_"  overflow="visible" fill="#323232"/>
			<clipPath id="SVGID_116_">
				<use xlink:href="#SVGID_115_"  overflow="visible"/>
			</clipPath>
			<rect x="572.087" y="80.312" clip-path="url(#SVGID_116_)" fill="#323232" width="49.228" height="54.928"/>
		</g>
	</g>
</g>
<g id="Layer_2">
	<g>
		<g>
			<g>
				<polygon id="SVGID_58_" fill="#FFFFFF" points="153.183,111.137 162.791,111.137 162.791,30.864 153.183,30.864 153.183,28.695 
					191.305,28.695 191.305,30.864 181.387,30.864 181.387,67.436 212.69,67.436 212.69,30.864 202.772,30.864 202.772,28.695 
					240.893,28.695 240.893,30.864 231.285,30.864 231.285,111.137 240.893,111.137 240.893,113.305 202.772,113.305 
					202.772,111.137 212.69,111.137 212.69,69.605 181.387,69.605 181.387,111.137 191.305,111.137 191.305,113.305 
					153.183,113.305 				"/>
			</g>
			<g>
				<defs>
					<polygon id="SVGID_117_" points="153.183,111.137 162.791,111.137 162.791,30.864 153.183,30.864 153.183,28.695 
						191.305,28.695 191.305,30.864 181.387,30.864 181.387,67.436 212.69,67.436 212.69,30.864 202.772,30.864 202.772,28.695 
						240.893,28.695 240.893,30.864 231.285,30.864 231.285,111.137 240.893,111.137 240.893,113.305 202.772,113.305 
						202.772,111.137 212.69,111.137 212.69,69.605 181.387,69.605 181.387,111.137 191.305,111.137 191.305,113.305 
						153.183,113.305 					"/>
				</defs>
				<use xlink:href="#SVGID_117_"  overflow="visible" fill="#FFFFFF"/>
				<clipPath id="SVGID_118_">
					<use xlink:href="#SVGID_117_"  overflow="visible"/>
				</clipPath>
				<rect x="137.686" y="13.197" clip-path="url(#SVGID_118_)" fill="#FFFFFF" width="118.705" height="115.295"/>
			</g>
		</g>
	</g>
	<g>
		<g>
			<g>
				<path id="SVGID_56_" fill="#FFFFFF" d="M282.424,111.137h5.578c12.088,0,18.596-6.202,18.596-20.767
					c0-12.707-6.198-20.455-16.737-20.455h-7.438v41.221H282.424z M282.424,67.436h6.51c7.128,0,14.876-4.65,14.876-17.047
					c0-13.949-4.958-19.836-15.187-19.836h-6.198v36.883H282.424z M256.08,111.137h8.06V30.862h-8.06v-2.169h38.122
					c13.329,0,27.893,5.889,27.893,19.835c0,12.706-13.017,18.285-24.485,19.216v0.311c16.426,0,29.444,7.749,29.444,22.005
					c0,13.327-11.777,22.935-34.092,22.935h-36.883v-1.858H256.08z"/>
			</g>
			<g>
				<defs>
					<path id="SVGID_119_" d="M282.424,111.137h5.578c12.088,0,18.596-6.202,18.596-20.767c0-12.707-6.198-20.455-16.737-20.455
						h-7.438v41.221H282.424z M282.424,67.436h6.51c7.128,0,14.876-4.65,14.876-17.047c0-13.949-4.958-19.836-15.187-19.836h-6.198
						v36.883H282.424z M256.08,111.137h8.06V30.862h-8.06v-2.169h38.122c13.329,0,27.893,5.889,27.893,19.835
						c0,12.706-13.017,18.285-24.485,19.216v0.311c16.426,0,29.444,7.749,29.444,22.005c0,13.327-11.777,22.935-34.092,22.935
						h-36.883v-1.858H256.08z"/>
				</defs>
				<use xlink:href="#SVGID_119_"  overflow="visible" fill="#FFFFFF"/>
				<clipPath id="SVGID_120_">
					<use xlink:href="#SVGID_119_"  overflow="visible"/>
				</clipPath>
				<rect x="240.584" y="13.197" clip-path="url(#SVGID_120_)" fill="#FFFFFF" width="101.656" height="115.295"/>
			</g>
		</g>
	</g>
	<g>
		<g>
			<g>
				<path id="SVGID_54_" fill="#FFFFFF" d="M376.333,84.482L366.104,54.73h-0.31l-10.537,29.752H376.333z M336.042,111.137h1.549
					c4.34-0.312,6.509-3.1,8.061-7.13l27.273-75.313h1.858l31.304,82.443h5.887v2.168h-34.712v-2.168h9.3l-8.679-24.487h-22.626
					l-5.58,16.428c-0.31,0.928-0.929,2.169-0.929,3.407c0,3.721,3.41,4.34,5.578,4.34h3.408v2.171h-21.075v-1.86h-0.617V111.137z"/>
			</g>
			<g>
				<defs>
					<path id="SVGID_121_" d="M376.333,84.482L366.104,54.73h-0.31l-10.537,29.752H376.333z M336.042,111.137h1.549
						c4.34-0.312,6.509-3.1,8.061-7.13l27.273-75.313h1.858l31.304,82.443h5.887v2.168h-34.712v-2.168h9.3l-8.679-24.487h-22.626
						l-5.58,16.428c-0.31,0.928-0.929,2.169-0.929,3.407c0,3.721,3.41,4.34,5.578,4.34h3.408v2.171h-21.075v-1.86h-0.617V111.137z"
						/>
				</defs>
				<use xlink:href="#SVGID_121_"  overflow="visible" fill="#FFFFFF"/>
				<clipPath id="SVGID_122_">
					<use xlink:href="#SVGID_121_"  overflow="visible"/>
				</clipPath>
				<rect x="320.546" y="13.197" clip-path="url(#SVGID_122_)" fill="#FFFFFF" width="106.304" height="115.295"/>
			</g>
		</g>
	</g>
	<g>
		<g>
			<g>
				<polygon id="SVGID_52_" fill="#FFFFFF" points="53.078,55.658 53.078,31.794 76.94,31.794 				"/>
			</g>
			<g>
				<defs>
					<polygon id="SVGID_123_" points="53.078,55.658 53.078,31.794 76.94,31.794 					"/>
				</defs>
				<use xlink:href="#SVGID_123_"  overflow="visible" fill="#FFFFFF"/>
				<clipPath id="SVGID_124_">
					<use xlink:href="#SVGID_123_"  overflow="visible"/>
				</clipPath>
				<rect x="37.579" y="16.298" clip-path="url(#SVGID_124_)" fill="#FFFFFF" width="54.858" height="54.856"/>
			</g>
		</g>
	</g>
	<g>
		<g>
			<g>
				<rect id="SVGID_50_" x="26.112" y="31.794" fill="#FFFFFF" width="23.865" height="23.864"/>
			</g>
			<g>
				<defs>
					<rect id="SVGID_125_" x="26.112" y="31.794" width="23.865" height="23.864"/>
				</defs>
				<use xlink:href="#SVGID_125_"  overflow="visible" fill="#FFFFFF"/>
				<clipPath id="SVGID_126_">
					<use xlink:href="#SVGID_125_"  overflow="visible"/>
				</clipPath>
				<rect x="10.616" y="16.298" clip-path="url(#SVGID_126_)" fill="#FFFFFF" width="54.858" height="54.856"/>
			</g>
		</g>
	</g>
	<g>
		<g>
			<g>
				<rect id="SVGID_48_" x="80.04" y="31.794" fill="#FFFFFF" width="23.866" height="23.864"/>
			</g>
			<g>
				<defs>
					<rect id="SVGID_127_" x="80.04" y="31.794" width="23.866" height="23.864"/>
				</defs>
				<use xlink:href="#SVGID_127_"  overflow="visible" fill="#FFFFFF"/>
				<clipPath id="SVGID_128_">
					<use xlink:href="#SVGID_127_"  overflow="visible"/>
				</clipPath>
				<rect x="64.544" y="16.298" clip-path="url(#SVGID_128_)" fill="#FFFFFF" width="54.857" height="54.856"/>
			</g>
		</g>
	</g>
	<g>
		<g>
			<g>
				<path id="SVGID_46_" fill="#FFFFFF" d="M65.164,6.69c-6.507,0-12.086,5.268-12.086,12.086v9.918h23.865v-9.918
					C76.94,11.958,71.672,6.69,65.164,6.69"/>
			</g>
			<g>
				<defs>
					<path id="SVGID_129_" d="M65.164,6.69c-6.507,0-12.086,5.268-12.086,12.086v9.918h23.865v-9.918
						C76.94,11.958,71.672,6.69,65.164,6.69"/>
				</defs>
				<use xlink:href="#SVGID_129_"  overflow="visible" fill="#FFFFFF"/>
				<clipPath id="SVGID_130_">
					<use xlink:href="#SVGID_129_"  overflow="visible"/>
				</clipPath>
				<rect x="37.579" y="-8.808" clip-path="url(#SVGID_130_)" fill="#FFFFFF" width="54.858" height="52.997"/>
			</g>
		</g>
	</g>
	<g>
		<g>
			<g>
				<rect id="SVGID_44_" x="80.04" y="86.031" fill="#FFFFFF" width="23.866" height="23.864"/>
			</g>
			<g>
				<defs>
					<rect id="SVGID_131_" x="80.04" y="86.031" width="23.866" height="23.864"/>
				</defs>
				<use xlink:href="#SVGID_131_"  overflow="visible" fill="#FFFFFF"/>
				<clipPath id="SVGID_132_">
					<use xlink:href="#SVGID_131_"  overflow="visible"/>
				</clipPath>
				<rect x="64.544" y="70.535" clip-path="url(#SVGID_132_)" fill="#FFFFFF" width="54.857" height="54.858"/>
			</g>
		</g>
	</g>
	<g>
		<g>
			<g>
				<polygon id="SVGID_42_" fill="#FFFFFF" points="76.94,86.031 76.94,109.896 53.078,109.896 				"/>
			</g>
			<g>
				<defs>
					<polygon id="SVGID_133_" points="76.94,86.031 76.94,109.896 53.078,109.896 					"/>
				</defs>
				<use xlink:href="#SVGID_133_"  overflow="visible" fill="#FFFFFF"/>
				<clipPath id="SVGID_134_">
					<use xlink:href="#SVGID_133_"  overflow="visible"/>
				</clipPath>
				<rect x="37.579" y="70.535" clip-path="url(#SVGID_134_)" fill="#FFFFFF" width="54.858" height="54.858"/>
			</g>
		</g>
	</g>
	<g>
		<g>
			<g>
				<rect id="SVGID_40_" x="26.112" y="86.031" fill="#FFFFFF" width="23.865" height="23.864"/>
			</g>
			<g>
				<defs>
					<rect id="SVGID_135_" x="26.112" y="86.031" width="23.865" height="23.864"/>
				</defs>
				<use xlink:href="#SVGID_135_"  overflow="visible" fill="#FFFFFF"/>
				<clipPath id="SVGID_136_">
					<use xlink:href="#SVGID_135_"  overflow="visible"/>
				</clipPath>
				<rect x="10.616" y="70.535" clip-path="url(#SVGID_136_)" fill="#FFFFFF" width="54.858" height="54.858"/>
			</g>
		</g>
	</g>
	<g>
		<g>
			<g>
				<path id="SVGID_38_" fill="#FFFFFF" d="M65.164,135.31c6.508,0,11.779-5.266,11.779-12.085v-9.918H53.078v9.918
					C53.078,129.731,58.346,135.31,65.164,135.31"/>
			</g>
			<g>
				<defs>
					<path id="SVGID_137_" d="M65.164,135.31c6.508,0,11.779-5.266,11.779-12.085v-9.918H53.078v9.918
						C53.078,129.731,58.346,135.31,65.164,135.31"/>
				</defs>
				<use xlink:href="#SVGID_137_"  overflow="visible" fill="#FFFFFF"/>
				<clipPath id="SVGID_138_">
					<use xlink:href="#SVGID_137_"  overflow="visible"/>
				</clipPath>
				<rect x="37.579" y="97.809" clip-path="url(#SVGID_138_)" fill="#FFFFFF" width="54.858" height="52.999"/>
			</g>
		</g>
	</g>
	<g>
		<g>
			<g>
				<polygon id="SVGID_36_" fill="#FFFFFF" points="80.04,59.068 103.906,59.068 103.906,82.932 				"/>
			</g>
			<g>
				<defs>
					<polygon id="SVGID_139_" points="80.04,59.068 103.906,59.068 103.906,82.932 					"/>
				</defs>
				<use xlink:href="#SVGID_139_"  overflow="visible" fill="#FFFFFF"/>
				<clipPath id="SVGID_140_">
					<use xlink:href="#SVGID_139_"  overflow="visible"/>
				</clipPath>
				<rect x="64.544" y="43.572" clip-path="url(#SVGID_140_)" fill="#FFFFFF" width="54.857" height="54.858"/>
			</g>
		</g>
	</g>
	<g>
		<g>
			<g>
				<path id="SVGID_34_" fill="#FFFFFF" d="M129.01,70.846c0-6.509-5.269-12.087-11.777-12.087h-9.918v23.863h9.918
					C123.741,82.932,129.01,77.663,129.01,70.846"/>
			</g>
			<g>
				<defs>
					<path id="SVGID_141_" d="M129.01,70.846c0-6.509-5.269-12.087-11.777-12.087h-9.918v23.863h9.918
						C123.741,82.932,129.01,77.663,129.01,70.846"/>
				</defs>
				<use xlink:href="#SVGID_141_"  overflow="visible" fill="#FFFFFF"/>
				<clipPath id="SVGID_142_">
					<use xlink:href="#SVGID_141_"  overflow="visible"/>
				</clipPath>
				<rect x="91.507" y="43.572" clip-path="url(#SVGID_142_)" fill="#FFFFFF" width="52.997" height="54.858"/>
			</g>
		</g>
	</g>
	<g>
		<g>
			<g>
				<polygon id="SVGID_32_" fill="#FFFFFF" points="49.978,82.932 26.112,82.932 26.112,59.068 				"/>
			</g>
			<g>
				<defs>
					<polygon id="SVGID_143_" points="49.978,82.932 26.112,82.932 26.112,59.068 					"/>
				</defs>
				<use xlink:href="#SVGID_143_"  overflow="visible" fill="#FFFFFF"/>
				<clipPath id="SVGID_144_">
					<use xlink:href="#SVGID_143_"  overflow="visible"/>
				</clipPath>
				<rect x="10.616" y="43.572" clip-path="url(#SVGID_144_)" fill="#FFFFFF" width="54.858" height="54.858"/>
			</g>
		</g>
	</g>
	<g>
		<g>
			<g>
				<path id="SVGID_30_" fill="#FFFFFF" d="M1.008,70.846c0,6.51,5.269,12.088,11.777,12.088h9.917V59.068h-9.917
					C6.277,59.068,1.008,64.337,1.008,70.846"/>
			</g>
			<g>
				<defs>
					<path id="SVGID_145_" d="M1.008,70.846c0,6.51,5.269,12.088,11.777,12.088h9.917V59.068h-9.917
						C6.277,59.068,1.008,64.337,1.008,70.846"/>
				</defs>
				<use xlink:href="#SVGID_145_"  overflow="visible" fill="#FFFFFF"/>
				<clipPath id="SVGID_146_">
					<use xlink:href="#SVGID_145_"  overflow="visible"/>
				</clipPath>
				<rect x="-14.488" y="43.572" clip-path="url(#SVGID_146_)" fill="#FFFFFF" width="52.998" height="54.858"/>
			</g>
		</g>
	</g>
	<g>
		<g>
			<g>
				<rect id="SVGID_28_" x="53.078" y="59.068" fill="#E5B123" width="23.865" height="23.866"/>
			</g>
			<g>
				<defs>
					<rect id="SVGID_147_" x="53.078" y="59.068" width="23.865" height="23.866"/>
				</defs>
				<use xlink:href="#SVGID_147_"  overflow="visible" fill="#E5B123"/>
				<clipPath id="SVGID_148_">
					<use xlink:href="#SVGID_147_"  overflow="visible"/>
				</clipPath>
				<rect x="37.579" y="43.572" clip-path="url(#SVGID_148_)" fill="#E5B123" width="54.858" height="54.858"/>
			</g>
		</g>
	</g>
	<g>
		<g>
			<g>
				<path id="SVGID_26_" fill="#FFFFFF" d="M466.834,82.313v9.296c0,0.311-0.62,18.287-20.146,18.287
					c-8.679,0-13.948-4.336-13.948-11.465c0-7.44,4.649-11.158,14.566-12.399c2.173-0.308,4.031-0.308,6.199-0.62
					C458.776,84.792,464.044,84.482,466.834,82.313z M477.988,108.037c-1.238,0.309-2.168,0.309-2.788,0.309
					c-3.099,0-3.099-2.48-3.099-6.199V70.225c0-12.399-10.846-14.877-19.836-14.877c-13.326,0-20.764,6.507-21.383,18.595v0.619
					h4.959v-0.307c0.618-8.988,6.506-14.258,16.424-14.258c12.399,0,14.877,8.058,14.877,10.229c0,8.367,0,9.607-18.595,10.846
					c-8.99,0.62-20.767,3.41-20.767,16.738c0,10.537,6.509,16.116,18.907,16.116c10.847,0,17.357-5.579,20.146-10.847v1.239
					c0,4.34,0.93,8.369,7.747,8.369c0.928,0,1.858-0.311,3.098-0.311h0.621v-4.337h-0.312V108.037z"/>
			</g>
			<g>
				<defs>
					<path id="SVGID_149_" d="M466.834,82.313v9.296c0,0.311-0.62,18.287-20.146,18.287c-8.679,0-13.948-4.336-13.948-11.465
						c0-7.44,4.649-11.158,14.566-12.399c2.173-0.308,4.031-0.308,6.199-0.62C458.776,84.792,464.044,84.482,466.834,82.313z
						 M477.988,108.037c-1.238,0.309-2.168,0.309-2.788,0.309c-3.099,0-3.099-2.48-3.099-6.199V70.225
						c0-12.399-10.846-14.877-19.836-14.877c-13.326,0-20.764,6.507-21.383,18.595v0.619h4.959v-0.307
						c0.618-8.988,6.506-14.258,16.424-14.258c12.399,0,14.877,8.058,14.877,10.229c0,8.367,0,9.607-18.595,10.846
						c-8.99,0.62-20.767,3.41-20.767,16.738c0,10.537,6.509,16.116,18.907,16.116c10.847,0,17.357-5.579,20.146-10.847v1.239
						c0,4.34,0.93,8.369,7.747,8.369c0.928,0,1.858-0.311,3.098-0.311h0.621v-4.337h-0.312V108.037z"/>
				</defs>
				<use xlink:href="#SVGID_149_"  overflow="visible" fill="#FFFFFF"/>
				<clipPath id="SVGID_150_">
					<use xlink:href="#SVGID_149_"  overflow="visible"/>
				</clipPath>
				<rect x="412.284" y="40.162" clip-path="url(#SVGID_150_)" fill="#FFFFFF" width="81.512" height="89.569"/>
			</g>
		</g>
	</g>
	<g>
		<g>
			<g>
				<path id="SVGID_24_" fill="#FFFFFF" d="M514.871,56.588c-0.309,0-0.618,0-0.93,0c-8.676,0-17.046,4.648-19.836,11.156V56.897
					h-4.959v56.099h4.959V82.313c0.311-8.369,2.172-11.467,6.201-15.497c4.649-4.648,9.918-5.268,12.705-5.268
					c0.621,0,1.242,0,1.861,0h0.619V56.59h-0.621V56.588z"/>
			</g>
			<g>
				<defs>
					<path id="SVGID_151_" d="M514.871,56.588c-0.309,0-0.618,0-0.93,0c-8.676,0-17.046,4.648-19.836,11.156V56.897h-4.959v56.099
						h4.959V82.313c0.311-8.369,2.172-11.467,6.201-15.497c4.649-4.648,9.918-5.268,12.705-5.268c0.621,0,1.242,0,1.861,0h0.619
						V56.59h-0.621V56.588z"/>
				</defs>
				<use xlink:href="#SVGID_151_"  overflow="visible" fill="#FFFFFF"/>
				<clipPath id="SVGID_152_">
					<use xlink:href="#SVGID_151_"  overflow="visible"/>
				</clipPath>
				<rect x="473.652" y="41.092" clip-path="url(#SVGID_152_)" fill="#FFFFFF" width="57.335" height="87.4"/>
			</g>
		</g>
	</g>
	<g>
		<g>
			<g>
				<path id="SVGID_22_" fill="#FFFFFF" d="M566.008,92.54v0.31c-1.238,9.919-8.987,16.737-18.594,16.737
					c-13.016,0-20.765-9.61-20.765-25.414c0-12.088,7.128-24.175,20.765-24.175c10.538,0,17.355,5.579,18.285,14.258v0.307h4.96
					v-0.619c-1.239-11.778-9.609-18.905-23.245-18.905c-15.188,0-25.723,11.776-25.723,28.823c0,14.568,6.818,29.754,25.723,29.754
					c12.708,0,22.006-8.368,23.553-21.076v-0.62h-4.959V92.54z"/>
			</g>
			<g>
				<defs>
					<path id="SVGID_153_" d="M566.008,92.54v0.31c-1.238,9.919-8.987,16.737-18.594,16.737c-13.016,0-20.765-9.61-20.765-25.414
						c0-12.088,7.128-24.175,20.765-24.175c10.538,0,17.355,5.579,18.285,14.258v0.307h4.96v-0.619
						c-1.239-11.778-9.609-18.905-23.245-18.905c-15.188,0-25.723,11.776-25.723,28.823c0,14.568,6.818,29.754,25.723,29.754
						c12.708,0,22.006-8.368,23.553-21.076v-0.62h-4.959V92.54z"/>
				</defs>
				<use xlink:href="#SVGID_153_"  overflow="visible" fill="#FFFFFF"/>
				<clipPath id="SVGID_154_">
					<use xlink:href="#SVGID_153_"  overflow="visible"/>
				</clipPath>
				<rect x="506.192" y="40.162" clip-path="url(#SVGID_154_)" fill="#FFFFFF" width="80.272" height="89.569"/>
			</g>
		</g>
	</g>
	<g>
		<g>
			<g>
				<path id="SVGID_20_" fill="#FFFFFF" d="M609.091,55.658c-8.679,0-16.119,4.65-19.528,11.78V35.514h-4.957v77.482h4.957V82.622
					c0-13.636,7.44-22.624,19.217-22.624c15.186,0,15.186,13.327,15.186,17.666v35.333h4.958V78.284
					C629.235,72.084,629.235,55.658,609.091,55.658"/>
			</g>
			<g>
				<defs>
					<path id="SVGID_155_" d="M609.091,55.658c-8.679,0-16.119,4.65-19.528,11.78V35.514h-4.957v77.482h4.957V82.622
						c0-13.636,7.44-22.624,19.217-22.624c15.186,0,15.186,13.327,15.186,17.666v35.333h4.958V78.284
						C629.235,72.084,629.235,55.658,609.091,55.658"/>
				</defs>
				<use xlink:href="#SVGID_155_"  overflow="visible" fill="#FFFFFF"/>
				<clipPath id="SVGID_156_">
					<use xlink:href="#SVGID_155_"  overflow="visible"/>
				</clipPath>
				<rect x="569.109" y="20.018" clip-path="url(#SVGID_156_)" fill="#FFFFFF" width="75.315" height="108.475"/>
			</g>
		</g>
	</g>
	<g>
		<g>
			<g>
				<rect id="SVGID_18_" x="646.59" y="56.897" fill="#FFFFFF" width="4.961" height="56.099"/>
			</g>
			<g>
				<defs>
					<rect id="SVGID_157_" x="646.59" y="56.897" width="4.961" height="56.099"/>
				</defs>
				<use xlink:href="#SVGID_157_"  overflow="visible" fill="#FFFFFF"/>
				<clipPath id="SVGID_158_">
					<use xlink:href="#SVGID_157_"  overflow="visible"/>
				</clipPath>
				<rect x="631.096" y="41.401" clip-path="url(#SVGID_158_)" fill="#FFFFFF" width="35.951" height="87.091"/>
			</g>
		</g>
	</g>
	<g>
		<g>
			<g>
				<rect id="SVGID_16_" x="646.59" y="35.514" fill="#FFFFFF" width="4.961" height="12.088"/>
			</g>
			<g>
				<defs>
					<rect id="SVGID_159_" x="646.59" y="35.514" width="4.961" height="12.088"/>
				</defs>
				<use xlink:href="#SVGID_159_"  overflow="visible" fill="#FFFFFF"/>
				<clipPath id="SVGID_160_">
					<use xlink:href="#SVGID_159_"  overflow="visible"/>
				</clipPath>
				<rect x="631.096" y="20.018" clip-path="url(#SVGID_160_)" fill="#FFFFFF" width="35.951" height="43.079"/>
			</g>
		</g>
	</g>
	<g>
		<g>
			<g>
				<path id="SVGID_14_" fill="#FFFFFF" d="M689.981,61.237v-4.339h-12.087V39.853h-4.959v17.044h-10.227v4.339h10.227v38.121
					c-0.309,4.649,0.93,8.057,3.1,10.228c2.17,2.169,5.578,3.41,10.537,3.41c0.93,0,1.859,0,3.101,0h0.307v-4.34h-0.619
					c-0.619,0-1.238,0-1.86,0c-6.508,0-9.608-1.241-9.608-8.988V61.235h12.09V61.237z"/>
			</g>
			<g>
				<defs>
					<path id="SVGID_161_" d="M689.981,61.237v-4.339h-12.087V39.853h-4.959v17.044h-10.227v4.339h10.227v38.121
						c-0.309,4.649,0.93,8.057,3.1,10.228c2.17,2.169,5.578,3.41,10.537,3.41c0.93,0,1.859,0,3.101,0h0.307v-4.34h-0.619
						c-0.619,0-1.238,0-1.86,0c-6.508,0-9.608-1.241-9.608-8.988V61.235h12.09V61.237z"/>
				</defs>
				<use xlink:href="#SVGID_161_"  overflow="visible" fill="#FFFFFF"/>
				<clipPath id="SVGID_162_">
					<use xlink:href="#SVGID_161_"  overflow="visible"/>
				</clipPath>
				<rect x="647.211" y="24.046" clip-path="url(#SVGID_162_)" fill="#FFFFFF" width="58.265" height="104.446"/>
			</g>
		</g>
	</g>
	<g>
		<g>
			<g>
				<path id="SVGID_12_" fill="#FFFFFF" d="M724.074,59.998c12.397,0,19.217,10.538,19.525,21.385h-39.36
					C705.478,70.535,712.296,59.998,724.074,59.998 M741.43,62.477c-4.337-4.65-10.227-6.82-17.355-6.82
					c-6.508,0-12.087,2.17-16.426,6.508c-5.268,5.578-8.368,14.257-8.368,23.556c0,8.676,2.48,16.425,7.748,21.693
					c4.338,4.34,10.228,6.819,17.046,6.819c13.328,0,22.005-7.128,24.176-20.455v-0.62h-4.959v0.309
					c-1.861,9.919-8.991,16.117-19.217,16.117c-5.27,0-9.607-1.859-13.017-5.269c-4.338-4.34-6.507-11.158-6.507-18.594h44.319
					v-0.311C749.178,75.804,746.699,67.745,741.43,62.477"/>
			</g>
			<g>
				<defs>
					<path id="SVGID_163_" d="M724.074,59.998c12.397,0,19.217,10.538,19.525,21.385h-39.36
						C705.478,70.535,712.296,59.998,724.074,59.998 M741.43,62.477c-4.337-4.65-10.227-6.82-17.355-6.82
						c-6.508,0-12.087,2.17-16.426,6.508c-5.268,5.578-8.368,14.257-8.368,23.556c0,8.676,2.48,16.425,7.748,21.693
						c4.338,4.34,10.228,6.819,17.046,6.819c13.328,0,22.005-7.128,24.176-20.455v-0.62h-4.959v0.309
						c-1.861,9.919-8.991,16.117-19.217,16.117c-5.27,0-9.607-1.859-13.017-5.269c-4.338-4.34-6.507-11.158-6.507-18.594h44.319
						v-0.311C749.178,75.804,746.699,67.745,741.43,62.477"/>
				</defs>
				<use xlink:href="#SVGID_163_"  overflow="visible" fill="#FFFFFF"/>
				<clipPath id="SVGID_164_">
					<use xlink:href="#SVGID_163_"  overflow="visible"/>
				</clipPath>
				<rect x="683.784" y="40.162" clip-path="url(#SVGID_164_)" fill="#FFFFFF" width="80.271" height="89.569"/>
			</g>
		</g>
	</g>
	<g>
		<g>
			<g>
				<path id="SVGID_10_" fill="#FFFFFF" d="M804.345,92.54v0.31c-1.238,9.919-8.987,16.737-18.593,16.737
					c-13.017,0-20.766-9.61-20.766-25.414c0-12.088,7.129-24.175,20.766-24.175c10.537,0,17.356,5.579,17.975,14.258v0.307h4.958
					v-0.619c-1.238-11.778-9.607-18.905-23.245-18.905c-15.186,0-25.721,11.776-25.721,28.823c0,14.568,6.817,29.754,25.721,29.754
					c12.708,0,22.007-8.368,23.556-21.076v-0.62h-4.651L804.345,92.54L804.345,92.54z"/>
			</g>
			<g>
				<defs>
					<path id="SVGID_165_" d="M804.345,92.54v0.31c-1.238,9.919-8.987,16.737-18.593,16.737c-13.017,0-20.766-9.61-20.766-25.414
						c0-12.088,7.129-24.175,20.766-24.175c10.537,0,17.356,5.579,17.975,14.258v0.307h4.958v-0.619
						c-1.238-11.778-9.607-18.905-23.245-18.905c-15.186,0-25.721,11.776-25.721,28.823c0,14.568,6.817,29.754,25.721,29.754
						c12.708,0,22.007-8.368,23.556-21.076v-0.62h-4.651L804.345,92.54L804.345,92.54z"/>
				</defs>
				<use xlink:href="#SVGID_165_"  overflow="visible" fill="#FFFFFF"/>
				<clipPath id="SVGID_166_">
					<use xlink:href="#SVGID_165_"  overflow="visible"/>
				</clipPath>
				<rect x="744.529" y="40.162" clip-path="url(#SVGID_166_)" fill="#FFFFFF" width="80.272" height="89.569"/>
			</g>
		</g>
	</g>
	<g>
		<g>
			<g>
				<path id="SVGID_8_" fill="#FFFFFF" d="M844.327,61.237v-4.339H832.24V39.853h-4.959v17.044h-10.229v4.339h10.229v38.121
					c-0.311,4.649,0.929,8.057,3.1,10.228c2.166,2.169,5.577,3.41,10.536,3.41c0.929,0,1.86,0,3.099,0h0.31v-4.34h-0.618
					c-0.622,0-1.243,0-1.863,0c-6.506,0-9.608-1.241-9.608-8.988V61.235h12.092V61.237z"/>
			</g>
			<g>
				<defs>
					<path id="SVGID_167_" d="M844.327,61.237v-4.339H832.24V39.853h-4.959v17.044h-10.229v4.339h10.229v38.121
						c-0.311,4.649,0.929,8.057,3.1,10.228c2.166,2.169,5.577,3.41,10.536,3.41c0.929,0,1.86,0,3.099,0h0.31v-4.34h-0.618
						c-0.622,0-1.243,0-1.863,0c-6.506,0-9.608-1.241-9.608-8.988V61.235h12.092V61.237z"/>
				</defs>
				<use xlink:href="#SVGID_167_"  overflow="visible" fill="#FFFFFF"/>
				<clipPath id="SVGID_168_">
					<use xlink:href="#SVGID_167_"  overflow="visible"/>
				</clipPath>
				<rect x="801.557" y="24.046" clip-path="url(#SVGID_168_)" fill="#FFFFFF" width="58.267" height="104.446"/>
			</g>
		</g>
	</g>
	<g>
		<g>
			<g>
				<path id="SVGID_6_" fill="#FFFFFF" d="M895.775,56.897V87.27c0,13.636-7.44,22.624-19.216,22.624
					c-15.186,0-15.186-13.327-15.186-17.665V56.897h-4.959v34.711c0,6.202,0,22.626,20.145,22.626
					c8.678,0,16.116-4.648,19.527-11.778v10.227h4.959V56.897H895.775z"/>
			</g>
			<g>
				<defs>
					<path id="SVGID_169_" d="M895.775,56.897V87.27c0,13.636-7.44,22.624-19.216,22.624c-15.186,0-15.186-13.327-15.186-17.665
						V56.897h-4.959v34.711c0,6.202,0,22.626,20.145,22.626c8.678,0,16.116-4.648,19.527-11.778v10.227h4.959V56.897H895.775z"/>
				</defs>
				<use xlink:href="#SVGID_169_"  overflow="visible" fill="#FFFFFF"/>
				<clipPath id="SVGID_170_">
					<use xlink:href="#SVGID_169_"  overflow="visible"/>
				</clipPath>
				<rect x="840.607" y="41.401" clip-path="url(#SVGID_170_)" fill="#FFFFFF" width="75.314" height="88.328"/>
			</g>
		</g>
	</g>
	<g>
		<g>
			<g>
				<path id="SVGID_4_" fill="#FFFFFF" d="M942.885,56.588c-0.309,0-0.62,0-0.929,0c-8.677,0-17.046,4.648-19.835,11.156V56.897
					h-4.96v56.099h4.96V82.313c0.309-8.369,2.17-11.467,6.199-15.497c4.647-4.648,9.918-5.268,12.706-5.268c0.62,0,1.24,0,1.859,0
					h0.621V56.59h-0.622V56.588z"/>
			</g>
			<g>
				<defs>
					<path id="SVGID_171_" d="M942.885,56.588c-0.309,0-0.62,0-0.929,0c-8.677,0-17.046,4.648-19.835,11.156V56.897h-4.96v56.099
						h4.96V82.313c0.309-8.369,2.17-11.467,6.199-15.497c4.647-4.648,9.918-5.268,12.706-5.268c0.62,0,1.24,0,1.859,0h0.621V56.59
						h-0.622V56.588z"/>
				</defs>
				<use xlink:href="#SVGID_171_"  overflow="visible" fill="#FFFFFF"/>
				<clipPath id="SVGID_172_">
					<use xlink:href="#SVGID_171_"  overflow="visible"/>
				</clipPath>
				<rect x="901.354" y="41.092" clip-path="url(#SVGID_172_)" fill="#FFFFFF" width="57.337" height="87.4"/>
			</g>
		</g>
	</g>
	<g>
		<g>
			<g>
				<path id="SVGID_2_" fill="#FFFFFF" d="M974.188,59.998c12.398,0,19.216,10.538,19.525,21.385h-39.361
					C955.592,70.535,962.409,59.998,974.188,59.998 M991.542,62.477c-4.338-4.65-10.227-6.82-17.356-6.82
					c-6.509,0-12.086,2.17-16.427,6.508c-5.268,5.578-8.367,14.257-8.367,23.556c0,8.676,2.481,16.425,7.749,21.693
					c4.339,4.34,10.227,6.819,17.045,6.819c13.327,0,22.004-7.128,24.175-20.455v-0.62h-4.959v0.309
					c-1.859,9.919-8.987,16.117-19.216,16.117c-5.27,0-9.607-1.859-13.016-5.269c-4.339-4.34-6.508-11.158-6.508-18.594h44.32
					v-0.311C999.292,75.804,996.813,67.745,991.542,62.477"/>
			</g>
			<g>
				<defs>
					<path id="SVGID_173_" d="M974.188,59.998c12.398,0,19.216,10.538,19.525,21.385h-39.361
						C955.592,70.535,962.409,59.998,974.188,59.998 M991.542,62.477c-4.338-4.65-10.227-6.82-17.356-6.82
						c-6.509,0-12.086,2.17-16.427,6.508c-5.268,5.578-8.367,14.257-8.367,23.556c0,8.676,2.481,16.425,7.749,21.693
						c4.339,4.34,10.227,6.819,17.045,6.819c13.327,0,22.004-7.128,24.175-20.455v-0.62h-4.959v0.309
						c-1.859,9.919-8.987,16.117-19.216,16.117c-5.27,0-9.607-1.859-13.016-5.269c-4.339-4.34-6.508-11.158-6.508-18.594h44.32
						v-0.311C999.292,75.804,996.813,67.745,991.542,62.477"/>
				</defs>
				<use xlink:href="#SVGID_173_"  overflow="visible" fill="#FFFFFF"/>
				<clipPath id="SVGID_174_">
					<use xlink:href="#SVGID_173_"  overflow="visible"/>
				</clipPath>
				<rect x="933.896" y="40.162" clip-path="url(#SVGID_174_)" fill="#FFFFFF" width="80.274" height="89.569"/>
			</g>
		</g>
	</g>
</g>
</svg>
