<?xml version="1.0" encoding="utf-8"?>
<!-- Generator: Adobe Illustrator 21.1.0, SVG Export Plug-In . SVG Version: 6.00 Build 0)  -->
<svg version="1.1" id="Layer_1" xmlns="http://www.w3.org/2000/svg" xmlns:xlink="http://www.w3.org/1999/xlink" x="0px" y="0px"
	 viewBox="0 0 322 41.5" style="enable-background:new 0 0 322 41.5;" xml:space="preserve">
<g>
	<defs>
		<polygon id="SVGID_1_" points="49.1,33.7 52.2,33.7 52.2,7.8 49.1,7.8 49.1,7.1 61.4,7.1 61.4,7.8 58.2,7.8 58.2,19.6 68.3,19.6 
			68.3,7.8 65.1,7.8 65.1,7.1 77.4,7.1 77.4,7.8 74.3,7.8 74.3,33.7 77.4,33.7 77.4,34.4 65.1,34.4 65.1,33.7 68.3,33.7 68.3,20.3 
			58.2,20.3 58.2,33.7 61.4,33.7 61.4,34.4 49.1,34.4 		"/>
	</defs>
	<clipPath id="SVGID_2_">
		<use xlink:href="#SVGID_1_"  style="overflow:visible;"/>
	</clipPath>
	<rect x="44.1" y="2.1" style="clip-path:url(#SVGID_2_);fill:#FFFFFF;" width="38.3" height="37.2"/>
</g>
<g>
	<defs>
		<path id="SVGID_3_" d="M90.8,33.7h1.8c3.9,0,6-2,6-6.7c0-4.1-2-6.6-5.4-6.6h-2.4V33.7z M90.8,19.6h2.1c2.3,0,4.8-1.5,4.8-5.5
			c0-4.5-1.6-6.4-4.9-6.4h-2V19.6z M82.3,33.7h2.6V7.8h-2.6V7.1h12.3c4.3,0,9,1.9,9,6.4c0,4.1-4.2,5.9-7.9,6.2v0.1
			c5.3,0,9.5,2.5,9.5,7.1c0,4.3-3.8,7.4-11,7.4H82.3V33.7z"/>
	</defs>
	<clipPath id="SVGID_4_">
		<use xlink:href="#SVGID_3_"  style="overflow:visible;"/>
	</clipPath>
	<rect x="77.3" y="2.1" style="clip-path:url(#SVGID_4_);fill:#FFFFFF;" width="32.8" height="37.2"/>
</g>
<g>
	<defs>
		<path id="SVGID_5_" d="M121.1,25.1l-3.3-9.6h-0.1l-3.4,9.6H121.1z M108.1,33.7h0.5c1.4-0.1,2.1-1,2.6-2.3l8.8-24.3h0.6l10.1,26.6
			h1.9v0.7h-11.2v-0.7h3l-2.8-7.9h-7.3l-1.8,5.3c-0.1,0.3-0.3,0.7-0.3,1.1c0,1.2,1.1,1.4,1.8,1.4h1.1v0.7h-6.8V33.7z"/>
	</defs>
	<clipPath id="SVGID_6_">
		<use xlink:href="#SVGID_5_"  style="overflow:visible;"/>
	</clipPath>
	<rect x="103.1" y="2.1" style="clip-path:url(#SVGID_6_);fill:#FFFFFF;" width="34.3" height="37.2"/>
</g>
<g>
	<defs>
		<polygon id="SVGID_7_" points="16.8,15.8 16.8,8.1 24.5,8.1 		"/>
	</defs>
	<clipPath id="SVGID_8_">
		<use xlink:href="#SVGID_7_"  style="overflow:visible;"/>
	</clipPath>
	<rect x="11.8" y="3.1" style="clip-path:url(#SVGID_8_);fill:#FFFFFF;" width="17.7" height="17.7"/>
</g>
<g>
	<defs>
		<rect id="SVGID_9_" x="8.1" y="8.1" width="7.7" height="7.7"/>
	</defs>
	<clipPath id="SVGID_10_">
		<use xlink:href="#SVGID_9_"  style="overflow:visible;"/>
	</clipPath>
	<rect x="3.1" y="3.1" style="clip-path:url(#SVGID_10_);fill:#FFFFFF;" width="17.7" height="17.7"/>
</g>
<g>
	<defs>
		<rect id="SVGID_11_" x="25.5" y="8.1" width="7.7" height="7.7"/>
	</defs>
	<clipPath id="SVGID_12_">
		<use xlink:href="#SVGID_11_"  style="overflow:visible;"/>
	</clipPath>
	<rect x="20.5" y="3.1" style="clip-path:url(#SVGID_12_);fill:#FFFFFF;" width="17.7" height="17.7"/>
</g>
<g>
	<defs>
		<path id="SVGID_13_" d="M20.7,0c-2.1,0-3.9,1.7-3.9,3.9v3.2h7.7V3.9C24.5,1.7,22.8,0,20.7,0"/>
	</defs>
	<clipPath id="SVGID_14_">
		<use xlink:href="#SVGID_13_"  style="overflow:visible;"/>
	</clipPath>
	<rect x="11.8" y="-5" style="clip-path:url(#SVGID_14_);fill:#FFFFFF;" width="17.7" height="17.1"/>
</g>
<g>
	<defs>
		<rect id="SVGID_15_" x="25.5" y="25.6" width="7.7" height="7.7"/>
	</defs>
	<clipPath id="SVGID_16_">
		<use xlink:href="#SVGID_15_"  style="overflow:visible;"/>
	</clipPath>
	<rect x="20.5" y="20.6" style="clip-path:url(#SVGID_16_);fill:#FFFFFF;" width="17.7" height="17.7"/>
</g>
<g>
	<defs>
		<polygon id="SVGID_17_" points="24.5,25.6 24.5,33.3 16.8,33.3 		"/>
	</defs>
	<clipPath id="SVGID_18_">
		<use xlink:href="#SVGID_17_"  style="overflow:visible;"/>
	</clipPath>
	<rect x="11.8" y="20.6" style="clip-path:url(#SVGID_18_);fill:#FFFFFF;" width="17.7" height="17.7"/>
</g>
<g>
	<defs>
		<rect id="SVGID_19_" x="8.1" y="25.6" width="7.7" height="7.7"/>
	</defs>
	<clipPath id="SVGID_20_">
		<use xlink:href="#SVGID_19_"  style="overflow:visible;"/>
	</clipPath>
	<rect x="3.1" y="20.6" style="clip-path:url(#SVGID_20_);fill:#FFFFFF;" width="17.7" height="17.7"/>
</g>
<g>
	<defs>
		<path id="SVGID_21_" d="M20.7,41.5c2.1,0,3.8-1.7,3.8-3.9v-3.2h-7.7v3.2C16.8,39.7,18.5,41.5,20.7,41.5"/>
	</defs>
	<clipPath id="SVGID_22_">
		<use xlink:href="#SVGID_21_"  style="overflow:visible;"/>
	</clipPath>
	<rect x="11.8" y="29.4" style="clip-path:url(#SVGID_22_);fill:#FFFFFF;" width="17.7" height="17.1"/>
</g>
<g>
	<defs>
		<polygon id="SVGID_23_" points="25.5,16.9 33.2,16.9 33.2,24.6 		"/>
	</defs>
	<clipPath id="SVGID_24_">
		<use xlink:href="#SVGID_23_"  style="overflow:visible;"/>
	</clipPath>
	<rect x="20.5" y="11.9" style="clip-path:url(#SVGID_24_);fill:#FFFFFF;" width="17.7" height="17.7"/>
</g>
<g>
	<defs>
		<path id="SVGID_25_" d="M41.3,20.7c0-2.1-1.7-3.9-3.8-3.9h-3.2v7.7h3.2C39.6,24.6,41.3,22.9,41.3,20.7"/>
	</defs>
	<clipPath id="SVGID_26_">
		<use xlink:href="#SVGID_25_"  style="overflow:visible;"/>
	</clipPath>
	<rect x="29.2" y="11.9" style="clip-path:url(#SVGID_26_);fill:#FFFFFF;" width="17.1" height="17.7"/>
</g>
<g>
	<defs>
		<polygon id="SVGID_27_" points="15.8,24.6 8.1,24.6 8.1,16.9 		"/>
	</defs>
	<clipPath id="SVGID_28_">
		<use xlink:href="#SVGID_27_"  style="overflow:visible;"/>
	</clipPath>
	<rect x="3.1" y="11.9" style="clip-path:url(#SVGID_28_);fill:#FFFFFF;" width="17.7" height="17.7"/>
</g>
<g>
	<defs>
		<path id="SVGID_29_" d="M0,20.7c0,2.1,1.7,3.9,3.8,3.9h3.2v-7.7H3.8C1.7,16.9,0,18.6,0,20.7"/>
	</defs>
	<clipPath id="SVGID_30_">
		<use xlink:href="#SVGID_29_"  style="overflow:visible;"/>
	</clipPath>
	<rect x="-5" y="11.9" style="clip-path:url(#SVGID_30_);fill:#FFFFFF;" width="17.1" height="17.7"/>
</g>
<g>
	<defs>
		<rect id="SVGID_31_" x="16.8" y="16.9" width="7.7" height="7.7"/>
	</defs>
	<clipPath id="SVGID_32_">
		<use xlink:href="#SVGID_31_"  style="overflow:visible;"/>
	</clipPath>
	<rect x="11.8" y="11.9" style="clip-path:url(#SVGID_32_);fill:#E6B10E;" width="17.7" height="17.7"/>
</g>
<g>
	<defs>
		<path id="SVGID_33_" d="M150.3,24.4v3c0,0.1-0.2,5.9-6.5,5.9c-2.8,0-4.5-1.4-4.5-3.7c0-2.4,1.5-3.6,4.7-4c0.7-0.1,1.3-0.1,2-0.2
			C147.7,25.2,149.4,25.1,150.3,24.4z M153.9,32.7c-0.4,0.1-0.7,0.1-0.9,0.1c-1,0-1-0.8-1-2V20.5c0-4-3.5-4.8-6.4-4.8
			c-4.3,0-6.7,2.1-6.9,6l0,0.2h1.6l0-0.1c0.2-2.9,2.1-4.6,5.3-4.6c4,0,4.8,2.6,4.8,3.3c0,2.7,0,3.1-6,3.5c-2.9,0.2-6.7,1.1-6.7,5.4
			c0,3.4,2.1,5.2,6.1,5.2c3.5,0,5.6-1.8,6.5-3.5v0.4c0,1.4,0.3,2.7,2.5,2.7c0.3,0,0.6-0.1,1-0.1l0.2,0v-1.4L153.9,32.7z"/>
	</defs>
	<clipPath id="SVGID_34_">
		<use xlink:href="#SVGID_33_"  style="overflow:visible;"/>
	</clipPath>
	<rect x="132.7" y="10.8" style="clip-path:url(#SVGID_34_);fill:#FFFFFF;" width="26.3" height="28.9"/>
</g>
<g>
	<defs>
		<path id="SVGID_35_" d="M165.8,16.1c-0.1,0-0.2,0-0.3,0c-2.8,0-5.5,1.5-6.4,3.6v-3.5h-1.6v18.1h1.6v-9.9c0.1-2.7,0.7-3.7,2-5
			c1.5-1.5,3.2-1.7,4.1-1.7c0.2,0,0.4,0,0.6,0l0.2,0v-1.6L165.8,16.1z"/>
	</defs>
	<clipPath id="SVGID_36_">
		<use xlink:href="#SVGID_35_"  style="overflow:visible;"/>
	</clipPath>
	<rect x="152.5" y="11.1" style="clip-path:url(#SVGID_36_);fill:#FFFFFF;" width="18.5" height="28.2"/>
</g>
<g>
	<defs>
		<path id="SVGID_37_" d="M182.3,27.7l0,0.1c-0.4,3.2-2.9,5.4-6,5.4c-4.2,0-6.7-3.1-6.7-8.2c0-3.9,2.3-7.8,6.7-7.8
			c3.4,0,5.6,1.8,5.9,4.6l0,0.1h1.6l0-0.2c-0.4-3.8-3.1-6.1-7.5-6.1c-4.9,0-8.3,3.8-8.3,9.3c0,4.7,2.2,9.6,8.3,9.6
			c4.1,0,7.1-2.7,7.6-6.8l0-0.2H182.3z"/>
	</defs>
	<clipPath id="SVGID_38_">
		<use xlink:href="#SVGID_37_"  style="overflow:visible;"/>
	</clipPath>
	<rect x="163" y="10.8" style="clip-path:url(#SVGID_38_);fill:#FFFFFF;" width="25.9" height="28.9"/>
</g>
<g>
	<defs>
		<path id="SVGID_39_" d="M196.2,15.8c-2.8,0-5.2,1.5-6.3,3.8V9.3h-1.6v25h1.6v-9.8c0-4.4,2.4-7.3,6.2-7.3c4.9,0,4.9,4.3,4.9,5.7
			v11.4h1.6V23.1C202.7,21.1,202.7,15.8,196.2,15.8"/>
	</defs>
	<clipPath id="SVGID_40_">
		<use xlink:href="#SVGID_39_"  style="overflow:visible;"/>
	</clipPath>
	<rect x="183.3" y="4.3" style="clip-path:url(#SVGID_40_);fill:#FFFFFF;" width="24.3" height="35"/>
</g>
<g>
	<defs>
		<rect id="SVGID_41_" x="208.3" y="16.2" width="1.6" height="18.1"/>
	</defs>
	<clipPath id="SVGID_42_">
		<use xlink:href="#SVGID_41_"  style="overflow:visible;"/>
	</clipPath>
	<rect x="203.3" y="11.2" style="clip-path:url(#SVGID_42_);fill:#FFFFFF;" width="11.6" height="28.1"/>
</g>
<g>
	<defs>
		<rect id="SVGID_43_" x="208.3" y="9.3" width="1.6" height="3.9"/>
	</defs>
	<clipPath id="SVGID_44_">
		<use xlink:href="#SVGID_43_"  style="overflow:visible;"/>
	</clipPath>
	<rect x="203.3" y="4.3" style="clip-path:url(#SVGID_44_);fill:#FFFFFF;" width="11.6" height="13.9"/>
</g>
<g>
	<defs>
		<path id="SVGID_45_" d="M222.3,17.6v-1.4h-3.9v-5.5h-1.6v5.5h-3.3v1.4h3.3v12.3c-0.1,1.5,0.3,2.6,1,3.3c0.7,0.7,1.8,1.1,3.4,1.1
			c0.3,0,0.6,0,1,0l0.1,0v-1.4l-0.2,0c-0.2,0-0.4,0-0.6,0c-2.1,0-3.1-0.4-3.1-2.9V17.6H222.3z"/>
	</defs>
	<clipPath id="SVGID_46_">
		<use xlink:href="#SVGID_45_"  style="overflow:visible;"/>
	</clipPath>
	<rect x="208.5" y="5.6" style="clip-path:url(#SVGID_46_);fill:#FFFFFF;" width="18.8" height="33.7"/>
</g>
<g>
	<defs>
		<path id="SVGID_47_" d="M233.3,17.2c4,0,6.2,3.4,6.3,6.9h-12.7C227.3,20.6,229.5,17.2,233.3,17.2 M238.9,18
			c-1.4-1.5-3.3-2.2-5.6-2.2c-2.1,0-3.9,0.7-5.3,2.1c-1.7,1.8-2.7,4.6-2.7,7.6c0,2.8,0.8,5.3,2.5,7c1.4,1.4,3.3,2.2,5.5,2.2
			c4.3,0,7.1-2.3,7.8-6.6l0-0.2h-1.6l0,0.1c-0.6,3.2-2.9,5.2-6.2,5.2c-1.7,0-3.1-0.6-4.2-1.7c-1.4-1.4-2.1-3.6-2.1-6h14.3l0-0.1
			C241.4,22.3,240.6,19.7,238.9,18"/>
	</defs>
	<clipPath id="SVGID_48_">
		<use xlink:href="#SVGID_47_"  style="overflow:visible;"/>
	</clipPath>
	<rect x="220.3" y="10.8" style="clip-path:url(#SVGID_48_);fill:#FFFFFF;" width="25.9" height="28.9"/>
</g>
<g>
	<defs>
		<path id="SVGID_49_" d="M259.2,27.7l0,0.1c-0.4,3.2-2.9,5.4-6,5.4c-4.2,0-6.7-3.1-6.7-8.2c0-3.9,2.3-7.8,6.7-7.8
			c3.4,0,5.6,1.8,5.8,4.6l0,0.1h1.6l0-0.2c-0.4-3.8-3.1-6.1-7.5-6.1c-4.9,0-8.3,3.8-8.3,9.3c0,4.7,2.2,9.6,8.3,9.6
			c4.1,0,7.1-2.7,7.6-6.8l0-0.2H259.2z"/>
	</defs>
	<clipPath id="SVGID_50_">
		<use xlink:href="#SVGID_49_"  style="overflow:visible;"/>
	</clipPath>
	<rect x="239.9" y="10.8" style="clip-path:url(#SVGID_50_);fill:#FFFFFF;" width="25.9" height="28.9"/>
</g>
<g>
	<defs>
		<path id="SVGID_51_" d="M272.1,17.6v-1.4h-3.9v-5.5h-1.6v5.5h-3.3v1.4h3.3v12.3c-0.1,1.5,0.3,2.6,1,3.3c0.7,0.7,1.8,1.1,3.4,1.1
			c0.3,0,0.6,0,1,0l0.1,0v-1.4l-0.2,0c-0.2,0-0.4,0-0.6,0c-2.1,0-3.1-0.4-3.1-2.9V17.6H272.1z"/>
	</defs>
	<clipPath id="SVGID_52_">
		<use xlink:href="#SVGID_51_"  style="overflow:visible;"/>
	</clipPath>
	<rect x="258.3" y="5.6" style="clip-path:url(#SVGID_52_);fill:#FFFFFF;" width="18.8" height="33.7"/>
</g>
<g>
	<defs>
		<path id="SVGID_53_" d="M288.7,16.2v9.8c0,4.4-2.4,7.3-6.2,7.3c-4.9,0-4.9-4.3-4.9-5.7V16.2h-1.6v11.2c0,2,0,7.3,6.5,7.3
			c2.8,0,5.2-1.5,6.3-3.8v3.3h1.6V16.2H288.7z"/>
	</defs>
	<clipPath id="SVGID_54_">
		<use xlink:href="#SVGID_53_"  style="overflow:visible;"/>
	</clipPath>
	<rect x="270.9" y="11.2" style="clip-path:url(#SVGID_54_);fill:#FFFFFF;" width="24.3" height="28.5"/>
</g>
<g>
	<defs>
		<path id="SVGID_55_" d="M303.9,16.1c-0.1,0-0.2,0-0.3,0c-2.8,0-5.5,1.5-6.4,3.6v-3.5h-1.6v18.1h1.6v-9.9c0.1-2.7,0.7-3.7,2-5
			c1.5-1.5,3.2-1.7,4.1-1.7c0.2,0,0.4,0,0.6,0l0.2,0v-1.6L303.9,16.1z"/>
	</defs>
	<clipPath id="SVGID_56_">
		<use xlink:href="#SVGID_55_"  style="overflow:visible;"/>
	</clipPath>
	<rect x="290.5" y="11.1" style="clip-path:url(#SVGID_56_);fill:#FFFFFF;" width="18.5" height="28.2"/>
</g>
<g>
	<defs>
		<path id="SVGID_57_" d="M314,17.2c4,0,6.2,3.4,6.3,6.9h-12.7C308,20.6,310.2,17.2,314,17.2 M319.6,18c-1.4-1.5-3.3-2.2-5.6-2.2
			c-2.1,0-3.9,0.7-5.3,2.1c-1.7,1.8-2.7,4.6-2.7,7.6c0,2.8,0.8,5.3,2.5,7c1.4,1.4,3.3,2.2,5.5,2.2c4.3,0,7.1-2.3,7.8-6.6l0-0.2h-1.6
			l0,0.1c-0.6,3.2-2.9,5.2-6.2,5.2c-1.7,0-3.1-0.6-4.2-1.7c-1.4-1.4-2.1-3.6-2.1-6h14.3l0-0.1C322.1,22.3,321.3,19.7,319.6,18"/>
	</defs>
	<clipPath id="SVGID_58_">
		<use xlink:href="#SVGID_57_"  style="overflow:visible;"/>
	</clipPath>
	<rect x="301" y="10.8" style="clip-path:url(#SVGID_58_);fill:#FFFFFF;" width="25.9" height="28.9"/>
</g>
</svg>
