<?xml version="1.0" encoding="utf-8"?>
<!-- Generator: Adobe Illustrator 16.0.3, SVG Export Plug-In . SVG Version: 6.00 Build 0)  -->
<!DOCTYPE svg PUBLIC "-//W3C//DTD SVG 1.1//EN" "http://www.w3.org/Graphics/SVG/1.1/DTD/svg11.dtd">
<svg version="1.1" id="Layer_1" xmlns="http://www.w3.org/2000/svg" xmlns:xlink="http://www.w3.org/1999/xlink" x="0px" y="0px"
	 width="612px" height="792px" viewBox="0 0 612 792" enable-background="new 0 0 612 792" xml:space="preserve">
<g>
	<g>
		<defs>
			<polygon id="SVGID_1_" points="226.919,455.672 241.373,455.672 241.373,336.328 226.919,336.328 226.919,333.024 283.7,333.024 
				283.7,336.328 269.247,336.328 269.247,391.044 315.704,391.044 315.704,336.328 301.251,336.328 301.251,333.024 
				357.826,333.024 357.826,336.328 343.372,336.328 343.372,455.672 357.826,455.672 357.826,458.976 301.251,458.976 
				301.251,455.672 315.704,455.672 315.704,394.142 269.247,394.142 269.247,455.672 283.7,455.672 283.7,458.976 226.919,458.976 
							"/>
		</defs>
		<use xlink:href="#SVGID_1_"  overflow="visible" fill="#E6B10E"/>
		<clipPath id="SVGID_2_">
			<use xlink:href="#SVGID_1_"  overflow="visible"/>
		</clipPath>
		<rect x="216.595" y="322.7" clip-path="url(#SVGID_2_)" fill="#E6B10E" width="151.554" height="146.6"/>
	</g>
</g>
<g>
	<g>
		<defs>
			<path id="SVGID_3_" d="M419.976,455.672h8.259c17.964,0,27.668-9.085,27.668-30.972c0-18.996-9.085-30.559-24.983-30.559h-10.943
				V455.672L419.976,455.672z M419.976,391.044h9.704c10.737,0,22.3-7.02,22.3-25.19c0-20.854-7.227-29.526-22.506-29.526h-9.498
				V391.044z M380.332,455.672h11.976V336.328h-11.976v-3.304h56.988c20.028,0,41.502,8.878,41.502,29.732
				c0,19.203-19.409,27.255-36.547,28.701v0.413c24.364,0,43.773,11.563,43.773,32.83c0,19.615-17.551,34.275-50.587,34.275h-54.924
				v-3.304H380.332z"/>
		</defs>
		<use xlink:href="#SVGID_3_"  overflow="visible" fill="#E6B10E"/>
		<clipPath id="SVGID_4_">
			<use xlink:href="#SVGID_3_"  overflow="visible"/>
		</clipPath>
		<rect x="370.008" y="322.7" clip-path="url(#SVGID_4_)" fill="#E6B10E" width="126.158" height="146.6"/>
	</g>
</g>
<g>
	<g>
		<defs>
			<path id="SVGID_5_" d="M559.968,416.234l-15.279-44.186h-0.413l-15.486,44.186H559.968z M499.676,455.879h2.271
				c6.607-0.62,9.704-4.749,11.77-10.53l40.47-112.324h2.684l46.664,122.854H612v3.097h-52.032v-3.097h14.04l-12.802-36.341h-33.862
				l-8.465,24.571c-0.413,1.445-1.239,3.304-1.239,5.162c0,5.781,4.955,6.4,8.466,6.4h4.955v3.098h-31.385V455.879z"/>
		</defs>
		<use xlink:href="#SVGID_5_"  overflow="visible" fill="#E6B10E"/>
		<clipPath id="SVGID_6_">
			<use xlink:href="#SVGID_5_"  overflow="visible"/>
		</clipPath>
		<rect x="489.353" y="322.7" clip-path="url(#SVGID_6_)" fill="#E6B10E" width="133.178" height="146.6"/>
	</g>
</g>
<g>
	<g>
		<defs>
			<polygon id="SVGID_7_" points="77.636,373.494 77.636,337.773 113.356,337.773 			"/>
		</defs>
		<use xlink:href="#SVGID_7_"  overflow="visible" fill="#E6B10E"/>
		<clipPath id="SVGID_8_">
			<use xlink:href="#SVGID_7_"  overflow="visible"/>
		</clipPath>
		<rect x="67.312" y="327.449" clip-path="url(#SVGID_8_)" fill="#E6B10E" width="56.162" height="56.369"/>
	</g>
</g>
<g>
	<g>
		<defs>
			<rect id="SVGID_9_" x="37.373" y="337.773" width="35.514" height="35.721"/>
		</defs>
		<use xlink:href="#SVGID_9_"  overflow="visible" fill="#E6B10E"/>
		<clipPath id="SVGID_10_">
			<use xlink:href="#SVGID_9_"  overflow="visible"/>
		</clipPath>
		<rect x="27.049" y="327.449" clip-path="url(#SVGID_10_)" fill="#E6B10E" width="56.162" height="56.369"/>
	</g>
</g>
<g>
	<g>
		<defs>
			<rect id="SVGID_11_" x="118.105" y="337.773" width="35.514" height="35.721"/>
		</defs>
		<use xlink:href="#SVGID_11_"  overflow="visible" fill="#E6B10E"/>
		<clipPath id="SVGID_12_">
			<use xlink:href="#SVGID_11_"  overflow="visible"/>
		</clipPath>
		<rect x="107.781" y="327.449" clip-path="url(#SVGID_12_)" fill="#E6B10E" width="56.162" height="56.369"/>
	</g>
</g>
<g>
	<g>
		<defs>
			<path id="SVGID_13_" d="M95.599,300.194c-9.911,0-17.757,8.053-17.757,17.757v15.073h35.514v-15.073
				C113.356,308.247,105.304,300.194,95.599,300.194"/>
		</defs>
		<use xlink:href="#SVGID_13_"  overflow="visible" fill="#E6B10E"/>
		<clipPath id="SVGID_14_">
			<use xlink:href="#SVGID_13_"  overflow="visible"/>
		</clipPath>
		<rect x="67.312" y="289.871" clip-path="url(#SVGID_14_)" fill="#E6B10E" width="56.162" height="53.478"/>
	</g>
</g>
<g>
	<g>
		<defs>
			<rect id="SVGID_15_" x="118.105" y="418.506" width="35.514" height="35.721"/>
		</defs>
		<use xlink:href="#SVGID_15_"  overflow="visible" fill="#E6B10E"/>
		<clipPath id="SVGID_16_">
			<use xlink:href="#SVGID_15_"  overflow="visible"/>
		</clipPath>
		<rect x="107.781" y="408.183" clip-path="url(#SVGID_16_)" fill="#E6B10E" width="56.162" height="56.368"/>
	</g>
</g>
<g>
	<g>
		<defs>
			<polygon id="SVGID_17_" points="113.356,418.506 113.356,454.227 77.636,454.227 			"/>
		</defs>
		<use xlink:href="#SVGID_17_"  overflow="visible" fill="#E6B10E"/>
		<clipPath id="SVGID_18_">
			<use xlink:href="#SVGID_17_"  overflow="visible"/>
		</clipPath>
		<rect x="67.312" y="408.183" clip-path="url(#SVGID_18_)" fill="#E6B10E" width="56.162" height="56.368"/>
	</g>
</g>
<g>
	<g>
		<defs>
			<rect id="SVGID_19_" x="37.373" y="418.506" width="35.514" height="35.721"/>
		</defs>
		<use xlink:href="#SVGID_19_"  overflow="visible" fill="#E6B10E"/>
		<clipPath id="SVGID_20_">
			<use xlink:href="#SVGID_19_"  overflow="visible"/>
		</clipPath>
		<rect x="27.049" y="408.183" clip-path="url(#SVGID_20_)" fill="#E6B10E" width="56.162" height="56.368"/>
	</g>
</g>
<g>
	<g>
		<defs>
			<path id="SVGID_21_" d="M95.599,491.806c9.911,0,17.757-8.053,17.757-17.757v-15.073H77.636v15.073
				C77.636,483.753,85.688,491.806,95.599,491.806"/>
		</defs>
		<use xlink:href="#SVGID_21_"  overflow="visible" fill="#E6B10E"/>
		<clipPath id="SVGID_22_">
			<use xlink:href="#SVGID_21_"  overflow="visible"/>
		</clipPath>
		<rect x="67.312" y="448.651" clip-path="url(#SVGID_22_)" fill="#E6B10E" width="56.162" height="53.479"/>
	</g>
</g>
<g>
	<g>
		<defs>
			<polygon id="SVGID_23_" points="118.105,378.037 153.62,378.037 153.62,413.757 			"/>
		</defs>
		<use xlink:href="#SVGID_23_"  overflow="visible" fill="#E6B10E"/>
		<clipPath id="SVGID_24_">
			<use xlink:href="#SVGID_23_"  overflow="visible"/>
		</clipPath>
		<rect x="107.781" y="367.712" clip-path="url(#SVGID_24_)" fill="#E6B10E" width="56.162" height="56.369"/>
	</g>
</g>
<g>
	<g>
		<defs>
			<path id="SVGID_25_" d="M190.992,396c0-9.911-8.052-17.757-17.757-17.757h-14.866v35.514h14.866
				C183.146,413.757,190.992,405.911,190.992,396"/>
		</defs>
		<use xlink:href="#SVGID_25_"  overflow="visible" fill="#E6B10E"/>
		<clipPath id="SVGID_26_">
			<use xlink:href="#SVGID_25_"  overflow="visible"/>
		</clipPath>
		<rect x="148.044" y="367.919" clip-path="url(#SVGID_26_)" fill="#E6B10E" width="53.478" height="56.368"/>
	</g>
</g>
<g>
	<g>
		<defs>
			<polygon id="SVGID_27_" points="73.093,413.757 37.373,413.757 37.373,378.243 			"/>
		</defs>
		<use xlink:href="#SVGID_27_"  overflow="visible" fill="#E6B10E"/>
		<clipPath id="SVGID_28_">
			<use xlink:href="#SVGID_27_"  overflow="visible"/>
		</clipPath>
		<rect x="27.049" y="367.919" clip-path="url(#SVGID_28_)" fill="#E6B10E" width="56.162" height="56.368"/>
	</g>
</g>
<g>
	<g>
		<defs>
			<path id="SVGID_29_" d="M0,396c0,9.911,8.053,17.757,17.757,17.757h14.866v-35.514H17.757C8.053,378.243,0,386.089,0,396"/>
		</defs>
		<use xlink:href="#SVGID_29_"  overflow="visible" fill="#E6B10E"/>
		<clipPath id="SVGID_30_">
			<use xlink:href="#SVGID_29_"  overflow="visible"/>
		</clipPath>
		<rect x="-10.324" y="367.919" clip-path="url(#SVGID_30_)" fill="#E6B10E" width="53.478" height="56.368"/>
	</g>
</g>
<g>
	<g>
		<defs>
			<rect id="SVGID_31_" x="77.636" y="378.037" width="35.514" height="35.72"/>
		</defs>
		<use xlink:href="#SVGID_31_"  overflow="visible" fill="#FFFFFF"/>
		<clipPath id="SVGID_32_">
			<use xlink:href="#SVGID_31_"  overflow="visible"/>
		</clipPath>
		<rect x="67.312" y="367.712" clip-path="url(#SVGID_32_)" fill="#FFFFFF" width="56.162" height="56.369"/>
	</g>
</g>
</svg>
