<?xml version="1.0" encoding="utf-8"?>
<!-- Generator: Adobe Illustrator 16.0.3, SVG Export Plug-In . SVG Version: 6.00 Build 0)  -->
<!DOCTYPE svg PUBLIC "-//W3C//DTD SVG 1.1//EN" "http://www.w3.org/Graphics/SVG/1.1/DTD/svg11.dtd">
<svg version="1.1" id="Layer_1" xmlns="http://www.w3.org/2000/svg" xmlns:xlink="http://www.w3.org/1999/xlink" x="0px" y="0px"
	 width="612px" height="792px" viewBox="0 0 612 792" enable-background="new 0 0 612 792" xml:space="preserve">
<g>
	<g>
		<defs>
			<polygon id="SVGID_1_" points="93.32,420.613 99.212,420.613 99.212,371.387 93.32,371.387 93.32,370.057 116.698,370.057 
				116.698,371.387 110.616,371.387 110.616,393.814 129.813,393.814 129.813,371.387 123.73,371.387 123.73,370.057 
				147.108,370.057 147.108,371.387 141.216,371.387 141.216,420.613 147.108,420.613 147.108,421.943 123.73,421.943 
				123.73,420.613 129.813,420.613 129.813,395.145 110.616,395.145 110.616,420.613 116.698,420.613 116.698,421.943 
				93.32,421.943 			"/>
		</defs>
		<use xlink:href="#SVGID_1_"  overflow="visible" fill="#E6B10E"/>
		<clipPath id="SVGID_2_">
			<use xlink:href="#SVGID_1_"  overflow="visible"/>
		</clipPath>
		<rect x="83.817" y="360.553" clip-path="url(#SVGID_2_)" fill="#E6B10E" width="72.794" height="70.704"/>
	</g>
</g>
<g>
	<g>
		<defs>
			<path id="SVGID_3_" d="M172.576,420.613h3.421c7.413,0,11.404-3.802,11.404-12.734c0-7.793-3.801-12.544-10.264-12.544h-4.562
				V420.613z M172.576,393.814h3.992c4.371,0,9.123-2.851,9.123-10.454c0-8.553-3.041-12.164-9.313-12.164h-3.801V393.814z
				 M156.421,420.613h4.942v-49.227h-4.942v-1.33h23.378c8.173,0,17.105,3.611,17.105,12.164c0,7.792-7.982,11.213-15.015,11.784
				v0.19c10.073,0,18.056,4.752,18.056,13.494c0,8.173-7.222,14.065-20.907,14.065h-22.618V420.613z"/>
		</defs>
		<use xlink:href="#SVGID_3_"  overflow="visible" fill="#E6B10E"/>
		<clipPath id="SVGID_4_">
			<use xlink:href="#SVGID_3_"  overflow="visible"/>
		</clipPath>
		<rect x="146.918" y="360.553" clip-path="url(#SVGID_4_)" fill="#E6B10E" width="62.34" height="70.704"/>
	</g>
</g>
<g>
	<g>
		<defs>
			<path id="SVGID_5_" d="M230.165,404.268l-6.272-18.246h-0.19l-6.462,18.246H230.165z M205.457,420.613h0.95
				c2.661-0.19,3.992-1.9,4.942-4.372l16.726-46.185h1.14l19.196,50.557h3.611v1.33h-21.287v-1.33h5.702l-5.322-15.016h-13.875
				l-3.421,10.074c-0.19,0.569-0.57,1.33-0.57,2.09c0,2.281,2.091,2.661,3.421,2.661h2.09v1.331h-12.924v-1.141H205.457z"/>
		</defs>
		<use xlink:href="#SVGID_5_"  overflow="visible" fill="#E6B10E"/>
		<clipPath id="SVGID_6_">
			<use xlink:href="#SVGID_5_"  overflow="visible"/>
		</clipPath>
		<rect x="195.954" y="360.553" clip-path="url(#SVGID_6_)" fill="#E6B10E" width="65.191" height="70.704"/>
	</g>
</g>
<g>
	<g>
		<defs>
			<polygon id="SVGID_7_" points="31.931,386.592 31.931,371.957 46.565,371.957 			"/>
		</defs>
		<use xlink:href="#SVGID_7_"  overflow="visible" fill="#E6B10E"/>
		<clipPath id="SVGID_8_">
			<use xlink:href="#SVGID_7_"  overflow="visible"/>
		</clipPath>
		<rect x="22.427" y="362.454" clip-path="url(#SVGID_8_)" fill="#E6B10E" width="33.641" height="33.641"/>
	</g>
</g>
<g>
	<g>
		<defs>
			<rect id="SVGID_9_" x="15.395" y="371.957" width="14.635" height="14.635"/>
		</defs>
		<use xlink:href="#SVGID_9_"  overflow="visible" fill="#E6B10E"/>
		<clipPath id="SVGID_10_">
			<use xlink:href="#SVGID_9_"  overflow="visible"/>
		</clipPath>
		<rect x="5.892" y="362.454" clip-path="url(#SVGID_10_)" fill="#E6B10E" width="33.641" height="33.641"/>
	</g>
</g>
<g>
	<g>
		<defs>
			<rect id="SVGID_11_" x="48.466" y="371.957" width="14.635" height="14.635"/>
		</defs>
		<use xlink:href="#SVGID_11_"  overflow="visible" fill="#E6B10E"/>
		<clipPath id="SVGID_12_">
			<use xlink:href="#SVGID_11_"  overflow="visible"/>
		</clipPath>
		<rect x="38.963" y="362.454" clip-path="url(#SVGID_12_)" fill="#E6B10E" width="33.641" height="33.641"/>
	</g>
</g>
<g>
	<g>
		<defs>
			<path id="SVGID_13_" d="M39.343,356.562c-3.991,0-7.412,3.231-7.412,7.413v6.082h14.635v-6.082
				C46.565,359.793,43.334,356.562,39.343,356.562"/>
		</defs>
		<use xlink:href="#SVGID_13_"  overflow="visible" fill="#E6B10E"/>
		<clipPath id="SVGID_14_">
			<use xlink:href="#SVGID_13_"  overflow="visible"/>
		</clipPath>
		<rect x="22.427" y="347.059" clip-path="url(#SVGID_14_)" fill="#E6B10E" width="33.641" height="32.5"/>
	</g>
</g>
<g>
	<g>
		<defs>
			<rect id="SVGID_15_" x="48.466" y="405.218" width="14.635" height="14.635"/>
		</defs>
		<use xlink:href="#SVGID_15_"  overflow="visible" fill="#E6B10E"/>
		<clipPath id="SVGID_16_">
			<use xlink:href="#SVGID_15_"  overflow="visible"/>
		</clipPath>
		<rect x="38.963" y="395.715" clip-path="url(#SVGID_16_)" fill="#E6B10E" width="33.641" height="33.641"/>
	</g>
</g>
<g>
	<g>
		<defs>
			<polygon id="SVGID_17_" points="46.565,405.218 46.565,419.853 31.931,419.853 			"/>
		</defs>
		<use xlink:href="#SVGID_17_"  overflow="visible" fill="#E6B10E"/>
		<clipPath id="SVGID_18_">
			<use xlink:href="#SVGID_17_"  overflow="visible"/>
		</clipPath>
		<rect x="22.427" y="395.715" clip-path="url(#SVGID_18_)" fill="#E6B10E" width="33.641" height="33.641"/>
	</g>
</g>
<g>
	<g>
		<defs>
			<rect id="SVGID_19_" x="15.395" y="405.218" width="14.635" height="14.635"/>
		</defs>
		<use xlink:href="#SVGID_19_"  overflow="visible" fill="#E6B10E"/>
		<clipPath id="SVGID_20_">
			<use xlink:href="#SVGID_19_"  overflow="visible"/>
		</clipPath>
		<rect x="5.892" y="395.715" clip-path="url(#SVGID_20_)" fill="#E6B10E" width="33.641" height="33.641"/>
	</g>
</g>
<g>
	<g>
		<defs>
			<path id="SVGID_21_" d="M39.343,435.438c3.991,0,7.223-3.23,7.223-7.412v-6.082H31.931v6.082
				C31.931,432.017,35.162,435.438,39.343,435.438"/>
		</defs>
		<use xlink:href="#SVGID_21_"  overflow="visible" fill="#E6B10E"/>
		<clipPath id="SVGID_22_">
			<use xlink:href="#SVGID_21_"  overflow="visible"/>
		</clipPath>
		<rect x="22.427" y="412.44" clip-path="url(#SVGID_22_)" fill="#E6B10E" width="33.641" height="32.501"/>
	</g>
</g>
<g>
	<g>
		<defs>
			<polygon id="SVGID_23_" points="48.466,388.683 63.101,388.683 63.101,403.317 			"/>
		</defs>
		<use xlink:href="#SVGID_23_"  overflow="visible" fill="#E6B10E"/>
		<clipPath id="SVGID_24_">
			<use xlink:href="#SVGID_23_"  overflow="visible"/>
		</clipPath>
		<rect x="38.963" y="379.18" clip-path="url(#SVGID_24_)" fill="#E6B10E" width="33.641" height="33.641"/>
	</g>
</g>
<g>
	<g>
		<defs>
			<path id="SVGID_25_" d="M78.496,395.905c0-3.991-3.231-7.412-7.222-7.412h-6.082v14.634h6.082
				C75.265,403.317,78.496,400.086,78.496,395.905"/>
		</defs>
		<use xlink:href="#SVGID_25_"  overflow="visible" fill="#E6B10E"/>
		<clipPath id="SVGID_26_">
			<use xlink:href="#SVGID_25_"  overflow="visible"/>
		</clipPath>
		<rect x="55.498" y="379.18" clip-path="url(#SVGID_26_)" fill="#E6B10E" width="32.5" height="33.641"/>
	</g>
</g>
<g>
	<g>
		<defs>
			<polygon id="SVGID_27_" points="30.03,403.317 15.395,403.317 15.395,388.683 			"/>
		</defs>
		<use xlink:href="#SVGID_27_"  overflow="visible" fill="#E6B10E"/>
		<clipPath id="SVGID_28_">
			<use xlink:href="#SVGID_27_"  overflow="visible"/>
		</clipPath>
		<rect x="5.892" y="379.18" clip-path="url(#SVGID_28_)" fill="#E6B10E" width="33.641" height="33.641"/>
	</g>
</g>
<g>
	<g>
		<defs>
			<path id="SVGID_29_" d="M0,395.905c0,3.992,3.231,7.413,7.222,7.413h6.082v-14.635H7.222C3.231,388.683,0,391.914,0,395.905"/>
		</defs>
		<use xlink:href="#SVGID_29_"  overflow="visible" fill="#E6B10E"/>
		<clipPath id="SVGID_30_">
			<use xlink:href="#SVGID_29_"  overflow="visible"/>
		</clipPath>
		<rect x="-9.503" y="379.18" clip-path="url(#SVGID_30_)" fill="#E6B10E" width="32.5" height="33.641"/>
	</g>
</g>
<g>
	<g>
		<defs>
			<rect id="SVGID_31_" x="31.931" y="388.683" width="14.635" height="14.635"/>
		</defs>
		<use xlink:href="#SVGID_31_"  overflow="visible" fill="#E6B10E"/>
		<clipPath id="SVGID_32_">
			<use xlink:href="#SVGID_31_"  overflow="visible"/>
		</clipPath>
		<rect x="22.427" y="379.18" clip-path="url(#SVGID_32_)" fill="#E6B10E" width="33.641" height="33.641"/>
	</g>
</g>
<g>
	<g>
		<defs>
			<path id="SVGID_33_" d="M285.664,402.938v5.701c0,0.19-0.38,11.214-12.354,11.214c-5.322,0-8.553-2.66-8.553-7.032
				c0-4.562,2.851-6.842,8.933-7.603c1.331-0.189,2.471-0.189,3.801-0.38C280.722,404.458,283.953,404.268,285.664,402.938z
				 M292.505,418.713c-0.76,0.189-1.33,0.189-1.71,0.189c-1.9,0-1.9-1.521-1.9-3.801v-19.577c0-7.603-6.652-9.123-12.164-9.123
				c-8.173,0-12.734,3.991-13.114,11.404v0.38h3.041v-0.189c0.38-5.512,3.991-8.743,10.073-8.743c7.603,0,9.123,4.941,9.123,6.272
				c0,5.131,0,5.892-11.404,6.652c-5.512,0.38-12.734,2.091-12.734,10.264c0,6.462,3.991,9.883,11.594,9.883
				c6.652,0,10.644-3.421,12.354-6.651v0.76c0,2.661,0.57,5.132,4.751,5.132c0.57,0,1.14-0.19,1.9-0.19h0.38v-2.66H292.505z"/>
		</defs>
		<use xlink:href="#SVGID_33_"  overflow="visible" fill="#E6B10E"/>
		<clipPath id="SVGID_34_">
			<use xlink:href="#SVGID_33_"  overflow="visible"/>
		</clipPath>
		<rect x="252.212" y="377.089" clip-path="url(#SVGID_34_)" fill="#E6B10E" width="49.986" height="54.928"/>
	</g>
</g>
<g>
	<g>
		<defs>
			<path id="SVGID_35_" d="M315.123,387.162c-0.19,0-0.38,0-0.57,0c-5.321,0-10.453,2.851-12.164,6.842v-6.652h-3.041v34.402h3.041
				v-18.816c0.19-5.132,1.331-7.033,3.802-9.503c2.851-2.851,6.082-3.231,7.792-3.231c0.38,0,0.761,0,1.141,0h0.38v-3.041H315.123z"
				/>
		</defs>
		<use xlink:href="#SVGID_35_"  overflow="visible" fill="#E6B10E"/>
		<clipPath id="SVGID_36_">
			<use xlink:href="#SVGID_35_"  overflow="visible"/>
		</clipPath>
		<rect x="289.845" y="377.659" clip-path="url(#SVGID_36_)" fill="#E6B10E" width="35.161" height="53.598"/>
	</g>
</g>
<g>
	<g>
		<defs>
			<path id="SVGID_37_" d="M346.483,409.209v0.19c-0.761,6.082-5.512,10.264-11.404,10.264c-7.982,0-12.733-5.893-12.733-15.585
				c0-7.413,4.371-14.825,12.733-14.825c6.463,0,10.644,3.421,11.214,8.743v0.189h3.041v-0.38
				c-0.76-7.223-5.892-11.594-14.255-11.594c-9.313,0-15.774,7.222-15.774,17.676c0,8.933,4.181,18.246,15.774,18.246
				c7.793,0,13.495-5.132,14.445-12.925v-0.38h-3.041V409.209z"/>
		</defs>
		<use xlink:href="#SVGID_37_"  overflow="visible" fill="#E6B10E"/>
		<clipPath id="SVGID_38_">
			<use xlink:href="#SVGID_37_"  overflow="visible"/>
		</clipPath>
		<rect x="309.801" y="377.089" clip-path="url(#SVGID_38_)" fill="#E6B10E" width="49.227" height="54.928"/>
	</g>
</g>
<g>
	<g>
		<defs>
			<path id="SVGID_39_" d="M372.902,386.592c-5.322,0-9.884,2.851-11.975,7.223v-19.577h-3.041v47.516h3.041v-18.627
				c0-8.362,4.562-13.874,11.784-13.874c9.313,0,9.313,8.173,9.313,10.833v21.668h3.041v-21.287
				C385.256,396.665,385.256,386.592,372.902,386.592"/>
		</defs>
		<use xlink:href="#SVGID_39_"  overflow="visible" fill="#E6B10E"/>
		<clipPath id="SVGID_40_">
			<use xlink:href="#SVGID_39_"  overflow="visible"/>
		</clipPath>
		<rect x="348.384" y="364.735" clip-path="url(#SVGID_40_)" fill="#E6B10E" width="46.186" height="66.522"/>
	</g>
</g>
<g>
	<g>
		<defs>
			<rect id="SVGID_41_" x="395.899" y="387.352" width="3.041" height="34.402"/>
		</defs>
		<use xlink:href="#SVGID_41_"  overflow="visible" fill="#E6B10E"/>
		<clipPath id="SVGID_42_">
			<use xlink:href="#SVGID_41_"  overflow="visible"/>
		</clipPath>
		<rect x="386.396" y="377.849" clip-path="url(#SVGID_42_)" fill="#E6B10E" width="22.047" height="53.408"/>
	</g>
</g>
<g>
	<g>
		<defs>
			<rect id="SVGID_43_" x="395.899" y="374.238" width="3.041" height="7.413"/>
		</defs>
		<use xlink:href="#SVGID_43_"  overflow="visible" fill="#E6B10E"/>
		<clipPath id="SVGID_44_">
			<use xlink:href="#SVGID_43_"  overflow="visible"/>
		</clipPath>
		<rect x="386.396" y="364.735" clip-path="url(#SVGID_44_)" fill="#E6B10E" width="22.047" height="26.418"/>
	</g>
</g>
<g>
	<g>
		<defs>
			<path id="SVGID_45_" d="M422.508,390.013v-2.661h-7.412v-10.453h-3.041v10.453h-6.272v2.661h6.272v23.377
				c-0.19,2.851,0.57,4.941,1.9,6.272c1.331,1.33,3.421,2.091,6.462,2.091c0.57,0,1.141,0,1.901,0h0.189v-2.661h-0.38
				c-0.38,0-0.76,0-1.141,0c-3.991,0-5.892-0.761-5.892-5.512v-23.568H422.508z"/>
		</defs>
		<use xlink:href="#SVGID_45_"  overflow="visible" fill="#E6B10E"/>
		<clipPath id="SVGID_46_">
			<use xlink:href="#SVGID_45_"  overflow="visible"/>
		</clipPath>
		<rect x="396.279" y="367.206" clip-path="url(#SVGID_46_)" fill="#E6B10E" width="35.731" height="64.051"/>
	</g>
</g>
<g>
	<g>
		<defs>
			<path id="SVGID_47_" d="M443.415,389.253c7.603,0,11.784,6.462,11.974,13.114h-24.138
				C432.011,395.715,436.192,389.253,443.415,389.253 M454.059,390.773c-2.661-2.851-6.272-4.182-10.644-4.182
				c-3.991,0-7.412,1.331-10.073,3.991c-3.231,3.421-5.132,8.743-5.132,14.445c0,5.321,1.521,10.073,4.752,13.304
				c2.66,2.661,6.271,4.182,10.453,4.182c8.173,0,13.494-4.371,14.825-12.544v-0.38h-3.041v0.189
				c-1.141,6.082-5.513,9.884-11.784,9.884c-3.231,0-5.892-1.141-7.982-3.231c-2.661-2.661-3.991-6.842-3.991-11.403h27.179v-0.19
				C458.81,398.946,457.289,394.004,454.059,390.773"/>
		</defs>
		<use xlink:href="#SVGID_47_"  overflow="visible" fill="#E6B10E"/>
		<clipPath id="SVGID_48_">
			<use xlink:href="#SVGID_47_"  overflow="visible"/>
		</clipPath>
		<rect x="418.707" y="377.089" clip-path="url(#SVGID_48_)" fill="#E6B10E" width="49.226" height="54.928"/>
	</g>
</g>
<g>
	<g>
		<defs>
			<path id="SVGID_49_" d="M492.641,409.209v0.19c-0.76,6.082-5.512,10.264-11.403,10.264c-7.982,0-12.734-5.893-12.734-15.585
				c0-7.413,4.372-14.825,12.734-14.825c6.462,0,10.644,3.421,11.023,8.743v0.189h3.041v-0.38
				c-0.76-7.223-5.892-11.594-14.255-11.594c-9.313,0-15.774,7.222-15.774,17.676c0,8.933,4.181,18.246,15.774,18.246
				c7.793,0,13.495-5.132,14.445-12.925v-0.38h-2.852V409.209z"/>
		</defs>
		<use xlink:href="#SVGID_49_"  overflow="visible" fill="#E6B10E"/>
		<clipPath id="SVGID_50_">
			<use xlink:href="#SVGID_49_"  overflow="visible"/>
		</clipPath>
		<rect x="455.959" y="377.089" clip-path="url(#SVGID_50_)" fill="#E6B10E" width="49.227" height="54.928"/>
	</g>
</g>
<g>
	<g>
		<defs>
			<path id="SVGID_51_" d="M517.159,390.013v-2.661h-7.412v-10.453h-3.041v10.453h-6.272v2.661h6.272v23.377
				c-0.19,2.851,0.569,4.941,1.9,6.272c1.33,1.33,3.421,2.091,6.462,2.091c0.57,0,1.141,0,1.9,0h0.19v-2.661h-0.38
				c-0.381,0-0.761,0-1.141,0c-3.991,0-5.893-0.761-5.893-5.512v-23.568H517.159z"/>
		</defs>
		<use xlink:href="#SVGID_51_"  overflow="visible" fill="#E6B10E"/>
		<clipPath id="SVGID_52_">
			<use xlink:href="#SVGID_51_"  overflow="visible"/>
		</clipPath>
		<rect x="490.931" y="367.206" clip-path="url(#SVGID_52_)" fill="#E6B10E" width="35.731" height="64.051"/>
	</g>
</g>
<g>
	<g>
		<defs>
			<path id="SVGID_53_" d="M548.709,387.352v18.626c0,8.362-4.562,13.874-11.783,13.874c-9.313,0-9.313-8.173-9.313-10.833v-21.667
				h-3.041v21.287c0,3.802,0,13.875,12.354,13.875c5.321,0,9.883-2.851,11.974-7.223v6.272h3.041v-34.211H548.709z"/>
		</defs>
		<use xlink:href="#SVGID_53_"  overflow="visible" fill="#E6B10E"/>
		<clipPath id="SVGID_54_">
			<use xlink:href="#SVGID_53_"  overflow="visible"/>
		</clipPath>
		<rect x="514.878" y="377.849" clip-path="url(#SVGID_54_)" fill="#E6B10E" width="46.186" height="54.167"/>
	</g>
</g>
<g>
	<g>
		<defs>
			<path id="SVGID_55_" d="M577.599,387.162c-0.19,0-0.38,0-0.57,0c-5.321,0-10.453,2.851-12.164,6.842v-6.652h-3.041v34.402h3.041
				v-18.816c0.19-5.132,1.331-7.033,3.802-9.503c2.851-2.851,6.082-3.231,7.792-3.231c0.381,0,0.761,0,1.141,0h0.38v-3.041H577.599z
				"/>
		</defs>
		<use xlink:href="#SVGID_55_"  overflow="visible" fill="#E6B10E"/>
		<clipPath id="SVGID_56_">
			<use xlink:href="#SVGID_55_"  overflow="visible"/>
		</clipPath>
		<rect x="552.131" y="377.659" clip-path="url(#SVGID_56_)" fill="#E6B10E" width="35.161" height="53.598"/>
	</g>
</g>
<g>
	<g>
		<defs>
			<path id="SVGID_57_" d="M596.795,389.253c7.603,0,11.784,6.462,11.974,13.114h-24.138
				C585.392,395.715,589.572,389.253,596.795,389.253 M607.438,390.773c-2.661-2.851-6.272-4.182-10.644-4.182
				c-3.991,0-7.412,1.331-10.073,3.991c-3.231,3.421-5.132,8.743-5.132,14.445c0,5.321,1.521,10.073,4.752,13.304
				c2.661,2.661,6.271,4.182,10.453,4.182c8.173,0,13.494-4.371,14.825-12.544v-0.38h-3.041v0.189
				c-1.141,6.082-5.512,9.884-11.784,9.884c-3.231,0-5.892-1.141-7.982-3.231c-2.661-2.661-3.991-6.842-3.991-11.403H612v-0.19
				C612.19,398.946,610.67,394.004,607.438,390.773"/>
		</defs>
		<use xlink:href="#SVGID_57_"  overflow="visible" fill="#E6B10E"/>
		<clipPath id="SVGID_58_">
			<use xlink:href="#SVGID_57_"  overflow="visible"/>
		</clipPath>
		<rect x="572.087" y="377.089" clip-path="url(#SVGID_58_)" fill="#E6B10E" width="49.227" height="54.928"/>
	</g>
</g>
</svg>
