<?xml version="1.0" encoding="utf-8"?>
<!-- Generator: Adobe Illustrator 21.1.0, SVG Export Plug-In . SVG Version: 6.00 Build 0)  -->
<svg version="1.1" id="Layer_1" xmlns="http://www.w3.org/2000/svg" xmlns:xlink="http://www.w3.org/1999/xlink" x="0px" y="0px"
	 viewBox="0 0 210.8 40.9" style="enable-background:new 0 0 210.8 40.9;" xml:space="preserve">
<g>
	<defs>
		<path id="SVGID_1_" d="M54.7,23.8C58.8,14,68.9,13,73,19.1c0-2.6,0-4.7,0-6.8c0-2.7-0.1-5.4,0-8.1c0-1.4-0.4-1.9-1.8-1.9
			c-0.9,0-2.5,0.6-2.5-0.5c0-0.9,1.7-0.4,2.6-0.4c3.1-0.1,6.2,0.3,9.3-1.4c0,4.7,0.1,9.2,0,13.6c-0.1,1.9,0.5,2.5,2.4,2.4
			c3.1-0.2,6.4,0.3,9.5-1.2v8.2c0.1,0.1,0.3,0.2,0.4,0.3c2.1-4.5,5.4-7.2,10.2-7.9c4.7-0.7,8.9,0.6,12.1,4.1
			c4.7,5.2,4.1,13.8-1.2,18.2c-6.5,5.4-14.6,3.8-21.3-4.6c0,2-0.1,3.7,0,5.3c0.1,1.2,1.3,0.5,2,0.7c0.5,0.1,1.5-0.3,1.5,0.4
			c0,1-1,0.6-1.6,0.6c-6.4,0-12.8,0-19.2,0.1c-1.7,0-2.9-0.1-2.6-2.9c-3,3.7-6.5,4.1-10.2,2.9c-3.7-1.1-6-3.7-8-7c0,1.6,0,3.3,0,4.9
			c0,0.7,0.3,1,1,1c0.7,0,1.3,0,2,0c0.4,0,0.7,0.1,0.6,0.6c0,0.3-0.3,0.4-0.6,0.4c-3.3,0-6.6,0-9.9,0c-0.7,0-0.9-0.4-0.9-1.1
			c0-0.7,0-1.5,0-2.6c-5.1,4.8-10.2,6.3-15.9,1.2c-1.8,2.2-4.3,3.4-7.4,3c-2.8-0.3-4.5-2.1-5.5-5.9c-0.2,0.3-0.3,0.5-0.5,0.7
			c-2.3,4.4-6.2,6.2-11,4.8c-1.8-0.5-3.7-1.8-5.4,0.2c-0.4,0.4-1,0.2-1-0.4c0-2.6,0-5.3,0-7.9c0-0.4,0.1-0.7,0.6-0.7
			c0.4,0,0.5,0.4,0.6,0.7c0.8,2.1,1.8,4.1,3.6,5.6c2,1.7,4.3,2.6,6.9,1.7c1.6-0.5,2.6-1.6,3.1-3.2c0.5-2-0.3-3.5-2.3-4
			c-1.8-0.4-3.7-0.6-5.6-0.9c-5.5-0.8-8-4.5-6.9-9.8c1-4.7,5.7-7.6,10.4-5.8c3.4,1.2,6.3,0.6,9.1-1c3-1.7,4.2-4.8,4.8-8.1
			c0.2-0.9-0.4-2.5,0.9-2.5c1,0,0.4,1.6,0.4,2.5c0.1,2.6,0.1,5.1,0,7.7c0,1.3,0.4,1.6,1.6,1.6c3.2-0.2,6.5,0.4,9.6-0.9
			c1.2-0.5,0.8,0.5,0.8,1c0,3.5,0,7,0,10.6c0,2.9,0,5.8,0.1,8.7c0,1.3,0.2,2.6,1.7,3.2c1.5,0.6,2.9,0.3,4.1-0.8
			c1.7-1.5,2.9-3.4,2.9-5.8c0.1-4.5,0-8.9,0.1-13.4c0-1.8-1.1-1.4-2.2-1.5c-0.5,0-1.4,0.2-1.4-0.7c0.1-0.7,0.9-0.4,1.4-0.4
			c3.1-0.1,6.2,0.3,9.2-0.9c1-0.4,0.7,0.5,0.7,0.9C54.7,18.4,54.7,20.9,54.7,23.8 M62.6,27.6c0.1,3.1-0.3,6.1,0.8,9
			c1,2.6,3.3,3.6,5.9,2.5c2.7-1.2,3.7-3.5,3.8-6.2c0.1-3.2,0.1-6.4,0-9.5c0-1.9-0.7-3.7-2.1-5.1c-1.4-1.3-3-2-5-1.5
			c-1.9,0.5-2.6,2-3,3.7C62.3,22.9,62.7,25.3,62.6,27.6 M109.8,27.7c-0.2-2.3,0.3-5.1-0.3-7.9c-0.6-2.5-2-3.5-4.5-3.5
			c-2.3,0.1-3.8,1.2-4,3.7c-0.6,5.4-0.6,10.9,0,16.3c0.4,3.1,4.1,4.6,6.7,2.8c1.6-1.2,2-3,2.1-4.8C109.9,32.3,109.8,30.2,109.8,27.7
			 M18.4,28.4c0-0.3,0-0.6,0-0.9c0-3.2,0-6.3,0-9.5c0-0.7-0.1-1.2-1-1.1c-0.8,0.1-0.9,0.6-0.9,1.2c0,1.1,0,2.2,0,3.2
			c0,0.5,0.3,1.3-0.3,1.4c-0.8,0.2-0.9-0.7-1.1-1.2c-0.6-1.3-1.3-2.5-2.3-3.5C10.3,15.7,6,15.6,4,17.9c-1.8,2-1.1,4.4,1.4,5.2
			c1,0.3,2,0.4,3,0.6C12,24.5,16.2,24.2,18.4,28.4 M26,27.1L26,27.1c0,3,0,6,0,8.9c0,1,0.2,1.9,1.3,2.3c1.1,0.3,1.9-0.1,2.7-0.9
			c1.1-1,0.4-2.1,0.4-3.2c0-5.3-0.1-10.6,0-15.8c0-2-1.3-1.5-2.4-1.5c-1,0-2.2-0.3-2.1,1.5C26.1,21.3,26,24.2,26,27.1 M84.9,28.1
			c0-3.2-0.1-6.3,0-9.5c0.1-1.6-0.8-1.7-2-1.6c-1.1,0.1-2.3-0.4-2.3,1.5c0.1,6.4,0.1,12.8,0,19.2c0,2.1,1.4,1.3,2.4,1.4
			c1.1,0.1,2,0.1,1.9-1.5C84.9,34.5,84.9,31.3,84.9,28.1"/>
	</defs>
	<clipPath id="SVGID_2_">
		<use xlink:href="#SVGID_1_"  style="overflow:visible;"/>
	</clipPath>
	<rect x="-5" y="-5" style="clip-path:url(#SVGID_2_);fill:#FFFFFF;" width="128.4" height="50.9"/>
</g>
<g>
	<defs>
		<path id="SVGID_3_" d="M183.5,34.5c-4.4,7-12.5,8.8-17.5,2.7c-0.6,3-0.6,3-3.9,3c-5.7,0-11.5,0-17.2,0c-0.6,0-1.6,0.4-1.6-0.5
			c0-0.8,1-0.5,1.5-0.4c1.3,0.1,1.6-0.4,1.5-1.6c-0.1-5.3,0-10.6,0-15.8c0-1.7-0.1-3.5-2-4.2c-2-0.8-3.5,0.3-4.8,1.7
			c-1.4,1.5-2.2,3.4-2.2,5.5c0,4,0.1,8,0,12c0,1.8,0.1,2.9,2.3,2.5c0.4-0.1,0.9,0,0.8,0.5c0,0.4-0.5,0.4-0.8,0.4
			c-4.5,0-8.9,0-13.4-0.1c-0.1,0-0.3-0.2-0.6-0.4c0.9-0.9,1.8-0.5,2.7-0.5c1.1,0,1.4-0.4,1.4-1.4c0-11.4,0-22.7,0-34.1
			c0-1.9-1.3-1.2-2.2-1.4c-0.5-0.1-1.5,0.4-1.5-0.5c0-0.9,1-0.4,1.5-0.5c3.2-0.2,6.5,0.4,9.7-1.3v19.3c0.8,0.2,0.9-0.4,1.2-0.7
			c2.8-3.2,7.6-4.4,11.6-2.8c2.2,0.9,3.2,2.6,3.6,4.8c0.7,3.6,0.2,7.3,0.3,10.9c0.1,2,0,4.1,0,6.1c0,1,0.2,1.4,1.3,1.5
			c3.1,0.1,3.1,0.1,3.1-3c0-10.4-0.1-20.8,0-31.3c0-2-0.4-3.1-2.6-2.7c-0.4,0.1-1,0.2-1.3-0.7c3.7-0.8,7.7,0.6,11.4-1.6v19.3
			c3.6-4.9,7.9-5,12.4-2.9c5.3,2.5,7,7.2,6.8,13.1c4.1-3,8.7-2.8,13.2-3.3c0.7-0.1,1.1-0.2,1.1-1.1c-0.1-1.8,0.1-3.5-0.1-5.3
			c-0.2-2.4-1.4-3.5-3.8-3.6c-1.6-0.1-3.1-0.1-4.6,0.5c-1.1,0.5-1.6,1-0.2,1.9c1.9,1.2,2.3,2.8,1.4,4.4c-0.8,1.4-3.1,2-4.7,1.2
			c-1.5-0.7-2.2-2.9-1.5-4.6c0.9-2,2.6-3.1,4.6-3.7c3.7-1.2,7.5-1,11.1,0.2c3.4,1.1,5.1,3.5,5.1,7.2c0,4.3,0,8.5,0,12.8
			c0,0.9-0.2,2.1,1.1,2.2c1.2,0.1,1.5-0.9,1.9-1.8c0.2-0.4,0-1.4,0.8-1c0.6,0.2,0.2,1,0.1,1.5c-0.5,2-1.9,3.2-3.7,3.6
			c-2.3,0.5-4.7,0.5-6.3-1.6c-1-1.3-1.5-1-2.5-0.1c-3,2.6-9.2,2.5-12.3,0C184.4,37.8,183.8,36.4,183.5,34.5 M176.8,28.6
			c-0.1-3.1,0.2-6.2-0.7-9.2c-1.1-3.2-3.9-4.2-6.7-2.3c-2.3,1.5-3.3,3.8-3.4,6.4c-0.1,2.9-0.1,5.8,0,8.7c0,1.7,0.5,3.3,1.5,4.8
			c1.4,1.9,3.3,2.9,5.6,2.4c2.3-0.4,3.1-2.2,3.5-4.2C177,33,176.7,30.7,176.8,28.6 M199.4,31.6c0-1.4,0-2.3,0-3.3
			c0-0.8-0.2-1.1-1.1-1c-6.1,0.7-7.5,0.3-7.1,7.4c0,0.3,0,0.5,0.1,0.8c0.2,1.9,1,3.2,3,3.6c1.9,0.3,3.2-0.5,4.2-2.2
			C199.5,35.1,199.4,33.1,199.4,31.6"/>
	</defs>
	<clipPath id="SVGID_4_">
		<use xlink:href="#SVGID_3_"  style="overflow:visible;"/>
	</clipPath>
	<rect x="120.7" y="-5" style="clip-path:url(#SVGID_4_);fill:#FFFFFF;" width="95.1" height="50.9"/>
</g>
<g>
	<defs>
		<path id="SVGID_5_" d="M84.4,5.9c0-2.5,2-4.5,4.5-4.5c2.5,0,4.5,2,4.5,4.5c0,2.4-2,4.4-4.4,4.4C86.5,10.3,84.4,8.3,84.4,5.9"/>
	</defs>
	<clipPath id="SVGID_6_">
		<use xlink:href="#SVGID_5_"  style="overflow:visible;"/>
	</clipPath>
	<rect x="79.4" y="-3.7" style="clip-path:url(#SVGID_6_);fill:#FFFFFF;" width="18.9" height="18.9"/>
</g>
</svg>
