<?xml version="1.0" encoding="utf-8"?>
<!-- Generator: Adobe Illustrator 16.0.3, SVG Export Plug-In . SVG Version: 6.00 Build 0)  -->
<!DOCTYPE svg PUBLIC "-//W3C//DTD SVG 1.1//EN" "http://www.w3.org/Graphics/SVG/1.1/DTD/svg11.dtd">
<svg version="1.1" id="Layer_1" xmlns="http://www.w3.org/2000/svg" xmlns:xlink="http://www.w3.org/1999/xlink" x="0px" y="0px"
	 width="612px" height="792px" viewBox="0 0 612 792" enable-background="new 0 0 612 792" xml:space="preserve">
<g>
	<g>
		<defs>
			<polygon id="SVGID_1_" points="88.133,419.067 93.701,419.067 93.701,372.773 88.133,372.773 88.133,371.501 110.087,371.501 
				110.087,372.773 104.519,372.773 104.519,394.091 122.496,394.091 122.496,372.773 116.927,372.773 116.927,371.501 
				139.041,371.501 139.041,372.773 133.313,372.773 133.313,419.067 139.041,419.067 139.041,420.34 116.927,420.34 
				116.927,419.067 122.496,419.067 122.496,395.205 104.519,395.205 104.519,419.067 110.087,419.067 110.087,420.34 
				88.133,420.34 			"/>
		</defs>
		<use xlink:href="#SVGID_1_"  overflow="visible" fill="#E6B10E"/>
		<clipPath id="SVGID_2_">
			<use xlink:href="#SVGID_1_"  overflow="visible"/>
		</clipPath>
		<rect x="80.179" y="363.547" clip-path="url(#SVGID_2_)" fill="#E6B10E" width="66.657" height="64.747"/>
	</g>
</g>
<g>
	<g>
		<defs>
			<path id="SVGID_3_" d="M147.631,419.067h4.613v-46.294h-4.613v-1.272h22.113c7.795,0,16.068,3.5,16.068,11.454
				c0,7.477-7.477,10.5-14.159,11.136v0.159c9.545,0,17.022,4.454,17.022,12.727c0,7.637-6.841,13.363-19.727,13.363h-21.317
				V419.067z M163.062,394.091h3.818c4.136,0,8.59-2.704,8.59-9.863c0-8.113-2.863-11.454-8.75-11.454h-3.659V394.091z
				 M163.062,419.067h3.182c7,0,10.659-3.5,10.659-11.932c0-7.317-3.5-11.931-9.704-11.931h-4.295v23.863H163.062z"/>
		</defs>
		<use xlink:href="#SVGID_3_"  overflow="visible" fill="#E6B10E"/>
		<clipPath id="SVGID_4_">
			<use xlink:href="#SVGID_3_"  overflow="visible"/>
		</clipPath>
		<rect x="139.677" y="363.547" clip-path="url(#SVGID_4_)" fill="#E6B10E" width="56.952" height="64.747"/>
	</g>
</g>
<g>
	<g>
		<defs>
			<path id="SVGID_5_" d="M194.083,419.227h0.795c2.545-0.159,3.818-1.909,4.614-4.137l15.75-43.589h0.954l18.136,47.726h3.341
				v1.272h-20.204v-1.272h5.409l-4.932-14.159h-13.204l-3.182,9.546c-0.159,0.477-0.477,1.272-0.477,2.067
				c0,2.228,1.909,2.546,3.182,2.546h1.909v1.272h-12.091V419.227z M217.469,403.795l-5.886-17.181h-0.159l-6.045,17.181H217.469z"
				/>
		</defs>
		<use xlink:href="#SVGID_5_"  overflow="visible" fill="#E6B10E"/>
		<clipPath id="SVGID_6_">
			<use xlink:href="#SVGID_5_"  overflow="visible"/>
		</clipPath>
		<rect x="186.129" y="363.547" clip-path="url(#SVGID_6_)" fill="#E6B10E" width="59.498" height="64.747"/>
	</g>
</g>
<g>
	<g>
		<defs>
			<polygon id="SVGID_7_" points="30.226,387.25 30.226,373.41 44.066,373.41 			"/>
		</defs>
		<use xlink:href="#SVGID_7_"  overflow="visible" fill="#E6B10E"/>
		<clipPath id="SVGID_8_">
			<use xlink:href="#SVGID_7_"  overflow="visible"/>
		</clipPath>
		<rect x="22.272" y="365.456" clip-path="url(#SVGID_8_)" fill="#E6B10E" width="29.749" height="29.749"/>
	</g>
</g>
<g>
	<g>
		<defs>
			<rect id="SVGID_9_" x="14.477" y="373.41" width="13.84" height="13.84"/>
		</defs>
		<use xlink:href="#SVGID_9_"  overflow="visible" fill="#E6B10E"/>
		<clipPath id="SVGID_10_">
			<use xlink:href="#SVGID_9_"  overflow="visible"/>
		</clipPath>
		<rect x="6.522" y="365.456" clip-path="url(#SVGID_10_)" fill="#E6B10E" width="29.749" height="29.749"/>
	</g>
</g>
<g>
	<g>
		<defs>
			<rect id="SVGID_11_" x="45.816" y="373.41" width="13.84" height="13.84"/>
		</defs>
		<use xlink:href="#SVGID_11_"  overflow="visible" fill="#E6B10E"/>
		<clipPath id="SVGID_12_">
			<use xlink:href="#SVGID_11_"  overflow="visible"/>
		</clipPath>
		<rect x="37.862" y="365.456" clip-path="url(#SVGID_12_)" fill="#E6B10E" width="29.749" height="29.749"/>
	</g>
</g>
<g>
	<g>
		<defs>
			<path id="SVGID_13_" d="M37.067,358.774c-3.818,0-6.841,3.182-6.841,7v5.727h13.84v-5.727
				C44.066,361.956,40.885,358.774,37.067,358.774"/>
		</defs>
		<use xlink:href="#SVGID_13_"  overflow="visible" fill="#E6B10E"/>
		<clipPath id="SVGID_14_">
			<use xlink:href="#SVGID_13_"  overflow="visible"/>
		</clipPath>
		<rect x="22.272" y="350.82" clip-path="url(#SVGID_14_)" fill="#E6B10E" width="29.749" height="28.635"/>
	</g>
</g>
<g>
	<g>
		<defs>
			<rect id="SVGID_15_" x="45.816" y="404.75" width="13.84" height="13.84"/>
		</defs>
		<use xlink:href="#SVGID_15_"  overflow="visible" fill="#E6B10E"/>
		<clipPath id="SVGID_16_">
			<use xlink:href="#SVGID_15_"  overflow="visible"/>
		</clipPath>
		<rect x="37.862" y="396.795" clip-path="url(#SVGID_16_)" fill="#E6B10E" width="29.749" height="29.749"/>
	</g>
</g>
<g>
	<g>
		<defs>
			<polygon id="SVGID_17_" points="44.066,404.75 44.066,418.59 30.226,418.59 			"/>
		</defs>
		<use xlink:href="#SVGID_17_"  overflow="visible" fill="#E6B10E"/>
		<clipPath id="SVGID_18_">
			<use xlink:href="#SVGID_17_"  overflow="visible"/>
		</clipPath>
		<rect x="22.272" y="396.795" clip-path="url(#SVGID_18_)" fill="#E6B10E" width="29.749" height="29.749"/>
	</g>
</g>
<g>
	<g>
		<defs>
			<rect id="SVGID_19_" x="14.477" y="404.75" width="13.84" height="13.84"/>
		</defs>
		<use xlink:href="#SVGID_19_"  overflow="visible" fill="#E6B10E"/>
		<clipPath id="SVGID_20_">
			<use xlink:href="#SVGID_19_"  overflow="visible"/>
		</clipPath>
		<rect x="6.522" y="396.795" clip-path="url(#SVGID_20_)" fill="#E6B10E" width="29.749" height="29.749"/>
	</g>
</g>
<g>
	<g>
		<defs>
			<path id="SVGID_21_" d="M37.067,433.226c3.818,0,6.84-3.182,6.84-6.999v-5.887H30.226v5.887
				C30.226,430.044,33.249,433.226,37.067,433.226"/>
		</defs>
		<use xlink:href="#SVGID_21_"  overflow="visible" fill="#E6B10E"/>
		<clipPath id="SVGID_22_">
			<use xlink:href="#SVGID_21_"  overflow="visible"/>
		</clipPath>
		<rect x="22.272" y="412.386" clip-path="url(#SVGID_22_)" fill="#E6B10E" width="29.749" height="28.636"/>
	</g>
</g>
<g>
	<g>
		<defs>
			<polygon id="SVGID_23_" points="45.816,389 59.657,389 59.657,402.841 			"/>
		</defs>
		<use xlink:href="#SVGID_23_"  overflow="visible" fill="#E6B10E"/>
		<clipPath id="SVGID_24_">
			<use xlink:href="#SVGID_23_"  overflow="visible"/>
		</clipPath>
		<rect x="37.862" y="381.046" clip-path="url(#SVGID_24_)" fill="#E6B10E" width="29.749" height="29.749"/>
	</g>
</g>
<g>
	<g>
		<defs>
			<path id="SVGID_25_" d="M74.134,396c0-3.818-3.023-7-6.841-7h-5.727v13.841h5.727C71.111,402.841,74.134,399.818,74.134,396"/>
		</defs>
		<use xlink:href="#SVGID_25_"  overflow="visible" fill="#E6B10E"/>
		<clipPath id="SVGID_26_">
			<use xlink:href="#SVGID_25_"  overflow="visible"/>
		</clipPath>
		<rect x="53.453" y="381.046" clip-path="url(#SVGID_26_)" fill="#E6B10E" width="28.635" height="29.749"/>
	</g>
</g>
<g>
	<g>
		<defs>
			<polygon id="SVGID_27_" points="28.317,402.841 14.477,402.841 14.477,389 			"/>
		</defs>
		<use xlink:href="#SVGID_27_"  overflow="visible" fill="#E6B10E"/>
		<clipPath id="SVGID_28_">
			<use xlink:href="#SVGID_27_"  overflow="visible"/>
		</clipPath>
		<rect x="6.522" y="381.046" clip-path="url(#SVGID_28_)" fill="#E6B10E" width="29.749" height="29.749"/>
	</g>
</g>
<g>
	<g>
		<defs>
			<path id="SVGID_29_" d="M0,396c0,3.818,3.022,7,6.841,7h5.886v-14H6.841C3.022,389,0,392.182,0,396"/>
		</defs>
		<use xlink:href="#SVGID_29_"  overflow="visible" fill="#E6B10E"/>
		<clipPath id="SVGID_30_">
			<use xlink:href="#SVGID_29_"  overflow="visible"/>
		</clipPath>
		<rect x="-7.954" y="381.046" clip-path="url(#SVGID_30_)" fill="#E6B10E" width="28.635" height="29.749"/>
	</g>
</g>
<g>
	<g>
		<defs>
			<rect id="SVGID_31_" x="30.226" y="389" width="13.84" height="13.841"/>
		</defs>
		<use xlink:href="#SVGID_31_"  overflow="visible" fill="#FFFFFF"/>
		<clipPath id="SVGID_32_">
			<use xlink:href="#SVGID_31_"  overflow="visible"/>
		</clipPath>
		<rect x="22.272" y="381.046" clip-path="url(#SVGID_32_)" fill="#FFFFFF" width="29.749" height="29.749"/>
	</g>
</g>
<g>
	<g>
		<defs>
			<path id="SVGID_33_" d="M263.126,396c1.114,0.637,3.023,1.432,5.409,1.432c4.613,0,11.295-2.386,11.295-11.931
				c0-9.068-4.136-13.045-12.409-13.045h-4.295V396z M255.968,372.614h-6.841v-1.113h19.886c10.34,0,18.454,3.5,18.454,13.522
				c0,9.863-9.227,13.522-17.659,13.522c-2.386,0-5.091-0.477-6.522-1.113v21.954h7.159v1.113h-21.158v-1.113h6.841v-46.771H255.968
				z"/>
		</defs>
		<use xlink:href="#SVGID_33_"  overflow="visible" fill="#E6B10E"/>
		<clipPath id="SVGID_34_">
			<use xlink:href="#SVGID_33_"  overflow="visible"/>
		</clipPath>
		<rect x="241.173" y="363.547" clip-path="url(#SVGID_34_)" fill="#E6B10E" width="54.248" height="65.065"/>
	</g>
</g>
<g>
	<g>
		<defs>
			<path id="SVGID_35_" d="M295.58,392.978h-5.886v-1.114h5.886c2.227,0,4.454-0.159,5.886-1.591v8.272h0.159
				c0.795-3.181,3.341-8.272,9.068-8.272c2.545,0,4.613,1.75,4.613,4.136c0,1.75-1.113,3.341-3.182,3.341
				c-2.228,0-3.022-1.113-3.022-3.022c0-1.591,0.795-2.545,1.591-3.023c-0.318-0.159-0.637-0.159-0.955-0.159
				c-2.863,0-7.954,4.455-7.954,13.522v14.318h6.363v1.113h-18.136v-1.113h5.886v-26.408H295.58z"/>
		</defs>
		<use xlink:href="#SVGID_35_"  overflow="visible" fill="#E6B10E"/>
		<clipPath id="SVGID_36_">
			<use xlink:href="#SVGID_35_"  overflow="visible"/>
		</clipPath>
		<rect x="281.74" y="382.478" clip-path="url(#SVGID_36_)" fill="#E6B10E" width="41.362" height="45.976"/>
	</g>
</g>
<g>
	<g>
		<defs>
			<path id="SVGID_37_" d="M339.01,403.159c0-6.046-0.317-11.614-8.113-11.614c-7.795,0-8.113,5.568-8.113,11.614v5.408
				c0,6.046,0.318,11.613,8.113,11.613c7.796,0,8.113-5.567,8.113-11.613V403.159z M330.896,390.432
				c9.068,0,14.795,7.477,14.795,15.431s-5.727,15.432-14.795,15.432c-9.067,0-14.795-7.478-14.795-15.432
				S321.988,390.432,330.896,390.432z"/>
		</defs>
		<use xlink:href="#SVGID_37_"  overflow="visible" fill="#E6B10E"/>
		<clipPath id="SVGID_38_">
			<use xlink:href="#SVGID_37_"  overflow="visible"/>
		</clipPath>
		<rect x="308.147" y="382.478" clip-path="url(#SVGID_38_)" fill="#E6B10E" width="45.498" height="46.931"/>
	</g>
</g>
<g>
	<g>
		<defs>
			<path id="SVGID_39_" d="M375.759,410.636c-0.159,5.25-4.772,10.659-11.772,10.659c-9.067,0-14.795-6.364-14.795-14.318
				c0-9.067,7-16.704,15.272-16.704c4.932,0,10.022,2.227,10.022,6.522c0,2.068-1.591,3.5-3.341,3.5
				c-2.228,0-3.341-1.591-3.341-3.022c0-2.863,1.75-2.704,1.75-3.659c0-1.591-3.182-2.227-5.25-2.227
				c-6.841,0-8.432,4.454-8.432,10.977v6.045c0,6.046,0.318,11.613,8.113,11.613c7,0,10.182-5.249,10.659-9.545h1.113V410.636z"/>
		</defs>
		<use xlink:href="#SVGID_39_"  overflow="visible" fill="#E6B10E"/>
		<clipPath id="SVGID_40_">
			<use xlink:href="#SVGID_39_"  overflow="visible"/>
		</clipPath>
		<rect x="341.396" y="382.478" clip-path="url(#SVGID_40_)" fill="#E6B10E" width="42.476" height="46.931"/>
	</g>
</g>
<g>
	<g>
		<defs>
			<path id="SVGID_41_" d="M382.6,392.978h-5.568v-1.114h5.568c2.227,0,4.454-0.159,5.886-1.591v24.976
				c0,3.022,1.75,4.932,4.296,4.932c4.932,0,9.227-5.567,9.227-10.658v-16.545h-5.568v-1.114h5.568c2.228,0,4.454-0.159,5.886-1.591
				v28.954h5.568v1.113h-11.454v-6.363h-0.159c-0.637,1.591-3.5,7.159-9.704,7.159c-7,0-9.545-3.659-9.545-7.796V392.978
				L382.6,392.978z"/>
		</defs>
		<use xlink:href="#SVGID_41_"  overflow="visible" fill="#E6B10E"/>
		<clipPath id="SVGID_42_">
			<use xlink:href="#SVGID_41_"  overflow="visible"/>
		</clipPath>
		<rect x="369.077" y="382.478" clip-path="url(#SVGID_42_)" fill="#E6B10E" width="52.339" height="46.931"/>
	</g>
</g>
<g>
	<g>
		<defs>
			<path id="SVGID_43_" d="M419.666,392.978h-5.886v-1.114h5.886c2.228,0,4.454-0.159,5.887-1.591v8.272h0.159
				c0.795-3.181,3.341-8.272,9.067-8.272c2.545,0,4.613,1.75,4.613,4.136c0,1.75-1.113,3.341-3.182,3.341
				c-2.227,0-3.022-1.113-3.022-3.022c0-1.591,0.796-2.545,1.591-3.023c-0.318-0.159-0.637-0.159-0.954-0.159
				c-2.864,0-7.955,4.455-7.955,13.522v14.318h6.364v1.113h-18.136v-1.113h5.886v-26.408H419.666z"/>
		</defs>
		<use xlink:href="#SVGID_43_"  overflow="visible" fill="#E6B10E"/>
		<clipPath id="SVGID_44_">
			<use xlink:href="#SVGID_43_"  overflow="visible"/>
		</clipPath>
		<rect x="405.826" y="382.478" clip-path="url(#SVGID_44_)" fill="#E6B10E" width="41.361" height="45.976"/>
	</g>
</g>
<g>
	<g>
		<defs>
			<path id="SVGID_45_" d="M459.119,400.136c0-4.454-1.113-8.59-5.727-8.59c-4.932,0-6.363,4.136-6.363,8.59v1.909h11.612
				c0.318,0,0.478-0.159,0.478-0.477V400.136L459.119,400.136z M447.029,409.682c0,4.932,0.636,10.499,7.158,10.499
				c5.887,0,10.182-3.977,11.136-9.545h1.114c-1.114,6.363-5.887,10.659-12.25,10.659c-8.113,0-13.84-6.205-13.84-15.432
				c0-6.841,5.408-15.431,13.045-15.431c8.272,0,12.408,9.227,12.408,12.09c0,0.478-0.159,0.637-0.637,0.637h-18.135V409.682z"/>
		</defs>
		<use xlink:href="#SVGID_45_"  overflow="visible" fill="#E6B10E"/>
		<clipPath id="SVGID_46_">
			<use xlink:href="#SVGID_45_"  overflow="visible"/>
		</clipPath>
		<rect x="432.393" y="382.478" clip-path="url(#SVGID_46_)" fill="#E6B10E" width="41.999" height="46.931"/>
	</g>
</g>
<g>
	<g>
		<defs>
			<path id="SVGID_47_" d="M467.71,419.386h5.568v-26.408h-5.568v-1.114h5.568c3.341,0,4.613,0,5.886-1.591v6.84h0.159
				c1.909-3.34,4.772-6.84,10.022-6.84c4.454,0,8.908,1.272,9.545,7.477h0.159c1.432-3.977,4.932-7.477,10.182-7.477
				c7.158,0,9.545,4.136,9.545,8.431v20.522h5.567v1.113h-16.862v-1.113h5.567v-21.636c0-5.091-2.227-6.204-4.932-6.204
				c-3.977,0-7.636,4.454-9.067,9.227v18.613h5.25v1.113h-16.704v-1.113h5.567v-22.908c0-3.5-1.75-4.773-4.613-4.773
				c-4.136,0-7.317,3.341-9.386,8.273v19.727h5.25v1.113H467.71V419.386z"/>
		</defs>
		<use xlink:href="#SVGID_47_"  overflow="visible" fill="#E6B10E"/>
		<clipPath id="SVGID_48_">
			<use xlink:href="#SVGID_47_"  overflow="visible"/>
		</clipPath>
		<rect x="459.756" y="382.478" clip-path="url(#SVGID_48_)" fill="#E6B10E" width="72.225" height="45.976"/>
	</g>
</g>
<g>
	<g>
		<defs>
			<path id="SVGID_49_" d="M544.707,400.136c0-4.454-1.113-8.59-5.727-8.59c-4.932,0-6.364,4.136-6.364,8.59v1.909h11.613
				c0.318,0,0.478-0.159,0.478-0.477V400.136L544.707,400.136z M532.616,409.682c0,4.932,0.637,10.499,7.159,10.499
				c5.886,0,10.182-3.977,11.136-9.545h1.114c-1.114,6.363-5.887,10.659-12.25,10.659c-8.113,0-13.841-6.205-13.841-15.432
				c0-6.841,5.409-15.431,13.046-15.431c8.271,0,12.408,9.227,12.408,12.09c0,0.478-0.159,0.637-0.637,0.637h-18.136V409.682z"/>
		</defs>
		<use xlink:href="#SVGID_49_"  overflow="visible" fill="#E6B10E"/>
		<clipPath id="SVGID_50_">
			<use xlink:href="#SVGID_49_"  overflow="visible"/>
		</clipPath>
		<rect x="517.98" y="382.478" clip-path="url(#SVGID_50_)" fill="#E6B10E" width="41.999" height="46.931"/>
	</g>
</g>
<g>
	<g>
		<defs>
			<path id="SVGID_51_" d="M558.865,392.978h-5.567v-1.114h5.567c3.341,0,4.614,0,5.887-1.591v7.159h0.159
				c1.75-3.341,5.249-7.159,10.34-7.159c7.478,0,9.546,3.818,9.546,7.955v21.158h5.567v1.113h-16.863v-1.113h5.568v-22.749
				c0-3.818-1.909-5.091-4.136-5.091c-5.887,0-8.909,5.886-10.182,8.273v19.727h5.25v1.113h-16.704v-1.113h5.567V392.978z"/>
		</defs>
		<use xlink:href="#SVGID_51_"  overflow="visible" fill="#E6B10E"/>
		<clipPath id="SVGID_52_">
			<use xlink:href="#SVGID_51_"  overflow="visible"/>
		</clipPath>
		<rect x="545.502" y="382.478" clip-path="url(#SVGID_52_)" fill="#E6B10E" width="52.816" height="45.976"/>
	</g>
</g>
<g>
	<g>
		<defs>
			<path id="SVGID_53_" d="M596.251,392.978h-6.046v-1.114c7.318,0.159,9.863-2.864,11.137-9.704h0.795v9.704h9.704v1.114h-9.704
				v23.386c0,2.863,1.272,3.817,3.341,3.817c3.5,0,5.091-3.182,5.409-4.454l1.113,0.159c-0.478,1.75-2.545,5.25-7.636,5.25
				c-4.932,0-8.113-1.591-8.113-6.205V392.978L596.251,392.978z"/>
		</defs>
		<use xlink:href="#SVGID_53_"  overflow="visible" fill="#E6B10E"/>
		<clipPath id="SVGID_54_">
			<use xlink:href="#SVGID_53_"  overflow="visible"/>
		</clipPath>
		<rect x="582.251" y="374.206" clip-path="url(#SVGID_54_)" fill="#E6B10E" width="37.703" height="55.043"/>
	</g>
</g>
</svg>
