<?xml version="1.0" encoding="utf-8"?>
<!-- Generator: Adobe Illustrator 16.0.3, SVG Export Plug-In . SVG Version: 6.00 Build 0)  -->
<!DOCTYPE svg PUBLIC "-//W3C//DTD SVG 1.1//EN" "http://www.w3.org/Graphics/SVG/1.1/DTD/svg11.dtd">
<svg version="1.1" id="Layer_1" xmlns="http://www.w3.org/2000/svg" xmlns:xlink="http://www.w3.org/1999/xlink" x="0px" y="0px"
	 width="612px" height="792px" viewBox="0 0 612 792" enable-background="new 0 0 612 792" xml:space="preserve">
<g>
	<g>
		<defs>
			<path id="SVGID_1_" d="M158.807,405.726c11.903-28.451,41.226-31.354,53.129-13.645c0-7.548,0-13.645,0-19.742
				c0-7.839-0.291-15.678,0-23.516c0-4.065-1.161-5.516-5.226-5.516c-2.613,0-7.258,1.742-7.258-1.452
				c0-2.613,4.936-1.162,7.548-1.162c9-0.29,18,0.871,27-4.064c0,13.646,0.291,26.71,0,39.484c-0.291,5.516,1.452,7.258,6.968,6.968
				c9-0.581,18.581,0.871,27.581-3.484v23.807c0.291,0.29,0.871,0.58,1.161,0.871c6.097-13.065,15.678-20.903,29.613-22.936
				c13.645-2.032,25.838,1.742,35.128,11.903c13.646,15.097,11.903,40.064-3.483,52.839c-18.871,15.677-42.387,11.032-61.839-13.355
				c0,5.807-0.29,10.742,0,15.388c0.291,3.483,3.774,1.451,5.807,2.032c1.452,0.29,4.355-0.871,4.355,1.161
				c0,2.903-2.903,1.742-4.646,1.742c-18.581,0-37.161,0-55.742,0.29c-4.936,0-8.419-0.29-7.548-8.42
				c-8.71,10.742-18.871,11.903-29.613,8.42c-10.742-3.193-17.419-10.742-23.226-20.323c0,4.646,0,9.581,0,14.227
				c0,2.032,0.871,2.903,2.903,2.903s3.774,0,5.806,0c1.162,0,2.032,0.29,1.742,1.741c0,0.871-0.871,1.162-1.742,1.162
				c-9.581,0-19.161,0-28.742,0c-2.032,0-2.613-1.162-2.613-3.194s0-4.354,0-7.548c-14.807,13.936-29.613,18.29-46.162,3.483
				c-5.226,6.388-12.484,9.871-21.484,8.71c-8.129-0.871-13.064-6.097-15.968-17.129c-0.581,0.871-0.871,1.451-1.451,2.032
				c-6.678,12.774-18,18-31.936,13.936c-5.226-1.452-10.742-5.226-15.678,0.58c-1.161,1.162-2.903,0.581-2.903-1.161
				c0-7.548,0-15.387,0-22.936c0-1.161,0.29-2.032,1.742-2.032c1.161,0,1.452,1.161,1.742,2.032
				c2.322,6.097,5.226,11.903,10.451,16.259c5.807,4.935,12.484,7.548,20.032,4.935c4.646-1.451,7.549-4.645,9-9.29
				c1.452-5.807-0.871-10.161-6.677-11.612c-5.226-1.162-10.742-1.742-16.258-2.613c-15.968-2.322-23.226-13.064-20.032-28.451
				c2.903-13.646,16.548-22.065,30.193-16.839c9.871,3.484,18.291,1.742,26.419-2.903c8.709-4.936,12.193-13.936,13.936-23.516
				c0.581-2.613-1.162-7.258,2.613-7.258c2.903,0,1.161,4.645,1.161,7.258c0.291,7.548,0.291,14.806,0,22.354
				c0,3.774,1.162,4.646,4.645,4.646c9.291-0.581,18.871,1.161,27.871-2.613c3.484-1.452,2.323,1.452,2.323,2.903
				c0,10.162,0,20.323,0,30.774c0,8.42,0,16.839,0.29,25.259c0,3.773,0.581,7.548,4.936,9.29c4.355,1.742,8.419,0.871,11.903-2.322
				c4.936-4.355,8.419-9.871,8.419-16.839c0.29-13.064,0-25.839,0.29-38.903c0-5.226-3.193-4.064-6.387-4.355
				c-1.452,0-4.064,0.581-4.064-2.032c0.29-2.032,2.613-1.161,4.064-1.161c9-0.291,18,0.871,26.709-2.613
				c2.903-1.161,2.032,1.452,2.032,2.613C158.807,390.048,158.807,397.307,158.807,405.726 M181.742,416.758
				c0.291,9-0.871,17.71,2.323,26.129c2.903,7.549,9.581,10.452,17.129,7.259c7.839-3.484,10.742-10.162,11.032-18
				c0.291-9.291,0.291-18.581,0-27.581c0-5.516-2.032-10.742-6.097-14.807c-4.064-3.774-8.709-5.806-14.516-4.354
				c-5.516,1.452-7.548,5.806-8.709,10.742C180.871,403.113,182.032,410.081,181.742,416.758 M318.774,417.049
				c-0.581-6.678,0.871-14.807-0.871-22.936c-1.742-7.258-5.807-10.161-13.064-10.161c-6.678,0.291-11.032,3.484-11.613,10.742
				c-1.742,15.678-1.742,31.646,0,47.323c1.162,8.999,11.903,13.354,19.452,8.129c4.645-3.484,5.806-8.71,6.097-13.936
				C319.064,430.403,318.774,424.307,318.774,417.049 M53.419,419.081c0-0.871,0-1.742,0-2.613c0-9.29,0-18.29,0-27.581
				c0-2.032-0.291-3.484-2.903-3.194c-2.323,0.291-2.613,1.742-2.613,3.484c0,3.194,0,6.387,0,9.291
				c0,1.451,0.871,3.774-0.871,4.064c-2.323,0.581-2.613-2.032-3.193-3.483c-1.742-3.774-3.774-7.258-6.678-10.162
				c-7.258-6.678-19.742-6.968-25.548-0.291c-5.226,5.807-3.193,12.774,4.064,15.097c2.903,0.871,5.807,1.161,8.71,1.742
				C34.839,407.758,47.032,406.887,53.419,419.081 M75.484,415.307L75.484,415.307c0,8.709,0,17.419,0,25.839
				c0,2.903,0.581,5.516,3.774,6.677c3.194,0.871,5.517-0.29,7.839-2.612c3.194-2.903,1.161-6.097,1.161-9.291
				c0-15.387-0.29-30.773,0-45.871c0-5.807-3.774-4.355-6.967-4.355c-2.903,0-6.387-0.871-6.097,4.355
				C75.774,398.468,75.484,406.887,75.484,415.307 M246.484,418.21c0-9.291-0.291-18.291,0-27.581
				c0.291-4.645-2.323-4.936-5.807-4.645c-3.193,0.291-6.677-1.161-6.677,4.355c0.291,18.58,0.291,37.161,0,55.742
				c0,6.097,4.064,3.773,6.968,4.064c3.193,0.29,5.807,0.29,5.516-4.355C246.484,436.79,246.484,427.5,246.484,418.21"/>
		</defs>
		<use xlink:href="#SVGID_1_"  overflow="visible" fill="#E6B10E"/>
		<clipPath id="SVGID_2_">
			<use xlink:href="#SVGID_1_"  overflow="visible"/>
		</clipPath>
		<rect x="-14.516" y="322.113" clip-path="url(#SVGID_2_)" fill="#E6B10E" width="372.774" height="147.774"/>
	</g>
</g>
<g>
	<g>
		<defs>
			<path id="SVGID_3_" d="M532.742,436.79c-12.774,20.323-36.291,25.549-50.807,7.839c-1.742,8.71-1.742,8.71-11.322,8.71
				c-16.549,0-33.388,0-49.936,0c-1.742,0-4.646,1.161-4.646-1.452c0-2.322,2.903-1.451,4.354-1.161
				c3.774,0.29,4.646-1.161,4.355-4.645c-0.291-15.388,0-30.774,0-45.871c0-4.936-0.291-10.162-5.807-12.194
				c-5.807-2.323-10.161,0.871-13.936,4.936c-4.064,4.355-6.387,9.871-6.387,15.967c0,11.613,0.29,23.227,0,34.839
				c0,5.226,0.29,8.42,6.677,7.258c1.161-0.29,2.613,0,2.323,1.452c0,1.161-1.452,1.161-2.323,1.161c-13.064,0-25.839,0-38.903-0.29
				c-0.29,0-0.871-0.581-1.741-1.161c2.612-2.613,5.226-1.452,7.838-1.452c3.194,0,4.065-1.161,4.065-4.064c0-33.097,0-65.903,0-99
				c0-5.516-3.774-3.484-6.388-4.064c-1.451-0.29-4.354,1.161-4.354-1.452s2.903-1.161,4.354-1.452
				c9.29-0.581,18.871,1.162,28.161-3.774v56.032c2.323,0.581,2.613-1.161,3.484-2.032c8.129-9.291,22.064-12.774,33.677-8.129
				c6.388,2.613,9.291,7.548,10.452,13.935c2.032,10.452,0.58,21.193,0.871,31.646c0.29,5.807,0,11.903,0,17.71
				c0,2.902,0.58,4.064,3.774,4.354c9,0.29,9,0.29,9-8.71c0-30.193-0.291-60.387,0-90.871c0-5.807-1.162-9-7.549-7.839
				c-1.161,0.291-2.903,0.581-3.774-2.032c10.742-2.323,22.355,1.742,33.097-4.645v56.032c10.452-14.226,22.936-14.516,36-8.419
				c15.388,7.258,20.323,20.903,19.742,38.032c11.903-8.709,25.258-8.129,38.322-9.58c2.032-0.29,3.194-0.581,3.194-3.193
				c-0.291-5.227,0.29-10.161-0.291-15.387c-0.58-6.968-4.064-10.162-11.032-10.452c-4.645-0.291-9-0.291-13.354,1.452
				c-3.193,1.452-4.646,2.903-0.581,5.516c5.517,3.484,6.678,8.129,4.064,12.774c-2.322,4.064-9,5.806-13.645,3.483
				c-4.355-2.032-6.388-8.419-4.355-13.354c2.613-5.807,7.549-9,13.355-10.742c10.741-3.484,21.774-2.903,32.226,0.581
				c9.871,3.194,14.807,10.162,14.807,20.903c0,12.484,0,24.678,0,37.162c0,2.612-0.581,6.097,3.193,6.387
				c3.484,0.29,4.354-2.613,5.516-5.226c0.581-1.161,0-4.064,2.323-2.903c1.742,0.58,0.58,2.903,0.29,4.354
				c-1.451,5.807-5.516,9.291-10.742,10.452c-6.677,1.451-13.645,1.451-18.29-4.646c-2.903-3.774-4.354-2.903-7.258-0.29
				c-8.71,7.548-26.71,7.258-35.71,0C535.354,446.371,533.613,442.307,532.742,436.79 M513.29,419.661
				c-0.29-9,0.581-18-2.032-26.709c-3.193-9.291-11.322-12.194-19.451-6.677c-6.678,4.354-9.581,11.032-9.871,18.58
				c-0.29,8.42-0.29,16.839,0,25.259c0,4.936,1.451,9.58,4.354,13.936c4.064,5.516,9.581,8.419,16.259,6.967
				c6.677-1.161,9-6.387,10.161-12.193C513.871,432.436,513,425.758,513.29,419.661 M578.903,428.371c0-4.064,0-6.678,0-9.581
				c0-2.322-0.581-3.193-3.193-2.903c-17.71,2.032-21.774,0.871-20.613,21.484c0,0.871,0,1.451,0.29,2.322
				c0.581,5.517,2.903,9.29,8.71,10.452c5.517,0.87,9.29-1.452,12.193-6.388C579.193,438.532,578.903,432.726,578.903,428.371"/>
		</defs>
		<use xlink:href="#SVGID_3_"  overflow="visible" fill="#E6B10E"/>
		<clipPath id="SVGID_4_">
			<use xlink:href="#SVGID_3_"  overflow="visible"/>
		</clipPath>
		<rect x="350.419" y="322.113" clip-path="url(#SVGID_4_)" fill="#E6B10E" width="276.097" height="147.774"/>
	</g>
</g>
<g>
	<g>
		<defs>
			<path id="SVGID_5_" d="M245.032,353.758c0-7.258,5.807-13.064,13.064-13.064c7.258,0,13.064,5.807,13.064,13.064
				c0,6.968-5.806,12.774-12.774,12.774C251.129,366.532,245.032,360.726,245.032,353.758"/>
		</defs>
		<use xlink:href="#SVGID_5_"  overflow="visible" fill="#E6B10E"/>
		<clipPath id="SVGID_6_">
			<use xlink:href="#SVGID_5_"  overflow="visible"/>
		</clipPath>
		<rect x="230.516" y="325.887" clip-path="url(#SVGID_6_)" fill="#E6B10E" width="54.871" height="54.871"/>
	</g>
</g>
</svg>
