<?xml version="1.0" encoding="utf-8"?>
<!-- Generator: Adobe Illustrator 16.0.3, SVG Export Plug-In . SVG Version: 6.00 Build 0)  -->
<!DOCTYPE svg PUBLIC "-//W3C//DTD SVG 1.1//EN" "http://www.w3.org/Graphics/SVG/1.1/DTD/svg11.dtd">
<svg version="1.1" id="Layer_1" xmlns="http://www.w3.org/2000/svg" xmlns:xlink="http://www.w3.org/1999/xlink" x="0px" y="0px"
	 width="612px" height="792px" viewBox="0 0 612 792" enable-background="new 0 0 612 792" xml:space="preserve">
<g>
	<g>
		<defs>
			<polygon id="SVGID_1_" points="111.635,425.305 118.612,425.305 118.612,366.696 111.635,366.696 111.635,365.101 
				139.345,365.101 139.345,366.696 132.168,366.696 132.168,393.608 154.894,393.608 154.894,366.696 147.717,366.696 
				147.717,365.101 175.427,365.101 175.427,366.696 168.45,366.696 168.45,425.305 175.427,425.305 175.427,426.899 
				147.717,426.899 147.717,425.305 154.894,425.305 154.894,395.203 132.168,395.203 132.168,425.305 139.345,425.305 
				139.345,426.899 111.635,426.899 			"/>
		</defs>
		<use xlink:href="#SVGID_1_"  overflow="visible" fill="#E6B10E"/>
		<clipPath id="SVGID_2_">
			<use xlink:href="#SVGID_1_"  overflow="visible"/>
		</clipPath>
		<rect x="101.668" y="355.134" clip-path="url(#SVGID_2_)" fill="#E6B10E" width="83.726" height="81.732"/>
	</g>
</g>
<g>
	<g>
		<defs>
			<path id="SVGID_3_" d="M204.93,425.305h3.987c8.771,0,13.556-4.386,13.556-15.151c0-9.369-4.386-14.951-12.161-14.951h-5.382
				V425.305L204.93,425.305z M204.93,393.608h4.785c5.183,0,10.964-3.389,10.964-12.36c0-10.167-3.588-14.552-10.964-14.552h-4.585
				v26.912H204.93z M185.394,425.305h5.781v-58.609h-5.781v-1.595h27.909c9.768,0,20.334,4.386,20.334,14.552
				c0,9.37-9.569,13.356-17.941,13.955v0.199c11.961,0,21.529,5.582,21.529,16.147c0,9.569-8.572,16.945-24.918,16.945h-26.912
				V425.305z"/>
		</defs>
		<use xlink:href="#SVGID_3_"  overflow="visible" fill="#E6B10E"/>
		<clipPath id="SVGID_4_">
			<use xlink:href="#SVGID_3_"  overflow="visible"/>
		</clipPath>
		<rect x="175.427" y="355.134" clip-path="url(#SVGID_4_)" fill="#E6B10E" width="71.766" height="81.732"/>
	</g>
</g>
<g>
	<g>
		<defs>
			<path id="SVGID_5_" d="M273.107,405.968l-7.575-21.729h-0.199l-7.775,21.729H273.107z M243.205,425.305h1.196
				c3.189-0.2,4.784-2.393,5.781-5.184l20.134-55.02h1.396l23.125,60.204h4.187v1.595h-25.716v-1.595h6.978l-6.379-17.941H257.16
				l-4.187,12.16c-0.199,0.598-0.598,1.595-0.598,2.591c0,2.791,2.392,3.19,4.186,3.19h2.392v1.595h-15.749V425.305z"/>
		</defs>
		<use xlink:href="#SVGID_5_"  overflow="visible" fill="#E6B10E"/>
		<clipPath id="SVGID_6_">
			<use xlink:href="#SVGID_5_"  overflow="visible"/>
		</clipPath>
		<rect x="233.238" y="355.134" clip-path="url(#SVGID_6_)" fill="#E6B10E" width="75.752" height="81.732"/>
	</g>
</g>
<g>
	<g>
		<defs>
			<polygon id="SVGID_7_" points="37.876,387.029 37.876,369.088 55.817,369.088 			"/>
		</defs>
		<use xlink:href="#SVGID_7_"  overflow="visible" fill="#E6B10E"/>
		<clipPath id="SVGID_8_">
			<use xlink:href="#SVGID_7_"  overflow="visible"/>
		</clipPath>
		<rect x="27.909" y="359.121" clip-path="url(#SVGID_8_)" fill="#E6B10E" width="37.876" height="37.876"/>
	</g>
</g>
<g>
	<g>
		<defs>
			<rect id="SVGID_9_" x="17.941" y="369.088" width="17.941" height="17.941"/>
		</defs>
		<use xlink:href="#SVGID_9_"  overflow="visible" fill="#E6B10E"/>
		<clipPath id="SVGID_10_">
			<use xlink:href="#SVGID_9_"  overflow="visible"/>
		</clipPath>
		<rect x="7.974" y="359.121" clip-path="url(#SVGID_10_)" fill="#E6B10E" width="37.876" height="37.876"/>
	</g>
</g>
<g>
	<g>
		<defs>
			<rect id="SVGID_11_" x="57.811" y="369.088" width="17.941" height="17.941"/>
		</defs>
		<use xlink:href="#SVGID_11_"  overflow="visible" fill="#E6B10E"/>
		<clipPath id="SVGID_12_">
			<use xlink:href="#SVGID_11_"  overflow="visible"/>
		</clipPath>
		<rect x="47.844" y="359.121" clip-path="url(#SVGID_12_)" fill="#E6B10E" width="37.876" height="37.876"/>
	</g>
</g>
<g>
	<g>
		<defs>
			<path id="SVGID_13_" d="M46.847,349.153c-4.983,0-8.971,3.788-8.971,8.572v7.376h17.941v-7.376
				C55.817,352.941,51.831,349.153,46.847,349.153"/>
		</defs>
		<use xlink:href="#SVGID_13_"  overflow="visible" fill="#E6B10E"/>
		<clipPath id="SVGID_14_">
			<use xlink:href="#SVGID_13_"  overflow="visible"/>
		</clipPath>
		<rect x="27.909" y="339.186" clip-path="url(#SVGID_14_)" fill="#E6B10E" width="37.876" height="35.883"/>
	</g>
</g>
<g>
	<g>
		<defs>
			<rect id="SVGID_15_" x="57.811" y="406.964" width="17.941" height="17.941"/>
		</defs>
		<use xlink:href="#SVGID_15_"  overflow="visible" fill="#E6B10E"/>
		<clipPath id="SVGID_16_">
			<use xlink:href="#SVGID_15_"  overflow="visible"/>
		</clipPath>
		<rect x="47.844" y="396.997" clip-path="url(#SVGID_16_)" fill="#E6B10E" width="37.876" height="37.876"/>
	</g>
</g>
<g>
	<g>
		<defs>
			<polygon id="SVGID_17_" points="55.817,406.964 55.817,424.905 37.876,424.905 			"/>
		</defs>
		<use xlink:href="#SVGID_17_"  overflow="visible" fill="#E6B10E"/>
		<clipPath id="SVGID_18_">
			<use xlink:href="#SVGID_17_"  overflow="visible"/>
		</clipPath>
		<rect x="27.909" y="396.997" clip-path="url(#SVGID_18_)" fill="#E6B10E" width="37.876" height="37.876"/>
	</g>
</g>
<g>
	<g>
		<defs>
			<rect id="SVGID_19_" x="17.941" y="406.964" width="17.941" height="17.941"/>
		</defs>
		<use xlink:href="#SVGID_19_"  overflow="visible" fill="#E6B10E"/>
		<clipPath id="SVGID_20_">
			<use xlink:href="#SVGID_19_"  overflow="visible"/>
		</clipPath>
		<rect x="7.974" y="396.997" clip-path="url(#SVGID_20_)" fill="#E6B10E" width="37.876" height="37.876"/>
	</g>
</g>
<g>
	<g>
		<defs>
			<path id="SVGID_21_" d="M46.847,442.847c4.984,0,8.971-3.787,8.971-8.571v-7.376H37.876v7.376
				C37.876,439.06,41.863,442.847,46.847,442.847"/>
		</defs>
		<use xlink:href="#SVGID_21_"  overflow="visible" fill="#E6B10E"/>
		<clipPath id="SVGID_22_">
			<use xlink:href="#SVGID_21_"  overflow="visible"/>
		</clipPath>
		<rect x="27.909" y="416.932" clip-path="url(#SVGID_22_)" fill="#E6B10E" width="37.876" height="35.883"/>
	</g>
</g>
<g>
	<g>
		<defs>
			<polygon id="SVGID_23_" points="57.811,387.029 75.752,387.029 75.752,404.971 			"/>
		</defs>
		<use xlink:href="#SVGID_23_"  overflow="visible" fill="#E6B10E"/>
		<clipPath id="SVGID_24_">
			<use xlink:href="#SVGID_23_"  overflow="visible"/>
		</clipPath>
		<rect x="47.844" y="377.062" clip-path="url(#SVGID_24_)" fill="#E6B10E" width="37.876" height="37.876"/>
	</g>
</g>
<g>
	<g>
		<defs>
			<path id="SVGID_25_" d="M93.694,396c0-4.984-3.788-8.971-8.572-8.971h-7.376v17.941h7.376
				C89.906,404.971,93.694,400.983,93.694,396"/>
		</defs>
		<use xlink:href="#SVGID_25_"  overflow="visible" fill="#E6B10E"/>
		<clipPath id="SVGID_26_">
			<use xlink:href="#SVGID_25_"  overflow="visible"/>
		</clipPath>
		<rect x="67.778" y="377.062" clip-path="url(#SVGID_26_)" fill="#E6B10E" width="35.883" height="37.876"/>
	</g>
</g>
<g>
	<g>
		<defs>
			<polygon id="SVGID_27_" points="35.883,404.971 17.941,404.971 17.941,387.029 			"/>
		</defs>
		<use xlink:href="#SVGID_27_"  overflow="visible" fill="#E6B10E"/>
		<clipPath id="SVGID_28_">
			<use xlink:href="#SVGID_27_"  overflow="visible"/>
		</clipPath>
		<rect x="7.974" y="377.062" clip-path="url(#SVGID_28_)" fill="#E6B10E" width="37.876" height="37.876"/>
	</g>
</g>
<g>
	<g>
		<defs>
			<path id="SVGID_29_" d="M0,396c0,4.983,3.788,8.971,8.572,8.971h7.376v-17.941H8.572C3.788,387.029,0,391.016,0,396"/>
		</defs>
		<use xlink:href="#SVGID_29_"  overflow="visible" fill="#E6B10E"/>
		<clipPath id="SVGID_30_">
			<use xlink:href="#SVGID_29_"  overflow="visible"/>
		</clipPath>
		<rect x="-9.967" y="377.062" clip-path="url(#SVGID_30_)" fill="#E6B10E" width="35.883" height="37.876"/>
	</g>
</g>
<g>
	<g>
		<defs>
			<rect id="SVGID_31_" x="37.876" y="387.029" width="17.941" height="17.941"/>
		</defs>
		<use xlink:href="#SVGID_31_"  overflow="visible" fill="#FFFFFF"/>
		<clipPath id="SVGID_32_">
			<use xlink:href="#SVGID_31_"  overflow="visible"/>
		</clipPath>
		<rect x="27.909" y="377.062" clip-path="url(#SVGID_32_)" fill="#FFFFFF" width="37.876" height="37.876"/>
	</g>
</g>
<g>
	<g>
		<defs>
			<path id="SVGID_33_" d="M345.072,406.765c0,8.174-4.386,16.546-14.354,16.546c-8.571,0-14.153-6.578-14.153-16.546
				c0-7.974,4.386-16.546,14.153-16.546C340.687,390.219,345.072,398.592,345.072,406.765z M345.271,388.026v7.177
				c-2.392-4.984-7.974-8.173-14.353-8.173c-12.36,0-17.742,9.968-17.742,19.735c0,12.359,6.578,19.735,17.742,19.735
				c6.379,0,11.362-2.791,14.353-8.173v7.974c0,4.984-1.794,13.556-13.954,13.556c-7.376,0-11.961-3.389-12.56-9.369v-0.398h-3.787
				v0.398c0.398,8.173,5.98,12.559,16.147,12.559c0.398,0,0.598,0,0.996,0c10.965,0,16.945-6.18,16.945-17.343v-37.677H345.271z"/>
		</defs>
		<use xlink:href="#SVGID_33_"  overflow="visible" fill="#E6B10E"/>
		<clipPath id="SVGID_34_">
			<use xlink:href="#SVGID_33_"  overflow="visible"/>
		</clipPath>
		<rect x="303.01" y="377.062" clip-path="url(#SVGID_34_)" fill="#E6B10E" width="55.817" height="75.752"/>
	</g>
</g>
<g>
	<g>
		<defs>
			<path id="SVGID_35_" d="M380.357,389.023c-6.978-0.2-13.556,3.189-15.749,7.974v-7.775h-3.787v39.67h3.787v-21.529
				c0.398-5.98,1.595-8.174,4.585-10.965c3.589-3.389,7.575-3.787,9.769-3.787c0.598,0,0.996,0,1.595,0h0.398v-3.588H380.357z"/>
		</defs>
		<use xlink:href="#SVGID_35_"  overflow="visible" fill="#E6B10E"/>
		<clipPath id="SVGID_36_">
			<use xlink:href="#SVGID_35_"  overflow="visible"/>
		</clipPath>
		<rect x="350.854" y="379.055" clip-path="url(#SVGID_36_)" fill="#E6B10E" width="39.869" height="59.805"/>
	</g>
</g>
<g>
	<g>
		<defs>
			<path id="SVGID_37_" d="M412.452,405.968v6.578c0,0.199-0.398,12.958-14.153,12.958c-6.181,0-9.968-3.189-9.968-8.174
				c0-5.183,3.189-7.974,10.366-8.771c1.396-0.199,2.99-0.398,4.386-0.398C406.87,407.961,410.459,407.563,412.452,405.968z
				 M420.227,424.507c-0.996,0.199-1.595,0.199-1.993,0.199c-1.993,0-2.193-1.794-2.193-4.386v-22.726
				c0-8.771-7.575-10.565-13.954-10.565c-9.568,0-14.752,4.585-15.15,13.356v0.398h3.588v-0.398
				c0.399-6.379,4.585-10.167,11.563-10.167c8.771,0,10.565,5.781,10.565,7.376c0,5.98,0,6.978-13.157,7.774
				c-6.18,0.599-14.552,2.393-14.552,11.961c0,7.575,4.585,11.363,13.356,11.363c7.575,0,12.359-3.987,14.353-7.774v0.797
				c0,3.189,0.598,5.98,5.582,5.98c0.797,0,1.396-0.199,2.192-0.199h0.399v-3.189L420.227,424.507z"/>
		</defs>
		<use xlink:href="#SVGID_37_"  overflow="visible" fill="#E6B10E"/>
		<clipPath id="SVGID_38_">
			<use xlink:href="#SVGID_37_"  overflow="visible"/>
		</clipPath>
		<rect x="374.775" y="377.062" clip-path="url(#SVGID_38_)" fill="#E6B10E" width="55.817" height="61.798"/>
	</g>
</g>
<g>
	<g>
		<defs>
			<path id="SVGID_39_" d="M460.894,408.359c0,8.572-3.787,17.941-14.552,17.941c-11.762,0-14.154-9.768-14.154-17.941
				c0-4.187,0.997-18.141,14.154-18.141C457.106,390.219,460.894,399.987,460.894,408.359 M446.342,387.029
				c-8.174,0-12.56,5.183-14.154,8.971v-7.974H428.6v54.821h3.588v-21.529c2.393,5.382,7.376,8.173,14.154,8.173
				c11.362,0,18.141-7.974,18.141-21.131C464.482,395.402,457.306,387.029,446.342,387.029"/>
		</defs>
		<use xlink:href="#SVGID_39_"  overflow="visible" fill="#E6B10E"/>
		<clipPath id="SVGID_40_">
			<use xlink:href="#SVGID_39_"  overflow="visible"/>
		</clipPath>
		<rect x="418.632" y="377.062" clip-path="url(#SVGID_40_)" fill="#E6B10E" width="55.817" height="75.752"/>
	</g>
</g>
<g>
	<g>
		<defs>
			<path id="SVGID_41_" d="M493.985,387.627c-6.18,0-11.562,3.389-13.954,8.373v-22.925h-3.588v55.818h3.588v-21.729
				c0-9.967,5.383-16.346,13.755-16.346c10.964,0,10.964,9.569,10.964,12.559v25.517h3.589v-24.919
				C508.339,399.588,508.339,387.627,493.985,387.627"/>
		</defs>
		<use xlink:href="#SVGID_41_"  overflow="visible" fill="#E6B10E"/>
		<clipPath id="SVGID_42_">
			<use xlink:href="#SVGID_41_"  overflow="visible"/>
		</clipPath>
		<rect x="466.476" y="363.107" clip-path="url(#SVGID_42_)" fill="#E6B10E" width="51.831" height="75.753"/>
	</g>
</g>
<g>
	<g>
		<defs>
			<rect id="SVGID_43_" x="520.3" y="389.023" width="3.987" height="39.87"/>
		</defs>
		<use xlink:href="#SVGID_43_"  overflow="visible" fill="#E6B10E"/>
		<clipPath id="SVGID_44_">
			<use xlink:href="#SVGID_43_"  overflow="visible"/>
		</clipPath>
		<rect x="510.332" y="379.055" clip-path="url(#SVGID_44_)" fill="#E6B10E" width="23.922" height="59.805"/>
	</g>
</g>
<g>
	<g>
		<defs>
			<rect id="SVGID_45_" x="520.3" y="373.075" width="3.987" height="7.974"/>
		</defs>
		<use xlink:href="#SVGID_45_"  overflow="visible" fill="#E6B10E"/>
		<clipPath id="SVGID_46_">
			<use xlink:href="#SVGID_45_"  overflow="visible"/>
		</clipPath>
		<rect x="510.332" y="363.107" clip-path="url(#SVGID_46_)" fill="#E6B10E" width="23.922" height="27.909"/>
	</g>
</g>
<g>
	<g>
		<defs>
			<path id="SVGID_47_" d="M566.549,413.344v0.199c-0.997,7.176-6.38,11.961-13.556,11.961c-9.37,0-14.951-6.778-14.951-18.141
				c0-8.572,5.183-17.344,14.951-17.344c7.575,0,12.758,3.987,13.157,10.167v0.398h3.588v-0.398
				c-0.798-8.373-6.978-13.356-16.745-13.356c-10.965,0-18.739,8.373-18.739,20.533c0,10.365,4.984,21.33,18.739,21.33
				c9.17,0,15.947-5.98,17.144-15.15v-0.399h-3.588V413.344z"/>
		</defs>
		<use xlink:href="#SVGID_47_"  overflow="visible" fill="#E6B10E"/>
		<clipPath id="SVGID_48_">
			<use xlink:href="#SVGID_47_"  overflow="visible"/>
		</clipPath>
		<rect x="524.287" y="377.062" clip-path="url(#SVGID_48_)" fill="#E6B10E" width="55.817" height="61.798"/>
	</g>
</g>
<g>
	<g>
		<defs>
			<path id="SVGID_49_" d="M597.847,405.769l-1.196-0.2c-5.98-1.195-11.563-2.392-11.563-7.974c0-5.382,5.582-7.176,10.964-7.176
				c4.187,0,11.164,1.196,11.363,9.768v0.398h3.588v-0.398c0-8.373-5.183-12.958-14.751-12.958c-3.39,0-14.553,0.797-14.553,10.366
				c0,8.771,7.974,10.366,13.755,11.563l0.997,0.199c6.18,1.196,12.16,2.392,12.16,8.572c0,7.176-8.373,7.974-12.16,7.974
				c-7.177,0-12.16-4.386-12.56-11.164v-0.398h-3.787v0.398c0.199,8.771,6.379,14.354,16.147,14.354
				c3.588,0,15.748-0.797,15.748-11.163C612,409.157,605.621,407.163,597.847,405.769"/>
		</defs>
		<use xlink:href="#SVGID_49_"  overflow="visible" fill="#E6B10E"/>
		<clipPath id="SVGID_50_">
			<use xlink:href="#SVGID_49_"  overflow="visible"/>
		</clipPath>
		<rect x="570.137" y="377.062" clip-path="url(#SVGID_50_)" fill="#E6B10E" width="51.831" height="61.798"/>
	</g>
</g>
</svg>
