<?xml version="1.0" encoding="utf-8"?>
<!-- Generator: Adobe Illustrator 21.1.0, SVG Export Plug-In . SVG Version: 6.00 Build 0)  -->
<svg version="1.1" id="Layer_1" xmlns="http://www.w3.org/2000/svg" xmlns:xlink="http://www.w3.org/1999/xlink" x="0px" y="0px"
	 viewBox="0 0 235.8 76.7" style="enable-background:new 0 0 235.8 76.7;" xml:space="preserve">
<g>
	<defs>
		<path id="SVGID_1_" d="M217.9,38.6h17.8c0-6.1-5.2-10.5-11.1-10.5c-7.5,0-12.8,5.8-12.8,13.3c0,7.5,4.3,12.4,12.1,12.4
			c6.1,0,9.8-3.3,12-8.7l-0.8-0.8c-2.2,2.9-4.7,4.6-8.5,4.6C220.9,48.9,217.6,43.9,217.9,38.6z M218,36.7c0.2-3.3,1.5-7.3,6.1-7.3
			c2.9,0,5.5,2.6,5.5,6c0,1.1-0.3,1.3-1.4,1.3H218z M209.8,30.8l1-1.9h-8v-9.2l-9.1,9.8v1.3h3v18c0,2.9,2.6,5.1,6.4,5.1
			c2.4,0,6.1-1.6,7.5-3.5v-2c-1.3,1.1-2.8,2.5-4.6,2.5c-2.9,0-3.2-1.9-3.2-3.2V30.8H209.8z M193.7,49.4l-1-0.4
			c-0.4,1.3-1.7,1.9-2.7,1.9c-0.7,0-1.1-0.3-1.1-1.8V33.5c0-3.4-3.1-5.4-8.2-5.4c-8.4,0-14.3,5.2-14.2,8.2c-0.1,1.8,0.8,3.2,2.8,3.2
			c2.3,0,3.4-1.1,3.4-3.2c0-0.3-0.1-0.7-0.1-1c-0.1-0.2-0.1-0.4-0.1-0.6c0-3.2,2.1-4.9,5-4.9c2.6,0,5.3,1.5,5.3,4.7v3.1
			c-9.2,2.9-15.7,6.1-15.7,11.1c0,3.5,3.7,5,6.7,5c3.5,0,6.3-1.5,9-3.8c0.7,2.9,2.6,3.8,5.5,3.8C190.9,53.9,193,52,193.7,49.4z
			 M182.7,48.3c-1.4,1.2-3.2,2.6-5.1,2.6c-2.6,0-4.6-1.4-4.6-4.1c0-2.7,2-5.5,9.7-7.6V48.3z M151.2,53.1h12.6v-1.3
			c-2.8,0-3.1-0.3-3.1-2V36.9c0-5.7-3.1-8.8-8.8-8.8c-3.5,0-6.8,2.2-9.3,4.5v-4.5c-3,1.1-6,2.2-9.1,2.9v1.3c1.4,0.3,3,0.7,3,2.4
			v15.1c0,1.7-0.3,2-3.2,2v1.3h12.9v-1.3c-3.3,0-3.6-0.3-3.6-2V34.1c2.6-2.3,4.5-3.1,6.9-3.1c2.9,0,5.1,2.3,5.1,5.1v13.6
			c0,1.7-0.3,2-3.3,2V53.1z M118.6,53.1H131v-1.3c-2.7,0-3.1-0.3-3.1-2V28.1c-3.2,1.1-6.3,2.2-9.6,2.8v1.3c2.8,0.2,3.4,0.8,3.4,1.5
			v16.1c0,1.7-0.3,2-3.3,2V53.1z M128.6,16.7c0-2.2-1.9-3.8-3.8-3.8c-1.9,0-3.8,1.6-3.8,3.8c0,2.2,1.9,3.8,3.8,3.8
			C126.7,20.5,128.6,18.9,128.6,16.7z M103.5,53.1h12.8v-1.3c-3.2,0-3.5-0.3-3.5-2V35c0-4.4-4.6-6.9-8.1-6.9c-3.3,0-6.6,2.1-8.9,4.1
			c-1.9-2.3-4.6-4.1-7.6-4.1c-3.8,0-6.2,2-8.8,4.4v-4.4c-3,1.1-6,2.2-9.1,2.9v1.3c1.4,0.3,3,0.7,3,2.4v15.1c0,1.7-0.3,2-3.2,2v1.3
			H83v-1.3c-3.3,0-3.6-0.3-3.6-2V34.1c1.9-1.9,3.6-3.1,5.7-3.1C87,31,90,32.4,90,35v14.8c0,1.7-0.3,2-3.2,2v1.3h12.9v-1.3
			c-3.3,0-3.6-0.3-3.6-2V34.1c1.9-1.9,3.6-3.1,5.7-3.1c1.9,0,4.9,1.4,4.9,3.9v14.8c0,1.7-0.3,2-3.2,2V53.1z M58.5,53.9
			c3-1.1,6-2.2,9.1-2.9v-1.3c-1.4-0.3-3-0.7-3-2.4V28.9h-9.7v1.3c3.3,0,3.6,0.3,3.6,2v15.6c-2.6,2.3-4.5,3.1-6.9,3.1
			c-2.9,0-5.1-2.3-5.1-5.1v-17h-9.2v1.3c2.8,0,3.1,0.3,3.1,2V45c0,5.7,3.1,8.8,8.8,8.8c3.5,0,6.8-2.2,9.3-4.5V53.9z M27.2,53.1h6.1
			V0h-6.1V53.1z M13.6,65.2h6.1V14.5h-6.1V65.2z M0,53.1h6.1V28.9H0V53.1z"/>
	</defs>
	<clipPath id="SVGID_2_">
		<use xlink:href="#SVGID_1_"  style="overflow:visible;"/>
	</clipPath>
	<rect x="-5" y="-5" style="clip-path:url(#SVGID_2_);fill:#FFFFFF;" width="245.8" height="75.2"/>
</g>
<g>
	<defs>
		<path id="SVGID_3_" d="M234.3,73.2v-5.7c0-0.5-0.1-1-0.2-1.4c-0.1-0.4-0.3-0.8-0.5-1.1c-0.2-0.3-0.6-0.5-1-0.7
			c-0.4-0.2-0.9-0.2-1.5-0.2c-0.6,0-1.2,0.2-1.7,0.5c-0.5,0.3-0.9,0.8-1.1,1.3h0v-1.5h-1.1v8.8h1.1V68c0-0.4,0.1-0.8,0.2-1.2
			c0.1-0.4,0.3-0.7,0.5-1c0.2-0.3,0.5-0.5,0.9-0.6c0.3-0.2,0.7-0.2,1.2-0.2c0.4,0,0.8,0.1,1.1,0.2c0.3,0.1,0.5,0.3,0.7,0.6
			c0.2,0.2,0.3,0.5,0.4,0.8c0.1,0.3,0.1,0.7,0.1,1.1v5.5H234.3z M224.9,74.2c0.1-0.5,0.2-1.1,0.2-1.8v-8.1h-1.1v1.5h0
			c-0.1-0.2-0.2-0.5-0.4-0.7c-0.2-0.2-0.4-0.4-0.6-0.6c-0.2-0.2-0.5-0.3-0.8-0.4c-0.3-0.1-0.6-0.1-0.9-0.1c-0.6,0-1.2,0.1-1.7,0.4
			c-0.5,0.2-0.9,0.6-1.2,1c-0.3,0.4-0.6,0.9-0.8,1.4c-0.2,0.5-0.3,1.1-0.3,1.7c0,0.6,0.1,1.2,0.2,1.8c0.1,0.6,0.4,1,0.7,1.4
			c0.3,0.4,0.7,0.7,1.2,1c0.5,0.2,1.1,0.3,1.8,0.3c0.6,0,1.2-0.2,1.7-0.5c0.5-0.3,0.9-0.8,1.1-1.3h0v1.2c0,1.1-0.2,1.9-0.7,2.5
			c-0.4,0.6-1.2,0.9-2.2,0.9c-0.3,0-0.6,0-0.9-0.1c-0.3-0.1-0.5-0.2-0.8-0.3c-0.2-0.1-0.4-0.3-0.6-0.5c-0.2-0.2-0.3-0.5-0.3-0.8
			h-1.1c0,0.5,0.2,0.9,0.4,1.2c0.2,0.3,0.5,0.6,0.8,0.8c0.3,0.2,0.7,0.4,1.1,0.5c0.4,0.1,0.9,0.2,1.3,0.2c0.7,0,1.3-0.1,1.8-0.3
			c0.5-0.2,0.9-0.5,1.2-0.8C224.6,75.2,224.8,74.7,224.9,74.2z M224.1,68.7c0,0.4-0.1,0.9-0.2,1.3c-0.1,0.4-0.3,0.8-0.5,1.1
			c-0.2,0.3-0.5,0.6-0.9,0.8c-0.4,0.2-0.8,0.3-1.2,0.3c-0.5,0-0.9-0.1-1.3-0.3c-0.4-0.2-0.7-0.5-0.9-0.8c-0.2-0.3-0.4-0.7-0.5-1.1
			c-0.1-0.4-0.2-0.9-0.2-1.3c0-0.5,0.1-0.9,0.2-1.3c0.1-0.4,0.3-0.8,0.5-1.2c0.2-0.3,0.5-0.6,0.9-0.8c0.4-0.2,0.8-0.3,1.3-0.3
			c0.5,0,0.9,0.1,1.3,0.3c0.4,0.2,0.7,0.5,0.9,0.9c0.2,0.4,0.4,0.7,0.5,1.2C224,67.8,224.1,68.2,224.1,68.7z M214.6,73.2h1.1v-8.8
			h-1.1V73.2z M214.6,62.7h1.1V61h-1.1V62.7z M212.6,72c0.2-0.3,0.3-0.7,0.3-1.2c0-0.4-0.1-0.7-0.2-1c-0.1-0.3-0.3-0.5-0.6-0.7
			c-0.2-0.2-0.5-0.4-0.8-0.5c-0.3-0.1-0.6-0.2-0.9-0.2L209,68c-0.2,0-0.4-0.1-0.6-0.2c-0.2-0.1-0.4-0.2-0.6-0.3
			c-0.2-0.1-0.3-0.3-0.5-0.4c-0.1-0.2-0.2-0.4-0.2-0.6c0-0.3,0.1-0.5,0.2-0.7c0.1-0.2,0.3-0.4,0.5-0.5c0.2-0.1,0.4-0.2,0.7-0.3
			c0.2-0.1,0.5-0.1,0.7-0.1c0.3,0,0.6,0,0.9,0.1c0.3,0.1,0.5,0.2,0.7,0.4c0.2,0.2,0.4,0.4,0.5,0.6c0.1,0.2,0.2,0.5,0.2,0.9h1.1
			c0-0.5-0.1-0.9-0.3-1.2c-0.2-0.4-0.4-0.6-0.7-0.9c-0.3-0.2-0.6-0.4-1-0.5c-0.4-0.1-0.8-0.2-1.2-0.2c-0.4,0-0.8,0-1.2,0.1
			c-0.4,0.1-0.7,0.2-1.1,0.4c-0.3,0.2-0.6,0.5-0.8,0.8c-0.2,0.3-0.3,0.7-0.3,1.1c0,0.4,0.1,0.7,0.2,0.9c0.1,0.3,0.3,0.5,0.5,0.6
			c0.2,0.2,0.5,0.3,0.8,0.4c0.3,0.1,0.6,0.2,1,0.3l1.4,0.3c0.2,0.1,0.5,0.1,0.7,0.2c0.2,0.1,0.4,0.2,0.6,0.3
			c0.2,0.1,0.3,0.3,0.4,0.4c0.1,0.2,0.2,0.4,0.2,0.7c0,0.3-0.1,0.6-0.2,0.8c-0.2,0.2-0.3,0.4-0.6,0.5c-0.2,0.1-0.5,0.2-0.8,0.3
			c-0.3,0.1-0.5,0.1-0.8,0.1c-0.7,0-1.3-0.2-1.8-0.6c-0.5-0.4-0.7-0.9-0.8-1.6h-1.1c0.1,1.1,0.5,1.9,1.1,2.4
			c0.6,0.5,1.5,0.7,2.5,0.7c0.4,0,0.8,0,1.2-0.1c0.4-0.1,0.8-0.2,1.1-0.5C212.1,72.6,212.4,72.3,212.6,72z M197.7,69h6.8
			c0-0.6,0-1.2-0.2-1.8c-0.1-0.6-0.4-1.1-0.7-1.6c-0.3-0.5-0.7-0.8-1.2-1.1c-0.5-0.3-1.1-0.4-1.8-0.4c-0.7,0-1.3,0.1-1.8,0.4
			c-0.5,0.3-0.9,0.6-1.2,1.1c-0.3,0.4-0.6,0.9-0.7,1.5c-0.2,0.6-0.2,1.1-0.2,1.7c0,0.6,0.1,1.2,0.2,1.8c0.2,0.6,0.4,1.1,0.7,1.5
			c0.3,0.4,0.7,0.8,1.2,1c0.5,0.2,1.1,0.4,1.8,0.4c1.1,0,2-0.3,2.6-0.8c0.6-0.5,1-1.3,1.3-2.3h-1.1c-0.2,0.7-0.5,1.2-0.9,1.6
			c-0.4,0.4-1.1,0.6-1.8,0.6c-0.5,0-1-0.1-1.3-0.3c-0.4-0.2-0.7-0.5-0.9-0.8c-0.2-0.3-0.4-0.7-0.5-1.1
			C197.7,69.8,197.7,69.4,197.7,69z M197.7,68.1c0-0.4,0.1-0.8,0.3-1.2c0.1-0.4,0.3-0.7,0.6-1c0.2-0.3,0.5-0.5,0.9-0.7
			c0.3-0.2,0.7-0.3,1.2-0.3c0.4,0,0.8,0.1,1.2,0.3c0.3,0.2,0.6,0.4,0.9,0.7c0.2,0.3,0.4,0.6,0.6,1c0.1,0.4,0.2,0.8,0.2,1.2H197.7z
			 M194,71.6c0.9-1,1.4-2.5,1.4-4.5c0-2-0.5-3.5-1.4-4.5c-0.9-1-2.3-1.5-4.2-1.6h-4.2v12.2h4.2C191.6,73.1,193,72.6,194,71.6z
			 M194.2,67.1c0,0.9-0.1,1.7-0.3,2.3c-0.2,0.6-0.5,1.2-0.9,1.6c-0.4,0.4-0.9,0.7-1.6,0.9s-1.4,0.3-2.3,0.3h-2.5V62h2.5
			c0.9,0,1.6,0.1,2.3,0.3c0.6,0.2,1.2,0.5,1.6,0.9c0.4,0.4,0.7,0.9,0.9,1.6C194.1,65.4,194.2,66.2,194.2,67.1z M178,74.2
			c0.1-0.5,0.2-1.1,0.2-1.8v-8.1h-1.1v1.5h0c-0.1-0.2-0.2-0.5-0.4-0.7c-0.2-0.2-0.4-0.4-0.6-0.6c-0.2-0.2-0.5-0.3-0.8-0.4
			c-0.3-0.1-0.6-0.1-0.9-0.1c-0.6,0-1.2,0.1-1.7,0.4c-0.5,0.2-0.9,0.6-1.2,1c-0.3,0.4-0.6,0.9-0.8,1.4c-0.2,0.5-0.3,1.1-0.3,1.7
			c0,0.6,0.1,1.2,0.2,1.8c0.1,0.6,0.4,1,0.7,1.4c0.3,0.4,0.7,0.7,1.2,1c0.5,0.2,1.1,0.3,1.8,0.3c0.7,0,1.2-0.2,1.7-0.5
			c0.5-0.3,0.9-0.8,1.1-1.3h0v1.2c0,1.1-0.2,1.9-0.7,2.5c-0.4,0.6-1.2,0.9-2.2,0.9c-0.3,0-0.6,0-0.9-0.1c-0.3-0.1-0.5-0.2-0.8-0.3
			c-0.2-0.1-0.4-0.3-0.6-0.5c-0.2-0.2-0.3-0.5-0.3-0.8h-1.1c0,0.5,0.2,0.9,0.4,1.2s0.5,0.6,0.8,0.8c0.3,0.2,0.7,0.4,1.1,0.5
			s0.9,0.2,1.3,0.2c0.7,0,1.3-0.1,1.8-0.3c0.5-0.2,0.9-0.5,1.2-0.8C177.6,75.2,177.9,74.7,178,74.2z M177.1,68.7
			c0,0.4-0.1,0.9-0.2,1.3c-0.1,0.4-0.3,0.8-0.5,1.1c-0.2,0.3-0.5,0.6-0.9,0.8c-0.4,0.2-0.8,0.3-1.2,0.3c-0.5,0-0.9-0.1-1.3-0.3
			c-0.4-0.2-0.7-0.5-0.9-0.8c-0.2-0.3-0.4-0.7-0.5-1.1c-0.1-0.4-0.2-0.9-0.2-1.3c0-0.5,0.1-0.9,0.2-1.3c0.1-0.4,0.3-0.8,0.5-1.2
			c0.2-0.3,0.5-0.6,0.9-0.8c0.4-0.2,0.8-0.3,1.3-0.3c0.5,0,0.9,0.1,1.3,0.3c0.4,0.2,0.7,0.5,0.9,0.9c0.2,0.4,0.4,0.7,0.5,1.2
			C177.1,67.8,177.1,68.2,177.1,68.7z M167.8,73.2h1.1v-5.7c0-0.5-0.1-1-0.2-1.4c-0.1-0.4-0.3-0.8-0.5-1.1c-0.2-0.3-0.6-0.5-1-0.7
			c-0.4-0.2-0.9-0.2-1.5-0.2c-0.6,0-1.2,0.2-1.7,0.5c-0.5,0.3-0.9,0.8-1.1,1.3h0v-1.5h-1.1v8.8h1.1V68c0-0.4,0.1-0.8,0.2-1.2
			c0.1-0.4,0.3-0.7,0.5-1c0.2-0.3,0.5-0.5,0.9-0.6c0.3-0.2,0.7-0.2,1.2-0.2c0.4,0,0.8,0.1,1.1,0.2c0.3,0.1,0.5,0.3,0.7,0.6
			c0.2,0.2,0.3,0.5,0.4,0.8c0.1,0.3,0.1,0.7,0.1,1.1V73.2z M158.5,73.2h1.1v-8.8h-1.1V73.2z M158.5,62.7h1.1V61h-1.1V62.7z
			 M156.4,73.2c0.2,0,0.3,0,0.5,0v-0.9c-0.3,0-0.6,0.1-0.9,0.1c-0.4,0-0.6-0.1-0.7-0.3c-0.1-0.2-0.1-0.5-0.1-0.8v-5.9h1.8v-0.9h-1.8
			v-2.6H154v2.6h-1.5v0.9h1.5v6c0,0.8,0.1,1.3,0.4,1.5c0.3,0.3,0.8,0.4,1.5,0.4C156.1,73.3,156.3,73.2,156.4,73.2z M150.3,73.2h1.1
			v-5.7c0-0.5-0.1-1-0.2-1.4c-0.1-0.4-0.3-0.8-0.5-1.1c-0.2-0.3-0.6-0.5-1-0.7c-0.4-0.2-0.9-0.2-1.5-0.2c-0.6,0-1.2,0.2-1.7,0.5
			c-0.5,0.3-0.9,0.8-1.1,1.3h0V61h-1.1v12.2h1.1V68c0-0.4,0.1-0.8,0.2-1.2c0.1-0.4,0.3-0.7,0.5-1c0.2-0.3,0.5-0.5,0.9-0.6
			c0.3-0.2,0.7-0.2,1.2-0.2c0.4,0,0.8,0.1,1.1,0.2c0.3,0.1,0.5,0.3,0.7,0.6c0.2,0.2,0.3,0.5,0.4,0.8c0.1,0.3,0.1,0.7,0.1,1.1V73.2z
			 M142,74.2c0.1-0.5,0.2-1.1,0.2-1.8v-8.1h-1.1v1.5h0c-0.1-0.2-0.2-0.5-0.4-0.7c-0.2-0.2-0.4-0.4-0.6-0.6c-0.2-0.2-0.5-0.3-0.8-0.4
			c-0.3-0.1-0.6-0.1-0.9-0.1c-0.6,0-1.2,0.1-1.7,0.4c-0.5,0.2-0.9,0.6-1.2,1c-0.3,0.4-0.6,0.9-0.8,1.4c-0.2,0.5-0.3,1.1-0.3,1.7
			c0,0.6,0.1,1.2,0.2,1.8c0.1,0.6,0.4,1,0.7,1.4c0.3,0.4,0.7,0.7,1.2,1c0.5,0.2,1.1,0.3,1.8,0.3c0.6,0,1.2-0.2,1.7-0.5
			c0.5-0.3,0.9-0.8,1.1-1.3h0v1.2c0,1.1-0.2,1.9-0.7,2.5c-0.4,0.6-1.2,0.9-2.2,0.9c-0.3,0-0.6,0-0.9-0.1c-0.3-0.1-0.5-0.2-0.8-0.3
			c-0.2-0.1-0.4-0.3-0.6-0.5c-0.2-0.2-0.3-0.5-0.3-0.8h-1.1c0,0.5,0.2,0.9,0.4,1.2c0.2,0.3,0.5,0.6,0.8,0.8c0.3,0.2,0.7,0.4,1.1,0.5
			c0.4,0.1,0.9,0.2,1.3,0.2c0.7,0,1.3-0.1,1.8-0.3c0.5-0.2,0.9-0.5,1.2-0.8C141.7,75.2,141.9,74.7,142,74.2z M141.2,68.7
			c0,0.4-0.1,0.9-0.2,1.3c-0.1,0.4-0.3,0.8-0.5,1.1c-0.2,0.3-0.5,0.6-0.9,0.8c-0.4,0.2-0.8,0.3-1.2,0.3c-0.5,0-0.9-0.1-1.3-0.3
			c-0.4-0.2-0.7-0.5-0.9-0.8c-0.2-0.3-0.4-0.7-0.5-1.1c-0.1-0.4-0.2-0.9-0.2-1.3c0-0.5,0.1-0.9,0.2-1.3c0.1-0.4,0.3-0.8,0.5-1.2
			c0.2-0.3,0.5-0.6,0.9-0.8c0.4-0.2,0.8-0.3,1.3-0.3s0.9,0.1,1.3,0.3c0.4,0.2,0.7,0.5,0.9,0.9c0.2,0.4,0.4,0.7,0.5,1.2
			C141.1,67.8,141.2,68.2,141.2,68.7z M131.5,73.2h1.1v-8.8h-1.1V73.2z M131.5,62.7h1.1V61h-1.1V62.7z M122.2,73.2h8v-1h-6.8V61
			h-1.2V73.2z M113.5,66.3c0.7,0,1.1,0,1.6,0.1v-1c-0.4,0.1-0.9,0.1-1.6,0.1h-1.9v-2.7c0-0.6,0-1.1,0.1-1.5h-1.1
			c0.1,0.5,0.1,0.9,0.1,1.5v2.7h-1.9c-0.7,0-1.1,0-1.6-0.1v1c0.5-0.1,1-0.1,1.6-0.1h1.9v5.2c0,1,0,1.4-0.1,1.9h1.1
			c-0.1-0.5-0.1-1.1-0.1-1.9v-5.2H113.5z M106.2,63.9l0.7-0.7c-0.8-0.8-1.4-1.4-2.3-2l-0.7,0.6C104.9,62.4,105.5,63,106.2,63.9z
			 M103.9,65.5c-0.5,0-0.7,0-1.1-0.1v1c0.3-0.1,0.5-0.1,1-0.1h1.1v5.2c-0.1,0.3-0.1,0.4-0.4,0.5L105,73c0.2-0.1,0.5-0.3,0.7-0.4
			c0.1-0.1,1.3-0.7,1.4-0.7c0.7-0.4,0.7-0.4,0.9-0.5l-0.1-1c-0.3,0.1-0.3,0.2-0.5,0.3c-0.6,0.4-0.6,0.4-0.8,0.5
			c-0.3,0.2-0.6,0.3-0.7,0.4v-4.6c0-0.7,0-1,0.1-1.4c-0.3,0-0.7,0.1-1,0.1H103.9z M99.7,73.4c0.1-0.4,0.2-0.6,0.5-0.9
			c-1.6-0.4-2.6-0.9-3.5-1.6c0.9-0.8,1.6-1.8,2.1-3c0.1-0.1,0.1-0.3,0.3-0.5l-0.5-0.6c-0.3,0-0.5,0.1-1,0.1h-3.7
			c-0.5,0-0.9,0-1.2-0.1v0.9c0.3,0,0.4,0,0.8-0.1c0.6,1.6,1.1,2.3,2,3.2c-1.1,0.8-2,1.2-3.5,1.6c0.3,0.4,0.4,0.5,0.6,0.9
			c1.6-0.6,2.7-1.2,3.6-1.9c0.4,0.4,1.1,0.8,1.6,1.1C98.2,72.7,98.2,72.7,99.7,73.4z M96,70.3c-0.8-0.8-1.2-1.4-1.8-2.7h3.7
			C97.3,68.9,96.9,69.5,96,70.3z M99.9,65.6c0-0.2,0-0.5,0.1-0.8c-0.6,0.1-1,0.2-1.5,0.2c-0.3,0-0.3-0.1-0.3-0.4v-1.8
			c0-0.6,0-0.9,0.1-1.3c-0.3,0-0.6,0.1-1.1,0.1h-2.3c-0.5,0-0.8,0-1.1-0.1c0,0.2,0.1,0.5,0.1,0.8c0,1.2-0.1,1.9-0.4,2.2
			c-0.4,0.5-0.8,0.8-1.6,1.1c0.4,0.3,0.4,0.3,0.6,0.7c0.8-0.5,1.4-0.9,1.8-1.5c0.3-0.5,0.4-1.1,0.5-2.6h2.7V65
			c0,0.7,0.2,0.8,1.2,0.8c0.5,0,1,0,1.4-0.1V65.6z M91,63.7l0.7-0.7c-0.7-0.7-1.2-1.2-2-1.8L89,61.8C89.8,62.4,90.4,62.9,91,63.7z
			 M89.6,65.5h-0.7c-0.5,0-0.7,0-1-0.1v0.9c0.3-0.1,0.5-0.1,1-0.1h0.9v5c0,0.4-0.1,0.5-0.4,0.6l0.4,0.8l1-0.6c1.1-0.7,1.3-0.8,1.6-1
			l-0.1-0.9c-0.7,0.5-1.1,0.7-1.5,1c-0.1,0.1-0.1,0.1-0.2,0.1v-4.5c0-0.7,0-1,0.1-1.4C90.3,65.5,90,65.5,89.6,65.5z M80.5,72v-5.1h3
			c0.6,0,1,0,1.4,0.1v-1c-0.4,0.1-0.8,0.1-1.4,0.1h-4.2v-3.6c0-0.5,0-0.9,0.1-1.2h-1c0.1,0.4,0.1,0.7,0.1,1.2v3.6h-3.9
			c-0.6,0-1,0-1.4-0.1v1c0.4-0.1,0.8-0.1,1.4-0.1h2.4c-0.1,1.8-0.3,2.8-1,3.7c-0.6,0.9-1.6,1.5-3.2,2c0.3,0.3,0.4,0.4,0.6,0.8
			c1.6-0.6,2.5-1.2,3.2-2.2c0.8-1,1.1-2.3,1.2-4.2h1.9v5.2c0,0.5,0.1,0.7,0.3,0.8c0.3,0.2,0.7,0.2,1.9,0.2c1.5,0,2-0.1,2.3-0.3
			c0.5-0.3,0.6-0.8,0.8-2.5c-0.3-0.1-0.5-0.1-0.9-0.4c-0.1,1.2-0.2,1.8-0.4,2c-0.2,0.2-0.5,0.2-1.7,0.2C80.7,72.3,80.5,72.3,80.5,72
			z M81.5,65.6c1-1.1,1.4-1.7,2.2-3.3l-0.8-0.4c-0.7,1.5-1.2,2.2-2.2,3.2L81.5,65.6z M76.1,65.5l0.8-0.5c-0.8-1.4-1.1-1.8-2.1-3
			L74,62.4C75,63.5,75.4,64.1,76.1,65.5z M69.2,62.9c0.5,0,1,0,1.5,0.1v-1c-0.4,0.1-0.9,0.1-1.4,0.1h-4.6c-0.5,0-0.9,0-1.3-0.1v1
			c0.4-0.1,0.8-0.1,1.3-0.1h2.7v9.2c0,0.3-0.1,0.3-0.6,0.3c-0.5,0-1,0-1.6-0.1c0.1,0.4,0.2,0.6,0.2,0.9c0.5,0,0.9,0,1.4,0
			c1.4,0,1.6-0.2,1.6-1.1v-9.3H69.2z M63.9,64.3l-0.7-0.6c-0.4,0.7-0.9,1.4-1.6,2c0-0.7,0-1.1,0-1.7c0-2.2,0-2.2,0.1-2.6h-1
			c0.1,0.4,0.1,0.7,0.1,2c0,3.2-0.1,4.8-0.5,6.2c-0.4,1.3-0.9,2.2-1.9,3.2c0.3,0.2,0.4,0.4,0.7,0.7c1.1-1.3,1.7-2.4,2.1-4.1
			c0.8,0.7,1.5,1.5,2.1,2.5l0.7-0.7c-0.1-0.1-0.3-0.4-0.6-0.7c-0.2-0.3-0.2-0.3-1.1-1.1c-0.4-0.4-0.7-0.7-0.9-0.8
			c0.1-0.5,0.1-0.9,0.2-1.7C62.6,65.8,63.1,65.3,63.9,64.3z M59.1,67.8c0.4-1,0.5-2,0.6-3.7l-0.8-0.2c0,1.6-0.1,2.5-0.6,3.6
			L59.1,67.8z"/>
	</defs>
	<clipPath id="SVGID_4_">
		<use xlink:href="#SVGID_3_"  style="overflow:visible;"/>
	</clipPath>
	<rect x="53.3" y="56" style="clip-path:url(#SVGID_4_);fill:#FFFFFF;" width="186" height="25.7"/>
</g>
</svg>
