<?xml version="1.0" encoding="utf-8"?>
<!-- Generator: Adobe Illustrator 21.1.0, SVG Export Plug-In . SVG Version: 6.00 Build 0)  -->
<svg version="1.1" id="Layer_1" xmlns="http://www.w3.org/2000/svg" xmlns:xlink="http://www.w3.org/1999/xlink" x="0px" y="0px"
	 viewBox="0 0 452.7 55.6" style="enable-background:new 0 0 452.7 55.6;" xml:space="preserve">
<g>
	<defs>
		<path id="SVGID_1_" d="M452.7,15.8c-1.3,2.3-2.3,4.9-3.9,7c-2.2,2.8-4.7,5.4-7.2,8c-1.3,1.3-1.4,1.7,0,2.9
			c1.2,0.9,2.7,1.5,4.1,2.2c0.6,0.3,1.3,0.3,1.1,1.2c-0.2,0.9-0.6,1.4-1.6,1.3c-2.7-0.2-5-1.3-6.8-3.2c-0.9-0.9-1.5-1-2.5-0.3
			c-3.8,2.5-8.2,3.4-12.6,4c-1.8,0.2-3.6,0.5-5.2-0.6c-0.3-0.2-0.9,0.1-1.3,0.2c-1.6,0.3-3.2,0.8-4.8,1c-1.5,0.1-2.6-0.7-3-2.2
			c-0.2-0.8-0.6-0.9-1.4-0.8c-3.2,0.7-6.4,1.5-9.6,2.1c-1.4,0.3-2.9,0.4-4.3,0.3c-2.2,0-2.4-0.3-2.8-2.7c-0.8,0.1-1.7,0.1-2.6,0.3
			c-4,1-7.9,2-12.1,1.9c-3.8-0.1-6.3-2-6.8-5c-0.1-0.9-0.2-1.9-0.3-3.1c-0.7,0.7-1.3,1.1-1.8,1.6c-3.8,3.8-8.7,5.2-13.8,6.2
			c-1.3,0.2-2.7,0.5-4,0.6c-1.4,0.2-2.6-0.4-3.3-1.7c-0.4-0.7-0.8-0.7-1.4-0.6c-4.1,0.9-8.3,1.7-12.4,2.5c-0.9,0.2-1.9,0.3-2.8,0.4
			c-1.5,0.1-1.9-0.4-1.5-1.8c0.1-0.3,0.2-0.7,0.5-1.3c-0.8,0.1-1.5,0.2-2.1,0.3c-4.5,1.1-9,2.4-13.6,2.3c-1.3,0-2.5,0-3.8-0.2
			c-0.8-0.1-1.6-0.5-2.1-1c-1-1.1-2.1-1.1-3.4-0.8c-2.7,0.6-5.4,1.1-8.1,1.4c-3,0.3-5.3-1.1-6.8-3.9c-0.4,0.3-0.8,0.6-1.1,0.9
			c-2.3,1.9-4.9,3-7.9,3.6c-2.1,0.4-3.7-0.2-4.8-2.1c-0.2-0.3-0.3-0.5-0.5-0.8c-2.6,0.7-5.2,1.6-7.8,2.1c-2.5,0.5-5,0.7-7.5,0.9
			c-1.3,0.1-2.1-0.5-2.2-1.8c-0.1-1.1-0.8-1.1-1.6-0.9c-2.1,0.5-4.1,1.1-6.2,1.5c-2.2,0.4-4.4,0.5-6.5,0.7c-0.8,0.1-1.5,0.3-2.2,0.4
			c-1.3,0.3-2.7,0.8-4,1c-3,0.5-4.2-0.8-3.6-3.7c-2.4,0.7-4.8,1.4-7.3,1.9c-3.8,0.8-7.7,1.3-11.7,0.7c-0.8-0.1-1.6-0.6-2.2-1.1
			c-0.9-0.8-1.8-1-3-0.8c-0.7,0.2-1.4,0.3-2.1,0.3c-0.4,0-1.2-0.5-1.1-0.7c0.1-0.5,0.4-1.1,0.8-1.5c0.2-0.2,0.8-0.1,1.2-0.2
			c1.5-0.2,2.7-0.6,3.6-2.1c1.4-2.6,6.8-4.3,9.7-3.2c1.7,0.6,2.2,2.2,1.1,3.5c-0.7,0.8-1.7,1.4-2.7,1.8c-1.2,0.5-2.6,0.7-3.9,1.1
			c-0.1,0-0.1,0.1-0.3,0.3c0.5,0.1,0.9,0.3,1.3,0.3c3.2-0.3,6.4-0.3,9.5-0.9c3.9-0.8,7.6-2.1,11.5-3c1.5-0.3,3-0.4,4.5-0.4
			c2.1,0,2.9,0.9,2.9,3c0,0.3,0.1,0.6,0.1,1.1c5.8-0.9,11.3-3.2,17.2-3.1c0.5,1.7-1,2.4-1.8,3.4c0.1,0.1,0.1,0.2,0.2,0.3
			c3.1-0.6,6.3-1.1,9.3-2c3.6-1,7.1-2.6,10.7-3.6c2.3-0.6,4.8-0.5,7.2-0.9c0.5-0.1,1.3-0.5,1.4-0.9c1.6-5.6,4.8-10.3,8.1-15.1
			c0.5-0.8,1.5-1.3,2.4-1.7c1.1-0.5,1.9,0,1.7,1.2c-0.2,1.3-0.3,2.6-0.9,3.7c-2.2,3.9-4.6,7.7-7,11.4c-0.9,1.4-1.4,2.8-0.8,4.4
			c0.5,1.2,1.3,2.1,2.7,2.2c1.4,0.1,2.8,0,4.1-0.2c1.6-0.2,3.1-0.5,4.6-1c0.8-0.3,1.8-0.8,2.2-1.5c1.4-2.8,6.7-4.6,9.9-3.7
			c1.8,0.5,2.4,2.3,1.1,3.7c-0.7,0.8-1.8,1.3-2.8,1.7c-1.2,0.5-2.4,0.7-3.6,1.1c-0.1,0-0.2,0.2-0.6,0.6c2.3,0,4.4,0.3,6.3-0.1
			c4-0.6,7.9-1.6,11.9-2.4c1.3-0.2,2.6-0.3,3.9-0.3c1,0,1.6,0.3,1.7,1.4c0.1,1.4,1.3,0.9,2,0.8c2.5-0.4,5-0.9,7.5-1.4
			c1.7-0.3,3.4-0.7,5.1-1.1c1.2-0.3,2,0.1,2.2,1.3c0.1,1.1,0.8,1.2,1.7,1.2c2.6,0,5.1-0.6,7.4-1.7c6-2.9,10.1-7.7,13.6-13.6
			c-0.9-0.1-1.7-0.2-2.4-0.2c-1.3-0.1-2.6-0.1-3.9-0.3c-0.4-0.1-0.7-0.7-1.1-1c0.5-0.4,0.9-1,1.4-1c1.8-0.1,3.6-0.2,5.4,0
			c1.9,0.2,3.3-0.5,4.3-2.1c0.8-1.2,1.8-2.4,2.7-3.5c0.5-0.6,1.1-1.3,1.8-1.5c0.6-0.2,1.6-0.2,2.1,0.2c0.7,0.5,0.6,1.4,0.1,2.2
			c-0.8,1.1-1.6,2.2-2.4,3.2c-0.3,0.4-0.6,0.8-0.9,1.2c1.2,0.4,2.3,0.7,3.4,1c-0.6,1.4-1.5,1.6-2.4,1.4c-2.2-0.3-3.6,0.6-4.5,2.5
			c-1.3,2.5-2.9,4.9-3.9,7.5c-1.5,3.8,0.6,6.5,4.7,6.1c3.4-0.4,6.8-1.3,10.2-1.9c2.2-0.4,4.5-0.7,6.8-1c0.4-0.1,0.9,0.3,1.4,0.5
			c-0.2,0.5-0.3,1.1-0.6,1.6c-0.3,0.4-0.8,0.8-1.2,1.2c0,0.1,0.1,0.2,0.1,0.3c1.3-0.2,2.6-0.4,3.9-0.7c6.5-1.4,13.1-2.9,19.6-4.3
			c0.4-0.1,0.9-0.1,1.3-0.2c2.3-0.1,3.2,0.9,2.8,3.1c-0.1,0.5-0.2,1-0.3,1.6c0.6,0,1.2,0.2,1.7,0.1c3.6-1,7.2-2.1,10.8-3.2
			c1.5-0.5,2-1.7,2.2-3.2c0.6-3.8,1.5-7.6,3.5-11c1.5-2.5,3-4.8,4.7-7.2c1.1-1.6,2.9-1.9,4.8-1.8c1.7,0.1,2.7,1,3.2,2.5V15.8z
			 M439.8,29c0.5-0.4,0.8-0.6,1.1-0.8c1.8-2,3.8-4,5.5-6.1c1.8-2.2,3.6-4.6,4.2-7.5c0.2-1.1,0.3-2.3-0.9-2.8
			c-1.1-0.4-1.9,0.6-2.5,1.5c-1.7,2.7-3.4,5.5-5,8.3C441,23.8,440,26.1,439.8,29z M287.4,32.9c-0.5-0.2-0.7-0.3-0.8-0.3
			c-2.4,0.6-4.8,1.2-7.2,1.8c-0.3,0.1-0.5,0.4-0.6,0.7c-0.5,0.8-0.3,1.4,0.7,1.4C282.5,36.5,285,35.1,287.4,32.9z M234.6,35.6
			c0,0.2,0,0.3,0,0.5c1.6,0.1,3.3,0.3,4.9,0.4c0.4,0,0.7-0.5,1.1-0.8c-0.4-0.3-0.7-0.9-1.1-0.9C237.7,34.4,236.1,34.7,234.6,35.6z
			 M418.4,34.1c-1.9,0.6-3.8,1.3-5.8,2C413.8,37.3,416.9,36.2,418.4,34.1z M219.3,31.9c-1.3-0.5-4.2,0.2-5.2,1.3
			C216.1,33.5,217.6,32.8,219.3,31.9z M314.4,31.8c-1.5-0.5-3.9,0.4-5,2C311.2,33.1,312.7,32.5,314.4,31.8z"/>
	</defs>
	<clipPath id="SVGID_2_">
		<use xlink:href="#SVGID_1_"  style="overflow:visible;"/>
	</clipPath>
	<rect x="200.5" y="5" style="clip-path:url(#SVGID_2_);fill:#FFFFFF;" width="257.2" height="40"/>
</g>
<g>
	<defs>
		<path id="SVGID_3_" d="M200.8,2.4c1,0.2,2.1,0.5,3.1,0.7c5.6,1.4,8.4,4.6,8.5,9.8c0.1,4.9-2.9,9-8,10.6c-1.3,0.4-2.7,0.7-4.2,1.1
			c0.2,0.6,0.3,1.2,0.5,1.9c3,8.9,6.1,17.7,9.1,26.6c0.1,0.4,0.4,0.8,0.4,1.3c0,0.5-0.2,1.1-0.5,1.3c-0.4,0.2-1.2,0-1.4-0.3
			c-0.5-0.7-0.9-1.5-1.2-2.4c-3.2-8.8-6.3-17.7-9.4-26.5c-0.1-0.2-0.1-0.5-0.2-0.6c-0.4-0.6-0.9-1.1-1.3-1.6c-0.5,0.4-1,0.7-1.3,1.2
			c-2.6,3.5-4.8,7.3-8.2,10.1c-5.9,4.9-12.8,6.7-20.3,5.2c-5.9-1.2-9.2-7.2-7.2-12.5c1.9-5,8.5-7.4,13-4.7c1.9,1.1,2.5,2.8,2.3,4.9
			c-0.2,2-1.2,3.6-3.1,4.3c-0.8,0.3-2.1,0.1-2.7-0.4c-0.9-0.7-0.5-1.9,0.2-2.8c0.3-0.4,0.9-0.7,1.1-1.1c0.4-0.7,1.1-1.6,0.9-2.2
			c-0.3-0.7-1.2-1.5-1.9-1.8c-1.7-0.5-3.3,0-4.7,1c-4.7,3.1-4.4,9,0.6,11.8c3.6,2.1,7.3,1.7,10.9,0.1c4.9-2.1,8.8-5.5,12.5-9.2
			c1.5-1.5,2.9-3.2,4.4-4.8c0.8-0.9,0.7-1.6,0-2.5c-0.7-0.9-1.4-0.5-2.1-0.1c-3.2,1.9-6.6,3.2-10.3,3.8c-4,0.6-6.6-2-6-5.9
			c0.6-3.8,2.9-6.5,5.6-8.9c4.4-4.1,9.6-6.4,15.5-7.2c0.3,0,0.6-0.2,0.9-0.3H200.8z M207.8,9.8c-1.1,0.9-2.2,1.7-3.2,2.7
			c-1.9,2-3.8,4.2-5.6,6.3c-0.8,1-0.6,2.1,0,3c0.7,1,1.6,0.4,2.4,0.1c3.3-1.3,5.6-3.6,7.2-6.7c2.6-5.1,1.5-8.1-4.1-9.6
			c-9.4-2.5-17.7-0.2-24.6,6.6c-1.8,1.8-3.4,3.7-4.2,6.2c-0.7,2.4,0.4,4,2.8,3.9c1.4,0,2.9-0.3,4.2-0.8c1.9-0.8,3.6-1.9,5.3-2.8
			c1.6-0.9,2.4-2.1,2.5-4c0.1-2.1,1.1-2.8,3.1-2.3c1.3,0.3,1.9-0.2,2.6-1.2C197.1,10,198.1,9,199,8c0.1,0.1,0.2,0.2,0.4,0.3
			c-0.2,0.7-0.3,1.5-0.6,2.2c-0.5,1.1-1.1,2.2-1.8,3.3c-0.8,1.4-0.7,1.9,0.6,3.1c0.5-0.6,1-1.1,1.5-1.7c2-2.3,4.1-4.4,6.7-5.9
			C206.6,8.8,207.2,8.7,207.8,9.8z M194.4,17.9c-0.9,0.8-0.8,1.5,0.1,2.3C195.6,19.3,195.3,18.6,194.4,17.9z"/>
	</defs>
	<clipPath id="SVGID_4_">
		<use xlink:href="#SVGID_3_"  style="overflow:visible;"/>
	</clipPath>
	<rect x="153.4" y="-2.6" style="clip-path:url(#SVGID_4_);fill:#FFFFFF;" width="64" height="63.2"/>
</g>
<g>
	<defs>
		<path id="SVGID_5_" d="M264.2,29.3c-1.2-0.1-1.8-1.1-1.3-1.9c0.4-0.7,1-1.3,1.6-1.8c0.3-0.2,1.3,0.2,1.3,0.4
			c0.1,0.6,0,1.4-0.4,1.9C265.2,28.5,264.5,28.9,264.2,29.3"/>
	</defs>
	<clipPath id="SVGID_6_">
		<use xlink:href="#SVGID_5_"  style="overflow:visible;"/>
	</clipPath>
	<rect x="257.7" y="20.5" style="clip-path:url(#SVGID_6_);fill:#FFFFFF;" width="13.1" height="13.8"/>
</g>
<g>
	<defs>
		<path id="SVGID_7_" d="M397.4,29.2c-0.9,0-1.5-1-1-1.8c0.4-0.7,1-1.4,1.7-1.9c0.6-0.5,1.2-0.1,1.5,0.6
			C399.9,27,398.5,29.2,397.4,29.2"/>
	</defs>
	<clipPath id="SVGID_8_">
		<use xlink:href="#SVGID_7_"  style="overflow:visible;"/>
	</clipPath>
	<rect x="391.2" y="20.3" style="clip-path:url(#SVGID_8_);fill:#FFFFFF;" width="13.4" height="14"/>
</g>
<g>
	<defs>
		<polygon id="SVGID_9_" points="57.4,39.1 61.1,39.1 61.1,9.1 57.4,9.1 57.4,8.2 71.8,8.2 71.8,9.1 68.1,9.1 68.1,22.8 79.9,22.8 
			79.9,9.1 76.2,9.1 76.2,8.2 90.6,8.2 90.6,9.1 86.9,9.1 86.9,39.1 90.6,39.1 90.6,39.9 76.2,39.9 76.2,39.1 79.9,39.1 79.9,23.6 
			68.1,23.6 68.1,39.1 71.8,39.1 71.8,39.9 57.4,39.9 		"/>
	</defs>
	<clipPath id="SVGID_10_">
		<use xlink:href="#SVGID_9_"  style="overflow:visible;"/>
	</clipPath>
	<rect x="52.4" y="3.2" style="clip-path:url(#SVGID_10_);fill:#FFFFFF;" width="43.1" height="41.6"/>
</g>
<g>
	<defs>
		<path id="SVGID_11_" d="M106.3,39.1h2.1c4.6,0,7-2.3,7-7.8c0-4.8-2.3-7.7-6.3-7.7h-2.8V39.1z M106.3,22.8h2.4
			c2.7,0,5.6-1.7,5.6-6.3c0-5.2-1.9-7.4-5.7-7.4h-2.4V22.8z M96.2,39.1h3v-30h-3V8.2h14.4c5,0,10.5,2.2,10.5,7.5
			c0,4.8-4.9,6.8-9.3,7.2V23c6.2,0,11.1,2.9,11.1,8.3c0,4.9-4.4,8.6-12.8,8.6H96.2V39.1z"/>
	</defs>
	<clipPath id="SVGID_12_">
		<use xlink:href="#SVGID_11_"  style="overflow:visible;"/>
	</clipPath>
	<rect x="91.2" y="3.2" style="clip-path:url(#SVGID_12_);fill:#FFFFFF;" width="36.7" height="41.6"/>
</g>
<g>
	<defs>
		<path id="SVGID_13_" d="M141.7,29.1L137.9,18h-0.1l-3.9,11.1H141.7z M126.4,39.1h0.6c1.7-0.1,2.5-1.2,3-2.6l10.2-28.2h0.7
			l11.8,30.8h2.2v0.8h-13.1v-0.8h3.5l-3.2-9.1h-8.6l-2.1,6.2c-0.1,0.4-0.3,0.8-0.3,1.3c0,1.4,1.2,1.6,2.1,1.6h1.2v0.8h-8V39.1z"/>
	</defs>
	<clipPath id="SVGID_14_">
		<use xlink:href="#SVGID_13_"  style="overflow:visible;"/>
	</clipPath>
	<rect x="121.4" y="3.2" style="clip-path:url(#SVGID_14_);fill:#FFFFFF;" width="38.5" height="41.6"/>
</g>
<g>
	<defs>
		<polygon id="SVGID_15_" points="19.7,18.4 19.7,9.4 28.7,9.4 		"/>
	</defs>
	<clipPath id="SVGID_16_">
		<use xlink:href="#SVGID_15_"  style="overflow:visible;"/>
	</clipPath>
	<rect x="14.7" y="4.4" style="clip-path:url(#SVGID_16_);fill:#FFFFFF;" width="19" height="19"/>
</g>
<g>
	<defs>
		<rect id="SVGID_17_" x="9.5" y="9.4" width="9" height="9"/>
	</defs>
	<clipPath id="SVGID_18_">
		<use xlink:href="#SVGID_17_"  style="overflow:visible;"/>
	</clipPath>
	<rect x="4.5" y="4.4" style="clip-path:url(#SVGID_18_);fill:#FFFFFF;" width="19" height="19"/>
</g>
<g>
	<defs>
		<rect id="SVGID_19_" x="29.9" y="9.4" width="9" height="9"/>
	</defs>
	<clipPath id="SVGID_20_">
		<use xlink:href="#SVGID_19_"  style="overflow:visible;"/>
	</clipPath>
	<rect x="24.9" y="4.4" style="clip-path:url(#SVGID_20_);fill:#FFFFFF;" width="19" height="19"/>
</g>
<g>
	<defs>
		<path id="SVGID_21_" d="M24.2,0c-2.5,0-4.5,2-4.5,4.5v3.8h9V4.5C28.7,2,26.7,0,24.2,0"/>
	</defs>
	<clipPath id="SVGID_22_">
		<use xlink:href="#SVGID_21_"  style="overflow:visible;"/>
	</clipPath>
	<rect x="14.7" y="-5" style="clip-path:url(#SVGID_22_);fill:#FFFFFF;" width="19" height="18.2"/>
</g>
<g>
	<defs>
		<rect id="SVGID_23_" x="29.9" y="29.7" width="9" height="9"/>
	</defs>
	<clipPath id="SVGID_24_">
		<use xlink:href="#SVGID_23_"  style="overflow:visible;"/>
	</clipPath>
	<rect x="24.9" y="24.7" style="clip-path:url(#SVGID_24_);fill:#FFFFFF;" width="19" height="19"/>
</g>
<g>
	<defs>
		<polygon id="SVGID_25_" points="28.7,29.7 28.7,38.7 19.7,38.7 		"/>
	</defs>
	<clipPath id="SVGID_26_">
		<use xlink:href="#SVGID_25_"  style="overflow:visible;"/>
	</clipPath>
	<rect x="14.7" y="24.7" style="clip-path:url(#SVGID_26_);fill:#FFFFFF;" width="19" height="19"/>
</g>
<g>
	<defs>
		<rect id="SVGID_27_" x="9.5" y="29.7" width="9" height="9"/>
	</defs>
	<clipPath id="SVGID_28_">
		<use xlink:href="#SVGID_27_"  style="overflow:visible;"/>
	</clipPath>
	<rect x="4.5" y="24.7" style="clip-path:url(#SVGID_28_);fill:#FFFFFF;" width="19" height="19"/>
</g>
<g>
	<defs>
		<path id="SVGID_29_" d="M24.2,48.1c2.5,0,4.5-2,4.5-4.5v-3.8h-9v3.8C19.7,46.1,21.7,48.1,24.2,48.1"/>
	</defs>
	<clipPath id="SVGID_30_">
		<use xlink:href="#SVGID_29_"  style="overflow:visible;"/>
	</clipPath>
	<rect x="14.7" y="34.9" style="clip-path:url(#SVGID_30_);fill:#FFFFFF;" width="19" height="18.2"/>
</g>
<g>
	<defs>
		<polygon id="SVGID_31_" points="29.9,19.6 38.9,19.6 38.9,28.5 		"/>
	</defs>
	<clipPath id="SVGID_32_">
		<use xlink:href="#SVGID_31_"  style="overflow:visible;"/>
	</clipPath>
	<rect x="24.9" y="14.6" style="clip-path:url(#SVGID_32_);fill:#FFFFFF;" width="19" height="19"/>
</g>
<g>
	<defs>
		<path id="SVGID_33_" d="M48.3,24.1c0-2.5-2-4.5-4.5-4.5h-3.8v9h3.8C46.3,28.5,48.3,26.5,48.3,24.1"/>
	</defs>
	<clipPath id="SVGID_34_">
		<use xlink:href="#SVGID_33_"  style="overflow:visible;"/>
	</clipPath>
	<rect x="35.1" y="14.6" style="clip-path:url(#SVGID_34_);fill:#FFFFFF;" width="18.3" height="19"/>
</g>
<g>
	<defs>
		<polygon id="SVGID_35_" points="18.5,28.5 9.5,28.5 9.5,19.6 		"/>
	</defs>
	<clipPath id="SVGID_36_">
		<use xlink:href="#SVGID_35_"  style="overflow:visible;"/>
	</clipPath>
	<rect x="4.5" y="14.6" style="clip-path:url(#SVGID_36_);fill:#FFFFFF;" width="19" height="19"/>
</g>
<g>
	<defs>
		<path id="SVGID_37_" d="M0,24.1c0,2.5,2,4.5,4.5,4.5h3.8v-9H4.5C2,19.6,0,21.6,0,24.1"/>
	</defs>
	<clipPath id="SVGID_38_">
		<use xlink:href="#SVGID_37_"  style="overflow:visible;"/>
	</clipPath>
	<rect x="-5" y="14.6" style="clip-path:url(#SVGID_38_);fill:#FFFFFF;" width="18.3" height="19"/>
</g>
<g>
	<defs>
		<rect id="SVGID_39_" x="19.7" y="19.6" width="9" height="9"/>
	</defs>
	<clipPath id="SVGID_40_">
		<use xlink:href="#SVGID_39_"  style="overflow:visible;"/>
	</clipPath>
	<rect x="14.7" y="14.6" style="clip-path:url(#SVGID_40_);fill:#E6B10E;" width="19" height="19"/>
</g>
</svg>
