<?xml version="1.0" encoding="utf-8"?>
<!-- Generator: Adobe Illustrator 16.0.3, SVG Export Plug-In . SVG Version: 6.00 Build 0)  -->
<!DOCTYPE svg PUBLIC "-//W3C//DTD SVG 1.1//EN" "http://www.w3.org/Graphics/SVG/1.1/DTD/svg11.dtd">
<svg version="1.1" id="Layer_1" xmlns="http://www.w3.org/2000/svg" xmlns:xlink="http://www.w3.org/1999/xlink" x="0px" y="0px"
	 width="612px" height="792px" viewBox="0 0 612 792" enable-background="new 0 0 612 792" xml:space="preserve">
<g>
	<g>
		<defs>
			<path id="SVGID_1_" d="M565.542,396.648h46.198c0-15.832-13.496-27.251-28.809-27.251c-19.466,0-33.222,15.053-33.222,34.519
				s11.16,32.184,31.404,32.184c15.832,0,25.436-8.565,31.146-22.58l-2.076-2.077c-5.71,7.527-12.199,11.939-22.062,11.939
				C573.328,423.382,564.764,410.404,565.542,396.648z M565.802,391.718c0.519-8.565,3.893-18.947,15.832-18.947
				c7.526,0,14.274,6.748,14.274,15.573c0,2.854-0.778,3.374-3.634,3.374H565.802z M544.52,376.405l2.595-4.932h-20.763v-23.878
				l-23.619,25.435v3.375h7.787v46.717c0,7.526,6.748,13.236,16.61,13.236c6.229,0,15.832-4.152,19.466-9.084v-5.19
				c-3.374,2.854-7.268,6.488-11.939,6.488c-7.526,0-8.305-4.931-8.305-8.305v-43.863H544.52z M502.732,424.68l-2.595-1.038
				c-1.038,3.374-4.412,4.931-7.008,4.931c-1.817,0-2.855-0.778-2.855-4.672v-40.488c0-8.824-8.046-14.015-21.282-14.015
				c-21.802,0-37.114,13.496-36.854,21.282c-0.26,4.672,2.076,8.305,7.267,8.305c5.97,0,8.824-2.854,8.824-8.305
				c0-0.778-0.259-1.816-0.259-2.595c-0.26-0.519-0.26-1.038-0.26-1.557c0-8.306,5.45-12.718,12.977-12.718
				c6.749,0,13.756,3.893,13.756,12.199v8.045c-23.878,7.527-40.748,15.833-40.748,28.809c0,9.084,9.604,12.978,17.39,12.978
				c9.084,0,16.352-3.894,23.358-9.862c1.817,7.526,6.748,9.862,14.275,9.862C495.466,436.358,500.916,431.428,502.732,424.68z
				 M474.184,421.824c-3.634,3.114-8.306,6.748-13.237,6.748c-6.748,0-11.938-3.634-11.938-10.641
				c0-7.008,5.19-14.275,25.176-19.726V421.824L474.184,421.824z M392.428,434.282h32.702v-3.374c-7.268,0-8.046-0.778-8.046-5.19
				v-33.481c0-14.794-8.046-22.84-22.84-22.84c-9.084,0-17.648,5.71-24.138,11.679v-11.679c-7.786,2.855-15.572,5.71-23.618,7.527
				v3.374c3.634,0.778,7.786,1.816,7.786,6.229v39.191c0,4.412-0.778,5.19-8.305,5.19v3.374h33.48v-3.374
				c-8.564,0-9.344-0.778-9.344-5.19v-40.749c6.748-5.969,11.68-8.045,17.909-8.045c7.526,0,13.236,5.969,13.236,13.236v35.298
				c0,4.412-0.778,5.19-8.565,5.19v3.634H392.428z M307.816,434.282H340v-3.374c-7.008,0-8.046-0.778-8.046-5.19v-56.321
				c-8.306,2.855-16.351,5.71-24.916,7.267v3.374c7.268,0.519,8.824,2.076,8.824,3.893v41.787c0,4.412-0.778,5.19-8.564,5.19v3.374
				H307.816z M333.771,339.809c0-5.71-4.932-9.862-9.863-9.862c-4.931,0-9.862,4.152-9.862,9.862s4.932,9.863,9.862,9.863
				C328.84,349.672,333.771,345.519,333.771,339.809z M268.626,434.282h33.221v-3.374c-8.305,0-9.084-0.778-9.084-5.19v-38.413
				c0-11.419-11.939-17.908-21.023-17.908c-8.564,0-17.129,5.45-23.099,10.641c-4.931-5.969-11.939-10.641-19.725-10.641
				c-9.863,0-16.092,5.191-22.84,11.42v-11.42c-7.786,2.855-15.572,5.71-23.618,7.527v3.374c3.634,0.778,7.786,1.816,7.786,6.229
				v39.191c0,4.412-0.778,5.19-8.305,5.19v3.374h33.481v-3.374c-8.565,0-9.344-0.778-9.344-5.19v-40.749
				c4.932-4.931,9.344-8.045,14.794-8.045c4.932,0,12.718,3.633,12.718,10.381v38.413c0,4.412-0.779,5.19-8.306,5.19v3.374h33.481
				v-3.374c-8.565,0-9.343-0.778-9.343-5.19v-40.749c4.931-4.931,9.343-8.045,14.794-8.045c4.931,0,12.717,3.633,12.717,10.122
				v38.412c0,4.412-0.778,5.19-8.305,5.19V434.282L268.626,434.282z M151.832,436.358c7.786-2.854,15.573-5.71,23.618-7.526v-3.374
				c-3.633-0.778-7.786-1.816-7.786-6.229v-47.755h-25.175v3.374c8.564,0,9.343,0.779,9.343,5.191v40.488
				c-6.748,5.97-11.679,8.046-17.908,8.046c-7.527,0-13.237-5.969-13.237-13.236v-44.122H96.809v3.374
				c7.267,0,8.046,0.778,8.046,5.191v33.481c0,14.794,8.046,22.84,22.84,22.84c9.084,0,17.648-5.71,24.137-11.68V436.358
				L151.832,436.358z M70.595,434.282h15.832V296.466H70.595V434.282z M35.298,465.688H51.13V334.099H35.298V465.688z M0,434.282
				h15.832v-62.809H0V434.282z"/>
		</defs>
		<use xlink:href="#SVGID_1_"  overflow="visible" fill="#E6B10E"/>
		<clipPath id="SVGID_2_">
			<use xlink:href="#SVGID_1_"  overflow="visible"/>
		</clipPath>
		<rect x="-12.977" y="283.488" clip-path="url(#SVGID_2_)" fill="#E6B10E" width="637.955" height="195.176"/>
	</g>
</g>
<g>
	<g>
		<defs>
			<path id="SVGID_3_" d="M608.106,486.45v-14.794c0-1.298-0.259-2.595-0.519-3.634c-0.26-1.038-0.778-2.076-1.298-2.854
				c-0.519-0.778-1.558-1.298-2.596-1.816c-1.038-0.52-2.336-0.52-3.893-0.52c-1.558,0-3.114,0.52-4.412,1.298
				s-2.336,2.076-2.855,3.374l0,0v-3.894h-2.854v22.84h2.854v-13.496c0-1.038,0.26-2.076,0.52-3.114
				c0.259-1.038,0.778-1.817,1.298-2.596c0.519-0.778,1.297-1.298,2.336-1.557c0.778-0.52,1.816-0.52,3.114-0.52
				c1.038,0,2.076,0.26,2.854,0.52c0.779,0.259,1.298,0.778,1.817,1.557c0.519,0.52,0.778,1.298,1.038,2.076
				c0.26,0.779,0.26,1.817,0.26,2.855v14.274H608.106z M583.71,489.046c0.26-1.298,0.519-2.855,0.519-4.672v-21.022h-2.854v3.893
				l0,0c-0.26-0.519-0.52-1.298-1.038-1.816c-0.52-0.52-1.038-1.038-1.558-1.558c-0.519-0.519-1.298-0.778-2.076-1.038
				s-1.558-0.26-2.336-0.26c-1.557,0-3.114,0.26-4.412,1.038c-1.298,0.52-2.336,1.558-3.114,2.596
				c-0.779,1.038-1.558,2.336-2.076,3.634c-0.52,1.298-0.779,2.854-0.779,4.412s0.26,3.114,0.52,4.672
				c0.26,1.557,1.038,2.596,1.816,3.634c0.779,1.038,1.817,1.816,3.115,2.595c1.297,0.52,2.854,0.779,4.671,0.779
				c1.558,0,3.115-0.52,4.413-1.298c1.297-0.779,2.335-2.076,2.854-3.374l0,0v3.114c0,2.854-0.52,4.932-1.816,6.488
				c-1.038,1.558-3.115,2.336-5.71,2.336c-0.779,0-1.558,0-2.336-0.26c-0.779-0.259-1.298-0.519-2.076-0.778
				c-0.52-0.26-1.039-0.778-1.558-1.298c-0.52-0.519-0.778-1.298-0.778-2.076h-2.855c0,1.298,0.52,2.336,1.038,3.114
				c0.52,0.779,1.298,1.558,2.076,2.077c0.779,0.519,1.817,1.038,2.855,1.297c1.038,0.26,2.336,0.52,3.374,0.52
				c1.816,0,3.374-0.26,4.672-0.778c1.298-0.52,2.336-1.298,3.114-2.077C582.932,491.642,583.45,490.344,583.71,489.046z
				 M581.634,474.771c0,1.039-0.26,2.336-0.52,3.374c-0.259,1.039-0.778,2.077-1.298,2.855c-0.519,0.778-1.297,1.558-2.336,2.076
				c-1.038,0.52-2.076,0.778-3.114,0.778c-1.298,0-2.336-0.259-3.374-0.778c-1.038-0.519-1.816-1.298-2.336-2.076
				c-0.519-0.778-1.038-1.816-1.298-2.855c-0.259-1.038-0.519-2.335-0.519-3.374c0-1.297,0.26-2.335,0.519-3.374
				c0.26-1.038,0.779-2.076,1.298-3.114c0.52-0.778,1.298-1.557,2.336-2.076c1.038-0.519,2.076-0.778,3.374-0.778
				s2.336,0.259,3.374,0.778s1.817,1.298,2.336,2.336c0.52,1.038,1.038,1.816,1.298,3.114
				C581.374,472.436,581.634,473.474,581.634,474.771z M556.978,486.45h2.854v-22.84h-2.854V486.45z M556.978,459.198h2.854v-4.412
				h-2.854V459.198z M551.786,483.336c0.52-0.778,0.778-1.816,0.778-3.114c0-1.038-0.259-1.817-0.519-2.596
				s-0.778-1.298-1.558-1.816c-0.519-0.52-1.298-1.038-2.076-1.298s-1.557-0.52-2.336-0.52l-3.634-1.038
				c-0.519,0-1.038-0.26-1.557-0.519c-0.52-0.26-1.038-0.52-1.558-0.779c-0.519-0.26-0.778-0.778-1.298-1.038
				c-0.26-0.519-0.519-1.038-0.519-1.557c0-0.779,0.26-1.298,0.519-1.817c0.26-0.519,0.779-1.038,1.298-1.298
				c0.52-0.259,1.038-0.519,1.816-0.778c0.52-0.26,1.298-0.26,1.817-0.26c0.778,0,1.558,0,2.336,0.26s1.298,0.52,1.816,1.038
				c0.52,0.52,1.038,1.038,1.298,1.558c0.26,0.519,0.52,1.298,0.52,2.336h2.854c0-1.298-0.26-2.336-0.778-3.115
				c-0.52-1.038-1.038-1.557-1.817-2.336c-0.778-0.519-1.557-1.038-2.595-1.297c-1.038-0.26-2.076-0.52-3.115-0.52
				c-1.038,0-2.076,0-3.114,0.26s-1.816,0.519-2.854,1.038c-0.779,0.519-1.558,1.298-2.076,2.076
				c-0.52,0.778-0.779,1.816-0.779,2.855c0,1.038,0.26,1.816,0.52,2.335c0.26,0.779,0.778,1.298,1.298,1.558
				c0.519,0.52,1.297,0.778,2.076,1.038c0.778,0.26,1.557,0.52,2.595,0.779l3.634,0.778c0.52,0.26,1.298,0.26,1.817,0.519
				c0.519,0.26,1.038,0.52,1.557,0.779c0.52,0.259,0.779,0.778,1.038,1.038c0.26,0.519,0.52,1.038,0.52,1.816
				s-0.26,1.558-0.52,2.076c-0.519,0.52-0.778,1.038-1.557,1.298c-0.52,0.26-1.298,0.52-2.077,0.779
				c-0.778,0.259-1.297,0.259-2.076,0.259c-1.816,0-3.374-0.519-4.672-1.557c-1.297-1.038-1.816-2.336-2.076-4.153h-2.854
				c0.26,2.855,1.298,4.932,2.854,6.229c1.558,1.298,3.894,1.816,6.489,1.816c1.038,0,2.076,0,3.114-0.26
				c1.038-0.259,2.076-0.519,2.854-1.297C550.488,484.894,551.268,484.114,551.786,483.336z M513.114,475.55h17.649
				c0-1.558,0-3.114-0.52-4.672c-0.26-1.558-1.038-2.855-1.816-4.152c-0.779-1.298-1.817-2.077-3.115-2.855
				c-1.297-0.778-2.854-1.038-4.671-1.038c-1.817,0-3.374,0.26-4.672,1.038s-2.336,1.558-3.114,2.855
				c-0.779,1.038-1.558,2.336-1.817,3.893c-0.519,1.558-0.519,2.855-0.519,4.412c0,1.558,0.259,3.114,0.519,4.672
				c0.52,1.558,1.038,2.855,1.817,3.894c0.778,1.038,1.816,2.076,3.114,2.595c1.298,0.52,2.854,1.038,4.672,1.038
				c2.854,0,5.19-0.778,6.748-2.076c1.557-1.298,2.595-3.374,3.374-5.969h-2.855c-0.519,1.816-1.298,3.114-2.336,4.152
				s-2.854,1.558-4.672,1.558c-1.297,0-2.595-0.26-3.374-0.779c-1.038-0.519-1.816-1.298-2.336-2.076
				c-0.519-0.778-1.038-1.816-1.297-2.854C513.114,477.626,513.114,476.588,513.114,475.55z M513.114,473.214
				c0-1.038,0.26-2.076,0.779-3.114c0.259-1.038,0.778-1.817,1.557-2.596c0.52-0.778,1.298-1.298,2.336-1.816
				c0.778-0.52,1.817-0.779,3.114-0.779c1.038,0,2.077,0.26,3.115,0.779c0.778,0.519,1.557,1.038,2.336,1.816
				c0.519,0.778,1.038,1.558,1.557,2.596c0.26,1.038,0.52,2.076,0.52,3.114H513.114z M503.512,482.298
				c2.336-2.596,3.633-6.488,3.633-11.68c0-5.19-1.297-9.084-3.633-11.68c-2.336-2.595-5.97-3.893-10.901-4.152h-10.9v31.664h10.9
				C497.282,486.19,500.916,484.894,503.512,482.298z M504.03,470.618c0,2.336-0.26,4.412-0.778,5.97
				c-0.52,1.557-1.298,3.114-2.336,4.152s-2.336,1.817-4.152,2.336c-1.817,0.52-3.634,0.778-5.97,0.778h-6.488v-26.473h6.488
				c2.336,0,4.152,0.26,5.97,0.778c1.557,0.52,3.114,1.298,4.152,2.336s1.816,2.336,2.336,4.152
				C503.771,466.206,504.03,468.282,504.03,470.618z M461.984,489.046c0.26-1.298,0.52-2.855,0.52-4.672v-21.022h-2.855v3.893l0,0
				c-0.259-0.519-0.519-1.298-1.038-1.816c-0.519-0.52-1.038-1.038-1.557-1.558c-0.52-0.519-1.298-0.778-2.076-1.038
				c-0.779-0.26-1.558-0.26-2.336-0.26c-1.558,0-3.115,0.26-4.413,1.038c-1.297,0.52-2.335,1.558-3.114,2.596
				c-0.778,1.038-1.557,2.336-2.076,3.634c-0.519,1.298-0.778,2.854-0.778,4.412s0.26,3.114,0.519,4.672
				c0.26,1.557,1.038,2.596,1.817,3.634c0.778,1.038,1.816,1.816,3.114,2.595c1.298,0.52,2.854,0.779,4.672,0.779
				c1.816,0,3.114-0.52,4.412-1.298c1.298-0.779,2.336-2.076,2.854-3.374l0,0v3.114c0,2.854-0.519,4.932-1.816,6.488
				c-1.038,1.558-3.114,2.336-5.71,2.336c-0.778,0-1.558,0-2.336-0.26c-0.778-0.259-1.298-0.519-2.076-0.778
				c-0.52-0.26-1.038-0.778-1.558-1.298c-0.519-0.519-0.778-1.298-0.778-2.076h-2.854c0,1.298,0.519,2.336,1.038,3.114
				c0.519,0.779,1.297,1.558,2.076,2.077c0.778,0.519,1.816,1.038,2.854,1.297c1.038,0.26,2.336,0.52,3.374,0.52
				c1.817,0,3.374-0.26,4.672-0.778c1.298-0.52,2.336-1.298,3.114-2.077C460.946,491.642,461.726,490.344,461.984,489.046z
				 M459.648,474.771c0,1.039-0.259,2.336-0.519,3.374c-0.26,1.039-0.778,2.077-1.298,2.855c-0.519,0.778-1.298,1.558-2.336,2.076
				c-1.038,0.52-2.076,0.778-3.114,0.778c-1.298,0-2.336-0.259-3.374-0.778c-1.038-0.519-1.817-1.298-2.336-2.076
				c-0.52-0.778-1.038-1.816-1.298-2.855c-0.26-1.038-0.519-2.335-0.519-3.374c0-1.297,0.259-2.335,0.519-3.374
				c0.26-1.038,0.778-2.076,1.298-3.114c0.519-0.778,1.298-1.557,2.336-2.076c1.038-0.519,2.076-0.778,3.374-0.778
				s2.336,0.259,3.374,0.778s1.816,1.298,2.336,2.336c0.519,1.038,1.038,1.816,1.298,3.114
				C459.648,472.436,459.648,473.474,459.648,474.771z M435.512,486.45h2.854v-14.794c0-1.298-0.26-2.595-0.519-3.634
				c-0.26-1.038-0.779-2.076-1.298-2.854c-0.52-0.778-1.558-1.298-2.596-1.816c-1.038-0.52-2.336-0.52-3.893-0.52
				c-1.558,0-3.115,0.52-4.413,1.298c-1.297,0.778-2.335,2.076-2.854,3.374l0,0v-3.894h-2.855v22.84h2.855v-13.496
				c0-1.038,0.26-2.076,0.519-3.114c0.26-1.038,0.779-1.817,1.298-2.596c0.52-0.778,1.298-1.298,2.336-1.557
				c0.779-0.52,1.817-0.52,3.115-0.52c1.038,0,2.076,0.26,2.854,0.52c0.778,0.259,1.298,0.778,1.816,1.557
				c0.52,0.52,0.779,1.298,1.039,2.076c0.259,0.779,0.259,1.817,0.259,2.855v14.274H435.512z M411.374,486.45h2.855v-22.84h-2.855
				V486.45z M411.374,459.198h2.855v-4.412h-2.855V459.198z M405.924,486.45c0.519,0,0.778,0,1.298,0v-2.336
				c-0.779,0-1.558,0.26-2.336,0.26c-1.038,0-1.558-0.26-1.817-0.778c-0.259-0.52-0.259-1.298-0.259-2.076v-15.313h4.671v-2.336
				h-4.671v-6.748h-3.115v6.748h-3.893v2.336h3.893v15.572c0,2.076,0.26,3.374,1.038,3.894c0.779,0.778,2.077,1.038,3.894,1.038
				C405.146,486.71,405.664,486.45,405.924,486.45z M390.092,486.45h2.854v-14.794c0-1.298-0.259-2.595-0.519-3.634
				c-0.26-1.038-0.779-2.076-1.298-2.854c-0.52-0.778-1.558-1.298-2.596-1.816c-1.038-0.52-2.336-0.52-3.893-0.52
				c-1.558,0-3.115,0.52-4.412,1.298c-1.298,0.778-2.336,2.076-2.855,3.374l0,0v-12.718h-2.854v31.664h2.854v-13.496
				c0-1.038,0.26-2.076,0.52-3.114c0.259-1.038,0.778-1.817,1.297-2.596c0.52-0.778,1.298-1.298,2.336-1.557
				c0.779-0.52,1.817-0.52,3.115-0.52c1.038,0,2.076,0.26,2.854,0.52c0.778,0.259,1.298,0.778,1.816,1.557
				c0.52,0.52,0.779,1.298,1.039,2.076c0.259,0.779,0.259,1.817,0.259,2.855v14.274H390.092z M368.55,489.046
				c0.26-1.298,0.519-2.855,0.519-4.672v-21.022h-2.854v3.893l0,0c-0.26-0.519-0.52-1.298-1.038-1.816
				c-0.52-0.52-1.038-1.038-1.558-1.558c-0.519-0.519-1.298-0.778-2.076-1.038s-1.558-0.26-2.336-0.26
				c-1.558,0-3.114,0.26-4.412,1.038c-1.298,0.52-2.336,1.558-3.114,2.596c-0.779,1.038-1.558,2.336-2.076,3.634
				c-0.52,1.298-0.779,2.854-0.779,4.412s0.26,3.114,0.52,4.672c0.26,1.557,1.038,2.596,1.816,3.634s1.816,1.816,3.114,2.595
				c1.298,0.52,2.855,0.779,4.672,0.779c1.558,0,3.114-0.52,4.412-1.298c1.298-0.779,2.336-2.076,2.855-3.374l0,0v3.114
				c0,2.854-0.52,4.932-1.817,6.488c-1.038,1.558-3.114,2.336-5.709,2.336c-0.779,0-1.558,0-2.336-0.26
				c-0.779-0.259-1.298-0.519-2.077-0.778c-0.519-0.26-1.038-0.778-1.557-1.298c-0.52-0.519-0.779-1.298-0.779-2.076h-2.854
				c0,1.298,0.519,2.336,1.038,3.114c0.52,0.779,1.298,1.558,2.076,2.077c0.778,0.519,1.817,1.038,2.855,1.297
				c1.038,0.26,2.336,0.52,3.374,0.52c1.816,0,3.374-0.26,4.672-0.778c1.297-0.52,2.336-1.298,3.114-2.077
				C367.771,491.642,368.29,490.344,368.55,489.046z M366.474,474.771c0,1.039-0.26,2.336-0.52,3.374
				c-0.26,1.039-0.778,2.077-1.298,2.855c-0.519,0.778-1.298,1.558-2.336,2.076c-1.038,0.52-2.076,0.778-3.114,0.778
				c-1.298,0-2.336-0.259-3.374-0.778c-1.038-0.519-1.816-1.298-2.336-2.076c-0.519-0.778-1.038-1.816-1.298-2.855
				c-0.259-1.038-0.519-2.335-0.519-3.374c0-1.297,0.26-2.335,0.519-3.374c0.26-1.038,0.779-2.076,1.298-3.114
				c0.52-0.778,1.298-1.557,2.336-2.076c1.038-0.519,2.076-0.778,3.374-0.778s2.336,0.259,3.374,0.778s1.816,1.298,2.336,2.336
				s1.038,1.816,1.298,3.114C366.214,472.436,366.474,473.474,366.474,474.771z M341.298,486.45h2.854v-22.84h-2.854V486.45z
				 M341.298,459.198h2.854v-4.412h-2.854V459.198z M317.16,486.45h20.764v-2.596h-17.649v-29.068h-3.114V486.45z M294.58,468.542
				c1.817,0,2.855,0,4.153,0.26v-2.596c-1.038,0.26-2.336,0.26-4.153,0.26h-4.931v-7.008c0-1.558,0-2.854,0.259-3.894h-2.855
				c0.26,1.298,0.26,2.336,0.26,3.894v7.008h-4.931c-1.817,0-2.855,0-4.153-0.26v2.596c1.298-0.26,2.595-0.26,4.153-0.26h4.931
				v13.496c0,2.596,0,3.634-0.26,4.932h2.855c-0.259-1.298-0.259-2.855-0.259-4.932v-13.496H294.58z M275.634,462.313l1.816-1.816
				c-2.076-2.076-3.633-3.634-5.969-5.19l-1.817,1.557C272.26,458.42,273.817,459.978,275.634,462.313z M269.664,466.466
				c-1.298,0-1.817,0-2.855-0.26v2.596c0.779-0.26,1.298-0.26,2.596-0.26h2.855v13.496c-0.26,0.778-0.26,1.038-1.039,1.298
				l1.298,2.596c0.519-0.26,1.298-0.779,1.817-1.038c0.259-0.26,3.374-1.817,3.633-1.817c1.817-1.038,1.817-1.038,2.336-1.298
				l-0.259-2.595c-0.779,0.259-0.779,0.519-1.298,0.778c-1.557,1.038-1.557,1.038-2.076,1.298c-0.779,0.519-1.558,0.778-1.817,1.038
				v-11.939c0-1.816,0-2.595,0.259-3.633c-0.778,0-1.816,0.259-2.595,0.259h-2.855V466.466z M258.763,486.97
				c0.26-1.038,0.519-1.558,1.298-2.336c-4.153-1.038-6.748-2.336-9.084-4.153c2.336-2.076,4.153-4.671,5.45-7.786
				c0.26-0.259,0.26-0.778,0.779-1.298l-1.298-1.557c-0.778,0-1.297,0.26-2.595,0.26h-9.603c-1.298,0-2.336,0-3.115-0.26v2.336
				c0.779,0,1.039,0,2.077-0.26c1.557,4.152,2.855,5.97,5.191,8.306c-2.855,2.076-5.191,3.114-9.084,4.152
				c0.778,1.038,1.038,1.298,1.557,2.336c4.153-1.558,7.008-3.114,9.343-4.932c1.039,1.038,2.855,2.076,4.153,2.855
				C254.87,485.152,254.87,485.152,258.763,486.97z M249.16,478.924c-2.076-2.076-3.114-3.634-4.671-7.008h9.603
				C252.534,475.29,251.496,476.848,249.16,478.924z M259.282,466.726c0-0.52,0-1.298,0.26-2.077c-1.557,0.26-2.595,0.52-3.893,0.52
				c-0.779,0-0.779-0.26-0.779-1.038v-4.672c0-1.558,0-2.336,0.26-3.374c-0.779,0-1.558,0.26-2.855,0.26h-5.97
				c-1.297,0-2.076,0-2.855-0.26c0,0.52,0.26,1.298,0.26,2.076c0,3.114-0.26,4.932-1.038,5.71c-1.038,1.298-2.077,2.076-4.153,2.855
				c1.038,0.778,1.038,0.778,1.557,1.816c2.077-1.298,3.634-2.336,4.672-3.894c0.779-1.297,1.038-2.854,1.298-6.748h7.007v7.268
				c0,1.816,0.519,2.076,3.115,2.076c1.298,0,2.595,0,3.634-0.26v-0.259H259.282z M236.183,461.794l1.817-1.816
				c-1.817-1.817-3.114-3.115-5.191-4.672l-1.817,1.557C233.069,458.42,234.626,459.718,236.183,461.794z M232.55,466.466h-1.817
				c-1.298,0-1.817,0-2.596-0.26v2.336c0.779-0.26,1.298-0.26,2.596-0.26h2.336v12.978c0,1.038-0.26,1.298-1.038,1.557l1.038,2.077
				l2.595-1.558c2.855-1.816,3.374-2.076,4.153-2.596l-0.26-2.336c-1.817,1.298-2.855,1.817-3.893,2.596
				c-0.259,0.26-0.259,0.26-0.519,0.26v-11.68c0-1.816,0-2.596,0.26-3.634C234.366,466.466,233.588,466.466,232.55,466.466z
				 M208.931,483.336V470.1h7.787c1.557,0,2.595,0,3.633,0.259v-2.595c-1.038,0.259-2.076,0.259-3.633,0.259h-10.901v-9.343
				c0-1.298,0-2.336,0.259-3.115h-2.595c0.259,1.039,0.259,1.817,0.259,3.115v9.343h-10.122c-1.557,0-2.595,0-3.633-0.259v2.595
				c1.038-0.259,2.076-0.259,3.633-0.259h6.229c-0.259,4.672-0.778,7.267-2.595,9.603c-1.557,2.336-4.153,3.894-8.305,5.191
				c0.778,0.778,1.038,1.038,1.557,2.076c4.152-1.558,6.488-3.115,8.305-5.71c2.077-2.596,2.855-5.97,3.115-10.901h4.931v13.496
				c0,1.298,0.259,1.817,0.779,2.077c0.778,0.519,1.816,0.519,4.931,0.519c3.893,0,5.191-0.26,5.969-0.778
				c1.298-0.778,1.558-2.076,2.077-6.488c-0.779-0.26-1.298-0.26-2.336-1.039c-0.26,3.115-0.519,4.672-1.038,5.191
				c-0.519,0.519-1.298,0.519-4.413,0.519C209.45,484.114,208.931,484.114,208.931,483.336z M211.527,466.726
				c2.595-2.855,3.633-4.413,5.71-8.565l-2.077-1.038c-1.816,3.894-3.114,5.71-5.71,8.306L211.527,466.726z M197.511,466.466
				l2.077-1.298c-2.077-3.634-2.855-4.672-5.451-7.786l-2.076,1.038C194.656,461.274,195.695,462.832,197.511,466.466z
				 M179.603,459.718c1.298,0,2.595,0,3.893,0.26v-2.596c-1.038,0.26-2.336,0.26-3.633,0.26h-11.939c-1.298,0-2.336,0-3.374-0.26
				v2.596c1.038-0.26,2.076-0.26,3.374-0.26h7.007v23.878c0,0.778-0.259,0.778-1.557,0.778s-2.595,0-4.153-0.26
				c0.26,1.038,0.519,1.558,0.519,2.336c1.298,0,2.336,0,3.634,0c3.634,0,4.153-0.519,4.153-2.854v-24.138h2.076V459.718z
				 M165.847,463.352l-1.816-1.558c-1.039,1.816-2.336,3.634-4.153,5.19c0-1.816,0-2.854,0-4.412c0-5.71,0-5.71,0.259-6.748h-2.595
				c0.26,1.038,0.26,1.817,0.26,5.191c0,8.305-0.26,12.458-1.298,16.091c-1.038,3.374-2.336,5.71-4.932,8.306
				c0.779,0.52,1.039,1.038,1.817,1.816c2.855-3.374,4.413-6.229,5.451-10.641c2.076,1.816,3.893,3.893,5.45,6.488l1.817-1.816
				c-0.26-0.26-0.779-1.038-1.557-1.817c-0.519-0.778-0.519-0.778-2.855-2.854c-1.039-1.038-1.817-1.816-2.336-2.076
				c0.259-1.298,0.259-2.336,0.519-4.412C162.473,467.244,163.771,465.946,165.847,463.352z M153.389,472.436
				c1.039-2.596,1.298-5.191,1.558-9.604l-2.077-0.52c0,4.153-0.259,6.489-1.557,9.344L153.389,472.436z"/>
		</defs>
		<use xlink:href="#SVGID_3_"  overflow="visible" fill="#E6B10E"/>
		<clipPath id="SVGID_4_">
			<use xlink:href="#SVGID_3_"  overflow="visible"/>
		</clipPath>
		<rect x="138.336" y="441.81" clip-path="url(#SVGID_4_)" fill="#E6B10E" width="482.748" height="66.702"/>
	</g>
</g>
</svg>
