<?xml version="1.0" encoding="utf-8"?>
<!-- Generator: Adobe Illustrator 21.1.0, SVG Export Plug-In . SVG Version: 6.00 Build 0)  -->
<svg version="1.1" id="Layer_1" xmlns="http://www.w3.org/2000/svg" xmlns:xlink="http://www.w3.org/1999/xlink" x="0px" y="0px"
	 viewBox="0 0 296.4 92.8" style="enable-background:new 0 0 296.4 92.8;" xml:space="preserve">
<g>
	<defs>
		<polygon id="SVGID_1_" points="109.9,75.3 116.9,75.3 116.9,17.5 109.9,17.5 109.9,15.9 137.4,15.9 137.4,17.5 130.4,17.5 
			130.4,44 152.9,44 152.9,17.5 145.9,17.5 145.9,15.9 173.3,15.9 173.3,17.5 166.3,17.5 166.3,75.3 173.3,75.3 173.3,76.9 
			145.9,76.9 145.9,75.3 152.9,75.3 152.9,45.5 130.4,45.5 130.4,75.3 137.4,75.3 137.4,76.9 109.9,76.9 		"/>
	</defs>
	<clipPath id="SVGID_2_">
		<use xlink:href="#SVGID_1_"  style="overflow:visible;"/>
	</clipPath>
	<rect x="104.9" y="10.9" style="clip-path:url(#SVGID_2_);fill:#FEFEFE;" width="73.4" height="71"/>
</g>
<g>
	<defs>
		<path id="SVGID_3_" d="M203.4,75.3h4c8.7,0,13.4-4.4,13.4-15c0-9.2-4.4-14.8-12.1-14.8h-5.3V75.3z M203.4,44h4.7
			c5.2,0,10.8-3.4,10.8-12.2c0-10.1-3.5-14.3-10.9-14.3h-4.6V44z M184.2,75.3h5.8V17.5h-5.8v-1.6h27.6c9.7,0,20.1,4.3,20.1,14.4
			c0,9.3-9.4,13.2-17.7,13.9v0.2c11.8,0,21.2,5.6,21.2,15.9c0,9.5-8.5,16.6-24.5,16.6h-26.6V75.3z"/>
	</defs>
	<clipPath id="SVGID_4_">
		<use xlink:href="#SVGID_3_"  style="overflow:visible;"/>
	</clipPath>
	<rect x="179.2" y="10.9" style="clip-path:url(#SVGID_4_);fill:#FEFEFE;" width="61.1" height="71"/>
</g>
<g>
	<defs>
		<path id="SVGID_5_" d="M271.2,56.2l-7.4-21.4h-0.2l-7.5,21.4H271.2z M242,75.4h1.1c3.2-0.3,4.7-2.3,5.7-5.1l19.6-54.4h1.3
			l22.6,59.5h4.1v1.5h-25.2v-1.5h6.8l-6.2-17.6h-16.4l-4.1,11.9c-0.2,0.7-0.6,1.6-0.6,2.5c0,2.8,2.4,3.1,4.1,3.1h2.4v1.5H242V75.4z"
			/>
	</defs>
	<clipPath id="SVGID_6_">
		<use xlink:href="#SVGID_5_"  style="overflow:visible;"/>
	</clipPath>
	<rect x="237" y="10.9" style="clip-path:url(#SVGID_6_);fill:#FEFEFE;" width="64.5" height="71"/>
</g>
<g>
	<defs>
		<polygon id="SVGID_7_" points="37.6,35.5 37.6,18.2 54.9,18.2 		"/>
	</defs>
	<clipPath id="SVGID_8_">
		<use xlink:href="#SVGID_7_"  style="overflow:visible;"/>
	</clipPath>
	<rect x="32.6" y="13.2" style="clip-path:url(#SVGID_8_);fill:#FEFEFE;" width="27.2" height="27.3"/>
</g>
<g>
	<defs>
		<rect id="SVGID_9_" x="18.1" y="18.2" width="17.2" height="17.3"/>
	</defs>
	<clipPath id="SVGID_10_">
		<use xlink:href="#SVGID_9_"  style="overflow:visible;"/>
	</clipPath>
	<rect x="13.1" y="13.2" style="clip-path:url(#SVGID_10_);fill:#FEFEFE;" width="27.2" height="27.3"/>
</g>
<g>
	<defs>
		<rect id="SVGID_11_" x="57.2" y="18.2" width="17.2" height="17.3"/>
	</defs>
	<clipPath id="SVGID_12_">
		<use xlink:href="#SVGID_11_"  style="overflow:visible;"/>
	</clipPath>
	<rect x="52.2" y="13.2" style="clip-path:url(#SVGID_12_);fill:#FEFEFE;" width="27.2" height="27.3"/>
</g>
<g>
	<defs>
		<path id="SVGID_13_" d="M46.3,0c-4.8,0-8.6,3.9-8.6,8.6v7.3h17.2V8.6C54.9,3.9,51,0,46.3,0"/>
	</defs>
	<clipPath id="SVGID_14_">
		<use xlink:href="#SVGID_13_"  style="overflow:visible;"/>
	</clipPath>
	<rect x="32.6" y="-5" style="clip-path:url(#SVGID_14_);fill:#FEFEFE;" width="27.2" height="25.9"/>
</g>
<g>
	<defs>
		<rect id="SVGID_15_" x="57.2" y="57.3" width="17.2" height="17.3"/>
	</defs>
	<clipPath id="SVGID_16_">
		<use xlink:href="#SVGID_15_"  style="overflow:visible;"/>
	</clipPath>
	<rect x="52.2" y="52.3" style="clip-path:url(#SVGID_16_);fill:#FEFEFE;" width="27.2" height="27.3"/>
</g>
<g>
	<defs>
		<polygon id="SVGID_17_" points="54.9,57.3 54.9,74.6 37.6,74.6 		"/>
	</defs>
	<clipPath id="SVGID_18_">
		<use xlink:href="#SVGID_17_"  style="overflow:visible;"/>
	</clipPath>
	<rect x="32.6" y="52.3" style="clip-path:url(#SVGID_18_);fill:#FEFEFE;" width="27.2" height="27.3"/>
</g>
<g>
	<defs>
		<rect id="SVGID_19_" x="18.1" y="57.3" width="17.2" height="17.3"/>
	</defs>
	<clipPath id="SVGID_20_">
		<use xlink:href="#SVGID_19_"  style="overflow:visible;"/>
	</clipPath>
	<rect x="13.1" y="52.3" style="clip-path:url(#SVGID_20_);fill:#FEFEFE;" width="27.2" height="27.3"/>
</g>
<g>
	<defs>
		<path id="SVGID_21_" d="M46.3,92.8c4.8,0,8.6-3.9,8.6-8.6v-7.3H37.6v7.3C37.6,88.9,41.5,92.8,46.3,92.8"/>
	</defs>
	<clipPath id="SVGID_22_">
		<use xlink:href="#SVGID_21_"  style="overflow:visible;"/>
	</clipPath>
	<rect x="32.6" y="71.9" style="clip-path:url(#SVGID_22_);fill:#FEFEFE;" width="27.2" height="25.9"/>
</g>
<g>
	<defs>
		<polygon id="SVGID_23_" points="57.2,37.7 74.4,37.7 74.4,55 		"/>
	</defs>
	<clipPath id="SVGID_24_">
		<use xlink:href="#SVGID_23_"  style="overflow:visible;"/>
	</clipPath>
	<rect x="52.2" y="32.7" style="clip-path:url(#SVGID_24_);fill:#FEFEFE;" width="27.2" height="27.3"/>
</g>
<g>
	<defs>
		<path id="SVGID_25_" d="M92.5,46.4c0-4.8-3.9-8.6-8.6-8.6h-7.2V55h7.2C88.7,55,92.5,51.2,92.5,46.4"/>
	</defs>
	<clipPath id="SVGID_26_">
		<use xlink:href="#SVGID_25_"  style="overflow:visible;"/>
	</clipPath>
	<rect x="71.7" y="32.8" style="clip-path:url(#SVGID_26_);fill:#FEFEFE;" width="25.9" height="27.3"/>
</g>
<g>
	<defs>
		<polygon id="SVGID_27_" points="35.4,55 18.1,55 18.1,37.8 		"/>
	</defs>
	<clipPath id="SVGID_28_">
		<use xlink:href="#SVGID_27_"  style="overflow:visible;"/>
	</clipPath>
	<rect x="13.1" y="32.8" style="clip-path:url(#SVGID_28_);fill:#FEFEFE;" width="27.2" height="27.3"/>
</g>
<g>
	<defs>
		<path id="SVGID_29_" d="M0,46.4C0,51.2,3.9,55,8.6,55h7.2V37.8H8.6C3.9,37.8,0,41.6,0,46.4"/>
	</defs>
	<clipPath id="SVGID_30_">
		<use xlink:href="#SVGID_29_"  style="overflow:visible;"/>
	</clipPath>
	<rect x="-5" y="32.8" style="clip-path:url(#SVGID_30_);fill:#FEFEFE;" width="25.9" height="27.3"/>
</g>
<g>
	<defs>
		<rect id="SVGID_31_" x="37.6" y="37.7" width="17.2" height="17.3"/>
	</defs>
	<clipPath id="SVGID_32_">
		<use xlink:href="#SVGID_31_"  style="overflow:visible;"/>
	</clipPath>
	<rect x="32.6" y="32.7" style="clip-path:url(#SVGID_32_);fill:#E4AE24;" width="27.2" height="27.3"/>
</g>
</svg>
