<?xml version="1.0" encoding="utf-8"?>
<!-- Generator: Adobe Illustrator 21.1.0, SVG Export Plug-In . SVG Version: 6.00 Build 0)  -->
<svg version="1.1" id="Layer_1" xmlns="http://www.w3.org/2000/svg" xmlns:xlink="http://www.w3.org/1999/xlink" x="0px" y="0px"
	 viewBox="0 0 178.1 53.9" style="enable-background:new 0 0 178.1 53.9;" xml:space="preserve">
<g>
	<defs>
		<path id="SVGID_1_" d="M24.2,6.6c0.4,1.3,2.9,3.2,5.2,1.2c3.1-2.7-1.3-7.3-6.7-7.6C17.3,0,13,0.3,7.9,3.8C2.8,7.3-0.4,12.7,0,22.5
			c0.4,9.8,13.8,17.4,23.9,13c10.1-4.4,7.2-5.7,7-6.1c-0.3-0.3-1.2-0.7-1.6-0.2c-0.5,0.5-2.8,4.2-8.9,4.3s-10.9-3-11.7-10.1
			c-0.8-7.1,0.3-15,3.5-18c3.2-3,8.8-3.5,10.3-2C24,5,23.9,5.7,24.2,6.6"/>
	</defs>
	<clipPath id="SVGID_2_">
		<use xlink:href="#SVGID_1_"  style="overflow:visible;"/>
	</clipPath>
	<rect x="-5" y="-4.8" style="clip-path:url(#SVGID_2_);fill:#FFFFFF;" width="41.5" height="46.6"/>
</g>
<g>
	<defs>
		<path id="SVGID_3_" d="M90.8,34.1c-0.1-1.3-4.2-0.2-5.1-2c-1-1.9-0.1-15-0.5-21.2c-0.4-6.1-3.1-9.8-9-10.6
			c-5.9-0.8-8.9-0.2-15.8,5.1c-4.2-5.7-8.9-5.4-13.8-5.3c-4.9,0.1-8.8,1.2-11.2,3.5c-2.4,2.3-2.6,6.4,0.7,6.7
			c3.2,0.2,3.9-1.7,4.1-4.7c0.2-3,3.5-3.4,7.3-3.3c3.9,0.1,4.7,1.2,6,2.8c1.3,1.7,0.7,5.3,0.7,5.3s-4.7,3.5-12.6,8.5
			c-7.9,5-8.5,7.9-8.4,9.8c0.1,1.9,0.9,7.6,7.6,7.9c6.8,0.3,13.5-5.2,13.5-5.2v4.3h11v-2c-1.5,0-4-0.4-4-2.2
			c0-1.9,0.2-23.5,0.2-23.5s5.1-5,9.6-5S78,6.6,78,9.6c0,3,0,26.1,0,26.1h12.9C90.8,35.7,91,35.4,90.8,34.1 M50.6,31.4
			c-3,2.2-8.3,2.9-9.3-1.9c-1-4.8,0.7-6.5,3.9-9.2c3.2-2.7,9-6.7,9-6.7l0.2,14.9C54.4,28.5,53.7,29.2,50.6,31.4"/>
	</defs>
	<clipPath id="SVGID_4_">
		<use xlink:href="#SVGID_3_"  style="overflow:visible;"/>
	</clipPath>
	<rect x="28.2" y="-5" style="clip-path:url(#SVGID_4_);fill:#FFFFFF;" width="67.7" height="46.5"/>
</g>
<g>
	<defs>
		<path id="SVGID_5_" d="M84.3,0.8v2c0,0,3.2-0.9,5,3.9c1.9,4.8,12.5,30.2,12.5,30.2h2.3c0,0,11.7-29.2,12.5-31.2
			c0.9-2.1,2.3-2.9,3.8-2.9V1.1h-11.8v1.7c0,0,4.6-0.2,4.6,3c0,3.2-8,22-8,22l-10.7-27H84.3z"/>
	</defs>
	<clipPath id="SVGID_6_">
		<use xlink:href="#SVGID_5_"  style="overflow:visible;"/>
	</clipPath>
	<rect x="79.3" y="-4.2" style="clip-path:url(#SVGID_6_);fill:#FFFFFF;" width="46.1" height="46.1"/>
</g>
<g>
	<defs>
		<path id="SVGID_7_" d="M147.8,30.6V9.2c0-3.9-1.8-8.9-9.7-9.2c-7.9-0.3-14.1,1.4-16.5,3.8c-1.5,1.4-2.7,6.4,1.7,6.4
			c4.3,0,0.9-7.9,9.1-7.9s8,2.6,8,8.2c-10.6,7.3-20.9,12.2-20.9,18.9c0,6.7,8.2,8.3,12.6,6.7c4.4-1.7,8.6-4.6,8.6-4.6v4.4H152v-2.2
			C152,33.6,147.8,34.4,147.8,30.6z M140.8,28.6c0,0-3.6,4.4-8.6,4.4c-5,0-5.5-6.5-3.9-9.1c1.5-2.7,12.5-10.4,12.5-10.4V28.6z"/>
	</defs>
	<clipPath id="SVGID_8_">
		<use xlink:href="#SVGID_7_"  style="overflow:visible;"/>
	</clipPath>
	<rect x="114.5" y="-5" style="clip-path:url(#SVGID_8_);fill:#FFFFFF;" width="42.5" height="46.6"/>
</g>
<g>
	<defs>
		<path id="SVGID_9_" d="M175.3,0v10.6h-2.2c0,0-1.4-7.5-6.3-8.3c-4.9-0.8-6.7,2-6.6,4c0.2,2,0.1,4.6,10.4,8.7
			c10.3,4.1,7.9,14.7,4.6,18c-3.3,3.3-10.3,5.4-17.6,0.8c-1.8,1.9-2,2.2-2,2.2l-1.4,0.1V24.2h1.8c0,0,1.6,10.1,9.2,10.1
			c7.6,0,8.4-6,5.5-9.1c-2.9-3.1-16.2-7-16.2-15.6s10.8-12.3,17.9-7.2c0.8-1.6,1.3-2.5,1.3-2.5H175.3z"/>
	</defs>
	<clipPath id="SVGID_10_">
		<use xlink:href="#SVGID_9_"  style="overflow:visible;"/>
	</clipPath>
	<rect x="149.3" y="-5" style="clip-path:url(#SVGID_10_);fill:#FFFFFF;" width="33.8" height="46.5"/>
</g>
<g>
	<defs>
		<path id="SVGID_11_" d="M77.6,51.5l-0.7,2.3h-1l2.4-7.2h1.1l2.5,7.2h-1l-0.8-2.3H77.6z M80,50.8l-0.7-2.1
			c-0.2-0.5-0.3-0.9-0.4-1.3h0c-0.1,0.4-0.2,0.9-0.4,1.3l-0.7,2.1H80z"/>
	</defs>
	<clipPath id="SVGID_12_">
		<use xlink:href="#SVGID_11_"  style="overflow:visible;"/>
	</clipPath>
	<rect x="70.9" y="41.6" style="clip-path:url(#SVGID_12_);fill:#FFFFFF;" width="16" height="17.2"/>
</g>
<g>
	<defs>
		<path id="SVGID_13_" d="M84.3,46.7c0.5-0.1,1.1-0.1,1.8-0.1c1,0,1.6,0.2,2.1,0.6c0.4,0.3,0.6,0.8,0.6,1.4c0,0.9-0.6,1.6-1.4,1.8v0
			c0.6,0.2,0.9,0.7,1.1,1.4c0.2,1,0.4,1.7,0.6,2h-1c-0.1-0.2-0.3-0.8-0.5-1.7c-0.2-1-0.6-1.4-1.4-1.4h-0.9v3.1h-0.9V46.7z M85.2,50
			h0.9c1,0,1.6-0.5,1.6-1.4c0-0.9-0.7-1.3-1.7-1.3c-0.4,0-0.8,0-0.9,0.1V50z"/>
	</defs>
	<clipPath id="SVGID_14_">
		<use xlink:href="#SVGID_13_"  style="overflow:visible;"/>
	</clipPath>
	<rect x="79.3" y="41.5" style="clip-path:url(#SVGID_14_);fill:#FFFFFF;" width="14.7" height="17.2"/>
</g>
<g>
	<defs>
		<polygon id="SVGID_15_" points="92.8,47.4 90.6,47.4 90.6,46.6 95.9,46.6 95.9,47.4 93.7,47.4 93.7,53.8 92.8,53.8 		"/>
	</defs>
	<clipPath id="SVGID_16_">
		<use xlink:href="#SVGID_15_"  style="overflow:visible;"/>
	</clipPath>
	<rect x="85.6" y="41.6" style="clip-path:url(#SVGID_16_);fill:#FFFFFF;" width="15.3" height="17.2"/>
</g>
<g>
	<defs>
		<path id="SVGID_17_" d="M106.5,53.5c-0.3,0.2-1,0.3-1.9,0.3c-2,0-3.5-1.3-3.5-3.6c0-2.2,1.5-3.8,3.8-3.8c0.9,0,1.5,0.2,1.7,0.3
			l-0.2,0.8c-0.4-0.2-0.9-0.3-1.4-0.3c-1.7,0-2.8,1.1-2.8,3c0,1.8,1,2.9,2.8,2.9c0.6,0,1.1-0.1,1.5-0.3L106.5,53.5z"/>
	</defs>
	<clipPath id="SVGID_18_">
		<use xlink:href="#SVGID_17_"  style="overflow:visible;"/>
	</clipPath>
	<rect x="96.1" y="41.5" style="clip-path:url(#SVGID_18_);fill:#FFFFFF;" width="15.5" height="17.4"/>
</g>
<g>
	<defs>
		<path id="SVGID_19_" d="M114.9,50.1c0,2.5-1.5,3.8-3.3,3.8c-1.9,0-3.2-1.5-3.2-3.6c0-2.3,1.4-3.8,3.3-3.8
			C113.6,46.5,114.9,48,114.9,50.1 M109.3,50.2c0,1.5,0.8,2.9,2.3,2.9c1.5,0,2.3-1.4,2.3-3c0-1.4-0.7-2.9-2.3-2.9
			C110.1,47.2,109.3,48.7,109.3,50.2"/>
	</defs>
	<clipPath id="SVGID_20_">
		<use xlink:href="#SVGID_19_"  style="overflow:visible;"/>
	</clipPath>
	<rect x="103.3" y="41.5" style="clip-path:url(#SVGID_20_);fill:#FFFFFF;" width="16.6" height="17.4"/>
</g>
<g>
	<defs>
		<path id="SVGID_21_" d="M117.4,53.8v-7.2h1l2.3,3.6c0.5,0.8,0.9,1.6,1.3,2.3l0,0c-0.1-1-0.1-1.8-0.1-2.9v-3h0.9v7.2h-0.9l-2.3-3.6
			c-0.5-0.8-1-1.6-1.3-2.4l0,0c0.1,0.9,0.1,1.8,0.1,3v3.1H117.4z"/>
	</defs>
	<clipPath id="SVGID_22_">
		<use xlink:href="#SVGID_21_"  style="overflow:visible;"/>
	</clipPath>
	<rect x="112.4" y="41.6" style="clip-path:url(#SVGID_22_);fill:#FFFFFF;" width="15.4" height="17.2"/>
</g>
<g>
	<defs>
		<path id="SVGID_23_" d="M125.6,52.6c0.4,0.3,1,0.5,1.7,0.5c0.9,0,1.5-0.5,1.5-1.2c0-0.7-0.4-1.1-1.4-1.4c-1.2-0.4-1.9-1-1.9-2
			c0-1.1,0.9-1.9,2.3-1.9c0.7,0,1.3,0.2,1.6,0.4l-0.3,0.8c-0.2-0.1-0.7-0.3-1.4-0.3c-1,0-1.4,0.6-1.4,1.1c0,0.7,0.4,1,1.4,1.4
			c1.2,0.5,1.8,1.1,1.8,2.1c0,1.1-0.8,2.1-2.5,2.1c-0.7,0-1.5-0.2-1.8-0.5L125.6,52.6z"/>
	</defs>
	<clipPath id="SVGID_24_">
		<use xlink:href="#SVGID_23_"  style="overflow:visible;"/>
	</clipPath>
	<rect x="120.3" y="41.5" style="clip-path:url(#SVGID_24_);fill:#FFFFFF;" width="14.3" height="17.4"/>
</g>
<g>
	<defs>
		<path id="SVGID_25_" d="M133.1,46.6v4.2c0,1.6,0.7,2.3,1.7,2.3c1.1,0,1.7-0.7,1.7-2.3v-4.2h0.9v4.2c0,2.2-1.2,3.1-2.7,3.1
			c-1.5,0-2.6-0.8-2.6-3.1v-4.2H133.1z"/>
	</defs>
	<clipPath id="SVGID_26_">
		<use xlink:href="#SVGID_25_"  style="overflow:visible;"/>
	</clipPath>
	<rect x="127.2" y="41.6" style="clip-path:url(#SVGID_26_);fill:#FFFFFF;" width="15.3" height="17.3"/>
</g>
<g>
	<defs>
		<polygon id="SVGID_27_" points="140.4,46.6 141.3,46.6 141.3,53 144.4,53 144.4,53.8 140.4,53.8 		"/>
	</defs>
	<clipPath id="SVGID_28_">
		<use xlink:href="#SVGID_27_"  style="overflow:visible;"/>
	</clipPath>
	<rect x="135.4" y="41.6" style="clip-path:url(#SVGID_28_);fill:#FFFFFF;" width="14" height="17.2"/>
</g>
<g>
	<defs>
		<polygon id="SVGID_29_" points="147.1,47.4 144.9,47.4 144.9,46.6 150.3,46.6 150.3,47.4 148.1,47.4 148.1,53.8 147.1,53.8 		"/>
	</defs>
	<clipPath id="SVGID_30_">
		<use xlink:href="#SVGID_29_"  style="overflow:visible;"/>
	</clipPath>
	<rect x="139.9" y="41.6" style="clip-path:url(#SVGID_30_);fill:#FFFFFF;" width="15.3" height="17.2"/>
</g>
<g>
	<defs>
		<path id="SVGID_31_" d="M152.7,51.5l-0.7,2.3h-1l2.4-7.2h1.1l2.5,7.2h-1l-0.8-2.3H152.7z M155.1,50.8l-0.7-2.1
			c-0.2-0.5-0.3-0.9-0.4-1.3h0c-0.1,0.4-0.2,0.9-0.4,1.3l-0.7,2.1H155.1z"/>
	</defs>
	<clipPath id="SVGID_32_">
		<use xlink:href="#SVGID_31_"  style="overflow:visible;"/>
	</clipPath>
	<rect x="146" y="41.6" style="clip-path:url(#SVGID_32_);fill:#FFFFFF;" width="16" height="17.2"/>
</g>
<g>
	<defs>
		<path id="SVGID_33_" d="M159.4,53.8v-7.2h1l2.3,3.6c0.5,0.8,0.9,1.6,1.3,2.3l0,0c-0.1-1-0.1-1.8-0.1-2.9v-3h0.9v7.2h-0.9l-2.3-3.6
			c-0.5-0.8-1-1.6-1.3-2.4l0,0c0.1,0.9,0.1,1.8,0.1,3v3.1H159.4z"/>
	</defs>
	<clipPath id="SVGID_34_">
		<use xlink:href="#SVGID_33_"  style="overflow:visible;"/>
	</clipPath>
	<rect x="154.4" y="41.6" style="clip-path:url(#SVGID_34_);fill:#FFFFFF;" width="15.4" height="17.2"/>
</g>
<g>
	<defs>
		<polygon id="SVGID_35_" points="169,47.4 166.8,47.4 166.8,46.6 172.1,46.6 172.1,47.4 170,47.4 170,53.8 169,53.8 		"/>
	</defs>
	<clipPath id="SVGID_36_">
		<use xlink:href="#SVGID_35_"  style="overflow:visible;"/>
	</clipPath>
	<rect x="161.8" y="41.6" style="clip-path:url(#SVGID_36_);fill:#FFFFFF;" width="15.3" height="17.2"/>
</g>
<g>
	<defs>
		<path id="SVGID_37_" d="M174,52.6c0.4,0.3,1,0.5,1.7,0.5c0.9,0,1.5-0.5,1.5-1.2c0-0.7-0.4-1.1-1.4-1.4c-1.2-0.4-1.9-1-1.9-2
			c0-1.1,0.9-1.9,2.3-1.9c0.7,0,1.3,0.2,1.6,0.4l-0.3,0.8c-0.2-0.1-0.7-0.3-1.4-0.3c-1,0-1.4,0.6-1.4,1.1c0,0.7,0.4,1,1.4,1.4
			c1.2,0.5,1.8,1.1,1.8,2.1c0,1.1-0.8,2.1-2.5,2.1c-0.7,0-1.5-0.2-1.8-0.5L174,52.6z"/>
	</defs>
	<clipPath id="SVGID_38_">
		<use xlink:href="#SVGID_37_"  style="overflow:visible;"/>
	</clipPath>
	<rect x="168.8" y="41.5" style="clip-path:url(#SVGID_38_);fill:#FFFFFF;" width="14.3" height="17.4"/>
</g>
</svg>
