<?xml version="1.0" encoding="utf-8"?>
<!-- Generator: Adobe Illustrator 21.1.0, SVG Export Plug-In . SVG Version: 6.00 Build 0)  -->
<svg version="1.1" id="Layer_1" xmlns="http://www.w3.org/2000/svg" xmlns:xlink="http://www.w3.org/1999/xlink" x="0px" y="0px"
	 viewBox="0 0 384.7 46.8" style="enable-background:new 0 0 384.7 46.8;" xml:space="preserve">
<g>
	<defs>
		<polygon id="SVGID_1_" points="55.4,37.9 58.9,37.9 58.9,8.8 55.4,8.8 55.4,8 69.2,8 69.2,8.8 65.7,8.8 65.7,22.2 77,22.2 77,8.8 
			73.5,8.8 73.5,8 87.4,8 87.4,8.8 83.8,8.8 83.8,37.9 87.4,37.9 87.4,38.7 73.5,38.7 73.5,37.9 77,37.9 77,22.9 65.7,22.9 
			65.7,37.9 69.2,37.9 69.2,38.7 55.4,38.7 		"/>
	</defs>
	<clipPath id="SVGID_2_">
		<use xlink:href="#SVGID_1_"  style="overflow:visible;"/>
	</clipPath>
	<rect x="50.4" y="3" style="clip-path:url(#SVGID_2_);fill:#FFFFFF;" width="41.9" height="40.7"/>
</g>
<g>
	<defs>
		<path id="SVGID_3_" d="M92.8,37.9h2.9V8.8h-2.9V8h13.9c4.9,0,10.1,2.2,10.1,7.2c0,4.7-4.7,6.6-8.9,7v0.1c6,0,10.7,2.8,10.7,8
			c0,4.8-4.3,8.4-12.4,8.4H92.8V37.9z M102.5,22.2h2.4c2.6,0,5.4-1.7,5.4-6.2c0-5.1-1.8-7.2-5.5-7.2h-2.3V22.2z M102.5,37.9h2
			c4.4,0,6.7-2.2,6.7-7.5c0-4.6-2.2-7.5-6.1-7.5h-2.7V37.9z"/>
	</defs>
	<clipPath id="SVGID_4_">
		<use xlink:href="#SVGID_3_"  style="overflow:visible;"/>
	</clipPath>
	<rect x="87.8" y="3" style="clip-path:url(#SVGID_4_);fill:#FFFFFF;" width="35.8" height="40.7"/>
</g>
<g>
	<defs>
		<path id="SVGID_5_" d="M122,38h0.5c1.6-0.1,2.4-1.2,2.9-2.6L135.3,8h0.6l11.4,30h2.1v0.8h-12.7V38h3.4l-3.1-8.9h-8.3l-2,6
			c-0.1,0.3-0.3,0.8-0.3,1.3c0,1.4,1.2,1.6,2,1.6h1.2v0.8H122V38z M136.7,28.3L133,17.5h-0.1l-3.8,10.8H136.7z"/>
	</defs>
	<clipPath id="SVGID_6_">
		<use xlink:href="#SVGID_5_"  style="overflow:visible;"/>
	</clipPath>
	<rect x="117" y="3" style="clip-path:url(#SVGID_6_);fill:#FFFFFF;" width="37.4" height="40.7"/>
</g>
<g>
	<defs>
		<polygon id="SVGID_7_" points="19,17.9 19,9.2 27.7,9.2 		"/>
	</defs>
	<clipPath id="SVGID_8_">
		<use xlink:href="#SVGID_7_"  style="overflow:visible;"/>
	</clipPath>
	<rect x="14" y="4.2" style="clip-path:url(#SVGID_8_);fill:#FFFFFF;" width="18.7" height="18.7"/>
</g>
<g>
	<defs>
		<rect id="SVGID_9_" x="9.1" y="9.2" width="8.7" height="8.7"/>
	</defs>
	<clipPath id="SVGID_10_">
		<use xlink:href="#SVGID_9_"  style="overflow:visible;"/>
	</clipPath>
	<rect x="4.1" y="4.2" style="clip-path:url(#SVGID_10_);fill:#FFFFFF;" width="18.7" height="18.7"/>
</g>
<g>
	<defs>
		<rect id="SVGID_11_" x="28.8" y="9.2" width="8.7" height="8.7"/>
	</defs>
	<clipPath id="SVGID_12_">
		<use xlink:href="#SVGID_11_"  style="overflow:visible;"/>
	</clipPath>
	<rect x="23.8" y="4.2" style="clip-path:url(#SVGID_12_);fill:#FFFFFF;" width="18.7" height="18.7"/>
</g>
<g>
	<defs>
		<path id="SVGID_13_" d="M23.3,0C20.9,0,19,2,19,4.4V8h8.7V4.4C27.7,2,25.7,0,23.3,0"/>
	</defs>
	<clipPath id="SVGID_14_">
		<use xlink:href="#SVGID_13_"  style="overflow:visible;"/>
	</clipPath>
	<rect x="14" y="-5" style="clip-path:url(#SVGID_14_);fill:#FFFFFF;" width="18.7" height="18"/>
</g>
<g>
	<defs>
		<rect id="SVGID_15_" x="28.8" y="28.9" width="8.7" height="8.7"/>
	</defs>
	<clipPath id="SVGID_16_">
		<use xlink:href="#SVGID_15_"  style="overflow:visible;"/>
	</clipPath>
	<rect x="23.8" y="23.9" style="clip-path:url(#SVGID_16_);fill:#FFFFFF;" width="18.7" height="18.7"/>
</g>
<g>
	<defs>
		<polygon id="SVGID_17_" points="27.7,28.9 27.7,37.6 19,37.6 		"/>
	</defs>
	<clipPath id="SVGID_18_">
		<use xlink:href="#SVGID_17_"  style="overflow:visible;"/>
	</clipPath>
	<rect x="14" y="23.9" style="clip-path:url(#SVGID_18_);fill:#FFFFFF;" width="18.7" height="18.7"/>
</g>
<g>
	<defs>
		<rect id="SVGID_19_" x="9.1" y="28.9" width="8.7" height="8.7"/>
	</defs>
	<clipPath id="SVGID_20_">
		<use xlink:href="#SVGID_19_"  style="overflow:visible;"/>
	</clipPath>
	<rect x="4.1" y="23.9" style="clip-path:url(#SVGID_20_);fill:#FFFFFF;" width="18.7" height="18.7"/>
</g>
<g>
	<defs>
		<path id="SVGID_21_" d="M23.3,46.8c2.4,0,4.3-2,4.3-4.4v-3.7H19v3.7C19,44.8,20.9,46.8,23.3,46.8"/>
	</defs>
	<clipPath id="SVGID_22_">
		<use xlink:href="#SVGID_21_"  style="overflow:visible;"/>
	</clipPath>
	<rect x="14" y="33.7" style="clip-path:url(#SVGID_22_);fill:#FFFFFF;" width="18.7" height="18"/>
</g>
<g>
	<defs>
		<polygon id="SVGID_23_" points="28.8,19 37.5,19 37.5,27.7 		"/>
	</defs>
	<clipPath id="SVGID_24_">
		<use xlink:href="#SVGID_23_"  style="overflow:visible;"/>
	</clipPath>
	<rect x="23.8" y="14" style="clip-path:url(#SVGID_24_);fill:#FFFFFF;" width="18.7" height="18.7"/>
</g>
<g>
	<defs>
		<path id="SVGID_25_" d="M46.6,23.4c0-2.4-1.9-4.4-4.3-4.4h-3.6v8.7h3.6C44.7,27.7,46.6,25.8,46.6,23.4"/>
	</defs>
	<clipPath id="SVGID_26_">
		<use xlink:href="#SVGID_25_"  style="overflow:visible;"/>
	</clipPath>
	<rect x="33.6" y="14" style="clip-path:url(#SVGID_26_);fill:#FFFFFF;" width="18" height="18.7"/>
</g>
<g>
	<defs>
		<polygon id="SVGID_27_" points="17.8,27.7 9.1,27.7 9.1,19 		"/>
	</defs>
	<clipPath id="SVGID_28_">
		<use xlink:href="#SVGID_27_"  style="overflow:visible;"/>
	</clipPath>
	<rect x="4.1" y="14" style="clip-path:url(#SVGID_28_);fill:#FFFFFF;" width="18.7" height="18.7"/>
</g>
<g>
	<defs>
		<path id="SVGID_29_" d="M0,23.4c0,2.4,1.9,4.4,4.3,4.4H8V19H4.3C1.9,19,0,21,0,23.4"/>
	</defs>
	<clipPath id="SVGID_30_">
		<use xlink:href="#SVGID_29_"  style="overflow:visible;"/>
	</clipPath>
	<rect x="-5" y="14" style="clip-path:url(#SVGID_30_);fill:#FFFFFF;" width="18" height="18.7"/>
</g>
<g>
	<defs>
		<rect id="SVGID_31_" x="19" y="19" width="8.7" height="8.7"/>
	</defs>
	<clipPath id="SVGID_32_">
		<use xlink:href="#SVGID_31_"  style="overflow:visible;"/>
	</clipPath>
	<rect x="14" y="14" style="clip-path:url(#SVGID_32_);fill:#E6B10E;" width="18.7" height="18.7"/>
</g>
<g>
	<defs>
		<path id="SVGID_33_" d="M165.4,23.4c0.7,0.4,1.9,0.9,3.4,0.9c2.9,0,7.1-1.5,7.1-7.5c0-5.7-2.6-8.2-7.8-8.2h-2.7V23.4z M160.9,8.7
			h-4.3V8h12.5c6.5,0,11.6,2.2,11.6,8.5c0,6.2-5.8,8.5-11.1,8.5c-1.5,0-3.2-0.3-4.1-0.7v13.8h4.5v0.7h-13.3v-0.7h4.3V8.7z"/>
	</defs>
	<clipPath id="SVGID_34_">
		<use xlink:href="#SVGID_33_"  style="overflow:visible;"/>
	</clipPath>
	<rect x="151.6" y="3" style="clip-path:url(#SVGID_34_);fill:#FFFFFF;" width="34.1" height="40.9"/>
</g>
<g>
	<defs>
		<path id="SVGID_35_" d="M185.8,21.5h-3.7v-0.7h3.7c1.4,0,2.8-0.1,3.7-1V25h0.1c0.5-2,2.1-5.2,5.7-5.2c1.6,0,2.9,1.1,2.9,2.6
			c0,1.1-0.7,2.1-2,2.1c-1.4,0-1.9-0.7-1.9-1.9c0-1,0.5-1.6,1-1.9c-0.2-0.1-0.4-0.1-0.6-0.1c-1.8,0-5,2.8-5,8.5v9h4v0.7h-11.4v-0.7
			h3.7V21.5z"/>
	</defs>
	<clipPath id="SVGID_36_">
		<use xlink:href="#SVGID_35_"  style="overflow:visible;"/>
	</clipPath>
	<rect x="177.1" y="14.9" style="clip-path:url(#SVGID_36_);fill:#FFFFFF;" width="26" height="28.9"/>
</g>
<g>
	<defs>
		<path id="SVGID_37_" d="M213.1,27.9c0-3.8-0.2-7.3-5.1-7.3c-4.9,0-5.1,3.5-5.1,7.3v3.4c0,3.8,0.2,7.3,5.1,7.3
			c4.9,0,5.1-3.5,5.1-7.3V27.9z M208,19.9c5.7,0,9.3,4.7,9.3,9.7c0,5-3.6,9.7-9.3,9.7c-5.7,0-9.3-4.7-9.3-9.7
			C198.7,24.6,202.4,19.9,208,19.9z"/>
	</defs>
	<clipPath id="SVGID_38_">
		<use xlink:href="#SVGID_37_"  style="overflow:visible;"/>
	</clipPath>
	<rect x="193.7" y="14.9" style="clip-path:url(#SVGID_38_);fill:#FFFFFF;" width="28.6" height="29.5"/>
</g>
<g>
	<defs>
		<path id="SVGID_39_" d="M236.2,32.6c-0.1,3.3-3,6.7-7.4,6.7c-5.7,0-9.3-4-9.3-9c0-5.7,4.4-10.5,9.6-10.5c3.1,0,6.3,1.4,6.3,4.1
			c0,1.3-1,2.2-2.1,2.2c-1.4,0-2.1-1-2.1-1.9c0-1.8,1.1-1.7,1.1-2.3c0-1-2-1.4-3.3-1.4c-4.3,0-5.3,2.8-5.3,6.9v3.8
			c0,3.8,0.2,7.3,5.1,7.3c4.4,0,6.4-3.3,6.7-6H236.2z"/>
	</defs>
	<clipPath id="SVGID_40_">
		<use xlink:href="#SVGID_39_"  style="overflow:visible;"/>
	</clipPath>
	<rect x="214.6" y="14.9" style="clip-path:url(#SVGID_40_);fill:#FFFFFF;" width="26.7" height="29.5"/>
</g>
<g>
	<defs>
		<path id="SVGID_41_" d="M240.5,21.5H237v-0.7h3.5c1.4,0,2.8-0.1,3.7-1v15.7c0,1.9,1.1,3.1,2.7,3.1c3.1,0,5.8-3.5,5.8-6.7V21.5
			h-3.5v-0.7h3.5c1.4,0,2.8-0.1,3.7-1v18.2h3.5v0.7h-7.2v-4h-0.1c-0.4,1-2.2,4.5-6.1,4.5c-4.4,0-6-2.3-6-4.9V21.5z"/>
	</defs>
	<clipPath id="SVGID_42_">
		<use xlink:href="#SVGID_41_"  style="overflow:visible;"/>
	</clipPath>
	<rect x="232" y="14.9" style="clip-path:url(#SVGID_42_);fill:#FFFFFF;" width="32.9" height="29.5"/>
</g>
<g>
	<defs>
		<path id="SVGID_43_" d="M263.8,21.5h-3.7v-0.7h3.7c1.4,0,2.8-0.1,3.7-1V25h0.1c0.5-2,2.1-5.2,5.7-5.2c1.6,0,2.9,1.1,2.9,2.6
			c0,1.1-0.7,2.1-2,2.1c-1.4,0-1.9-0.7-1.9-1.9c0-1,0.5-1.6,1-1.9c-0.2-0.1-0.4-0.1-0.6-0.1c-1.8,0-5,2.8-5,8.5v9h4v0.7h-11.4v-0.7
			h3.7V21.5z"/>
	</defs>
	<clipPath id="SVGID_44_">
		<use xlink:href="#SVGID_43_"  style="overflow:visible;"/>
	</clipPath>
	<rect x="255.1" y="14.9" style="clip-path:url(#SVGID_44_);fill:#FFFFFF;" width="26" height="28.9"/>
</g>
<g>
	<defs>
		<path id="SVGID_45_" d="M288.6,26c0-2.8-0.7-5.4-3.6-5.4c-3.1,0-4,2.6-4,5.4v1.2h7.3c0.2,0,0.3-0.1,0.3-0.3V26z M281,32
			c0,3.1,0.4,6.6,4.5,6.6c3.7,0,6.4-2.5,7-6h0.7c-0.7,4-3.7,6.7-7.7,6.7c-5.1,0-8.7-3.9-8.7-9.7c0-4.3,3.4-9.7,8.2-9.7
			c5.2,0,7.8,5.8,7.8,7.6c0,0.3-0.1,0.4-0.4,0.4H281V32z"/>
	</defs>
	<clipPath id="SVGID_46_">
		<use xlink:href="#SVGID_45_"  style="overflow:visible;"/>
	</clipPath>
	<rect x="271.8" y="14.9" style="clip-path:url(#SVGID_46_);fill:#FFFFFF;" width="26.4" height="29.5"/>
</g>
<g>
	<defs>
		<path id="SVGID_47_" d="M294,38.1h3.5V21.5H294v-0.7h3.5c2.1,0,2.9,0,3.7-1v4.3h0.1c1.2-2.1,3-4.3,6.3-4.3c2.8,0,5.6,0.8,6,4.7
			h0.1c0.9-2.5,3.1-4.7,6.4-4.7c4.5,0,6,2.6,6,5.3v12.9h3.5v0.7h-10.6v-0.7h3.5V24.4c0-3.2-1.4-3.9-3.1-3.9c-2.5,0-4.8,2.8-5.7,5.8
			v11.7h3.3v0.7h-10.5v-0.7h3.5V23.6c0-2.2-1.1-3-2.9-3c-2.6,0-4.6,2.1-5.9,5.2v12.4h3.3v0.7H294V38.1z"/>
	</defs>
	<clipPath id="SVGID_48_">
		<use xlink:href="#SVGID_47_"  style="overflow:visible;"/>
	</clipPath>
	<rect x="289" y="14.9" style="clip-path:url(#SVGID_48_);fill:#FFFFFF;" width="45.4" height="28.9"/>
</g>
<g>
	<defs>
		<path id="SVGID_49_" d="M342.4,26c0-2.8-0.7-5.4-3.6-5.4c-3.1,0-4,2.6-4,5.4v1.2h7.3c0.2,0,0.3-0.1,0.3-0.3V26z M334.8,32
			c0,3.1,0.4,6.6,4.5,6.6c3.7,0,6.4-2.5,7-6h0.7c-0.7,4-3.7,6.7-7.7,6.7c-5.1,0-8.7-3.9-8.7-9.7c0-4.3,3.4-9.7,8.2-9.7
			c5.2,0,7.8,5.8,7.8,7.6c0,0.3-0.1,0.4-0.4,0.4h-11.4V32z"/>
	</defs>
	<clipPath id="SVGID_50_">
		<use xlink:href="#SVGID_49_"  style="overflow:visible;"/>
	</clipPath>
	<rect x="325.6" y="14.9" style="clip-path:url(#SVGID_50_);fill:#FFFFFF;" width="26.4" height="29.5"/>
</g>
<g>
	<defs>
		<path id="SVGID_51_" d="M351.3,21.5h-3.5v-0.7h3.5c2.1,0,2.9,0,3.7-1v4.5h0.1c1.1-2.1,3.3-4.5,6.5-4.5c4.7,0,6,2.4,6,5v13.3h3.5
			v0.7h-10.6v-0.7h3.5V23.8c0-2.4-1.2-3.2-2.6-3.2c-3.7,0-5.6,3.7-6.4,5.2v12.4h3.3v0.7h-10.5v-0.7h3.5V21.5z"/>
	</defs>
	<clipPath id="SVGID_52_">
		<use xlink:href="#SVGID_51_"  style="overflow:visible;"/>
	</clipPath>
	<rect x="342.9" y="14.9" style="clip-path:url(#SVGID_52_);fill:#FFFFFF;" width="33.2" height="28.9"/>
</g>
<g>
	<defs>
		<path id="SVGID_53_" d="M374.8,21.5H371v-0.7c4.6,0.1,6.2-1.8,7-6.1h0.5v6.1h6.1v0.7h-6.1v14.7c0,1.8,0.8,2.4,2.1,2.4
			c2.2,0,3.2-2,3.4-2.8l0.7,0.1c-0.3,1.1-1.6,3.3-4.8,3.3c-3.1,0-5.1-1-5.1-3.9V21.5z"/>
	</defs>
	<clipPath id="SVGID_54_">
		<use xlink:href="#SVGID_53_"  style="overflow:visible;"/>
	</clipPath>
	<rect x="366" y="9.7" style="clip-path:url(#SVGID_54_);fill:#FFFFFF;" width="23.7" height="34.6"/>
</g>
</svg>
