<?xml version="1.0" encoding="utf-8"?>
<!-- Generator: Adobe Illustrator 16.0.3, SVG Export Plug-In . SVG Version: 6.00 Build 0)  -->
<!DOCTYPE svg PUBLIC "-//W3C//DTD SVG 1.1//EN" "http://www.w3.org/Graphics/SVG/1.1/DTD/svg11.dtd">
<svg version="1.1" id="Layer_1" xmlns="http://www.w3.org/2000/svg" xmlns:xlink="http://www.w3.org/1999/xlink" x="0px" y="0px"
	 width="612px" height="792px" viewBox="0 0 612 792" enable-background="new 0 0 612 792" xml:space="preserve">
<g>
	<g>
		<defs>
			<path id="SVGID_1_" d="M83.158,326.072c1.375,4.467,9.965,10.996,17.869,4.124c10.652-9.278-4.467-25.084-23.023-26.116
				c-18.556-0.687-33.332,0.344-50.857,12.371S-1.375,347.033,0,380.708S47.42,440.5,82.127,425.38
				c34.706-15.119,24.741-19.587,24.054-20.961c-1.031-1.031-4.124-2.405-5.498-0.688c-1.718,1.719-9.622,14.433-30.583,14.776
				c-20.961,0.344-37.456-10.309-40.205-34.707c-2.749-24.397,1.031-51.544,12.027-61.853c10.996-10.309,30.239-12.027,35.394-6.873
				C82.471,320.574,82.127,322.979,83.158,326.072"/>
		</defs>
		<use xlink:href="#SVGID_1_"  overflow="visible" fill="#E6B10E"/>
		<clipPath id="SVGID_2_">
			<use xlink:href="#SVGID_1_"  overflow="visible"/>
		</clipPath>
		<rect x="-17.181" y="286.898" clip-path="url(#SVGID_2_)" fill="#E6B10E" width="142.605" height="160.13"/>
	</g>
</g>
<g>
	<g>
		<defs>
			<path id="SVGID_3_" d="M312.014,420.569c-0.344-4.467-14.433-0.688-17.525-6.872c-3.436-6.529-0.343-51.544-1.718-72.85
				c-1.375-20.961-10.652-33.675-30.927-36.424c-20.274-2.749-30.583-0.687-54.293,17.525
				c-14.432-19.586-30.583-18.556-47.42-18.212c-16.838,0.343-30.239,4.123-38.486,12.027c-8.247,7.903-8.934,21.992,2.405,23.023
				c10.996,0.687,13.401-5.842,14.089-16.15c0.687-10.309,12.027-11.684,25.085-11.34c13.401,0.344,16.15,4.124,20.617,9.622
				c4.467,5.842,2.406,18.212,2.406,18.212s-16.15,12.027-43.297,29.208c-27.146,17.182-29.208,27.146-28.864,33.676
				c0.343,6.528,3.092,26.115,26.115,27.146c23.367,1.031,46.39-17.869,46.39-17.869v14.776h37.799v-6.872
				c-5.154,0-13.745-1.375-13.745-7.561c0-6.528,0.687-80.752,0.687-80.752s17.525-17.182,32.988-17.182s23.71,12.371,23.71,22.68
				c0,10.309,0,89.687,0,89.687h44.328C312.014,426.067,312.701,425.036,312.014,420.569 M173.875,411.291
				c-10.309,7.561-28.521,9.966-31.958-6.528c-3.436-16.494,2.405-22.336,13.401-31.614s30.927-23.023,30.927-23.023l0.687,51.2
				C186.933,401.326,184.528,403.731,173.875,411.291"/>
		</defs>
		<use xlink:href="#SVGID_3_"  overflow="visible" fill="#E6B10E"/>
		<clipPath id="SVGID_4_">
			<use xlink:href="#SVGID_3_"  overflow="visible"/>
		</clipPath>
		<rect x="96.903" y="286.211" clip-path="url(#SVGID_4_)" fill="#E6B10E" width="232.635" height="159.787"/>
	</g>
</g>
<g>
	<g>
		<defs>
			<path id="SVGID_5_" d="M289.678,306.142v6.873c0,0,10.996-3.093,17.182,13.401c6.528,16.494,42.953,103.776,42.953,103.776h7.903
				c0,0,40.204-100.34,42.953-107.212c3.093-7.216,7.903-9.965,13.059-9.965v-5.842h-40.549v5.842c0,0,15.808-0.688,15.808,10.309
				s-27.49,75.598-27.49,75.598l-36.769-92.779H289.678z"/>
		</defs>
		<use xlink:href="#SVGID_5_"  overflow="visible" fill="#E6B10E"/>
		<clipPath id="SVGID_6_">
			<use xlink:href="#SVGID_5_"  overflow="visible"/>
		</clipPath>
		<rect x="272.497" y="288.96" clip-path="url(#SVGID_6_)" fill="#E6B10E" width="158.412" height="158.412"/>
	</g>
</g>
<g>
	<g>
		<defs>
			<path id="SVGID_7_" d="M507.881,408.542v-73.536c0-13.402-6.186-30.583-33.332-31.614s-48.451,4.811-56.698,13.058
				c-5.154,4.811-9.278,21.992,5.842,21.992c14.776,0,3.093-27.146,31.271-27.146c28.177,0,27.489,8.935,27.489,28.177
				c-36.424,25.085-71.817,41.923-71.817,64.946c0,23.022,28.177,28.521,43.297,23.022c15.119-5.841,29.552-15.807,29.552-15.807
				v15.12h38.83v-7.56C522.313,418.852,507.881,421.601,507.881,408.542z M483.827,401.67c0,0-12.371,15.119-29.552,15.119
				c-17.182,0-18.899-22.335-13.401-31.27c5.154-9.278,42.953-35.737,42.953-35.737V401.67z"/>
		</defs>
		<use xlink:href="#SVGID_7_"  overflow="visible" fill="#E6B10E"/>
		<clipPath id="SVGID_8_">
			<use xlink:href="#SVGID_7_"  overflow="visible"/>
		</clipPath>
		<rect x="393.453" y="286.211" clip-path="url(#SVGID_8_)" fill="#E6B10E" width="146.041" height="160.131"/>
	</g>
</g>
<g>
	<g>
		<defs>
			<path id="SVGID_9_" d="M602.379,303.393v36.424h-7.561c0,0-4.811-25.772-21.648-28.521s-23.022,6.873-22.68,13.745
				c0.688,6.873,0.344,15.807,35.737,29.896s27.146,50.514,15.808,61.853c-11.34,11.34-35.394,18.557-60.479,2.749
				c-6.186,6.529-6.873,7.561-6.873,7.561l-4.811,0.343V386.55h6.186c0,0,5.498,34.707,31.613,34.707
				c26.116,0,28.865-20.618,18.899-31.271c-9.965-10.652-55.667-24.054-55.667-53.605c0-29.552,37.111-42.266,61.509-24.741
				c2.749-5.498,4.468-8.591,4.468-8.591h5.498V303.393z"/>
		</defs>
		<use xlink:href="#SVGID_9_"  overflow="visible" fill="#E6B10E"/>
		<clipPath id="SVGID_10_">
			<use xlink:href="#SVGID_9_"  overflow="visible"/>
		</clipPath>
		<rect x="513.035" y="286.211" clip-path="url(#SVGID_10_)" fill="#E6B10E" width="116.146" height="159.787"/>
	</g>
</g>
<g>
	<g>
		<defs>
			<path id="SVGID_11_" d="M266.655,480.36l-2.405,7.903h-3.437l8.247-24.741h3.78l8.591,24.741h-3.437l-2.749-7.903H266.655z
				 M274.902,477.955l-2.405-7.216c-0.688-1.719-1.031-3.093-1.375-4.468l0,0c-0.344,1.375-0.688,3.093-1.375,4.468l-2.405,7.216
				H274.902z"/>
		</defs>
		<use xlink:href="#SVGID_11_"  overflow="visible" fill="#E6B10E"/>
		<clipPath id="SVGID_12_">
			<use xlink:href="#SVGID_11_"  overflow="visible"/>
		</clipPath>
		<rect x="243.632" y="446.342" clip-path="url(#SVGID_12_)" fill="#E6B10E" width="54.98" height="59.104"/>
	</g>
</g>
<g>
	<g>
		<defs>
			<path id="SVGID_13_" d="M289.678,463.866c1.718-0.344,3.78-0.344,6.185-0.344c3.437,0,5.498,0.688,7.216,2.063
				c1.375,1.03,2.062,2.749,2.062,4.811c0,3.093-2.062,5.498-4.811,6.186l0,0c2.062,0.687,3.093,2.405,3.78,4.811
				c0.688,3.437,1.375,5.842,2.062,6.872h-3.437c-0.343-0.688-1.031-2.749-1.718-5.842c-0.688-3.436-2.062-4.811-4.811-4.811h-3.093
				v10.652h-3.092v-24.397H289.678z M292.771,475.206h3.092c3.437,0,5.498-1.718,5.498-4.811s-2.405-4.468-5.841-4.468
				c-1.375,0-2.749,0-3.093,0.344v8.935H292.771z"/>
		</defs>
		<use xlink:href="#SVGID_13_"  overflow="visible" fill="#E6B10E"/>
		<clipPath id="SVGID_14_">
			<use xlink:href="#SVGID_13_"  overflow="visible"/>
		</clipPath>
		<rect x="272.497" y="445.998" clip-path="url(#SVGID_14_)" fill="#E6B10E" width="50.513" height="59.104"/>
	</g>
</g>
<g>
	<g>
		<defs>
			<polygon id="SVGID_15_" points="318.886,466.271 311.326,466.271 311.326,463.522 329.538,463.522 329.538,466.271 
				321.979,466.271 321.979,488.264 318.886,488.264 			"/>
		</defs>
		<use xlink:href="#SVGID_15_"  overflow="visible" fill="#E6B10E"/>
		<clipPath id="SVGID_16_">
			<use xlink:href="#SVGID_15_"  overflow="visible"/>
		</clipPath>
		<rect x="294.145" y="446.342" clip-path="url(#SVGID_16_)" fill="#E6B10E" width="52.575" height="59.104"/>
	</g>
</g>
<g>
	<g>
		<defs>
			<path id="SVGID_17_" d="M365.963,487.233c-1.031,0.687-3.437,1.03-6.529,1.03c-6.872,0-12.026-4.467-12.026-12.37
				c0-7.56,5.154-13.058,13.058-13.058c3.093,0,5.154,0.687,5.842,1.03l-0.688,2.749c-1.374-0.688-3.093-1.03-4.811-1.03
				c-5.842,0-9.622,3.779-9.622,10.309c0,6.185,3.437,9.965,9.622,9.965c2.062,0,3.78-0.344,5.154-1.03V487.233z"/>
		</defs>
		<use xlink:href="#SVGID_17_"  overflow="visible" fill="#E6B10E"/>
		<clipPath id="SVGID_18_">
			<use xlink:href="#SVGID_17_"  overflow="visible"/>
		</clipPath>
		<rect x="330.226" y="445.998" clip-path="url(#SVGID_18_)" fill="#E6B10E" width="53.263" height="59.791"/>
	</g>
</g>
<g>
	<g>
		<defs>
			<path id="SVGID_19_" d="M394.827,475.55c0,8.591-5.154,13.058-11.339,13.058c-6.529,0-10.996-5.154-10.996-12.37
				c0-7.903,4.811-13.059,11.34-13.059C390.36,463.179,394.827,468.334,394.827,475.55 M375.585,475.894
				c0,5.154,2.749,9.965,7.903,9.965s7.903-4.811,7.903-10.309c0-4.811-2.405-9.965-7.903-9.965
				C378.334,465.585,375.585,470.739,375.585,475.894"/>
		</defs>
		<use xlink:href="#SVGID_19_"  overflow="visible" fill="#E6B10E"/>
		<clipPath id="SVGID_20_">
			<use xlink:href="#SVGID_19_"  overflow="visible"/>
		</clipPath>
		<rect x="354.967" y="445.998" clip-path="url(#SVGID_20_)" fill="#E6B10E" width="57.042" height="59.791"/>
	</g>
</g>
<g>
	<g>
		<defs>
			<path id="SVGID_21_" d="M403.418,488.264v-24.741h3.437l7.903,12.371c1.719,2.749,3.093,5.498,4.468,7.903l0,0
				c-0.344-3.437-0.344-6.186-0.344-9.965v-10.31h3.093v24.741h-3.093l-7.903-12.37c-1.719-2.749-3.437-5.498-4.468-8.247l0,0
				c0.344,3.093,0.344,6.186,0.344,10.309v10.652h-3.437V488.264z"/>
		</defs>
		<use xlink:href="#SVGID_21_"  overflow="visible" fill="#E6B10E"/>
		<clipPath id="SVGID_22_">
			<use xlink:href="#SVGID_21_"  overflow="visible"/>
		</clipPath>
		<rect x="386.237" y="446.342" clip-path="url(#SVGID_22_)" fill="#E6B10E" width="52.918" height="59.104"/>
	</g>
</g>
<g>
	<g>
		<defs>
			<path id="SVGID_23_" d="M431.596,484.141c1.375,1.03,3.437,1.718,5.842,1.718c3.093,0,5.154-1.718,5.154-4.123
				s-1.375-3.78-4.811-4.812c-4.124-1.374-6.529-3.436-6.529-6.872c0-3.78,3.093-6.529,7.903-6.529c2.405,0,4.468,0.688,5.498,1.375
				l-1.03,2.749c-0.688-0.344-2.406-1.031-4.812-1.031c-3.436,0-4.811,2.062-4.811,3.78c0,2.405,1.375,3.437,4.811,4.811
				c4.124,1.718,6.186,3.78,6.186,7.216c0,3.78-2.749,7.217-8.591,7.217c-2.405,0-5.154-0.688-6.186-1.719L431.596,484.141z"/>
		</defs>
		<use xlink:href="#SVGID_23_"  overflow="visible" fill="#E6B10E"/>
		<clipPath id="SVGID_24_">
			<use xlink:href="#SVGID_23_"  overflow="visible"/>
		</clipPath>
		<rect x="413.384" y="445.998" clip-path="url(#SVGID_24_)" fill="#E6B10E" width="49.139" height="59.791"/>
	</g>
</g>
<g>
	<g>
		<defs>
			<path id="SVGID_25_" d="M457.368,463.522v14.433c0,5.498,2.405,7.903,5.841,7.903c3.78,0,5.842-2.405,5.842-7.903v-14.433h3.093
				v14.433c0,7.56-4.123,10.652-9.277,10.652c-5.155,0-8.935-2.749-8.935-10.652v-14.433H457.368z"/>
		</defs>
		<use xlink:href="#SVGID_25_"  overflow="visible" fill="#E6B10E"/>
		<clipPath id="SVGID_26_">
			<use xlink:href="#SVGID_25_"  overflow="visible"/>
		</clipPath>
		<rect x="437.094" y="446.342" clip-path="url(#SVGID_26_)" fill="#E6B10E" width="52.575" height="59.447"/>
	</g>
</g>
<g>
	<g>
		<defs>
			<polygon id="SVGID_27_" points="482.452,463.522 485.545,463.522 485.545,485.515 496.197,485.515 496.197,488.264 
				482.452,488.264 			"/>
		</defs>
		<use xlink:href="#SVGID_27_"  overflow="visible" fill="#E6B10E"/>
		<clipPath id="SVGID_28_">
			<use xlink:href="#SVGID_27_"  overflow="visible"/>
		</clipPath>
		<rect x="465.271" y="446.342" clip-path="url(#SVGID_28_)" fill="#E6B10E" width="48.107" height="59.104"/>
	</g>
</g>
<g>
	<g>
		<defs>
			<polygon id="SVGID_29_" points="505.476,466.271 497.916,466.271 497.916,463.522 516.472,463.522 516.472,466.271 
				508.912,466.271 508.912,488.264 505.476,488.264 			"/>
		</defs>
		<use xlink:href="#SVGID_29_"  overflow="visible" fill="#E6B10E"/>
		<clipPath id="SVGID_30_">
			<use xlink:href="#SVGID_29_"  overflow="visible"/>
		</clipPath>
		<rect x="480.734" y="446.342" clip-path="url(#SVGID_30_)" fill="#E6B10E" width="52.575" height="59.104"/>
	</g>
</g>
<g>
	<g>
		<defs>
			<path id="SVGID_31_" d="M524.719,480.36l-2.405,7.903h-3.437l8.247-24.741h3.78l8.59,24.741h-3.436l-2.749-7.903H524.719z
				 M532.966,477.955l-2.405-7.216c-0.688-1.719-1.031-3.093-1.375-4.468l0,0c-0.344,1.375-0.687,3.093-1.374,4.468l-2.405,7.216
				H532.966z"/>
		</defs>
		<use xlink:href="#SVGID_31_"  overflow="visible" fill="#E6B10E"/>
		<clipPath id="SVGID_32_">
			<use xlink:href="#SVGID_31_"  overflow="visible"/>
		</clipPath>
		<rect x="501.695" y="446.342" clip-path="url(#SVGID_32_)" fill="#E6B10E" width="54.98" height="59.104"/>
	</g>
</g>
<g>
	<g>
		<defs>
			<path id="SVGID_33_" d="M547.742,488.264v-24.741h3.436l7.903,12.371c1.719,2.749,3.093,5.498,4.468,7.903l0,0
				c-0.344-3.437-0.344-6.186-0.344-9.965v-10.31h3.093v24.741h-3.093l-7.903-12.37c-1.719-2.749-3.437-5.498-4.468-8.247l0,0
				c0.344,3.093,0.344,6.186,0.344,10.309v10.652h-3.436V488.264z"/>
		</defs>
		<use xlink:href="#SVGID_33_"  overflow="visible" fill="#E6B10E"/>
		<clipPath id="SVGID_34_">
			<use xlink:href="#SVGID_33_"  overflow="visible"/>
		</clipPath>
		<rect x="530.561" y="446.342" clip-path="url(#SVGID_34_)" fill="#E6B10E" width="52.918" height="59.104"/>
	</g>
</g>
<g>
	<g>
		<defs>
			<polygon id="SVGID_35_" points="580.729,466.271 573.17,466.271 573.17,463.522 591.383,463.522 591.383,466.271 
				584.166,466.271 584.166,488.264 580.729,488.264 			"/>
		</defs>
		<use xlink:href="#SVGID_35_"  overflow="visible" fill="#E6B10E"/>
		<clipPath id="SVGID_36_">
			<use xlink:href="#SVGID_35_"  overflow="visible"/>
		</clipPath>
		<rect x="555.988" y="446.342" clip-path="url(#SVGID_36_)" fill="#E6B10E" width="52.575" height="59.104"/>
	</g>
</g>
<g>
	<g>
		<defs>
			<path id="SVGID_37_" d="M597.911,484.141c1.375,1.03,3.437,1.718,5.842,1.718c3.093,0,5.154-1.718,5.154-4.123
				s-1.374-3.78-4.811-4.812c-4.124-1.374-6.529-3.436-6.529-6.872c0-3.78,3.093-6.529,7.903-6.529c2.406,0,4.468,0.688,5.498,1.375
				l-1.03,2.749c-0.688-0.344-2.405-1.031-4.811-1.031c-3.437,0-4.812,2.062-4.812,3.78c0,2.405,1.375,3.437,4.812,4.811
				c4.123,1.718,6.185,3.78,6.185,7.216c0,3.78-2.749,7.217-8.591,7.217c-2.405,0-5.154-0.688-6.185-1.719L597.911,484.141z"/>
		</defs>
		<use xlink:href="#SVGID_37_"  overflow="visible" fill="#E6B10E"/>
		<clipPath id="SVGID_38_">
			<use xlink:href="#SVGID_37_"  overflow="visible"/>
		</clipPath>
		<rect x="580.043" y="445.998" clip-path="url(#SVGID_38_)" fill="#E6B10E" width="49.139" height="59.791"/>
	</g>
</g>
</svg>
