<?xml version="1.0" encoding="utf-8"?>
<!-- Generator: Adobe Illustrator 16.0.3, SVG Export Plug-In . SVG Version: 6.00 Build 0)  -->
<!DOCTYPE svg PUBLIC "-//W3C//DTD SVG 1.1//EN" "http://www.w3.org/Graphics/SVG/1.1/DTD/svg11.dtd">
<svg version="1.1" id="Layer_1" xmlns="http://www.w3.org/2000/svg" xmlns:xlink="http://www.w3.org/1999/xlink" x="0px" y="0px"
	 width="612px" height="792px" viewBox="0 0 612 792" enable-background="new 0 0 612 792" xml:space="preserve">
<g>
	<g>
		<defs>
			<polygon id="SVGID_1_" points="131.212,430.021 139.596,430.021 139.596,361.588 131.212,361.588 131.212,359.639 
				163.967,359.639 163.967,361.588 155.583,361.588 155.583,392.978 182.489,392.978 182.489,361.588 174.105,361.588 
				174.105,359.639 206.859,359.639 206.859,361.588 198.476,361.588 198.476,430.021 206.859,430.021 206.859,431.776 
				174.105,431.776 174.105,430.021 182.489,430.021 182.489,394.733 155.583,394.733 155.583,430.021 163.967,430.021 
				163.967,431.776 131.212,431.776 			"/>
		</defs>
		<use xlink:href="#SVGID_1_"  overflow="visible" fill="#E6B10E"/>
		<clipPath id="SVGID_2_">
			<use xlink:href="#SVGID_1_"  overflow="visible"/>
		</clipPath>
		<rect x="121.464" y="349.891" clip-path="url(#SVGID_2_)" fill="#E6B10E" width="94.949" height="91.634"/>
	</g>
</g>
<g>
	<g>
		<defs>
			<path id="SVGID_3_" d="M219.532,430.606h6.824v-69.213h-6.824v-1.95h32.754c11.503,0,23.981,5.264,23.981,17.157
				c0,11.113-11.113,15.792-21.056,16.572v0.195c14.038,0,25.15,6.629,25.15,19.106c0,11.309-10.138,19.887-29.245,19.887h-31.779
				v-1.755H219.532z M242.539,393.173h5.654c6.239,0,12.868-4.094,12.868-14.623c0-12.088-4.289-17.157-13.063-17.157h-5.459
				V393.173L242.539,393.173z M242.539,430.606h4.679c10.333,0,15.987-5.264,15.987-17.937c0-10.918-5.264-17.742-14.428-17.742
				h-6.239V430.606z"/>
		</defs>
		<use xlink:href="#SVGID_3_"  overflow="visible" fill="#E6B10E"/>
		<clipPath id="SVGID_4_">
			<use xlink:href="#SVGID_3_"  overflow="visible"/>
		</clipPath>
		<rect x="209.784" y="349.891" clip-path="url(#SVGID_4_)" fill="#E6B10E" width="80.521" height="92.414"/>
	</g>
</g>
<g>
	<g>
		<defs>
			<path id="SVGID_5_" d="M288.355,430.606h1.365c3.899-0.39,5.654-2.729,6.824-6.044l23.396-65.119h1.56l26.905,71.163h4.874v1.755
				h-30.024v-1.755h7.993l-7.408-21.057h-19.497l-4.874,14.233c-0.195,0.779-0.78,1.949-0.78,3.119c0,3.314,2.729,3.704,4.874,3.704
				h2.73v1.755h-18.132v-1.755H288.355z M323.255,407.796l-8.773-25.541h-0.195l-8.969,25.541H323.255z"/>
		</defs>
		<use xlink:href="#SVGID_5_"  overflow="visible" fill="#E6B10E"/>
		<clipPath id="SVGID_6_">
			<use xlink:href="#SVGID_5_"  overflow="visible"/>
		</clipPath>
		<rect x="278.607" y="349.891" clip-path="url(#SVGID_6_)" fill="#E6B10E" width="84.42" height="92.414"/>
	</g>
</g>
<g>
	<g>
		<defs>
			<polygon id="SVGID_7_" points="44.842,383.035 44.842,362.368 65.509,362.368 			"/>
		</defs>
		<use xlink:href="#SVGID_7_"  overflow="visible" fill="#E6B10E"/>
		<clipPath id="SVGID_8_">
			<use xlink:href="#SVGID_7_"  overflow="visible"/>
		</clipPath>
		<rect x="35.094" y="352.62" clip-path="url(#SVGID_8_)" fill="#E6B10E" width="39.968" height="40.163"/>
	</g>
</g>
<g>
	<g>
		<defs>
			<rect id="SVGID_9_" x="21.641" y="362.368" width="20.472" height="20.667"/>
		</defs>
		<use xlink:href="#SVGID_9_"  overflow="visible" fill="#E6B10E"/>
		<clipPath id="SVGID_10_">
			<use xlink:href="#SVGID_9_"  overflow="visible"/>
		</clipPath>
		<rect x="11.893" y="352.62" clip-path="url(#SVGID_10_)" fill="#E6B10E" width="39.968" height="40.163"/>
	</g>
</g>
<g>
	<g>
		<defs>
			<rect id="SVGID_11_" x="68.043" y="362.368" width="20.471" height="20.667"/>
		</defs>
		<use xlink:href="#SVGID_11_"  overflow="visible" fill="#E6B10E"/>
		<clipPath id="SVGID_12_">
			<use xlink:href="#SVGID_11_"  overflow="visible"/>
		</clipPath>
		<rect x="58.295" y="352.62" clip-path="url(#SVGID_12_)" fill="#E6B10E" width="39.968" height="40.163"/>
	</g>
</g>
<g>
	<g>
		<defs>
			<path id="SVGID_13_" d="M55.175,340.532c-5.654,0-10.333,4.679-10.333,10.333v8.773h20.472v-8.773
				C65.509,345.211,60.83,340.532,55.175,340.532"/>
		</defs>
		<use xlink:href="#SVGID_13_"  overflow="visible" fill="#E6B10E"/>
		<clipPath id="SVGID_14_">
			<use xlink:href="#SVGID_13_"  overflow="visible"/>
		</clipPath>
		<rect x="35.094" y="330.784" clip-path="url(#SVGID_14_)" fill="#E6B10E" width="39.968" height="38.604"/>
	</g>
</g>
<g>
	<g>
		<defs>
			<rect id="SVGID_15_" x="68.043" y="409.16" width="20.471" height="20.667"/>
		</defs>
		<use xlink:href="#SVGID_15_"  overflow="visible" fill="#E6B10E"/>
		<clipPath id="SVGID_16_">
			<use xlink:href="#SVGID_15_"  overflow="visible"/>
		</clipPath>
		<rect x="58.295" y="399.412" clip-path="url(#SVGID_16_)" fill="#E6B10E" width="39.968" height="40.163"/>
	</g>
</g>
<g>
	<g>
		<defs>
			<polygon id="SVGID_17_" points="65.509,409.16 65.509,429.827 44.842,429.827 			"/>
		</defs>
		<use xlink:href="#SVGID_17_"  overflow="visible" fill="#E6B10E"/>
		<clipPath id="SVGID_18_">
			<use xlink:href="#SVGID_17_"  overflow="visible"/>
		</clipPath>
		<rect x="35.094" y="399.412" clip-path="url(#SVGID_18_)" fill="#E6B10E" width="39.968" height="40.163"/>
	</g>
</g>
<g>
	<g>
		<defs>
			<rect id="SVGID_19_" x="21.641" y="409.16" width="20.472" height="20.667"/>
		</defs>
		<use xlink:href="#SVGID_19_"  overflow="visible" fill="#E6B10E"/>
		<clipPath id="SVGID_20_">
			<use xlink:href="#SVGID_19_"  overflow="visible"/>
		</clipPath>
		<rect x="11.893" y="399.412" clip-path="url(#SVGID_20_)" fill="#E6B10E" width="39.968" height="40.163"/>
	</g>
</g>
<g>
	<g>
		<defs>
			<path id="SVGID_21_" d="M55.175,451.468c5.654,0,10.333-4.679,10.333-10.333v-8.773H44.842v8.773
				C44.842,446.789,49.521,451.468,55.175,451.468"/>
		</defs>
		<use xlink:href="#SVGID_21_"  overflow="visible" fill="#E6B10E"/>
		<clipPath id="SVGID_22_">
			<use xlink:href="#SVGID_21_"  overflow="visible"/>
		</clipPath>
		<rect x="35.094" y="422.808" clip-path="url(#SVGID_22_)" fill="#E6B10E" width="39.968" height="38.604"/>
	</g>
</g>
<g>
	<g>
		<defs>
			<polygon id="SVGID_23_" points="68.043,385.764 88.71,385.764 88.71,406.431 			"/>
		</defs>
		<use xlink:href="#SVGID_23_"  overflow="visible" fill="#E6B10E"/>
		<clipPath id="SVGID_24_">
			<use xlink:href="#SVGID_23_"  overflow="visible"/>
		</clipPath>
		<rect x="58.295" y="376.016" clip-path="url(#SVGID_24_)" fill="#E6B10E" width="39.968" height="40.163"/>
	</g>
</g>
<g>
	<g>
		<defs>
			<path id="SVGID_25_" d="M110.351,396.098c0-5.654-4.679-10.333-10.333-10.333h-8.579v20.667h8.579
				C105.672,406.431,110.351,401.752,110.351,396.098"/>
		</defs>
		<use xlink:href="#SVGID_25_"  overflow="visible" fill="#E6B10E"/>
		<clipPath id="SVGID_26_">
			<use xlink:href="#SVGID_25_"  overflow="visible"/>
		</clipPath>
		<rect x="81.691" y="376.016" clip-path="url(#SVGID_26_)" fill="#E6B10E" width="38.409" height="40.163"/>
	</g>
</g>
<g>
	<g>
		<defs>
			<polygon id="SVGID_27_" points="42.113,406.431 21.641,406.431 21.641,385.764 			"/>
		</defs>
		<use xlink:href="#SVGID_27_"  overflow="visible" fill="#E6B10E"/>
		<clipPath id="SVGID_28_">
			<use xlink:href="#SVGID_27_"  overflow="visible"/>
		</clipPath>
		<rect x="11.893" y="376.016" clip-path="url(#SVGID_28_)" fill="#E6B10E" width="39.968" height="40.163"/>
	</g>
</g>
<g>
	<g>
		<defs>
			<path id="SVGID_29_" d="M0,396.098c0,5.654,4.679,10.333,10.333,10.333h8.579v-20.667h-8.579C4.679,385.764,0,390.249,0,396.098"
				/>
		</defs>
		<use xlink:href="#SVGID_29_"  overflow="visible" fill="#E6B10E"/>
		<clipPath id="SVGID_30_">
			<use xlink:href="#SVGID_29_"  overflow="visible"/>
		</clipPath>
		<rect x="-9.749" y="376.016" clip-path="url(#SVGID_30_)" fill="#E6B10E" width="38.409" height="40.163"/>
	</g>
</g>
<g>
	<g>
		<defs>
			<rect id="SVGID_31_" x="44.842" y="385.764" width="20.472" height="20.667"/>
		</defs>
		<use xlink:href="#SVGID_31_"  overflow="visible" fill="#FFFFFF"/>
		<clipPath id="SVGID_32_">
			<use xlink:href="#SVGID_31_"  overflow="visible"/>
		</clipPath>
		<rect x="35.094" y="376.016" clip-path="url(#SVGID_32_)" fill="#FFFFFF" width="39.968" height="40.163"/>
	</g>
</g>
<g>
	<g>
		<defs>
			<path id="SVGID_33_" d="M400.267,383.229c-0.391,0-0.585,0-0.976,0c-7.798,0-15.402,4.484-17.547,10.528V383.62h-4.094v48.937
				h4.094v-26.711c0.391-7.408,1.95-10.333,5.265-13.843c5.264-5.264,11.308-4.874,13.063-4.679h0.39v-4.095H400.267z"/>
		</defs>
		<use xlink:href="#SVGID_33_"  overflow="visible" fill="#E6B10E"/>
		<clipPath id="SVGID_34_">
			<use xlink:href="#SVGID_33_"  overflow="visible"/>
		</clipPath>
		<rect x="367.902" y="373.481" clip-path="url(#SVGID_34_)" fill="#E6B10E" width="42.308" height="68.823"/>
	</g>
</g>
<g>
	<g>
		<defs>
			<path id="SVGID_35_" d="M441.6,387.324c-3.705-3.899-8.773-6.044-15.208-6.044c-5.653,0-10.528,1.949-14.232,5.849
				c-4.679,4.874-7.408,12.283-7.214,20.667c-0.194,7.604,2.34,14.427,6.629,18.911c3.704,3.899,8.969,5.85,14.817,5.85
				c11.698,0,19.107-6.239,21.057-17.742v-0.39h-4.095v0.194c-1.754,8.969-7.993,14.232-16.962,14.232
				c-4.679,0-8.578-1.56-11.698-4.679c-3.704-3.899-5.849-9.749-5.849-16.572h38.799v-0.195
				C448.229,399.021,445.889,392.003,441.6,387.324 M443.744,403.896H409.04c0.779-9.554,7.019-19.107,17.352-19.107
				C437.31,384.984,443.354,394.538,443.744,403.896"/>
		</defs>
		<use xlink:href="#SVGID_35_"  overflow="visible" fill="#E6B10E"/>
		<clipPath id="SVGID_36_">
			<use xlink:href="#SVGID_35_"  overflow="visible"/>
		</clipPath>
		<rect x="395.002" y="371.532" clip-path="url(#SVGID_36_)" fill="#E6B10E" width="62.39" height="70.773"/>
	</g>
</g>
<g>
	<g>
		<defs>
			<path id="SVGID_37_" d="M478.643,404.286c-0.585-0.195-0.975-0.195-1.56-0.39c-7.408-1.561-14.232-3.12-14.232-10.139
				c0-4.289,3.51-8.968,13.647-8.968c5.265,0,13.843,1.56,14.038,12.087v0.195h4.094l0,0c0-10.138-6.434-15.792-18.132-15.792
				c-4.094,0-17.742,0.975-17.742,12.672c0,10.529,9.749,12.478,16.768,14.038l1.365,0.195c7.798,1.56,15.012,3.119,15.012,10.528
				c0,9.358-11.503,9.943-15.012,9.943c-8.969,0-15.208-5.459-15.598-13.843v-0.195h-4.095v0.195
				c0.195,10.723,7.799,17.547,19.692,17.547c4.874,0,9.553-0.975,12.672-2.729c4.29-2.34,6.435-6.044,6.435-10.918
				C495.8,408.381,488.001,406.041,478.643,404.286"/>
		</defs>
		<use xlink:href="#SVGID_37_"  overflow="visible" fill="#E6B10E"/>
		<clipPath id="SVGID_38_">
			<use xlink:href="#SVGID_37_"  overflow="visible"/>
		</clipPath>
		<rect x="447.253" y="371.532" clip-path="url(#SVGID_38_)" fill="#E6B10E" width="58.295" height="70.773"/>
	</g>
</g>
<g>
	<g>
		<defs>
			<path id="SVGID_39_" d="M527.189,381.28c-13.258,0-22.421,10.528-22.421,25.54c0,15.013,9.163,25.541,22.421,25.541
				c13.063,0,22.421-10.528,22.421-25.541C549.61,391.808,540.447,381.28,527.189,381.28 M545.517,406.82
				c0,10.528-5.654,22.031-18.327,22.031c-12.478,0-18.327-11.308-18.327-22.031c0-10.528,5.654-22.031,18.327-22.031
				C539.862,384.984,545.517,396.292,545.517,406.82"/>
		</defs>
		<use xlink:href="#SVGID_39_"  overflow="visible" fill="#E6B10E"/>
		<clipPath id="SVGID_40_">
			<use xlink:href="#SVGID_39_"  overflow="visible"/>
		</clipPath>
		<rect x="495.215" y="371.532" clip-path="url(#SVGID_40_)" fill="#E6B10E" width="64.145" height="70.773"/>
	</g>
</g>
<g>
	<g>
		<defs>
			<path id="SVGID_41_" d="M583.34,383.229c-8.188-0.39-16.182,4.29-18.521,10.528V383.62h-4.095v48.937h4.095v-26.711
				c0.39-7.408,1.949-10.333,5.264-13.843c5.265-5.069,11.309-4.874,13.063-4.679h0.391v-4.095H583.34z"/>
		</defs>
		<use xlink:href="#SVGID_41_"  overflow="visible" fill="#E6B10E"/>
		<clipPath id="SVGID_42_">
			<use xlink:href="#SVGID_41_"  overflow="visible"/>
		</clipPath>
		<rect x="550.976" y="373.481" clip-path="url(#SVGID_42_)" fill="#E6B10E" width="42.308" height="68.628"/>
	</g>
</g>
<g>
	<g>
		<defs>
			<path id="SVGID_43_" d="M612,387.129v-3.704h-10.528v-15.013h-4.094v15.013h-8.969v3.704h8.969v33.534
				c-0.195,4.095,0.779,7.214,2.729,9.164c2.339,2.145,5.653,2.729,8.968,2.729c0.78,0,1.755,0,2.535,0h0.194v-3.705h-0.194
				c-4.095,0.195-6.629-0.194-8.188-1.754c-1.17-1.17-1.755-3.314-1.755-6.435v-33.534H612z"/>
		</defs>
		<use xlink:href="#SVGID_43_"  overflow="visible" fill="#E6B10E"/>
		<clipPath id="SVGID_44_">
			<use xlink:href="#SVGID_43_"  overflow="visible"/>
		</clipPath>
		<rect x="578.661" y="358.664" clip-path="url(#SVGID_44_)" fill="#E6B10E" width="42.893" height="83.641"/>
	</g>
</g>
</svg>
