<?xml version="1.0" encoding="utf-8"?>
<!-- Generator: Adobe Illustrator 21.1.0, SVG Export Plug-In . SVG Version: 6.00 Build 0)  -->
<svg version="1.1" id="Layer_1" xmlns="http://www.w3.org/2000/svg" xmlns:xlink="http://www.w3.org/1999/xlink" x="0px" y="0px"
	 viewBox="0 0 307 47" style="enable-background:new 0 0 307 47;" xml:space="preserve">
<g>
	<defs>
		<polygon id="SVGID_1_" points="56,38.2 59.5,38.2 59.5,8.8 56,8.8 56,8 69.9,8 69.9,8.8 66.3,8.8 66.3,22.3 77.7,22.3 77.7,8.8 
			74.1,8.8 74.1,8 88,8 88,8.8 84.5,8.8 84.5,38.2 88,38.2 88,39 74.1,39 74.1,38.2 77.7,38.2 77.7,23.1 66.3,23.1 66.3,38.2 
			69.9,38.2 69.9,39 56,39 		"/>
	</defs>
	<clipPath id="SVGID_2_">
		<use xlink:href="#SVGID_1_"  style="overflow:visible;"/>
	</clipPath>
	<rect x="51" y="3" style="clip-path:url(#SVGID_2_);fill:#FFFFFF;" width="42" height="41"/>
</g>
<g>
	<defs>
		<path id="SVGID_3_" d="M102.8,38.2h2c4.4,0,6.8-2.2,6.8-7.6c0-4.7-2.2-7.5-6.1-7.5h-2.7V38.2z M102.8,22.3h2.4
			c2.6,0,5.5-1.7,5.5-6.2c0-5.1-1.8-7.3-5.5-7.3h-2.3V22.3z M93,38.2h2.9V8.8H93V8h14c4.9,0,10.2,2.2,10.2,7.3c0,4.7-4.8,6.7-9,7
			v0.1c6,0,10.8,2.8,10.8,8.1c0,4.8-4.3,8.5-12.5,8.5H93V38.2z"/>
	</defs>
	<clipPath id="SVGID_4_">
		<use xlink:href="#SVGID_3_"  style="overflow:visible;"/>
	</clipPath>
	<rect x="88" y="3" style="clip-path:url(#SVGID_4_);fill:#FFFFFF;" width="36" height="41"/>
</g>
<g>
	<defs>
		<path id="SVGID_5_" d="M137,28.5l-3.8-10.9h-0.1l-3.9,10.9H137z M122,38.2h0.6c1.6-0.1,2.4-1.2,2.9-2.6L135.6,8h0.7l11.6,30.2h2.1
			V39h-12.9v-0.8h3.5l-3.2-9h-8.4l-2.1,6.1c-0.1,0.3-0.3,0.8-0.3,1.3c0,1.4,1.2,1.6,2.1,1.6h1.2V39H122V38.2z"/>
	</defs>
	<clipPath id="SVGID_6_">
		<use xlink:href="#SVGID_5_"  style="overflow:visible;"/>
	</clipPath>
	<rect x="117" y="3" style="clip-path:url(#SVGID_6_);fill:#FFFFFF;" width="38" height="41"/>
</g>
<g>
	<defs>
		<polygon id="SVGID_7_" points="19,19 19,10 28,10 		"/>
	</defs>
	<clipPath id="SVGID_8_">
		<use xlink:href="#SVGID_7_"  style="overflow:visible;"/>
	</clipPath>
	<rect x="14" y="5" style="clip-path:url(#SVGID_8_);fill:#FFFFFF;" width="19" height="19"/>
</g>
<g>
	<defs>
		<rect id="SVGID_9_" x="9" y="10" width="9" height="9"/>
	</defs>
	<clipPath id="SVGID_10_">
		<use xlink:href="#SVGID_9_"  style="overflow:visible;"/>
	</clipPath>
	<rect x="4" y="5" style="clip-path:url(#SVGID_10_);fill:#FFFFFF;" width="19" height="19"/>
</g>
<g>
	<defs>
		<rect id="SVGID_11_" x="29" y="10" width="9" height="9"/>
	</defs>
	<clipPath id="SVGID_12_">
		<use xlink:href="#SVGID_11_"  style="overflow:visible;"/>
	</clipPath>
	<rect x="24" y="5" style="clip-path:url(#SVGID_12_);fill:#FFFFFF;" width="19" height="19"/>
</g>
<g>
	<defs>
		<path id="SVGID_13_" d="M23.5,0C21,0,19,1.9,19,4.3V8h9V4.3C28,1.9,26,0,23.5,0"/>
	</defs>
	<clipPath id="SVGID_14_">
		<use xlink:href="#SVGID_13_"  style="overflow:visible;"/>
	</clipPath>
	<rect x="14" y="-5" style="clip-path:url(#SVGID_14_);fill:#FFFFFF;" width="19" height="18"/>
</g>
<g>
	<defs>
		<rect id="SVGID_15_" x="29" y="29" width="9" height="9"/>
	</defs>
	<clipPath id="SVGID_16_">
		<use xlink:href="#SVGID_15_"  style="overflow:visible;"/>
	</clipPath>
	<rect x="24" y="24" style="clip-path:url(#SVGID_16_);fill:#FFFFFF;" width="19" height="19"/>
</g>
<g>
	<defs>
		<polygon id="SVGID_17_" points="28,29 28,38 19,38 		"/>
	</defs>
	<clipPath id="SVGID_18_">
		<use xlink:href="#SVGID_17_"  style="overflow:visible;"/>
	</clipPath>
	<rect x="14" y="24" style="clip-path:url(#SVGID_18_);fill:#FFFFFF;" width="19" height="19"/>
</g>
<g>
	<defs>
		<rect id="SVGID_19_" x="9" y="29" width="9" height="9"/>
	</defs>
	<clipPath id="SVGID_20_">
		<use xlink:href="#SVGID_19_"  style="overflow:visible;"/>
	</clipPath>
	<rect x="4" y="24" style="clip-path:url(#SVGID_20_);fill:#FFFFFF;" width="19" height="19"/>
</g>
<g>
	<defs>
		<path id="SVGID_21_" d="M23.5,47c2.5,0,4.5-1.9,4.5-4.3V39h-9v3.7C19,45.1,21,47,23.5,47"/>
	</defs>
	<clipPath id="SVGID_22_">
		<use xlink:href="#SVGID_21_"  style="overflow:visible;"/>
	</clipPath>
	<rect x="14" y="34" style="clip-path:url(#SVGID_22_);fill:#FFFFFF;" width="19" height="18"/>
</g>
<g>
	<defs>
		<polygon id="SVGID_23_" points="29,19 38,19 38,28 		"/>
	</defs>
	<clipPath id="SVGID_24_">
		<use xlink:href="#SVGID_23_"  style="overflow:visible;"/>
	</clipPath>
	<rect x="24" y="14" style="clip-path:url(#SVGID_24_);fill:#FFFFFF;" width="19" height="19"/>
</g>
<g>
	<defs>
		<path id="SVGID_25_" d="M47,23.5c0-2.5-1.9-4.5-4.3-4.5H39v9h3.7C45.1,28,47,26,47,23.5"/>
	</defs>
	<clipPath id="SVGID_26_">
		<use xlink:href="#SVGID_25_"  style="overflow:visible;"/>
	</clipPath>
	<rect x="34" y="14" style="clip-path:url(#SVGID_26_);fill:#FFFFFF;" width="18" height="19"/>
</g>
<g>
	<defs>
		<polygon id="SVGID_27_" points="18,28 9,28 9,19 		"/>
	</defs>
	<clipPath id="SVGID_28_">
		<use xlink:href="#SVGID_27_"  style="overflow:visible;"/>
	</clipPath>
	<rect x="4" y="14" style="clip-path:url(#SVGID_28_);fill:#FFFFFF;" width="19" height="19"/>
</g>
<g>
	<defs>
		<path id="SVGID_29_" d="M0,23.5C0,26,1.9,28,4.3,28H8v-9H4.3C1.9,19,0,21,0,23.5"/>
	</defs>
	<clipPath id="SVGID_30_">
		<use xlink:href="#SVGID_29_"  style="overflow:visible;"/>
	</clipPath>
	<rect x="-5" y="14" style="clip-path:url(#SVGID_30_);fill:#FFFFFF;" width="18" height="19"/>
</g>
<g>
	<defs>
		<rect id="SVGID_31_" x="19" y="19" width="9" height="9"/>
	</defs>
	<clipPath id="SVGID_32_">
		<use xlink:href="#SVGID_31_"  style="overflow:visible;"/>
	</clipPath>
	<rect x="14" y="14" style="clip-path:url(#SVGID_32_);fill:#E6B10E;" width="19" height="19"/>
</g>
<g>
	<defs>
		<path id="SVGID_33_" d="M173.1,28.9c0,4.1-2.2,8.3-7.2,8.3c-4.3,0-7.1-3.3-7.1-8.3c0-4,2.2-8.3,7.1-8.3
			C170.9,20.6,173.1,24.8,173.1,28.9z M173.2,19.5v3.6c-1.2-2.5-4-4.1-7.2-4.1c-6.2,0-8.9,5-8.9,9.9c0,6.2,3.3,9.9,8.9,9.9
			c3.2,0,5.7-1.4,7.2-4.1v4c0,2.5-0.9,6.8-7,6.8c-3.7,0-6-1.7-6.3-4.7l0-0.2H158l0,0.2c0.2,4.1,3,6.3,8.1,6.3c0.2,0,0.3,0,0.5,0
			c5.5,0,8.5-3.1,8.5-8.7V19.5H173.2z"/>
	</defs>
	<clipPath id="SVGID_34_">
		<use xlink:href="#SVGID_33_"  style="overflow:visible;"/>
	</clipPath>
	<rect x="152" y="14" style="clip-path:url(#SVGID_34_);fill:#FFFFFF;" width="28" height="38"/>
</g>
<g>
	<defs>
		<path id="SVGID_35_" d="M190.8,20c-3.5-0.1-6.8,1.6-7.9,4v-3.9H181V40h1.9V29.2c0.2-3,0.8-4.1,2.3-5.5c1.8-1.7,3.8-1.9,4.9-1.9
			c0.3,0,0.5,0,0.8,0l0.2,0V20L190.8,20z"/>
	</defs>
	<clipPath id="SVGID_36_">
		<use xlink:href="#SVGID_35_"  style="overflow:visible;"/>
	</clipPath>
	<rect x="176" y="15" style="clip-path:url(#SVGID_36_);fill:#FFFFFF;" width="20" height="30"/>
</g>
<g>
	<defs>
		<path id="SVGID_37_" d="M206.9,28.5v3.3c0,0.1-0.2,6.5-7.1,6.5c-3.1,0-5-1.6-5-4.1c0-2.6,1.6-4,5.2-4.4c0.7-0.1,1.5-0.2,2.2-0.2
			C204.1,29.5,205.9,29.3,206.9,28.5z M210.8,37.8c-0.5,0.1-0.8,0.1-1,0.1c-1,0-1.1-0.9-1.1-2.2V24.3c0-4.4-3.8-5.3-7-5.3
			c-4.8,0-7.4,2.3-7.6,6.7l0,0.2h1.8l0-0.2c0.2-3.2,2.3-5.1,5.8-5.1c4.4,0,5.3,2.9,5.3,3.7c0,3,0,3.5-6.6,3.9
			c-3.1,0.3-7.3,1.2-7.3,6c0,3.8,2.3,5.7,6.7,5.7c3.8,0,6.2-2,7.2-3.9v0.4c0,1.6,0.3,3,2.8,3c0.4,0,0.7-0.1,1.1-0.1l0.2,0v-1.6
			L210.8,37.8z"/>
	</defs>
	<clipPath id="SVGID_38_">
		<use xlink:href="#SVGID_37_"  style="overflow:visible;"/>
	</clipPath>
	<rect x="188" y="14" style="clip-path:url(#SVGID_38_);fill:#FFFFFF;" width="28" height="31"/>
</g>
<g>
	<defs>
		<path id="SVGID_39_" d="M231.2,29.7c0,4.3-1.9,9-7.3,9c-5.9,0-7.1-4.9-7.1-9c0-2.1,0.5-9.1,7.1-9.1
			C229.3,20.6,231.2,25.5,231.2,29.7 M223.9,19c-4.1,0-6.3,2.6-7.1,4.5v-4H215V47h1.8V36.2c1.2,2.7,3.7,4.1,7.1,4.1
			c5.7,0,9.1-4,9.1-10.6C233,23.2,229.4,19,223.9,19"/>
	</defs>
	<clipPath id="SVGID_40_">
		<use xlink:href="#SVGID_39_"  style="overflow:visible;"/>
	</clipPath>
	<rect x="210" y="14" style="clip-path:url(#SVGID_40_);fill:#FFFFFF;" width="28" height="38"/>
</g>
<g>
	<defs>
		<path id="SVGID_41_" d="M247.8,19.3c-3.1,0-5.8,1.7-7,4.2V12H239v28h1.8V29.1c0-5,2.7-8.2,6.9-8.2c5.5,0,5.5,4.8,5.5,6.3V40h1.8
			V27.5C255,25.3,255,19.3,247.8,19.3"/>
	</defs>
	<clipPath id="SVGID_42_">
		<use xlink:href="#SVGID_41_"  style="overflow:visible;"/>
	</clipPath>
	<rect x="234" y="7" style="clip-path:url(#SVGID_42_);fill:#FFFFFF;" width="26" height="38"/>
</g>
<g>
	<defs>
		<rect id="SVGID_43_" x="261" y="20" width="2" height="20"/>
	</defs>
	<clipPath id="SVGID_44_">
		<use xlink:href="#SVGID_43_"  style="overflow:visible;"/>
	</clipPath>
	<rect x="256" y="15" style="clip-path:url(#SVGID_44_);fill:#FFFFFF;" width="12" height="30"/>
</g>
<g>
	<defs>
		<rect id="SVGID_45_" x="261" y="12" width="2" height="4"/>
	</defs>
	<clipPath id="SVGID_46_">
		<use xlink:href="#SVGID_45_"  style="overflow:visible;"/>
	</clipPath>
	<rect x="256" y="7" style="clip-path:url(#SVGID_46_);fill:#FFFFFF;" width="12" height="14"/>
</g>
<g>
	<defs>
		<path id="SVGID_47_" d="M284.2,32.2l0,0.1c-0.5,3.6-3.2,6-6.8,6c-4.7,0-7.5-3.4-7.5-9.1c0-4.3,2.6-8.7,7.5-8.7
			c3.8,0,6.4,2,6.6,5.1l0,0.2h1.8l0-0.2c-0.4-4.2-3.5-6.7-8.4-6.7c-5.5,0-9.4,4.2-9.4,10.3c0,5.2,2.5,10.7,9.4,10.7
			c4.6,0,8-3,8.6-7.6l0-0.2H284.2z"/>
	</defs>
	<clipPath id="SVGID_48_">
		<use xlink:href="#SVGID_47_"  style="overflow:visible;"/>
	</clipPath>
	<rect x="263" y="14" style="clip-path:url(#SVGID_48_);fill:#FFFFFF;" width="28" height="31"/>
</g>
<g>
	<defs>
		<path id="SVGID_49_" d="M299.9,28.4l-0.6-0.1c-3-0.6-5.8-1.2-5.8-4c0-2.7,2.8-3.6,5.5-3.6c2.1,0,5.6,0.6,5.7,4.9l0,0.2h1.8v-0.2
			c0-4.2-2.6-6.5-7.4-6.5c-1.7,0-7.3,0.4-7.3,5.2c0,4.4,4,5.2,6.9,5.8l0.5,0.1c3.1,0.6,6.1,1.2,6.1,4.3c0,3.6-4.2,4-6.1,4
			c-3.6,0-6.1-2.2-6.3-5.6l0-0.2H291l0,0.2c0.1,4.4,3.2,7.2,8.1,7.2c1.8,0,7.9-0.4,7.9-5.6C307,30.1,303.8,29.1,299.9,28.4"/>
	</defs>
	<clipPath id="SVGID_50_">
		<use xlink:href="#SVGID_49_"  style="overflow:visible;"/>
	</clipPath>
	<rect x="286" y="14" style="clip-path:url(#SVGID_50_);fill:#FFFFFF;" width="26" height="31"/>
</g>
</svg>
