<?xml version="1.0" encoding="utf-8"?>
<!-- Generator: Adobe Illustrator 16.0.3, SVG Export Plug-In . SVG Version: 6.00 Build 0)  -->
<!DOCTYPE svg PUBLIC "-//W3C//DTD SVG 1.1//EN" "http://www.w3.org/Graphics/SVG/1.1/DTD/svg11.dtd">
<svg version="1.1" id="Layer_1" xmlns="http://www.w3.org/2000/svg" xmlns:xlink="http://www.w3.org/1999/xlink" x="0px" y="0px"
	 width="612px" height="792px" viewBox="0 0 612 792" enable-background="new 0 0 612 792" xml:space="preserve">
<g>
	<g>
		<defs>
			<path id="SVGID_1_" d="M612,379.777c-1.758,3.109-3.109,6.624-5.272,9.463c-2.974,3.785-6.354,7.3-9.733,10.815
				c-1.758,1.758-1.893,2.298,0,3.921c1.622,1.216,3.65,2.027,5.543,2.974c0.811,0.405,1.757,0.405,1.486,1.622
				c-0.27,1.217-0.811,1.893-2.162,1.758c-3.65-0.271-6.76-1.758-9.193-4.326c-1.217-1.217-2.027-1.352-3.38-0.405
				c-5.137,3.38-11.085,4.597-17.033,5.407c-2.434,0.271-4.867,0.676-7.03-0.811c-0.405-0.271-1.217,0.135-1.758,0.27
				c-2.162,0.406-4.325,1.082-6.488,1.353c-2.028,0.135-3.516-0.946-4.056-2.975c-0.271-1.081-0.812-1.217-1.893-1.081
				c-4.326,0.946-8.652,2.027-12.979,2.839c-1.893,0.405-3.921,0.541-5.813,0.405c-2.974,0-3.244-0.405-3.785-3.65
				c-1.081,0.136-2.298,0.136-3.515,0.406c-5.407,1.352-10.68,2.703-16.358,2.568c-5.137-0.135-8.517-2.704-9.192-6.76
				c-0.135-1.217-0.271-2.568-0.405-4.19c-0.946,0.946-1.758,1.487-2.434,2.163c-5.137,5.137-11.762,7.029-18.656,8.382
				c-1.757,0.271-3.65,0.676-5.407,0.811c-1.893,0.271-3.515-0.54-4.461-2.298c-0.541-0.946-1.082-0.946-1.894-0.812
				c-5.542,1.217-11.22,2.299-16.763,3.38c-1.217,0.271-2.568,0.405-3.785,0.541c-2.028,0.135-2.569-0.541-2.028-2.434
				c0.136-0.405,0.271-0.946,0.676-1.758c-1.081,0.136-2.027,0.271-2.839,0.406c-6.083,1.486-12.167,3.244-18.386,3.109
				c-1.757,0-3.38,0-5.137-0.271c-1.082-0.136-2.163-0.676-2.839-1.353c-1.353-1.486-2.839-1.486-4.597-1.081
				c-3.65,0.812-7.3,1.487-10.95,1.893c-4.056,0.405-7.165-1.487-9.193-5.272c-0.54,0.405-1.081,0.812-1.486,1.217
				c-3.109,2.568-6.625,4.056-10.681,4.867c-2.839,0.54-5.002-0.271-6.488-2.839c-0.271-0.406-0.406-0.677-0.677-1.082
				c-3.515,0.946-7.029,2.163-10.544,2.839c-3.38,0.676-6.76,0.946-10.14,1.217c-1.757,0.136-2.839-0.676-2.974-2.434
				c-0.136-1.486-1.082-1.486-2.163-1.217c-2.839,0.677-5.543,1.487-8.382,2.028c-2.975,0.541-5.948,0.676-8.787,0.946
				c-1.082,0.135-2.028,0.405-2.975,0.541c-1.758,0.405-3.65,1.081-5.407,1.352c-4.056,0.676-5.678-1.081-4.867-5.002
				c-3.244,0.946-6.489,1.893-9.869,2.568c-5.137,1.082-10.41,1.758-15.817,0.946c-1.082-0.135-2.163-0.811-2.974-1.487
				c-1.217-1.081-2.434-1.352-4.056-1.081c-0.947,0.271-1.893,0.405-2.839,0.405c-0.541,0-1.622-0.676-1.487-0.946
				c0.135-0.676,0.541-1.487,1.082-2.027c0.27-0.271,1.082-0.136,1.622-0.271c2.028-0.271,3.65-0.812,4.867-2.839
				c1.893-3.515,9.193-5.813,13.113-4.326c2.298,0.812,2.974,2.974,1.487,4.731c-0.946,1.082-2.298,1.893-3.65,2.434
				c-1.623,0.676-3.515,0.946-5.272,1.487c-0.135,0-0.135,0.135-0.406,0.405c0.676,0.135,1.217,0.405,1.757,0.405
				c4.326-0.405,8.652-0.405,12.843-1.217c5.272-1.081,10.274-2.839,15.546-4.056c2.028-0.405,4.056-0.54,6.084-0.54
				c2.839,0,3.92,1.217,3.92,4.056c0,0.405,0.136,0.811,0.136,1.486c7.841-1.217,15.276-4.325,23.252-4.19
				c0.676,2.298-1.352,3.244-2.433,4.597c0.135,0.135,0.135,0.271,0.27,0.405c4.191-0.812,8.518-1.487,12.573-2.704
				c4.866-1.352,9.598-3.515,14.465-4.866c3.109-0.812,6.489-0.676,9.733-1.217c0.676-0.136,1.758-0.676,1.893-1.217
				c2.163-7.571,6.489-13.924,10.95-20.414c0.677-1.082,2.028-1.757,3.245-2.298c1.487-0.676,2.568,0,2.298,1.623
				c-0.271,1.757-0.405,3.515-1.217,5.002c-2.974,5.272-6.219,10.409-9.463,15.412c-1.217,1.893-1.893,3.785-1.081,5.948
				c0.676,1.622,1.757,2.839,3.649,2.974c1.893,0.136,3.785,0,5.543-0.271c2.163-0.27,4.19-0.676,6.219-1.352
				c1.081-0.405,2.434-1.081,2.975-2.027c1.893-3.785,9.058-6.219,13.383-5.002c2.434,0.676,3.245,3.109,1.487,5.002
				c-0.946,1.081-2.434,1.757-3.785,2.298c-1.622,0.676-3.244,0.946-4.867,1.487c-0.135,0-0.27,0.271-0.811,0.811
				c3.109,0,5.948,0.406,8.517-0.135c5.407-0.812,10.68-2.163,16.088-3.244c1.757-0.271,3.515-0.406,5.272-0.406
				c1.352,0,2.163,0.406,2.298,1.893c0.135,1.893,1.758,1.217,2.704,1.082c3.379-0.541,6.759-1.217,10.139-1.893
				c2.299-0.406,4.597-0.946,6.895-1.487c1.623-0.405,2.704,0.135,2.975,1.758c0.135,1.486,1.081,1.622,2.298,1.622
				c3.515,0,6.895-0.812,10.004-2.299c8.111-3.92,13.654-10.409,18.386-18.385c-1.217-0.135-2.298-0.271-3.244-0.271
				c-1.758-0.135-3.515-0.135-5.272-0.405c-0.541-0.135-0.946-0.946-1.487-1.352c0.676-0.541,1.217-1.352,1.893-1.352
				c2.434-0.135,4.867-0.27,7.301,0c2.568,0.271,4.461-0.676,5.813-2.839c1.082-1.622,2.434-3.245,3.65-4.731
				c0.676-0.811,1.487-1.757,2.434-2.028c0.811-0.271,2.163-0.271,2.839,0.271c0.946,0.676,0.812,1.893,0.135,2.974
				c-1.081,1.487-2.163,2.974-3.244,4.326c-0.405,0.541-0.812,1.082-1.217,1.623c1.622,0.541,3.109,0.946,4.597,1.352
				c-0.812,1.893-2.028,2.163-3.245,1.893c-2.974-0.406-4.866,0.811-6.083,3.379c-1.758,3.38-3.921,6.625-5.272,10.139
				c-2.028,5.138,0.812,8.787,6.354,8.247c4.597-0.541,9.193-1.758,13.79-2.569c2.974-0.54,6.083-0.946,9.192-1.352
				c0.541-0.135,1.217,0.405,1.893,0.676c-0.271,0.676-0.405,1.487-0.812,2.163c-0.405,0.541-1.081,1.082-1.622,1.622
				c0,0.136,0.136,0.271,0.136,0.406c1.757-0.271,3.515-0.541,5.272-0.946c8.787-1.894,17.709-3.921,26.497-5.813
				c0.54-0.136,1.216-0.136,1.757-0.271c3.109-0.135,4.326,1.217,3.785,4.19c-0.135,0.677-0.271,1.353-0.405,2.163
				c0.812,0,1.622,0.271,2.298,0.136c4.867-1.353,9.734-2.839,14.601-4.326c2.028-0.676,2.704-2.298,2.975-4.326
				c0.811-5.137,2.027-10.274,4.731-14.871c2.027-3.38,4.056-6.489,6.354-9.734c1.487-2.163,3.921-2.568,6.489-2.433
				c2.298,0.135,3.65,1.352,4.326,3.379v4.597H612z M594.561,397.622c0.676-0.541,1.082-0.811,1.487-1.081
				c2.434-2.704,5.137-5.408,7.436-8.247c2.433-2.974,4.866-6.219,5.678-10.139c0.271-1.487,0.405-3.109-1.217-3.786
				c-1.487-0.541-2.568,0.811-3.38,2.028c-2.298,3.65-4.597,7.436-6.76,11.221C596.183,390.592,594.831,393.702,594.561,397.622z
				 M388.533,402.895c-0.677-0.271-0.946-0.405-1.082-0.405c-3.244,0.811-6.489,1.622-9.733,2.434
				c-0.405,0.135-0.676,0.54-0.812,0.946c-0.676,1.081-0.405,1.893,0.946,1.893C381.908,407.762,385.288,405.869,388.533,402.895z
				 M317.153,406.545c0,0.271,0,0.405,0,0.676c2.163,0.135,4.461,0.405,6.624,0.541c0.541,0,0.946-0.676,1.487-1.082
				c-0.541-0.405-0.946-1.217-1.487-1.217C321.344,404.923,319.181,405.328,317.153,406.545z M565.63,404.517
				c-2.568,0.812-5.137,1.758-7.841,2.704C559.411,408.843,563.603,407.355,565.63,404.517z M296.469,401.543
				c-1.757-0.676-5.678,0.271-7.03,1.757C292.143,403.706,294.171,402.76,296.469,401.543z M425.034,401.407
				c-2.028-0.676-5.272,0.541-6.76,2.704C420.708,403.165,422.735,402.354,425.034,401.407z"/>
		</defs>
		<use xlink:href="#SVGID_1_"  overflow="visible" fill="#E6B10E"/>
		<clipPath id="SVGID_2_">
			<use xlink:href="#SVGID_1_"  overflow="visible"/>
		</clipPath>
		<rect x="271.054" y="365.177" clip-path="url(#SVGID_2_)" fill="#E6B10E" width="347.706" height="54.076"/>
	</g>
</g>
<g>
	<g>
		<defs>
			<path id="SVGID_3_" d="M271.459,361.662c1.352,0.271,2.839,0.676,4.19,0.946c7.571,1.893,11.356,6.219,11.491,13.249
				c0.135,6.624-3.92,12.167-10.815,14.33c-1.758,0.541-3.65,0.946-5.678,1.487c0.271,0.811,0.406,1.623,0.676,2.569
				c4.056,12.032,8.247,23.928,12.302,35.96c0.135,0.54,0.541,1.081,0.541,1.757s-0.271,1.487-0.676,1.758
				c-0.541,0.271-1.623,0-1.893-0.405c-0.676-0.946-1.217-2.028-1.623-3.245c-4.326-11.896-8.517-23.929-12.708-35.825
				c-0.135-0.271-0.135-0.676-0.271-0.811c-0.541-0.812-1.217-1.487-1.757-2.163c-0.676,0.541-1.352,0.946-1.758,1.622
				c-3.515,4.731-6.489,9.869-11.085,13.654c-7.976,6.624-17.304,9.058-27.443,7.029c-7.976-1.622-12.437-9.733-9.733-16.898
				c2.568-6.759,11.491-10.004,17.575-6.354c2.568,1.487,3.379,3.785,3.109,6.624c-0.271,2.704-1.623,4.867-4.191,5.813
				c-1.082,0.405-2.839,0.135-3.65-0.541c-1.216-0.946-0.676-2.568,0.271-3.785c0.406-0.541,1.217-0.946,1.487-1.487
				c0.541-0.946,1.487-2.163,1.216-2.974c-0.405-0.946-1.622-2.028-2.568-2.434c-2.298-0.676-4.461,0-6.354,1.352
				c-6.354,4.19-5.948,12.167,0.811,15.952c4.867,2.839,9.869,2.299,14.736,0.136c6.624-2.84,11.896-7.436,16.898-12.438
				c2.028-2.028,3.92-4.326,5.948-6.489c1.082-1.217,0.946-2.163,0-3.38s-1.893-0.676-2.839-0.135
				c-4.326,2.569-8.922,4.326-13.924,5.137c-5.408,0.811-8.922-2.704-8.111-7.976c0.811-5.137,3.92-8.787,7.57-12.032
				c5.949-5.543,12.979-8.652,20.955-9.733c0.405,0,0.811-0.271,1.217-0.406h6.083V361.662z M280.922,371.666
				c-1.487,1.217-2.974,2.298-4.326,3.65c-2.569,2.704-5.137,5.678-7.571,8.517c-1.082,1.352-0.811,2.839,0,4.056
				c0.946,1.352,2.163,0.541,3.245,0.135c4.461-1.757,7.57-4.867,9.733-9.058c3.515-6.895,2.028-10.95-5.542-12.978
				c-12.708-3.38-23.929-0.271-33.257,8.922c-2.433,2.433-4.596,5.002-5.678,8.381c-0.946,3.245,0.541,5.408,3.785,5.272
				c1.893,0,3.92-0.405,5.678-1.082c2.568-1.082,4.867-2.568,7.165-3.785c2.163-1.217,3.244-2.839,3.379-5.408
				c0.135-2.839,1.487-3.785,4.191-3.109c1.757,0.406,2.569-0.27,3.515-1.622c1.216-1.622,2.568-2.974,3.785-4.326
				c0.135,0.135,0.271,0.271,0.541,0.406c-0.27,0.946-0.405,2.028-0.811,2.974c-0.676,1.487-1.487,2.974-2.433,4.461
				c-1.082,1.893-0.946,2.568,0.811,4.191c0.676-0.812,1.352-1.487,2.028-2.298c2.704-3.109,5.542-5.948,9.058-7.976
				C279.3,370.314,280.111,370.179,280.922,371.666z M262.807,382.616c-1.217,1.082-1.082,2.028,0.135,3.109
				C264.43,384.509,264.024,383.563,262.807,382.616z"/>
		</defs>
		<use xlink:href="#SVGID_3_"  overflow="visible" fill="#E6B10E"/>
		<clipPath id="SVGID_4_">
			<use xlink:href="#SVGID_3_"  overflow="visible"/>
		</clipPath>
		<rect x="207.38" y="354.902" clip-path="url(#SVGID_4_)" fill="#E6B10E" width="86.521" height="85.439"/>
	</g>
</g>
<g>
	<g>
		<defs>
			<path id="SVGID_5_" d="M357.169,398.027c-1.622-0.135-2.434-1.486-1.758-2.568c0.541-0.946,1.353-1.757,2.163-2.433
				c0.406-0.271,1.758,0.271,1.758,0.541c0.135,0.812,0,1.893-0.541,2.568C358.521,396.946,357.574,397.487,357.169,398.027"/>
		</defs>
		<use xlink:href="#SVGID_5_"  overflow="visible" fill="#E6B10E"/>
		<clipPath id="SVGID_6_">
			<use xlink:href="#SVGID_5_"  overflow="visible"/>
		</clipPath>
		<rect x="348.382" y="386.131" clip-path="url(#SVGID_6_)" fill="#E6B10E" width="17.71" height="18.656"/>
	</g>
</g>
<g>
	<g>
		<defs>
			<path id="SVGID_7_" d="M537.24,397.893c-1.217,0-2.027-1.352-1.352-2.434c0.541-0.946,1.352-1.893,2.298-2.568
				c0.812-0.676,1.623-0.135,2.028,0.811C540.62,394.918,538.728,397.893,537.24,397.893"/>
		</defs>
		<use xlink:href="#SVGID_7_"  overflow="visible" fill="#E6B10E"/>
		<clipPath id="SVGID_8_">
			<use xlink:href="#SVGID_7_"  overflow="visible"/>
		</clipPath>
		<rect x="528.859" y="385.861" clip-path="url(#SVGID_8_)" fill="#E6B10E" width="18.115" height="18.926"/>
	</g>
</g>
<g>
	<g>
		<defs>
			<polygon id="SVGID_9_" points="77.599,411.276 82.601,411.276 82.601,370.72 77.599,370.72 77.599,369.503 97.065,369.503 
				97.065,370.72 92.063,370.72 92.063,389.241 108.016,389.241 108.016,370.72 103.014,370.72 103.014,369.503 122.481,369.503 
				122.481,370.72 117.479,370.72 117.479,411.276 122.481,411.276 122.481,412.357 103.014,412.357 103.014,411.276 
				108.016,411.276 108.016,390.322 92.063,390.322 92.063,411.276 97.065,411.276 97.065,412.357 77.599,412.357 			"/>
		</defs>
		<use xlink:href="#SVGID_9_"  overflow="visible" fill="#E6B10E"/>
		<clipPath id="SVGID_10_">
			<use xlink:href="#SVGID_9_"  overflow="visible"/>
		</clipPath>
		<rect x="70.839" y="362.744" clip-path="url(#SVGID_10_)" fill="#E6B10E" width="58.267" height="56.239"/>
	</g>
</g>
<g>
	<g>
		<defs>
			<path id="SVGID_11_" d="M143.706,411.276h2.839c6.218,0,9.463-3.109,9.463-10.545c0-6.489-3.109-10.409-8.517-10.409h-3.786
				V411.276z M143.706,389.241h3.245c3.65,0,7.571-2.298,7.571-8.517c0-7.03-2.569-10.004-7.706-10.004h-3.244v18.521H143.706z
				 M130.052,411.276h4.056V370.72h-4.056v-1.217h19.467c6.759,0,14.195,2.974,14.195,10.139c0,6.489-6.625,9.193-12.573,9.734
				v0.135c8.382,0,15.006,3.921,15.006,11.221c0,6.624-5.948,11.626-17.304,11.626h-18.791V411.276z"/>
		</defs>
		<use xlink:href="#SVGID_11_"  overflow="visible" fill="#E6B10E"/>
		<clipPath id="SVGID_12_">
			<use xlink:href="#SVGID_11_"  overflow="visible"/>
		</clipPath>
		<rect x="123.292" y="362.744" clip-path="url(#SVGID_12_)" fill="#E6B10E" width="49.614" height="56.239"/>
	</g>
</g>
<g>
	<g>
		<defs>
			<path id="SVGID_13_" d="M191.563,397.758l-5.137-15.006h-0.135l-5.272,15.006H191.563z M170.879,411.276h0.811
				c2.298-0.135,3.379-1.622,4.056-3.515l13.789-38.124h0.946l15.953,41.638h2.974v1.081h-17.71v-1.081h4.731l-4.326-12.302h-11.626
				l-2.839,8.381c-0.135,0.541-0.406,1.082-0.406,1.758c0,1.893,1.623,2.163,2.839,2.163h1.622v1.081h-10.815V411.276
				L170.879,411.276z"/>
		</defs>
		<use xlink:href="#SVGID_13_"  overflow="visible" fill="#E6B10E"/>
		<clipPath id="SVGID_14_">
			<use xlink:href="#SVGID_13_"  overflow="visible"/>
		</clipPath>
		<rect x="164.119" y="362.744" clip-path="url(#SVGID_14_)" fill="#E6B10E" width="52.048" height="56.239"/>
	</g>
</g>
<g>
	<g>
		<defs>
			<polygon id="SVGID_15_" points="26.632,383.292 26.632,371.125 38.799,371.125 			"/>
		</defs>
		<use xlink:href="#SVGID_15_"  overflow="visible" fill="#E6B10E"/>
		<clipPath id="SVGID_16_">
			<use xlink:href="#SVGID_15_"  overflow="visible"/>
		</clipPath>
		<rect x="19.873" y="364.366" clip-path="url(#SVGID_16_)" fill="#E6B10E" width="25.686" height="25.686"/>
	</g>
</g>
<g>
	<g>
		<defs>
			<rect id="SVGID_17_" x="12.843" y="371.125" width="12.167" height="12.167"/>
		</defs>
		<use xlink:href="#SVGID_17_"  overflow="visible" fill="#E6B10E"/>
		<clipPath id="SVGID_18_">
			<use xlink:href="#SVGID_17_"  overflow="visible"/>
		</clipPath>
		<rect x="6.083" y="364.366" clip-path="url(#SVGID_18_)" fill="#E6B10E" width="25.686" height="25.686"/>
	</g>
</g>
<g>
	<g>
		<defs>
			<rect id="SVGID_19_" x="40.421" y="371.125" width="12.167" height="12.167"/>
		</defs>
		<use xlink:href="#SVGID_19_"  overflow="visible" fill="#E6B10E"/>
		<clipPath id="SVGID_20_">
			<use xlink:href="#SVGID_19_"  overflow="visible"/>
		</clipPath>
		<rect x="33.662" y="364.366" clip-path="url(#SVGID_20_)" fill="#E6B10E" width="25.686" height="25.686"/>
	</g>
</g>
<g>
	<g>
		<defs>
			<path id="SVGID_21_" d="M32.716,358.417c-3.38,0-6.083,2.704-6.083,6.083v5.137h12.167v-5.137
				C38.799,361.121,36.095,358.417,32.716,358.417"/>
		</defs>
		<use xlink:href="#SVGID_21_"  overflow="visible" fill="#E6B10E"/>
		<clipPath id="SVGID_22_">
			<use xlink:href="#SVGID_21_"  overflow="visible"/>
		</clipPath>
		<rect x="19.873" y="351.658" clip-path="url(#SVGID_22_)" fill="#E6B10E" width="25.686" height="24.604"/>
	</g>
</g>
<g>
	<g>
		<defs>
			<rect id="SVGID_23_" x="40.421" y="398.568" width="12.167" height="12.167"/>
		</defs>
		<use xlink:href="#SVGID_23_"  overflow="visible" fill="#E6B10E"/>
		<clipPath id="SVGID_24_">
			<use xlink:href="#SVGID_23_"  overflow="visible"/>
		</clipPath>
		<rect x="33.662" y="391.809" clip-path="url(#SVGID_24_)" fill="#E6B10E" width="25.686" height="25.686"/>
	</g>
</g>
<g>
	<g>
		<defs>
			<polygon id="SVGID_25_" points="38.799,398.568 38.799,410.735 26.632,410.735 			"/>
		</defs>
		<use xlink:href="#SVGID_25_"  overflow="visible" fill="#E6B10E"/>
		<clipPath id="SVGID_26_">
			<use xlink:href="#SVGID_25_"  overflow="visible"/>
		</clipPath>
		<rect x="19.873" y="391.809" clip-path="url(#SVGID_26_)" fill="#E6B10E" width="25.686" height="25.686"/>
	</g>
</g>
<g>
	<g>
		<defs>
			<rect id="SVGID_27_" x="12.843" y="398.568" width="12.167" height="12.167"/>
		</defs>
		<use xlink:href="#SVGID_27_"  overflow="visible" fill="#E6B10E"/>
		<clipPath id="SVGID_28_">
			<use xlink:href="#SVGID_27_"  overflow="visible"/>
		</clipPath>
		<rect x="6.083" y="391.809" clip-path="url(#SVGID_28_)" fill="#E6B10E" width="25.686" height="25.686"/>
	</g>
</g>
<g>
	<g>
		<defs>
			<path id="SVGID_29_" d="M32.716,423.443c3.379,0,6.083-2.704,6.083-6.084v-5.137H26.632v5.137
				C26.632,420.739,29.336,423.443,32.716,423.443"/>
		</defs>
		<use xlink:href="#SVGID_29_"  overflow="visible" fill="#E6B10E"/>
		<clipPath id="SVGID_30_">
			<use xlink:href="#SVGID_29_"  overflow="visible"/>
		</clipPath>
		<rect x="19.873" y="405.599" clip-path="url(#SVGID_30_)" fill="#E6B10E" width="25.686" height="24.604"/>
	</g>
</g>
<g>
	<g>
		<defs>
			<polygon id="SVGID_31_" points="40.421,384.915 52.588,384.915 52.588,396.946 			"/>
		</defs>
		<use xlink:href="#SVGID_31_"  overflow="visible" fill="#E6B10E"/>
		<clipPath id="SVGID_32_">
			<use xlink:href="#SVGID_31_"  overflow="visible"/>
		</clipPath>
		<rect x="33.662" y="378.155" clip-path="url(#SVGID_32_)" fill="#E6B10E" width="25.686" height="25.686"/>
	</g>
</g>
<g>
	<g>
		<defs>
			<path id="SVGID_33_" d="M65.296,390.998c0-3.38-2.704-6.083-6.083-6.083h-5.137v12.167h5.137
				C62.592,396.946,65.296,394.243,65.296,390.998"/>
		</defs>
		<use xlink:href="#SVGID_33_"  overflow="visible" fill="#E6B10E"/>
		<clipPath id="SVGID_34_">
			<use xlink:href="#SVGID_33_"  overflow="visible"/>
		</clipPath>
		<rect x="47.451" y="378.155" clip-path="url(#SVGID_34_)" fill="#E6B10E" width="24.74" height="25.686"/>
	</g>
</g>
<g>
	<g>
		<defs>
			<polygon id="SVGID_35_" points="25.01,396.946 12.843,396.946 12.843,384.915 			"/>
		</defs>
		<use xlink:href="#SVGID_35_"  overflow="visible" fill="#E6B10E"/>
		<clipPath id="SVGID_36_">
			<use xlink:href="#SVGID_35_"  overflow="visible"/>
		</clipPath>
		<rect x="6.083" y="378.155" clip-path="url(#SVGID_36_)" fill="#E6B10E" width="25.686" height="25.686"/>
	</g>
</g>
<g>
	<g>
		<defs>
			<path id="SVGID_37_" d="M0,390.998c0,3.38,2.704,6.083,6.083,6.083h5.137v-12.167H6.083C2.704,384.915,0,387.618,0,390.998"/>
		</defs>
		<use xlink:href="#SVGID_37_"  overflow="visible" fill="#E6B10E"/>
		<clipPath id="SVGID_38_">
			<use xlink:href="#SVGID_37_"  overflow="visible"/>
		</clipPath>
		<rect x="-6.759" y="378.155" clip-path="url(#SVGID_38_)" fill="#E6B10E" width="24.739" height="25.686"/>
	</g>
</g>
<g>
	<g>
		<defs>
			<rect id="SVGID_39_" x="26.632" y="384.915" width="12.167" height="12.167"/>
		</defs>
		<use xlink:href="#SVGID_39_"  overflow="visible" fill="#FFFFFF"/>
		<clipPath id="SVGID_40_">
			<use xlink:href="#SVGID_39_"  overflow="visible"/>
		</clipPath>
		<rect x="19.873" y="378.155" clip-path="url(#SVGID_40_)" fill="#FFFFFF" width="25.686" height="25.686"/>
	</g>
</g>
</svg>
