<?xml version="1.0" encoding="utf-8"?>
<!-- Generator: Adobe Illustrator 21.1.0, SVG Export Plug-In . SVG Version: 6.00 Build 0)  -->
<svg version="1.1" id="Layer_1" xmlns="http://www.w3.org/2000/svg" xmlns:xlink="http://www.w3.org/1999/xlink" x="0px" y="0px"
	 viewBox="0 0 313.9 56.9" style="enable-background:new 0 0 313.9 56.9;" xml:space="preserve">
<g>
	<defs>
		<polygon id="SVGID_1_" points="67.3,45.9 71.6,45.9 71.6,10.8 67.3,10.8 67.3,9.8 84.1,9.8 84.1,10.8 79.8,10.8 79.8,26.9 
			93.6,26.9 93.6,10.8 89.3,10.8 89.3,9.8 106.1,9.8 106.1,10.8 101.8,10.8 101.8,45.9 106.1,45.9 106.1,46.8 89.3,46.8 89.3,45.9 
			93.6,45.9 93.6,27.8 79.8,27.8 79.8,45.9 84.1,45.9 84.1,46.8 67.3,46.8 		"/>
	</defs>
	<clipPath id="SVGID_2_">
		<use xlink:href="#SVGID_1_"  style="overflow:visible;"/>
	</clipPath>
	<rect x="62.3" y="4.8" style="clip-path:url(#SVGID_2_);fill:#FEFEFE;" width="48.7" height="47"/>
</g>
<g>
	<defs>
		<path id="SVGID_3_" d="M112.6,46.2h3.5V10.7h-3.5v-1h16.8c5.9,0,12.3,2.7,12.3,8.8c0,5.7-5.7,8.1-10.8,8.5v0.1
			c7.2,0,12.9,3.4,12.9,9.8c0,5.8-5.2,10.2-15,10.2h-16.3V46.2z M124.4,27h2.9c3.2,0,6.6-2.1,6.6-7.5c0-6.2-2.2-8.8-6.7-8.8h-2.8V27
			z M124.4,46.2h2.4c5.3,0,8.2-2.7,8.2-9.2c0-5.6-2.7-9.1-7.4-9.1h-3.2V46.2z"/>
	</defs>
	<clipPath id="SVGID_4_">
		<use xlink:href="#SVGID_3_"  style="overflow:visible;"/>
	</clipPath>
	<rect x="107.6" y="4.8" style="clip-path:url(#SVGID_4_);fill:#FEFEFE;" width="41.3" height="47.4"/>
</g>
<g>
	<defs>
		<path id="SVGID_5_" d="M147.9,46.2h0.7c2-0.2,2.9-1.4,3.5-3.1l12-33.4h0.8l13.8,36.5h2.5v0.9h-15.4v-0.9h4.1l-3.8-10.8h-10
			l-2.5,7.3c-0.1,0.4-0.4,1-0.4,1.6c0,1.7,1.4,1.9,2.5,1.9h1.4v0.9h-9.3V46.2z M165.8,34.5l-4.5-13.1h-0.1l-4.6,13.1H165.8z"/>
	</defs>
	<clipPath id="SVGID_6_">
		<use xlink:href="#SVGID_5_"  style="overflow:visible;"/>
	</clipPath>
	<rect x="142.9" y="4.8" style="clip-path:url(#SVGID_6_);fill:#FEFEFE;" width="43.3" height="47.4"/>
</g>
<g>
	<defs>
		<polygon id="SVGID_7_" points="23,21.8 23,11.2 33.6,11.2 		"/>
	</defs>
	<clipPath id="SVGID_8_">
		<use xlink:href="#SVGID_7_"  style="overflow:visible;"/>
	</clipPath>
	<rect x="18" y="6.2" style="clip-path:url(#SVGID_8_);fill:#FEFEFE;" width="20.5" height="20.6"/>
</g>
<g>
	<defs>
		<rect id="SVGID_9_" x="11.1" y="11.2" width="10.5" height="10.6"/>
	</defs>
	<clipPath id="SVGID_10_">
		<use xlink:href="#SVGID_9_"  style="overflow:visible;"/>
	</clipPath>
	<rect x="6.1" y="6.2" style="clip-path:url(#SVGID_10_);fill:#FEFEFE;" width="20.5" height="20.6"/>
</g>
<g>
	<defs>
		<rect id="SVGID_11_" x="34.9" y="11.2" width="10.5" height="10.6"/>
	</defs>
	<clipPath id="SVGID_12_">
		<use xlink:href="#SVGID_11_"  style="overflow:visible;"/>
	</clipPath>
	<rect x="29.9" y="6.2" style="clip-path:url(#SVGID_12_);fill:#FEFEFE;" width="20.5" height="20.6"/>
</g>
<g>
	<defs>
		<path id="SVGID_13_" d="M28.3,0C25.4,0,23,2.4,23,5.3v4.5h10.5V5.3C33.6,2.4,31.2,0,28.3,0"/>
	</defs>
	<clipPath id="SVGID_14_">
		<use xlink:href="#SVGID_13_"  style="overflow:visible;"/>
	</clipPath>
	<rect x="18" y="-5" style="clip-path:url(#SVGID_14_);fill:#FEFEFE;" width="20.5" height="19.8"/>
</g>
<g>
	<defs>
		<rect id="SVGID_15_" x="34.9" y="35.2" width="10.5" height="10.6"/>
	</defs>
	<clipPath id="SVGID_16_">
		<use xlink:href="#SVGID_15_"  style="overflow:visible;"/>
	</clipPath>
	<rect x="29.9" y="30.2" style="clip-path:url(#SVGID_16_);fill:#FEFEFE;" width="20.5" height="20.6"/>
</g>
<g>
	<defs>
		<polygon id="SVGID_17_" points="33.6,35.2 33.6,45.8 23,45.8 		"/>
	</defs>
	<clipPath id="SVGID_18_">
		<use xlink:href="#SVGID_17_"  style="overflow:visible;"/>
	</clipPath>
	<rect x="18" y="30.2" style="clip-path:url(#SVGID_18_);fill:#FEFEFE;" width="20.5" height="20.6"/>
</g>
<g>
	<defs>
		<rect id="SVGID_19_" x="11.1" y="35.2" width="10.5" height="10.6"/>
	</defs>
	<clipPath id="SVGID_20_">
		<use xlink:href="#SVGID_19_"  style="overflow:visible;"/>
	</clipPath>
	<rect x="6.1" y="30.2" style="clip-path:url(#SVGID_20_);fill:#FEFEFE;" width="20.5" height="20.6"/>
</g>
<g>
	<defs>
		<path id="SVGID_21_" d="M28.3,56.9c2.9,0,5.3-2.4,5.3-5.3v-4.5H23v4.5C23,54.5,25.4,56.9,28.3,56.9"/>
	</defs>
	<clipPath id="SVGID_22_">
		<use xlink:href="#SVGID_21_"  style="overflow:visible;"/>
	</clipPath>
	<rect x="18" y="42.2" style="clip-path:url(#SVGID_22_);fill:#FEFEFE;" width="20.5" height="19.8"/>
</g>
<g>
	<defs>
		<polygon id="SVGID_23_" points="34.9,23.2 45.5,23.2 45.5,33.8 		"/>
	</defs>
	<clipPath id="SVGID_24_">
		<use xlink:href="#SVGID_23_"  style="overflow:visible;"/>
	</clipPath>
	<rect x="29.9" y="18.2" style="clip-path:url(#SVGID_24_);fill:#FEFEFE;" width="20.5" height="20.6"/>
</g>
<g>
	<defs>
		<path id="SVGID_25_" d="M56.6,28.5c0-2.9-2.4-5.3-5.3-5.3h-4.4v10.6h4.4C54.2,33.8,56.6,31.4,56.6,28.5"/>
	</defs>
	<clipPath id="SVGID_26_">
		<use xlink:href="#SVGID_25_"  style="overflow:visible;"/>
	</clipPath>
	<rect x="41.9" y="18.2" style="clip-path:url(#SVGID_26_);fill:#FEFEFE;" width="19.7" height="20.6"/>
</g>
<g>
	<defs>
		<polygon id="SVGID_27_" points="21.6,33.8 11.1,33.8 11.1,23.2 		"/>
	</defs>
	<clipPath id="SVGID_28_">
		<use xlink:href="#SVGID_27_"  style="overflow:visible;"/>
	</clipPath>
	<rect x="6.1" y="18.2" style="clip-path:url(#SVGID_28_);fill:#FEFEFE;" width="20.5" height="20.6"/>
</g>
<g>
	<defs>
		<path id="SVGID_29_" d="M0,28.5c0,2.9,2.4,5.3,5.3,5.3h4.4V23.2H5.3C2.4,23.2,0,25.5,0,28.5"/>
	</defs>
	<clipPath id="SVGID_30_">
		<use xlink:href="#SVGID_29_"  style="overflow:visible;"/>
	</clipPath>
	<rect x="-5" y="18.2" style="clip-path:url(#SVGID_30_);fill:#FEFEFE;" width="19.7" height="20.6"/>
</g>
<g>
	<defs>
		<rect id="SVGID_31_" x="23" y="23.2" width="10.5" height="10.6"/>
	</defs>
	<clipPath id="SVGID_32_">
		<use xlink:href="#SVGID_31_"  style="overflow:visible;"/>
	</clipPath>
	<rect x="18" y="18.2" style="clip-path:url(#SVGID_32_);fill:#E6B10E;" width="20.5" height="20.6"/>
</g>
<g>
	<defs>
		<path id="SVGID_33_" d="M205.3,21.9c-0.2,0-0.3,0-0.5,0c-4,0-7.9,2.3-9,5.4v-5.2h-2.1v25.1h2.1V33.5c0.2-3.8,1-5.3,2.7-7.1
			c2.7-2.7,5.8-2.5,6.7-2.4l0.2,0v-2.1L205.3,21.9z"/>
	</defs>
	<clipPath id="SVGID_34_">
		<use xlink:href="#SVGID_33_"  style="overflow:visible;"/>
	</clipPath>
	<rect x="188.7" y="16.9" style="clip-path:url(#SVGID_34_);fill:#FEFEFE;" width="21.7" height="35.3"/>
</g>
<g>
	<defs>
		<path id="SVGID_35_" d="M226.5,24c-1.9-2-4.5-3.1-7.8-3.1c-2.9,0-5.4,1-7.3,3c-2.4,2.5-3.8,6.3-3.7,10.6c-0.1,3.9,1.2,7.4,3.4,9.7
			c1.9,2,4.6,3,7.6,3c6,0,9.8-3.2,10.8-9.1l0-0.2h-2.1l0,0.1c-0.9,4.6-4.1,7.3-8.7,7.3c-2.4,0-4.4-0.8-6-2.4c-1.9-2-3-5-3-8.5h19.9
			l0-0.1C229.9,30,228.7,26.4,226.5,24 M227.6,32.5h-17.8c0.4-4.9,3.6-9.8,8.9-9.8C224.3,22.8,227.4,27.7,227.6,32.5"/>
	</defs>
	<clipPath id="SVGID_36_">
		<use xlink:href="#SVGID_35_"  style="overflow:visible;"/>
	</clipPath>
	<rect x="202.6" y="15.9" style="clip-path:url(#SVGID_36_);fill:#FEFEFE;" width="32" height="36.3"/>
</g>
<g>
	<defs>
		<path id="SVGID_37_" d="M245.5,32.7c-0.3-0.1-0.5-0.1-0.8-0.2c-3.8-0.8-7.3-1.6-7.3-5.2c0-2.2,1.8-4.6,7-4.6
			c2.7,0,7.1,0.8,7.2,6.2l0,0.1h2.1V29c0-5.2-3.3-8.1-9.3-8.1c-2.1,0-9.1,0.5-9.1,6.5c0,5.4,5,6.4,8.6,7.2l0.7,0.1
			c4,0.8,7.7,1.6,7.7,5.4c0,4.8-5.9,5.1-7.7,5.1c-4.6,0-7.8-2.8-8-7.1l0-0.1h-2.1l0,0.1c0.1,5.5,4,9,10.1,9c2.5,0,4.9-0.5,6.5-1.4
			c2.2-1.2,3.3-3.1,3.3-5.6C254.3,34.8,250.3,33.6,245.5,32.7"/>
	</defs>
	<clipPath id="SVGID_38_">
		<use xlink:href="#SVGID_37_"  style="overflow:visible;"/>
	</clipPath>
	<rect x="229.4" y="15.9" style="clip-path:url(#SVGID_38_);fill:#FEFEFE;" width="29.9" height="36.3"/>
</g>
<g>
	<defs>
		<path id="SVGID_39_" d="M270.4,20.9c-6.8,0-11.5,5.4-11.5,13.1c0,7.7,4.7,13.1,11.5,13.1c6.7,0,11.5-5.4,11.5-13.1
			C281.9,26.3,277.2,20.9,270.4,20.9 M279.8,34c0,5.4-2.9,11.3-9.4,11.3c-6.4,0-9.4-5.8-9.4-11.3c0-5.4,2.9-11.3,9.4-11.3
			C276.9,22.8,279.8,28.6,279.8,34"/>
	</defs>
	<clipPath id="SVGID_40_">
		<use xlink:href="#SVGID_39_"  style="overflow:visible;"/>
	</clipPath>
	<rect x="254" y="15.9" style="clip-path:url(#SVGID_40_);fill:#FEFEFE;" width="32.9" height="36.3"/>
</g>
<g>
	<defs>
		<path id="SVGID_41_" d="M299.2,21.9c-4.2-0.2-8.3,2.2-9.5,5.4v-5.2h-2.1v25.1h2.1V33.5c0.2-3.8,1-5.3,2.7-7.1
			c2.7-2.6,5.8-2.5,6.7-2.4l0.2,0v-2.1L299.2,21.9z"/>
	</defs>
	<clipPath id="SVGID_42_">
		<use xlink:href="#SVGID_41_"  style="overflow:visible;"/>
	</clipPath>
	<rect x="282.6" y="16.9" style="clip-path:url(#SVGID_42_);fill:#FEFEFE;" width="21.7" height="35.2"/>
</g>
<g>
	<defs>
		<path id="SVGID_43_" d="M313.9,23.9V22h-5.4v-7.7h-2.1V22h-4.6v1.9h4.6v17.2c-0.1,2.1,0.4,3.7,1.4,4.7c1.2,1.1,2.9,1.4,4.6,1.4
			c0.4,0,0.9,0,1.3,0l0.1,0v-1.9l-0.1,0c-2.1,0.1-3.4-0.1-4.2-0.9c-0.6-0.6-0.9-1.7-0.9-3.3V23.9H313.9z"/>
	</defs>
	<clipPath id="SVGID_44_">
		<use xlink:href="#SVGID_43_"  style="overflow:visible;"/>
	</clipPath>
	<rect x="296.8" y="9.3" style="clip-path:url(#SVGID_44_);fill:#FEFEFE;" width="22" height="42.9"/>
</g>
</svg>
